%TF.GenerationSoftware,KiCad,Pcbnew,7.0.5*%
%TF.CreationDate,2023-08-21T09:13:57+09:00*%
%TF.ProjectId,How to make PCB,486f7720-746f-4206-9d61-6b6520504342,rev?*%
%TF.SameCoordinates,Original*%
%TF.FileFunction,Legend,Top*%
%TF.FilePolarity,Positive*%
%FSLAX46Y46*%
G04 Gerber Fmt 4.6, Leading zero omitted, Abs format (unit mm)*
G04 Created by KiCad (PCBNEW 7.0.5) date 2023-08-21 09:13:57*
%MOMM*%
%LPD*%
G01*
G04 APERTURE LIST*
%ADD10C,0.150000*%
%ADD11C,0.010000*%
%ADD12C,0.120000*%
G04 APERTURE END LIST*
D10*
X94435826Y-65848628D02*
X94435826Y-64348628D01*
X94435826Y-65062914D02*
X95292969Y-65062914D01*
X95292969Y-65848628D02*
X95292969Y-64348628D01*
X96221541Y-65848628D02*
X96078684Y-65777200D01*
X96078684Y-65777200D02*
X96007255Y-65705771D01*
X96007255Y-65705771D02*
X95935827Y-65562914D01*
X95935827Y-65562914D02*
X95935827Y-65134342D01*
X95935827Y-65134342D02*
X96007255Y-64991485D01*
X96007255Y-64991485D02*
X96078684Y-64920057D01*
X96078684Y-64920057D02*
X96221541Y-64848628D01*
X96221541Y-64848628D02*
X96435827Y-64848628D01*
X96435827Y-64848628D02*
X96578684Y-64920057D01*
X96578684Y-64920057D02*
X96650113Y-64991485D01*
X96650113Y-64991485D02*
X96721541Y-65134342D01*
X96721541Y-65134342D02*
X96721541Y-65562914D01*
X96721541Y-65562914D02*
X96650113Y-65705771D01*
X96650113Y-65705771D02*
X96578684Y-65777200D01*
X96578684Y-65777200D02*
X96435827Y-65848628D01*
X96435827Y-65848628D02*
X96221541Y-65848628D01*
X97221541Y-64848628D02*
X97507256Y-65848628D01*
X97507256Y-65848628D02*
X97792970Y-65134342D01*
X97792970Y-65134342D02*
X98078684Y-65848628D01*
X98078684Y-65848628D02*
X98364398Y-64848628D01*
X99864399Y-64848628D02*
X100435827Y-64848628D01*
X100078684Y-64348628D02*
X100078684Y-65634342D01*
X100078684Y-65634342D02*
X100150113Y-65777200D01*
X100150113Y-65777200D02*
X100292970Y-65848628D01*
X100292970Y-65848628D02*
X100435827Y-65848628D01*
X101150113Y-65848628D02*
X101007256Y-65777200D01*
X101007256Y-65777200D02*
X100935827Y-65705771D01*
X100935827Y-65705771D02*
X100864399Y-65562914D01*
X100864399Y-65562914D02*
X100864399Y-65134342D01*
X100864399Y-65134342D02*
X100935827Y-64991485D01*
X100935827Y-64991485D02*
X101007256Y-64920057D01*
X101007256Y-64920057D02*
X101150113Y-64848628D01*
X101150113Y-64848628D02*
X101364399Y-64848628D01*
X101364399Y-64848628D02*
X101507256Y-64920057D01*
X101507256Y-64920057D02*
X101578685Y-64991485D01*
X101578685Y-64991485D02*
X101650113Y-65134342D01*
X101650113Y-65134342D02*
X101650113Y-65562914D01*
X101650113Y-65562914D02*
X101578685Y-65705771D01*
X101578685Y-65705771D02*
X101507256Y-65777200D01*
X101507256Y-65777200D02*
X101364399Y-65848628D01*
X101364399Y-65848628D02*
X101150113Y-65848628D01*
X103435827Y-65848628D02*
X103435827Y-64848628D01*
X103435827Y-64991485D02*
X103507256Y-64920057D01*
X103507256Y-64920057D02*
X103650113Y-64848628D01*
X103650113Y-64848628D02*
X103864399Y-64848628D01*
X103864399Y-64848628D02*
X104007256Y-64920057D01*
X104007256Y-64920057D02*
X104078685Y-65062914D01*
X104078685Y-65062914D02*
X104078685Y-65848628D01*
X104078685Y-65062914D02*
X104150113Y-64920057D01*
X104150113Y-64920057D02*
X104292970Y-64848628D01*
X104292970Y-64848628D02*
X104507256Y-64848628D01*
X104507256Y-64848628D02*
X104650113Y-64920057D01*
X104650113Y-64920057D02*
X104721542Y-65062914D01*
X104721542Y-65062914D02*
X104721542Y-65848628D01*
X106078685Y-65848628D02*
X106078685Y-65062914D01*
X106078685Y-65062914D02*
X106007256Y-64920057D01*
X106007256Y-64920057D02*
X105864399Y-64848628D01*
X105864399Y-64848628D02*
X105578685Y-64848628D01*
X105578685Y-64848628D02*
X105435827Y-64920057D01*
X106078685Y-65777200D02*
X105935827Y-65848628D01*
X105935827Y-65848628D02*
X105578685Y-65848628D01*
X105578685Y-65848628D02*
X105435827Y-65777200D01*
X105435827Y-65777200D02*
X105364399Y-65634342D01*
X105364399Y-65634342D02*
X105364399Y-65491485D01*
X105364399Y-65491485D02*
X105435827Y-65348628D01*
X105435827Y-65348628D02*
X105578685Y-65277200D01*
X105578685Y-65277200D02*
X105935827Y-65277200D01*
X105935827Y-65277200D02*
X106078685Y-65205771D01*
X106792970Y-65848628D02*
X106792970Y-64348628D01*
X106935828Y-65277200D02*
X107364399Y-65848628D01*
X107364399Y-64848628D02*
X106792970Y-65420057D01*
X108578685Y-65777200D02*
X108435828Y-65848628D01*
X108435828Y-65848628D02*
X108150114Y-65848628D01*
X108150114Y-65848628D02*
X108007256Y-65777200D01*
X108007256Y-65777200D02*
X107935828Y-65634342D01*
X107935828Y-65634342D02*
X107935828Y-65062914D01*
X107935828Y-65062914D02*
X108007256Y-64920057D01*
X108007256Y-64920057D02*
X108150114Y-64848628D01*
X108150114Y-64848628D02*
X108435828Y-64848628D01*
X108435828Y-64848628D02*
X108578685Y-64920057D01*
X108578685Y-64920057D02*
X108650114Y-65062914D01*
X108650114Y-65062914D02*
X108650114Y-65205771D01*
X108650114Y-65205771D02*
X107935828Y-65348628D01*
X110435827Y-65848628D02*
X110435827Y-64348628D01*
X110435827Y-64348628D02*
X111007256Y-64348628D01*
X111007256Y-64348628D02*
X111150113Y-64420057D01*
X111150113Y-64420057D02*
X111221542Y-64491485D01*
X111221542Y-64491485D02*
X111292970Y-64634342D01*
X111292970Y-64634342D02*
X111292970Y-64848628D01*
X111292970Y-64848628D02*
X111221542Y-64991485D01*
X111221542Y-64991485D02*
X111150113Y-65062914D01*
X111150113Y-65062914D02*
X111007256Y-65134342D01*
X111007256Y-65134342D02*
X110435827Y-65134342D01*
X112792970Y-65705771D02*
X112721542Y-65777200D01*
X112721542Y-65777200D02*
X112507256Y-65848628D01*
X112507256Y-65848628D02*
X112364399Y-65848628D01*
X112364399Y-65848628D02*
X112150113Y-65777200D01*
X112150113Y-65777200D02*
X112007256Y-65634342D01*
X112007256Y-65634342D02*
X111935827Y-65491485D01*
X111935827Y-65491485D02*
X111864399Y-65205771D01*
X111864399Y-65205771D02*
X111864399Y-64991485D01*
X111864399Y-64991485D02*
X111935827Y-64705771D01*
X111935827Y-64705771D02*
X112007256Y-64562914D01*
X112007256Y-64562914D02*
X112150113Y-64420057D01*
X112150113Y-64420057D02*
X112364399Y-64348628D01*
X112364399Y-64348628D02*
X112507256Y-64348628D01*
X112507256Y-64348628D02*
X112721542Y-64420057D01*
X112721542Y-64420057D02*
X112792970Y-64491485D01*
X113935827Y-65062914D02*
X114150113Y-65134342D01*
X114150113Y-65134342D02*
X114221542Y-65205771D01*
X114221542Y-65205771D02*
X114292970Y-65348628D01*
X114292970Y-65348628D02*
X114292970Y-65562914D01*
X114292970Y-65562914D02*
X114221542Y-65705771D01*
X114221542Y-65705771D02*
X114150113Y-65777200D01*
X114150113Y-65777200D02*
X114007256Y-65848628D01*
X114007256Y-65848628D02*
X113435827Y-65848628D01*
X113435827Y-65848628D02*
X113435827Y-64348628D01*
X113435827Y-64348628D02*
X113935827Y-64348628D01*
X113935827Y-64348628D02*
X114078685Y-64420057D01*
X114078685Y-64420057D02*
X114150113Y-64491485D01*
X114150113Y-64491485D02*
X114221542Y-64634342D01*
X114221542Y-64634342D02*
X114221542Y-64777200D01*
X114221542Y-64777200D02*
X114150113Y-64920057D01*
X114150113Y-64920057D02*
X114078685Y-64991485D01*
X114078685Y-64991485D02*
X113935827Y-65062914D01*
X113935827Y-65062914D02*
X113435827Y-65062914D01*
%TO.C,REF\u002A\u002A*%
X85026666Y-64834819D02*
X84693333Y-64358628D01*
X84455238Y-64834819D02*
X84455238Y-63834819D01*
X84455238Y-63834819D02*
X84836190Y-63834819D01*
X84836190Y-63834819D02*
X84931428Y-63882438D01*
X84931428Y-63882438D02*
X84979047Y-63930057D01*
X84979047Y-63930057D02*
X85026666Y-64025295D01*
X85026666Y-64025295D02*
X85026666Y-64168152D01*
X85026666Y-64168152D02*
X84979047Y-64263390D01*
X84979047Y-64263390D02*
X84931428Y-64311009D01*
X84931428Y-64311009D02*
X84836190Y-64358628D01*
X84836190Y-64358628D02*
X84455238Y-64358628D01*
X85455238Y-64311009D02*
X85788571Y-64311009D01*
X85931428Y-64834819D02*
X85455238Y-64834819D01*
X85455238Y-64834819D02*
X85455238Y-63834819D01*
X85455238Y-63834819D02*
X85931428Y-63834819D01*
X86693333Y-64311009D02*
X86360000Y-64311009D01*
X86360000Y-64834819D02*
X86360000Y-63834819D01*
X86360000Y-63834819D02*
X86836190Y-63834819D01*
X87360000Y-63834819D02*
X87360000Y-64072914D01*
X87121905Y-63977676D02*
X87360000Y-64072914D01*
X87360000Y-64072914D02*
X87598095Y-63977676D01*
X87217143Y-64263390D02*
X87360000Y-64072914D01*
X87360000Y-64072914D02*
X87502857Y-64263390D01*
X88121905Y-63834819D02*
X88121905Y-64072914D01*
X87883810Y-63977676D02*
X88121905Y-64072914D01*
X88121905Y-64072914D02*
X88360000Y-63977676D01*
X87979048Y-64263390D02*
X88121905Y-64072914D01*
X88121905Y-64072914D02*
X88264762Y-64263390D01*
%TO.C,R2*%
X103413333Y-71574819D02*
X103080000Y-71098628D01*
X102841905Y-71574819D02*
X102841905Y-70574819D01*
X102841905Y-70574819D02*
X103222857Y-70574819D01*
X103222857Y-70574819D02*
X103318095Y-70622438D01*
X103318095Y-70622438D02*
X103365714Y-70670057D01*
X103365714Y-70670057D02*
X103413333Y-70765295D01*
X103413333Y-70765295D02*
X103413333Y-70908152D01*
X103413333Y-70908152D02*
X103365714Y-71003390D01*
X103365714Y-71003390D02*
X103318095Y-71051009D01*
X103318095Y-71051009D02*
X103222857Y-71098628D01*
X103222857Y-71098628D02*
X102841905Y-71098628D01*
X103794286Y-70670057D02*
X103841905Y-70622438D01*
X103841905Y-70622438D02*
X103937143Y-70574819D01*
X103937143Y-70574819D02*
X104175238Y-70574819D01*
X104175238Y-70574819D02*
X104270476Y-70622438D01*
X104270476Y-70622438D02*
X104318095Y-70670057D01*
X104318095Y-70670057D02*
X104365714Y-70765295D01*
X104365714Y-70765295D02*
X104365714Y-70860533D01*
X104365714Y-70860533D02*
X104318095Y-71003390D01*
X104318095Y-71003390D02*
X103746667Y-71574819D01*
X103746667Y-71574819D02*
X104365714Y-71574819D01*
%TO.C,C1*%
X112883333Y-86719580D02*
X112835714Y-86767200D01*
X112835714Y-86767200D02*
X112692857Y-86814819D01*
X112692857Y-86814819D02*
X112597619Y-86814819D01*
X112597619Y-86814819D02*
X112454762Y-86767200D01*
X112454762Y-86767200D02*
X112359524Y-86671961D01*
X112359524Y-86671961D02*
X112311905Y-86576723D01*
X112311905Y-86576723D02*
X112264286Y-86386247D01*
X112264286Y-86386247D02*
X112264286Y-86243390D01*
X112264286Y-86243390D02*
X112311905Y-86052914D01*
X112311905Y-86052914D02*
X112359524Y-85957676D01*
X112359524Y-85957676D02*
X112454762Y-85862438D01*
X112454762Y-85862438D02*
X112597619Y-85814819D01*
X112597619Y-85814819D02*
X112692857Y-85814819D01*
X112692857Y-85814819D02*
X112835714Y-85862438D01*
X112835714Y-85862438D02*
X112883333Y-85910057D01*
X113835714Y-86814819D02*
X113264286Y-86814819D01*
X113550000Y-86814819D02*
X113550000Y-85814819D01*
X113550000Y-85814819D02*
X113454762Y-85957676D01*
X113454762Y-85957676D02*
X113359524Y-86052914D01*
X113359524Y-86052914D02*
X113264286Y-86100533D01*
%TO.C,REF\u002A\u002A*%
X120586666Y-64834819D02*
X120253333Y-64358628D01*
X120015238Y-64834819D02*
X120015238Y-63834819D01*
X120015238Y-63834819D02*
X120396190Y-63834819D01*
X120396190Y-63834819D02*
X120491428Y-63882438D01*
X120491428Y-63882438D02*
X120539047Y-63930057D01*
X120539047Y-63930057D02*
X120586666Y-64025295D01*
X120586666Y-64025295D02*
X120586666Y-64168152D01*
X120586666Y-64168152D02*
X120539047Y-64263390D01*
X120539047Y-64263390D02*
X120491428Y-64311009D01*
X120491428Y-64311009D02*
X120396190Y-64358628D01*
X120396190Y-64358628D02*
X120015238Y-64358628D01*
X121015238Y-64311009D02*
X121348571Y-64311009D01*
X121491428Y-64834819D02*
X121015238Y-64834819D01*
X121015238Y-64834819D02*
X121015238Y-63834819D01*
X121015238Y-63834819D02*
X121491428Y-63834819D01*
X122253333Y-64311009D02*
X121920000Y-64311009D01*
X121920000Y-64834819D02*
X121920000Y-63834819D01*
X121920000Y-63834819D02*
X122396190Y-63834819D01*
X122920000Y-63834819D02*
X122920000Y-64072914D01*
X122681905Y-63977676D02*
X122920000Y-64072914D01*
X122920000Y-64072914D02*
X123158095Y-63977676D01*
X122777143Y-64263390D02*
X122920000Y-64072914D01*
X122920000Y-64072914D02*
X123062857Y-64263390D01*
X123681905Y-63834819D02*
X123681905Y-64072914D01*
X123443810Y-63977676D02*
X123681905Y-64072914D01*
X123681905Y-64072914D02*
X123920000Y-63977676D01*
X123539048Y-64263390D02*
X123681905Y-64072914D01*
X123681905Y-64072914D02*
X123824762Y-64263390D01*
%TO.C,J1*%
X88354819Y-81613333D02*
X89069104Y-81613333D01*
X89069104Y-81613333D02*
X89211961Y-81660952D01*
X89211961Y-81660952D02*
X89307200Y-81756190D01*
X89307200Y-81756190D02*
X89354819Y-81899047D01*
X89354819Y-81899047D02*
X89354819Y-81994285D01*
X89354819Y-80613333D02*
X89354819Y-81184761D01*
X89354819Y-80899047D02*
X88354819Y-80899047D01*
X88354819Y-80899047D02*
X88497676Y-80994285D01*
X88497676Y-80994285D02*
X88592914Y-81089523D01*
X88592914Y-81089523D02*
X88640533Y-81184761D01*
%TO.C,D1*%
X112254819Y-80748094D02*
X111254819Y-80748094D01*
X111254819Y-80748094D02*
X111254819Y-80509999D01*
X111254819Y-80509999D02*
X111302438Y-80367142D01*
X111302438Y-80367142D02*
X111397676Y-80271904D01*
X111397676Y-80271904D02*
X111492914Y-80224285D01*
X111492914Y-80224285D02*
X111683390Y-80176666D01*
X111683390Y-80176666D02*
X111826247Y-80176666D01*
X111826247Y-80176666D02*
X112016723Y-80224285D01*
X112016723Y-80224285D02*
X112111961Y-80271904D01*
X112111961Y-80271904D02*
X112207200Y-80367142D01*
X112207200Y-80367142D02*
X112254819Y-80509999D01*
X112254819Y-80509999D02*
X112254819Y-80748094D01*
X112254819Y-79224285D02*
X112254819Y-79795713D01*
X112254819Y-79509999D02*
X111254819Y-79509999D01*
X111254819Y-79509999D02*
X111397676Y-79605237D01*
X111397676Y-79605237D02*
X111492914Y-79700475D01*
X111492914Y-79700475D02*
X111540533Y-79795713D01*
%TO.C,R1*%
X94434819Y-78346666D02*
X93958628Y-78679999D01*
X94434819Y-78918094D02*
X93434819Y-78918094D01*
X93434819Y-78918094D02*
X93434819Y-78537142D01*
X93434819Y-78537142D02*
X93482438Y-78441904D01*
X93482438Y-78441904D02*
X93530057Y-78394285D01*
X93530057Y-78394285D02*
X93625295Y-78346666D01*
X93625295Y-78346666D02*
X93768152Y-78346666D01*
X93768152Y-78346666D02*
X93863390Y-78394285D01*
X93863390Y-78394285D02*
X93911009Y-78441904D01*
X93911009Y-78441904D02*
X93958628Y-78537142D01*
X93958628Y-78537142D02*
X93958628Y-78918094D01*
X94434819Y-77394285D02*
X94434819Y-77965713D01*
X94434819Y-77679999D02*
X93434819Y-77679999D01*
X93434819Y-77679999D02*
X93577676Y-77775237D01*
X93577676Y-77775237D02*
X93672914Y-77870475D01*
X93672914Y-77870475D02*
X93720533Y-77965713D01*
%TO.C,REF\u002A\u002A*%
X85026666Y-90234819D02*
X84693333Y-89758628D01*
X84455238Y-90234819D02*
X84455238Y-89234819D01*
X84455238Y-89234819D02*
X84836190Y-89234819D01*
X84836190Y-89234819D02*
X84931428Y-89282438D01*
X84931428Y-89282438D02*
X84979047Y-89330057D01*
X84979047Y-89330057D02*
X85026666Y-89425295D01*
X85026666Y-89425295D02*
X85026666Y-89568152D01*
X85026666Y-89568152D02*
X84979047Y-89663390D01*
X84979047Y-89663390D02*
X84931428Y-89711009D01*
X84931428Y-89711009D02*
X84836190Y-89758628D01*
X84836190Y-89758628D02*
X84455238Y-89758628D01*
X85455238Y-89711009D02*
X85788571Y-89711009D01*
X85931428Y-90234819D02*
X85455238Y-90234819D01*
X85455238Y-90234819D02*
X85455238Y-89234819D01*
X85455238Y-89234819D02*
X85931428Y-89234819D01*
X86693333Y-89711009D02*
X86360000Y-89711009D01*
X86360000Y-90234819D02*
X86360000Y-89234819D01*
X86360000Y-89234819D02*
X86836190Y-89234819D01*
X87360000Y-89234819D02*
X87360000Y-89472914D01*
X87121905Y-89377676D02*
X87360000Y-89472914D01*
X87360000Y-89472914D02*
X87598095Y-89377676D01*
X87217143Y-89663390D02*
X87360000Y-89472914D01*
X87360000Y-89472914D02*
X87502857Y-89663390D01*
X88121905Y-89234819D02*
X88121905Y-89472914D01*
X87883810Y-89377676D02*
X88121905Y-89472914D01*
X88121905Y-89472914D02*
X88360000Y-89377676D01*
X87979048Y-89663390D02*
X88121905Y-89472914D01*
X88121905Y-89472914D02*
X88264762Y-89663390D01*
%TO.C,R3*%
X103973333Y-76654819D02*
X103640000Y-76178628D01*
X103401905Y-76654819D02*
X103401905Y-75654819D01*
X103401905Y-75654819D02*
X103782857Y-75654819D01*
X103782857Y-75654819D02*
X103878095Y-75702438D01*
X103878095Y-75702438D02*
X103925714Y-75750057D01*
X103925714Y-75750057D02*
X103973333Y-75845295D01*
X103973333Y-75845295D02*
X103973333Y-75988152D01*
X103973333Y-75988152D02*
X103925714Y-76083390D01*
X103925714Y-76083390D02*
X103878095Y-76131009D01*
X103878095Y-76131009D02*
X103782857Y-76178628D01*
X103782857Y-76178628D02*
X103401905Y-76178628D01*
X104306667Y-75654819D02*
X104925714Y-75654819D01*
X104925714Y-75654819D02*
X104592381Y-76035771D01*
X104592381Y-76035771D02*
X104735238Y-76035771D01*
X104735238Y-76035771D02*
X104830476Y-76083390D01*
X104830476Y-76083390D02*
X104878095Y-76131009D01*
X104878095Y-76131009D02*
X104925714Y-76226247D01*
X104925714Y-76226247D02*
X104925714Y-76464342D01*
X104925714Y-76464342D02*
X104878095Y-76559580D01*
X104878095Y-76559580D02*
X104830476Y-76607200D01*
X104830476Y-76607200D02*
X104735238Y-76654819D01*
X104735238Y-76654819D02*
X104449524Y-76654819D01*
X104449524Y-76654819D02*
X104354286Y-76607200D01*
X104354286Y-76607200D02*
X104306667Y-76559580D01*
%TO.C,REF\u002A\u002A*%
X120586666Y-90234819D02*
X120253333Y-89758628D01*
X120015238Y-90234819D02*
X120015238Y-89234819D01*
X120015238Y-89234819D02*
X120396190Y-89234819D01*
X120396190Y-89234819D02*
X120491428Y-89282438D01*
X120491428Y-89282438D02*
X120539047Y-89330057D01*
X120539047Y-89330057D02*
X120586666Y-89425295D01*
X120586666Y-89425295D02*
X120586666Y-89568152D01*
X120586666Y-89568152D02*
X120539047Y-89663390D01*
X120539047Y-89663390D02*
X120491428Y-89711009D01*
X120491428Y-89711009D02*
X120396190Y-89758628D01*
X120396190Y-89758628D02*
X120015238Y-89758628D01*
X121015238Y-89711009D02*
X121348571Y-89711009D01*
X121491428Y-90234819D02*
X121015238Y-90234819D01*
X121015238Y-90234819D02*
X121015238Y-89234819D01*
X121015238Y-89234819D02*
X121491428Y-89234819D01*
X122253333Y-89711009D02*
X121920000Y-89711009D01*
X121920000Y-90234819D02*
X121920000Y-89234819D01*
X121920000Y-89234819D02*
X122396190Y-89234819D01*
X122920000Y-89234819D02*
X122920000Y-89472914D01*
X122681905Y-89377676D02*
X122920000Y-89472914D01*
X122920000Y-89472914D02*
X123158095Y-89377676D01*
X122777143Y-89663390D02*
X122920000Y-89472914D01*
X122920000Y-89472914D02*
X123062857Y-89663390D01*
X123681905Y-89234819D02*
X123681905Y-89472914D01*
X123443810Y-89377676D02*
X123681905Y-89472914D01*
X123681905Y-89472914D02*
X123920000Y-89377676D01*
X123539048Y-89663390D02*
X123681905Y-89472914D01*
X123681905Y-89472914D02*
X123824762Y-89663390D01*
%TO.C,U1*%
X101948095Y-81924819D02*
X101948095Y-82734342D01*
X101948095Y-82734342D02*
X101995714Y-82829580D01*
X101995714Y-82829580D02*
X102043333Y-82877200D01*
X102043333Y-82877200D02*
X102138571Y-82924819D01*
X102138571Y-82924819D02*
X102329047Y-82924819D01*
X102329047Y-82924819D02*
X102424285Y-82877200D01*
X102424285Y-82877200D02*
X102471904Y-82829580D01*
X102471904Y-82829580D02*
X102519523Y-82734342D01*
X102519523Y-82734342D02*
X102519523Y-81924819D01*
X103519523Y-82924819D02*
X102948095Y-82924819D01*
X103233809Y-82924819D02*
X103233809Y-81924819D01*
X103233809Y-81924819D02*
X103138571Y-82067676D01*
X103138571Y-82067676D02*
X103043333Y-82162914D01*
X103043333Y-82162914D02*
X102948095Y-82210533D01*
%TO.C,REF\u002A\u002A*%
D11*
X110326507Y-93452245D02*
X110326526Y-93686662D01*
X110326552Y-93899603D01*
X110326625Y-94092168D01*
X110326782Y-94265459D01*
X110327064Y-94420576D01*
X110327509Y-94558620D01*
X110328156Y-94680692D01*
X110329045Y-94787894D01*
X110330213Y-94881326D01*
X110331701Y-94962090D01*
X110333546Y-95031286D01*
X110335789Y-95090015D01*
X110338469Y-95139379D01*
X110341623Y-95180478D01*
X110345292Y-95214413D01*
X110349513Y-95242286D01*
X110354327Y-95265198D01*
X110359773Y-95284249D01*
X110365888Y-95300540D01*
X110372712Y-95315173D01*
X110380285Y-95329249D01*
X110388645Y-95343868D01*
X110393839Y-95352974D01*
X110428104Y-95413689D01*
X109569955Y-95413689D01*
X109569955Y-95317733D01*
X109569224Y-95274370D01*
X109567272Y-95241205D01*
X109564463Y-95223424D01*
X109563221Y-95221778D01*
X109551799Y-95228662D01*
X109529084Y-95246505D01*
X109506385Y-95265879D01*
X109451800Y-95306614D01*
X109382321Y-95347617D01*
X109305270Y-95385123D01*
X109227965Y-95415364D01*
X109197113Y-95425012D01*
X109128616Y-95439578D01*
X109045764Y-95449539D01*
X108956371Y-95454583D01*
X108868248Y-95454396D01*
X108789207Y-95448666D01*
X108751511Y-95442858D01*
X108613414Y-95404797D01*
X108486113Y-95347073D01*
X108370292Y-95270211D01*
X108266637Y-95174739D01*
X108175833Y-95061179D01*
X108109031Y-94950381D01*
X108054164Y-94833625D01*
X108012163Y-94714276D01*
X107982167Y-94588283D01*
X107963311Y-94451594D01*
X107954732Y-94300158D01*
X107954006Y-94222711D01*
X107956100Y-94165934D01*
X108785217Y-94165934D01*
X108785424Y-94259002D01*
X108788337Y-94346692D01*
X108794000Y-94423772D01*
X108802455Y-94485009D01*
X108805038Y-94497350D01*
X108836840Y-94604633D01*
X108878498Y-94691658D01*
X108930363Y-94758642D01*
X108992781Y-94805805D01*
X109066100Y-94833365D01*
X109150669Y-94841541D01*
X109246835Y-94830551D01*
X109310311Y-94814829D01*
X109359454Y-94796639D01*
X109413583Y-94770791D01*
X109454244Y-94747089D01*
X109524800Y-94700721D01*
X109524800Y-93550530D01*
X109457392Y-93506962D01*
X109378867Y-93466040D01*
X109294681Y-93439389D01*
X109209557Y-93427465D01*
X109128216Y-93430722D01*
X109055380Y-93449615D01*
X109023426Y-93465184D01*
X108965501Y-93508181D01*
X108916544Y-93564953D01*
X108875390Y-93637575D01*
X108840874Y-93728121D01*
X108811833Y-93838666D01*
X108810552Y-93844533D01*
X108800381Y-93906788D01*
X108792739Y-93984594D01*
X108787670Y-94072720D01*
X108785217Y-94165934D01*
X107956100Y-94165934D01*
X107961857Y-94009895D01*
X107983802Y-93814059D01*
X108019786Y-93635332D01*
X108069759Y-93473845D01*
X108133668Y-93329726D01*
X108211462Y-93203106D01*
X108303089Y-93094115D01*
X108408497Y-93002883D01*
X108453662Y-92971932D01*
X108554611Y-92915785D01*
X108657901Y-92876174D01*
X108767989Y-92852014D01*
X108889330Y-92842219D01*
X108981836Y-92843265D01*
X109111490Y-92854231D01*
X109224084Y-92876046D01*
X109322875Y-92909714D01*
X109411121Y-92956236D01*
X109459986Y-92990448D01*
X109489353Y-93012362D01*
X109511043Y-93027333D01*
X109519253Y-93031733D01*
X109520868Y-93020904D01*
X109522159Y-92990251D01*
X109523138Y-92942526D01*
X109523817Y-92880479D01*
X109524210Y-92806862D01*
X109524330Y-92724427D01*
X109524188Y-92635925D01*
X109523797Y-92544107D01*
X109523171Y-92451724D01*
X109522320Y-92361528D01*
X109521260Y-92276271D01*
X109520001Y-92198703D01*
X109518556Y-92131576D01*
X109516938Y-92077641D01*
X109515161Y-92039650D01*
X109514669Y-92032667D01*
X109507092Y-91962251D01*
X109495531Y-91907102D01*
X109477792Y-91859981D01*
X109451682Y-91813647D01*
X109445415Y-91804067D01*
X109420983Y-91767378D01*
X110326311Y-91767378D01*
X110326507Y-93452245D01*
G36*
X110326507Y-93452245D02*
G01*
X110326526Y-93686662D01*
X110326552Y-93899603D01*
X110326625Y-94092168D01*
X110326782Y-94265459D01*
X110327064Y-94420576D01*
X110327509Y-94558620D01*
X110328156Y-94680692D01*
X110329045Y-94787894D01*
X110330213Y-94881326D01*
X110331701Y-94962090D01*
X110333546Y-95031286D01*
X110335789Y-95090015D01*
X110338469Y-95139379D01*
X110341623Y-95180478D01*
X110345292Y-95214413D01*
X110349513Y-95242286D01*
X110354327Y-95265198D01*
X110359773Y-95284249D01*
X110365888Y-95300540D01*
X110372712Y-95315173D01*
X110380285Y-95329249D01*
X110388645Y-95343868D01*
X110393839Y-95352974D01*
X110428104Y-95413689D01*
X109569955Y-95413689D01*
X109569955Y-95317733D01*
X109569224Y-95274370D01*
X109567272Y-95241205D01*
X109564463Y-95223424D01*
X109563221Y-95221778D01*
X109551799Y-95228662D01*
X109529084Y-95246505D01*
X109506385Y-95265879D01*
X109451800Y-95306614D01*
X109382321Y-95347617D01*
X109305270Y-95385123D01*
X109227965Y-95415364D01*
X109197113Y-95425012D01*
X109128616Y-95439578D01*
X109045764Y-95449539D01*
X108956371Y-95454583D01*
X108868248Y-95454396D01*
X108789207Y-95448666D01*
X108751511Y-95442858D01*
X108613414Y-95404797D01*
X108486113Y-95347073D01*
X108370292Y-95270211D01*
X108266637Y-95174739D01*
X108175833Y-95061179D01*
X108109031Y-94950381D01*
X108054164Y-94833625D01*
X108012163Y-94714276D01*
X107982167Y-94588283D01*
X107963311Y-94451594D01*
X107954732Y-94300158D01*
X107954006Y-94222711D01*
X107956100Y-94165934D01*
X108785217Y-94165934D01*
X108785424Y-94259002D01*
X108788337Y-94346692D01*
X108794000Y-94423772D01*
X108802455Y-94485009D01*
X108805038Y-94497350D01*
X108836840Y-94604633D01*
X108878498Y-94691658D01*
X108930363Y-94758642D01*
X108992781Y-94805805D01*
X109066100Y-94833365D01*
X109150669Y-94841541D01*
X109246835Y-94830551D01*
X109310311Y-94814829D01*
X109359454Y-94796639D01*
X109413583Y-94770791D01*
X109454244Y-94747089D01*
X109524800Y-94700721D01*
X109524800Y-93550530D01*
X109457392Y-93506962D01*
X109378867Y-93466040D01*
X109294681Y-93439389D01*
X109209557Y-93427465D01*
X109128216Y-93430722D01*
X109055380Y-93449615D01*
X109023426Y-93465184D01*
X108965501Y-93508181D01*
X108916544Y-93564953D01*
X108875390Y-93637575D01*
X108840874Y-93728121D01*
X108811833Y-93838666D01*
X108810552Y-93844533D01*
X108800381Y-93906788D01*
X108792739Y-93984594D01*
X108787670Y-94072720D01*
X108785217Y-94165934D01*
X107956100Y-94165934D01*
X107961857Y-94009895D01*
X107983802Y-93814059D01*
X108019786Y-93635332D01*
X108069759Y-93473845D01*
X108133668Y-93329726D01*
X108211462Y-93203106D01*
X108303089Y-93094115D01*
X108408497Y-93002883D01*
X108453662Y-92971932D01*
X108554611Y-92915785D01*
X108657901Y-92876174D01*
X108767989Y-92852014D01*
X108889330Y-92842219D01*
X108981836Y-92843265D01*
X109111490Y-92854231D01*
X109224084Y-92876046D01*
X109322875Y-92909714D01*
X109411121Y-92956236D01*
X109459986Y-92990448D01*
X109489353Y-93012362D01*
X109511043Y-93027333D01*
X109519253Y-93031733D01*
X109520868Y-93020904D01*
X109522159Y-92990251D01*
X109523138Y-92942526D01*
X109523817Y-92880479D01*
X109524210Y-92806862D01*
X109524330Y-92724427D01*
X109524188Y-92635925D01*
X109523797Y-92544107D01*
X109523171Y-92451724D01*
X109522320Y-92361528D01*
X109521260Y-92276271D01*
X109520001Y-92198703D01*
X109518556Y-92131576D01*
X109516938Y-92077641D01*
X109515161Y-92039650D01*
X109514669Y-92032667D01*
X109507092Y-91962251D01*
X109495531Y-91907102D01*
X109477792Y-91859981D01*
X109451682Y-91813647D01*
X109445415Y-91804067D01*
X109420983Y-91767378D01*
X110326311Y-91767378D01*
X110326507Y-93452245D01*
G37*
X109103065Y-96249163D02*
X109181772Y-96249542D01*
X109242863Y-96250333D01*
X109288817Y-96251670D01*
X109322114Y-96253683D01*
X109345236Y-96256506D01*
X109360662Y-96260269D01*
X109370871Y-96265105D01*
X109375813Y-96268822D01*
X109401457Y-96301358D01*
X109404559Y-96335138D01*
X109388711Y-96365826D01*
X109378348Y-96378089D01*
X109367196Y-96386450D01*
X109351035Y-96391657D01*
X109325642Y-96394457D01*
X109286798Y-96395596D01*
X109230280Y-96395821D01*
X109219180Y-96395822D01*
X109073244Y-96395822D01*
X109073244Y-96666756D01*
X109073148Y-96752154D01*
X109072711Y-96817864D01*
X109071712Y-96866774D01*
X109069928Y-96901773D01*
X109067137Y-96925749D01*
X109063117Y-96941593D01*
X109057645Y-96952191D01*
X109050666Y-96960267D01*
X109017734Y-96980112D01*
X108983354Y-96978548D01*
X108952176Y-96955906D01*
X108949886Y-96953100D01*
X108942429Y-96942492D01*
X108936747Y-96930081D01*
X108932601Y-96912850D01*
X108929750Y-96887784D01*
X108927954Y-96851867D01*
X108926972Y-96802083D01*
X108926564Y-96735417D01*
X108926489Y-96659589D01*
X108926489Y-96395822D01*
X108787127Y-96395822D01*
X108727322Y-96395418D01*
X108685918Y-96393840D01*
X108658748Y-96390547D01*
X108641646Y-96384992D01*
X108630443Y-96376631D01*
X108629083Y-96375178D01*
X108612725Y-96341939D01*
X108614172Y-96304362D01*
X108632978Y-96271645D01*
X108640250Y-96265298D01*
X108649627Y-96260266D01*
X108663609Y-96256396D01*
X108684696Y-96253537D01*
X108715389Y-96251535D01*
X108758189Y-96250239D01*
X108815595Y-96249498D01*
X108890110Y-96249158D01*
X108984233Y-96249068D01*
X109004260Y-96249067D01*
X109103065Y-96249163D01*
G36*
X109103065Y-96249163D02*
G01*
X109181772Y-96249542D01*
X109242863Y-96250333D01*
X109288817Y-96251670D01*
X109322114Y-96253683D01*
X109345236Y-96256506D01*
X109360662Y-96260269D01*
X109370871Y-96265105D01*
X109375813Y-96268822D01*
X109401457Y-96301358D01*
X109404559Y-96335138D01*
X109388711Y-96365826D01*
X109378348Y-96378089D01*
X109367196Y-96386450D01*
X109351035Y-96391657D01*
X109325642Y-96394457D01*
X109286798Y-96395596D01*
X109230280Y-96395821D01*
X109219180Y-96395822D01*
X109073244Y-96395822D01*
X109073244Y-96666756D01*
X109073148Y-96752154D01*
X109072711Y-96817864D01*
X109071712Y-96866774D01*
X109069928Y-96901773D01*
X109067137Y-96925749D01*
X109063117Y-96941593D01*
X109057645Y-96952191D01*
X109050666Y-96960267D01*
X109017734Y-96980112D01*
X108983354Y-96978548D01*
X108952176Y-96955906D01*
X108949886Y-96953100D01*
X108942429Y-96942492D01*
X108936747Y-96930081D01*
X108932601Y-96912850D01*
X108929750Y-96887784D01*
X108927954Y-96851867D01*
X108926972Y-96802083D01*
X108926564Y-96735417D01*
X108926489Y-96659589D01*
X108926489Y-96395822D01*
X108787127Y-96395822D01*
X108727322Y-96395418D01*
X108685918Y-96393840D01*
X108658748Y-96390547D01*
X108641646Y-96384992D01*
X108630443Y-96376631D01*
X108629083Y-96375178D01*
X108612725Y-96341939D01*
X108614172Y-96304362D01*
X108632978Y-96271645D01*
X108640250Y-96265298D01*
X108649627Y-96260266D01*
X108663609Y-96256396D01*
X108684696Y-96253537D01*
X108715389Y-96251535D01*
X108758189Y-96250239D01*
X108815595Y-96249498D01*
X108890110Y-96249158D01*
X108984233Y-96249068D01*
X109004260Y-96249067D01*
X109103065Y-96249163D01*
G37*
X98018629Y-96249066D02*
X98058111Y-96249467D01*
X98173800Y-96252259D01*
X98270689Y-96260550D01*
X98352081Y-96275232D01*
X98421277Y-96297193D01*
X98481580Y-96327322D01*
X98536292Y-96366510D01*
X98555833Y-96383532D01*
X98588250Y-96423363D01*
X98617480Y-96477413D01*
X98640009Y-96537323D01*
X98652321Y-96594739D01*
X98653600Y-96615956D01*
X98645583Y-96674769D01*
X98624101Y-96739013D01*
X98593001Y-96799821D01*
X98556134Y-96848330D01*
X98550146Y-96854182D01*
X98499421Y-96895321D01*
X98443875Y-96927435D01*
X98380304Y-96951365D01*
X98305506Y-96967953D01*
X98216278Y-96978041D01*
X98109418Y-96982469D01*
X98060472Y-96982845D01*
X97998238Y-96982545D01*
X97954472Y-96981292D01*
X97925069Y-96978554D01*
X97905921Y-96973801D01*
X97892923Y-96966501D01*
X97885955Y-96960267D01*
X97879374Y-96952694D01*
X97874212Y-96942924D01*
X97870297Y-96928340D01*
X97867457Y-96906326D01*
X97865520Y-96874264D01*
X97864316Y-96829536D01*
X97863672Y-96769526D01*
X97863417Y-96691617D01*
X97863378Y-96615956D01*
X97863130Y-96515041D01*
X97863183Y-96434427D01*
X97864143Y-96395822D01*
X98010133Y-96395822D01*
X98010133Y-96836089D01*
X98103266Y-96836004D01*
X98159307Y-96834396D01*
X98218001Y-96830256D01*
X98266972Y-96824464D01*
X98268462Y-96824226D01*
X98347608Y-96805090D01*
X98408998Y-96775287D01*
X98455695Y-96732878D01*
X98485365Y-96686961D01*
X98503647Y-96636026D01*
X98502229Y-96588200D01*
X98481012Y-96536933D01*
X98439511Y-96483899D01*
X98382002Y-96444600D01*
X98307250Y-96418331D01*
X98257292Y-96409035D01*
X98200584Y-96402507D01*
X98140481Y-96397782D01*
X98089361Y-96395817D01*
X98086333Y-96395808D01*
X98010133Y-96395822D01*
X97864143Y-96395822D01*
X97864740Y-96371851D01*
X97869002Y-96325055D01*
X97877170Y-96291778D01*
X97890444Y-96269759D01*
X97910026Y-96256739D01*
X97937117Y-96250457D01*
X97972918Y-96248653D01*
X98018629Y-96249066D01*
G36*
X98018629Y-96249066D02*
G01*
X98058111Y-96249467D01*
X98173800Y-96252259D01*
X98270689Y-96260550D01*
X98352081Y-96275232D01*
X98421277Y-96297193D01*
X98481580Y-96327322D01*
X98536292Y-96366510D01*
X98555833Y-96383532D01*
X98588250Y-96423363D01*
X98617480Y-96477413D01*
X98640009Y-96537323D01*
X98652321Y-96594739D01*
X98653600Y-96615956D01*
X98645583Y-96674769D01*
X98624101Y-96739013D01*
X98593001Y-96799821D01*
X98556134Y-96848330D01*
X98550146Y-96854182D01*
X98499421Y-96895321D01*
X98443875Y-96927435D01*
X98380304Y-96951365D01*
X98305506Y-96967953D01*
X98216278Y-96978041D01*
X98109418Y-96982469D01*
X98060472Y-96982845D01*
X97998238Y-96982545D01*
X97954472Y-96981292D01*
X97925069Y-96978554D01*
X97905921Y-96973801D01*
X97892923Y-96966501D01*
X97885955Y-96960267D01*
X97879374Y-96952694D01*
X97874212Y-96942924D01*
X97870297Y-96928340D01*
X97867457Y-96906326D01*
X97865520Y-96874264D01*
X97864316Y-96829536D01*
X97863672Y-96769526D01*
X97863417Y-96691617D01*
X97863378Y-96615956D01*
X97863130Y-96515041D01*
X97863183Y-96434427D01*
X97864143Y-96395822D01*
X98010133Y-96395822D01*
X98010133Y-96836089D01*
X98103266Y-96836004D01*
X98159307Y-96834396D01*
X98218001Y-96830256D01*
X98266972Y-96824464D01*
X98268462Y-96824226D01*
X98347608Y-96805090D01*
X98408998Y-96775287D01*
X98455695Y-96732878D01*
X98485365Y-96686961D01*
X98503647Y-96636026D01*
X98502229Y-96588200D01*
X98481012Y-96536933D01*
X98439511Y-96483899D01*
X98382002Y-96444600D01*
X98307250Y-96418331D01*
X98257292Y-96409035D01*
X98200584Y-96402507D01*
X98140481Y-96397782D01*
X98089361Y-96395817D01*
X98086333Y-96395808D01*
X98010133Y-96395822D01*
X97864143Y-96395822D01*
X97864740Y-96371851D01*
X97869002Y-96325055D01*
X97877170Y-96291778D01*
X97890444Y-96269759D01*
X97910026Y-96256739D01*
X97937117Y-96250457D01*
X97972918Y-96248653D01*
X98018629Y-96249066D01*
G37*
X107884665Y-96251034D02*
X107904255Y-96258035D01*
X107905010Y-96258377D01*
X107931613Y-96278678D01*
X107946270Y-96299561D01*
X107949138Y-96309352D01*
X107948996Y-96322361D01*
X107944961Y-96340895D01*
X107936146Y-96367257D01*
X107921669Y-96403752D01*
X107900645Y-96452687D01*
X107872188Y-96516365D01*
X107835415Y-96597093D01*
X107815175Y-96641216D01*
X107778625Y-96719985D01*
X107744315Y-96792423D01*
X107713552Y-96855880D01*
X107687648Y-96907708D01*
X107667910Y-96945259D01*
X107655650Y-96965884D01*
X107653224Y-96968733D01*
X107622183Y-96981302D01*
X107587121Y-96979619D01*
X107559000Y-96964332D01*
X107557854Y-96963089D01*
X107546668Y-96946154D01*
X107527904Y-96913170D01*
X107503875Y-96868380D01*
X107476897Y-96816032D01*
X107467201Y-96796742D01*
X107394014Y-96650150D01*
X107314240Y-96809393D01*
X107285767Y-96864415D01*
X107259350Y-96912132D01*
X107237148Y-96948893D01*
X107221319Y-96971044D01*
X107215954Y-96975741D01*
X107174257Y-96982102D01*
X107139849Y-96968733D01*
X107129728Y-96954446D01*
X107112214Y-96922692D01*
X107088735Y-96876597D01*
X107060720Y-96819285D01*
X107029599Y-96753880D01*
X106996799Y-96683507D01*
X106963750Y-96611291D01*
X106931881Y-96540355D01*
X106902619Y-96473825D01*
X106877395Y-96414826D01*
X106857636Y-96366481D01*
X106844772Y-96331915D01*
X106840231Y-96314253D01*
X106840277Y-96313613D01*
X106851326Y-96291388D01*
X106873410Y-96268753D01*
X106874710Y-96267768D01*
X106901853Y-96252425D01*
X106926958Y-96252574D01*
X106936368Y-96255466D01*
X106947834Y-96261718D01*
X106960010Y-96274014D01*
X106974357Y-96294908D01*
X106992336Y-96326949D01*
X107015407Y-96372688D01*
X107045030Y-96434677D01*
X107071745Y-96491898D01*
X107102480Y-96558226D01*
X107130021Y-96617874D01*
X107152938Y-96667725D01*
X107169798Y-96704664D01*
X107179173Y-96725573D01*
X107180540Y-96728845D01*
X107186689Y-96723497D01*
X107200822Y-96701109D01*
X107221057Y-96664946D01*
X107245515Y-96618277D01*
X107255248Y-96599022D01*
X107288217Y-96534004D01*
X107313643Y-96486654D01*
X107333612Y-96454219D01*
X107350210Y-96433946D01*
X107365524Y-96423082D01*
X107381640Y-96418875D01*
X107392143Y-96418400D01*
X107410670Y-96420042D01*
X107426904Y-96426831D01*
X107443035Y-96441566D01*
X107461251Y-96467044D01*
X107483739Y-96506061D01*
X107512689Y-96561414D01*
X107528662Y-96592903D01*
X107554570Y-96643087D01*
X107577167Y-96684704D01*
X107594458Y-96714242D01*
X107604450Y-96728189D01*
X107605809Y-96728770D01*
X107612261Y-96717793D01*
X107626708Y-96689290D01*
X107647703Y-96646244D01*
X107673797Y-96591638D01*
X107703546Y-96528454D01*
X107718180Y-96497071D01*
X107756250Y-96416078D01*
X107786905Y-96353756D01*
X107811737Y-96308071D01*
X107832337Y-96276989D01*
X107850298Y-96258478D01*
X107867210Y-96250504D01*
X107884665Y-96251034D01*
G36*
X107884665Y-96251034D02*
G01*
X107904255Y-96258035D01*
X107905010Y-96258377D01*
X107931613Y-96278678D01*
X107946270Y-96299561D01*
X107949138Y-96309352D01*
X107948996Y-96322361D01*
X107944961Y-96340895D01*
X107936146Y-96367257D01*
X107921669Y-96403752D01*
X107900645Y-96452687D01*
X107872188Y-96516365D01*
X107835415Y-96597093D01*
X107815175Y-96641216D01*
X107778625Y-96719985D01*
X107744315Y-96792423D01*
X107713552Y-96855880D01*
X107687648Y-96907708D01*
X107667910Y-96945259D01*
X107655650Y-96965884D01*
X107653224Y-96968733D01*
X107622183Y-96981302D01*
X107587121Y-96979619D01*
X107559000Y-96964332D01*
X107557854Y-96963089D01*
X107546668Y-96946154D01*
X107527904Y-96913170D01*
X107503875Y-96868380D01*
X107476897Y-96816032D01*
X107467201Y-96796742D01*
X107394014Y-96650150D01*
X107314240Y-96809393D01*
X107285767Y-96864415D01*
X107259350Y-96912132D01*
X107237148Y-96948893D01*
X107221319Y-96971044D01*
X107215954Y-96975741D01*
X107174257Y-96982102D01*
X107139849Y-96968733D01*
X107129728Y-96954446D01*
X107112214Y-96922692D01*
X107088735Y-96876597D01*
X107060720Y-96819285D01*
X107029599Y-96753880D01*
X106996799Y-96683507D01*
X106963750Y-96611291D01*
X106931881Y-96540355D01*
X106902619Y-96473825D01*
X106877395Y-96414826D01*
X106857636Y-96366481D01*
X106844772Y-96331915D01*
X106840231Y-96314253D01*
X106840277Y-96313613D01*
X106851326Y-96291388D01*
X106873410Y-96268753D01*
X106874710Y-96267768D01*
X106901853Y-96252425D01*
X106926958Y-96252574D01*
X106936368Y-96255466D01*
X106947834Y-96261718D01*
X106960010Y-96274014D01*
X106974357Y-96294908D01*
X106992336Y-96326949D01*
X107015407Y-96372688D01*
X107045030Y-96434677D01*
X107071745Y-96491898D01*
X107102480Y-96558226D01*
X107130021Y-96617874D01*
X107152938Y-96667725D01*
X107169798Y-96704664D01*
X107179173Y-96725573D01*
X107180540Y-96728845D01*
X107186689Y-96723497D01*
X107200822Y-96701109D01*
X107221057Y-96664946D01*
X107245515Y-96618277D01*
X107255248Y-96599022D01*
X107288217Y-96534004D01*
X107313643Y-96486654D01*
X107333612Y-96454219D01*
X107350210Y-96433946D01*
X107365524Y-96423082D01*
X107381640Y-96418875D01*
X107392143Y-96418400D01*
X107410670Y-96420042D01*
X107426904Y-96426831D01*
X107443035Y-96441566D01*
X107461251Y-96467044D01*
X107483739Y-96506061D01*
X107512689Y-96561414D01*
X107528662Y-96592903D01*
X107554570Y-96643087D01*
X107577167Y-96684704D01*
X107594458Y-96714242D01*
X107604450Y-96728189D01*
X107605809Y-96728770D01*
X107612261Y-96717793D01*
X107626708Y-96689290D01*
X107647703Y-96646244D01*
X107673797Y-96591638D01*
X107703546Y-96528454D01*
X107718180Y-96497071D01*
X107756250Y-96416078D01*
X107786905Y-96353756D01*
X107811737Y-96308071D01*
X107832337Y-96276989D01*
X107850298Y-96258478D01*
X107867210Y-96250504D01*
X107884665Y-96251034D01*
G37*
X101193600Y-91469054D02*
X101204465Y-91582993D01*
X101236082Y-91690616D01*
X101286985Y-91789615D01*
X101355707Y-91877684D01*
X101440781Y-91952516D01*
X101537768Y-92010384D01*
X101644036Y-92050005D01*
X101751050Y-92068573D01*
X101856700Y-92067434D01*
X101958875Y-92047930D01*
X102055466Y-92011406D01*
X102144362Y-91959205D01*
X102223454Y-91892673D01*
X102290631Y-91813152D01*
X102343783Y-91721987D01*
X102380801Y-91620523D01*
X102399573Y-91510102D01*
X102401511Y-91460206D01*
X102401511Y-91372267D01*
X102453440Y-91372267D01*
X102489747Y-91375111D01*
X102516645Y-91386911D01*
X102543751Y-91410649D01*
X102582133Y-91449031D01*
X102582133Y-93640602D01*
X102582124Y-93902739D01*
X102582092Y-94143241D01*
X102582028Y-94363048D01*
X102581924Y-94563101D01*
X102581773Y-94744344D01*
X102581566Y-94907716D01*
X102581294Y-95054160D01*
X102580950Y-95184617D01*
X102580526Y-95300029D01*
X102580013Y-95401338D01*
X102579403Y-95489484D01*
X102578688Y-95565410D01*
X102577860Y-95630057D01*
X102576911Y-95684367D01*
X102575833Y-95729280D01*
X102574617Y-95765740D01*
X102573255Y-95794687D01*
X102571739Y-95817063D01*
X102570062Y-95833809D01*
X102568214Y-95845868D01*
X102566187Y-95854180D01*
X102563975Y-95859687D01*
X102562892Y-95861537D01*
X102558729Y-95868549D01*
X102555195Y-95874996D01*
X102551365Y-95880900D01*
X102546318Y-95886286D01*
X102539129Y-95891178D01*
X102528877Y-95895598D01*
X102514636Y-95899572D01*
X102495486Y-95903121D01*
X102470501Y-95906270D01*
X102438760Y-95909042D01*
X102399338Y-95911461D01*
X102351314Y-95913551D01*
X102293763Y-95915335D01*
X102225763Y-95916837D01*
X102146390Y-95918080D01*
X102054721Y-95919089D01*
X101949834Y-95919885D01*
X101830804Y-95920494D01*
X101696710Y-95920939D01*
X101546627Y-95921243D01*
X101379633Y-95921430D01*
X101194804Y-95921524D01*
X100991217Y-95921548D01*
X100767950Y-95921525D01*
X100524078Y-95921480D01*
X100258679Y-95921437D01*
X100220296Y-95921432D01*
X99953318Y-95921389D01*
X99707998Y-95921318D01*
X99483417Y-95921213D01*
X99278655Y-95921066D01*
X99092794Y-95920869D01*
X98924912Y-95920616D01*
X98774092Y-95920300D01*
X98639413Y-95919913D01*
X98519956Y-95919447D01*
X98414801Y-95918897D01*
X98323029Y-95918253D01*
X98243721Y-95917511D01*
X98175957Y-95916661D01*
X98118818Y-95915697D01*
X98071383Y-95914611D01*
X98032734Y-95913397D01*
X98001951Y-95912047D01*
X97978115Y-95910555D01*
X97960306Y-95908911D01*
X97947605Y-95907111D01*
X97939092Y-95905145D01*
X97934734Y-95903477D01*
X97926272Y-95899906D01*
X97918503Y-95897270D01*
X97911398Y-95894634D01*
X97904927Y-95891062D01*
X97899061Y-95885621D01*
X97893771Y-95877375D01*
X97889026Y-95865390D01*
X97884798Y-95848731D01*
X97881057Y-95826463D01*
X97877773Y-95797652D01*
X97874917Y-95761363D01*
X97872460Y-95716661D01*
X97870371Y-95662611D01*
X97868622Y-95598279D01*
X97867183Y-95522730D01*
X97866024Y-95435030D01*
X97865117Y-95334243D01*
X97864431Y-95219434D01*
X97863937Y-95089670D01*
X97863605Y-94944015D01*
X97863407Y-94781535D01*
X97863313Y-94601295D01*
X97863292Y-94402360D01*
X97863315Y-94183796D01*
X97863354Y-93944668D01*
X97863378Y-93684040D01*
X97863378Y-93641889D01*
X97863364Y-93378992D01*
X97863339Y-93137732D01*
X97863329Y-92917165D01*
X97863358Y-92716352D01*
X97863452Y-92534349D01*
X97863638Y-92370216D01*
X97863941Y-92223011D01*
X97864386Y-92091792D01*
X97864966Y-91981867D01*
X98167803Y-91981867D01*
X98207593Y-92039711D01*
X98218764Y-92055479D01*
X98228834Y-92069441D01*
X98237862Y-92082784D01*
X98245903Y-92096693D01*
X98253014Y-92112356D01*
X98259253Y-92130958D01*
X98264675Y-92153686D01*
X98269338Y-92181727D01*
X98273299Y-92216267D01*
X98276615Y-92258492D01*
X98279341Y-92309589D01*
X98281536Y-92370744D01*
X98283255Y-92443144D01*
X98284556Y-92527975D01*
X98285495Y-92626422D01*
X98286130Y-92739674D01*
X98286516Y-92868916D01*
X98286712Y-93015334D01*
X98286773Y-93180116D01*
X98286757Y-93364447D01*
X98286720Y-93569513D01*
X98286711Y-93692133D01*
X98286735Y-93909082D01*
X98286769Y-94104642D01*
X98286757Y-94279999D01*
X98286642Y-94436341D01*
X98286370Y-94574857D01*
X98285882Y-94696734D01*
X98285124Y-94803160D01*
X98284038Y-94895322D01*
X98282569Y-94974409D01*
X98280660Y-95041608D01*
X98278256Y-95098107D01*
X98275299Y-95145093D01*
X98271734Y-95183755D01*
X98267505Y-95215280D01*
X98262554Y-95240855D01*
X98256827Y-95261670D01*
X98250267Y-95278911D01*
X98242817Y-95293765D01*
X98234421Y-95307422D01*
X98225024Y-95321069D01*
X98214568Y-95335893D01*
X98208477Y-95344783D01*
X98169704Y-95402400D01*
X98701268Y-95402400D01*
X98824517Y-95402365D01*
X98927013Y-95402215D01*
X99010580Y-95401878D01*
X99077044Y-95401286D01*
X99128229Y-95400367D01*
X99165959Y-95399051D01*
X99192060Y-95397269D01*
X99208356Y-95394951D01*
X99216672Y-95392026D01*
X99218832Y-95388424D01*
X99216661Y-95384075D01*
X99215465Y-95382645D01*
X99190315Y-95345573D01*
X99164417Y-95292772D01*
X99140808Y-95230770D01*
X99132539Y-95204357D01*
X99127922Y-95186416D01*
X99124021Y-95165355D01*
X99120752Y-95139089D01*
X99118034Y-95105532D01*
X99115785Y-95062599D01*
X99113923Y-95008204D01*
X99112364Y-94940262D01*
X99111028Y-94856688D01*
X99109831Y-94755395D01*
X99108692Y-94634300D01*
X99108315Y-94589600D01*
X99107298Y-94464449D01*
X99106540Y-94360082D01*
X99106097Y-94274707D01*
X99106030Y-94206533D01*
X99106395Y-94153765D01*
X99107252Y-94114614D01*
X99108659Y-94087285D01*
X99110675Y-94069986D01*
X99113357Y-94060926D01*
X99116764Y-94058312D01*
X99120956Y-94060351D01*
X99125429Y-94064667D01*
X99135784Y-94077602D01*
X99157842Y-94106676D01*
X99190043Y-94149759D01*
X99230826Y-94204718D01*
X99278630Y-94269423D01*
X99331895Y-94341742D01*
X99389060Y-94419544D01*
X99448563Y-94500698D01*
X99508845Y-94583072D01*
X99568345Y-94664536D01*
X99625502Y-94742957D01*
X99678755Y-94816204D01*
X99726543Y-94882147D01*
X99767307Y-94938654D01*
X99799484Y-94983593D01*
X99821515Y-95014834D01*
X99826083Y-95021466D01*
X99849004Y-95058369D01*
X99875812Y-95106359D01*
X99901211Y-95155897D01*
X99904432Y-95162577D01*
X99926110Y-95210772D01*
X99938696Y-95248334D01*
X99944426Y-95284160D01*
X99945544Y-95326200D01*
X99944910Y-95402400D01*
X101099349Y-95402400D01*
X101008185Y-95308669D01*
X100961388Y-95258775D01*
X100911101Y-95202295D01*
X100865056Y-95148026D01*
X100844631Y-95122673D01*
X100814193Y-95083128D01*
X100774138Y-95029916D01*
X100725639Y-94964667D01*
X100669865Y-94889011D01*
X100607989Y-94804577D01*
X100541181Y-94712994D01*
X100470613Y-94615892D01*
X100397455Y-94514901D01*
X100322879Y-94411650D01*
X100248056Y-94307768D01*
X100174157Y-94204885D01*
X100102354Y-94104631D01*
X100033816Y-94008636D01*
X99969716Y-93918527D01*
X99911225Y-93835936D01*
X99859514Y-93762492D01*
X99815753Y-93699824D01*
X99781115Y-93649561D01*
X99756770Y-93613334D01*
X99743889Y-93592771D01*
X99742131Y-93588668D01*
X99750090Y-93577342D01*
X99770885Y-93550162D01*
X99803153Y-93508829D01*
X99845530Y-93455044D01*
X99896653Y-93390506D01*
X99955159Y-93316918D01*
X100019686Y-93235978D01*
X100088869Y-93149388D01*
X100161347Y-93058848D01*
X100235754Y-92966060D01*
X100295483Y-92891702D01*
X101306489Y-92891702D01*
X101312398Y-92904659D01*
X101326728Y-92926908D01*
X101327775Y-92928391D01*
X101346562Y-92958544D01*
X101366209Y-92995375D01*
X101370108Y-93003511D01*
X101373644Y-93011940D01*
X101376770Y-93022059D01*
X101379514Y-93035260D01*
X101381908Y-93052938D01*
X101383981Y-93076484D01*
X101385765Y-93107293D01*
X101387288Y-93146757D01*
X101388581Y-93196269D01*
X101389674Y-93257223D01*
X101390597Y-93331011D01*
X101391381Y-93419028D01*
X101392055Y-93522665D01*
X101392650Y-93643316D01*
X101393195Y-93782374D01*
X101393721Y-93941232D01*
X101394255Y-94120089D01*
X101394794Y-94305207D01*
X101395228Y-94469145D01*
X101395491Y-94613303D01*
X101395516Y-94739079D01*
X101395235Y-94847871D01*
X101394581Y-94941077D01*
X101393486Y-95020097D01*
X101391882Y-95086328D01*
X101389703Y-95141170D01*
X101386881Y-95186021D01*
X101383349Y-95222278D01*
X101379039Y-95251341D01*
X101373883Y-95274609D01*
X101367815Y-95293479D01*
X101360767Y-95309351D01*
X101352671Y-95323622D01*
X101343460Y-95337691D01*
X101334960Y-95350158D01*
X101317824Y-95376452D01*
X101307678Y-95394037D01*
X101306489Y-95397257D01*
X101317396Y-95398334D01*
X101348589Y-95399335D01*
X101397777Y-95400235D01*
X101462667Y-95401010D01*
X101540970Y-95401637D01*
X101630393Y-95402091D01*
X101728644Y-95402349D01*
X101797555Y-95402400D01*
X101902548Y-95402180D01*
X101999390Y-95401548D01*
X102085893Y-95400549D01*
X102159868Y-95399227D01*
X102219126Y-95397626D01*
X102261480Y-95395791D01*
X102284740Y-95393765D01*
X102288622Y-95392493D01*
X102280924Y-95377591D01*
X102272926Y-95369560D01*
X102259754Y-95352434D01*
X102242515Y-95322183D01*
X102230593Y-95297622D01*
X102203955Y-95238711D01*
X102200880Y-94061845D01*
X102197805Y-92884978D01*
X101752147Y-92884978D01*
X101654330Y-92885142D01*
X101563936Y-92885611D01*
X101483370Y-92886347D01*
X101415038Y-92887316D01*
X101361344Y-92888480D01*
X101324695Y-92889803D01*
X101307496Y-92891249D01*
X101306489Y-92891702D01*
X100295483Y-92891702D01*
X100310730Y-92872722D01*
X100384910Y-92780537D01*
X100456931Y-92691204D01*
X100525431Y-92606424D01*
X100589045Y-92527898D01*
X100646412Y-92457326D01*
X100696167Y-92396409D01*
X100736948Y-92346847D01*
X100754112Y-92326178D01*
X100840404Y-92225516D01*
X100917003Y-92142259D01*
X100985817Y-92074438D01*
X101048752Y-92020089D01*
X101058133Y-92012722D01*
X101097644Y-91982117D01*
X99965884Y-91981867D01*
X99971173Y-92029844D01*
X99967870Y-92087188D01*
X99946339Y-92155463D01*
X99906365Y-92235212D01*
X99861057Y-92307495D01*
X99844839Y-92330140D01*
X99816786Y-92367696D01*
X99778570Y-92418021D01*
X99731863Y-92478973D01*
X99678339Y-92548411D01*
X99619669Y-92624194D01*
X99557525Y-92704180D01*
X99493579Y-92786228D01*
X99429505Y-92868196D01*
X99366973Y-92947943D01*
X99307657Y-93023327D01*
X99253229Y-93092207D01*
X99205361Y-93152442D01*
X99165725Y-93201889D01*
X99135994Y-93238408D01*
X99117839Y-93259858D01*
X99114780Y-93263156D01*
X99111921Y-93255149D01*
X99109707Y-93224855D01*
X99108143Y-93172556D01*
X99107233Y-93098531D01*
X99106980Y-93003063D01*
X99107387Y-92886434D01*
X99108296Y-92766445D01*
X99109618Y-92634333D01*
X99111143Y-92522594D01*
X99113119Y-92429025D01*
X99115794Y-92351419D01*
X99119418Y-92287574D01*
X99124239Y-92235283D01*
X99130506Y-92192344D01*
X99138468Y-92156551D01*
X99148373Y-92125700D01*
X99160469Y-92097586D01*
X99175007Y-92070005D01*
X99189689Y-92044966D01*
X99227686Y-91981867D01*
X98167803Y-91981867D01*
X97864966Y-91981867D01*
X97864999Y-91975617D01*
X97865805Y-91873544D01*
X97866830Y-91784633D01*
X97868100Y-91707941D01*
X97869640Y-91642527D01*
X97871476Y-91587449D01*
X97873633Y-91541765D01*
X97876137Y-91504534D01*
X97879013Y-91474813D01*
X97882287Y-91451662D01*
X97885985Y-91434139D01*
X97890131Y-91421301D01*
X97894753Y-91412208D01*
X97899874Y-91405918D01*
X97905522Y-91401488D01*
X97911721Y-91397978D01*
X97918496Y-91394445D01*
X97924492Y-91390876D01*
X97929725Y-91388300D01*
X97937901Y-91385972D01*
X97950114Y-91383878D01*
X97967459Y-91382007D01*
X97991031Y-91380347D01*
X98021923Y-91378884D01*
X98061232Y-91377608D01*
X98110050Y-91376504D01*
X98169473Y-91375561D01*
X98240596Y-91374767D01*
X98324512Y-91374109D01*
X98422317Y-91373575D01*
X98535106Y-91373153D01*
X98663971Y-91372829D01*
X98810009Y-91372592D01*
X98974314Y-91372430D01*
X99157980Y-91372330D01*
X99362103Y-91372280D01*
X99573247Y-91372267D01*
X101193600Y-91372267D01*
X101193600Y-91469054D01*
G36*
X101193600Y-91469054D02*
G01*
X101204465Y-91582993D01*
X101236082Y-91690616D01*
X101286985Y-91789615D01*
X101355707Y-91877684D01*
X101440781Y-91952516D01*
X101537768Y-92010384D01*
X101644036Y-92050005D01*
X101751050Y-92068573D01*
X101856700Y-92067434D01*
X101958875Y-92047930D01*
X102055466Y-92011406D01*
X102144362Y-91959205D01*
X102223454Y-91892673D01*
X102290631Y-91813152D01*
X102343783Y-91721987D01*
X102380801Y-91620523D01*
X102399573Y-91510102D01*
X102401511Y-91460206D01*
X102401511Y-91372267D01*
X102453440Y-91372267D01*
X102489747Y-91375111D01*
X102516645Y-91386911D01*
X102543751Y-91410649D01*
X102582133Y-91449031D01*
X102582133Y-93640602D01*
X102582124Y-93902739D01*
X102582092Y-94143241D01*
X102582028Y-94363048D01*
X102581924Y-94563101D01*
X102581773Y-94744344D01*
X102581566Y-94907716D01*
X102581294Y-95054160D01*
X102580950Y-95184617D01*
X102580526Y-95300029D01*
X102580013Y-95401338D01*
X102579403Y-95489484D01*
X102578688Y-95565410D01*
X102577860Y-95630057D01*
X102576911Y-95684367D01*
X102575833Y-95729280D01*
X102574617Y-95765740D01*
X102573255Y-95794687D01*
X102571739Y-95817063D01*
X102570062Y-95833809D01*
X102568214Y-95845868D01*
X102566187Y-95854180D01*
X102563975Y-95859687D01*
X102562892Y-95861537D01*
X102558729Y-95868549D01*
X102555195Y-95874996D01*
X102551365Y-95880900D01*
X102546318Y-95886286D01*
X102539129Y-95891178D01*
X102528877Y-95895598D01*
X102514636Y-95899572D01*
X102495486Y-95903121D01*
X102470501Y-95906270D01*
X102438760Y-95909042D01*
X102399338Y-95911461D01*
X102351314Y-95913551D01*
X102293763Y-95915335D01*
X102225763Y-95916837D01*
X102146390Y-95918080D01*
X102054721Y-95919089D01*
X101949834Y-95919885D01*
X101830804Y-95920494D01*
X101696710Y-95920939D01*
X101546627Y-95921243D01*
X101379633Y-95921430D01*
X101194804Y-95921524D01*
X100991217Y-95921548D01*
X100767950Y-95921525D01*
X100524078Y-95921480D01*
X100258679Y-95921437D01*
X100220296Y-95921432D01*
X99953318Y-95921389D01*
X99707998Y-95921318D01*
X99483417Y-95921213D01*
X99278655Y-95921066D01*
X99092794Y-95920869D01*
X98924912Y-95920616D01*
X98774092Y-95920300D01*
X98639413Y-95919913D01*
X98519956Y-95919447D01*
X98414801Y-95918897D01*
X98323029Y-95918253D01*
X98243721Y-95917511D01*
X98175957Y-95916661D01*
X98118818Y-95915697D01*
X98071383Y-95914611D01*
X98032734Y-95913397D01*
X98001951Y-95912047D01*
X97978115Y-95910555D01*
X97960306Y-95908911D01*
X97947605Y-95907111D01*
X97939092Y-95905145D01*
X97934734Y-95903477D01*
X97926272Y-95899906D01*
X97918503Y-95897270D01*
X97911398Y-95894634D01*
X97904927Y-95891062D01*
X97899061Y-95885621D01*
X97893771Y-95877375D01*
X97889026Y-95865390D01*
X97884798Y-95848731D01*
X97881057Y-95826463D01*
X97877773Y-95797652D01*
X97874917Y-95761363D01*
X97872460Y-95716661D01*
X97870371Y-95662611D01*
X97868622Y-95598279D01*
X97867183Y-95522730D01*
X97866024Y-95435030D01*
X97865117Y-95334243D01*
X97864431Y-95219434D01*
X97863937Y-95089670D01*
X97863605Y-94944015D01*
X97863407Y-94781535D01*
X97863313Y-94601295D01*
X97863292Y-94402360D01*
X97863315Y-94183796D01*
X97863354Y-93944668D01*
X97863378Y-93684040D01*
X97863378Y-93641889D01*
X97863364Y-93378992D01*
X97863339Y-93137732D01*
X97863329Y-92917165D01*
X97863358Y-92716352D01*
X97863452Y-92534349D01*
X97863638Y-92370216D01*
X97863941Y-92223011D01*
X97864386Y-92091792D01*
X97864966Y-91981867D01*
X98167803Y-91981867D01*
X98207593Y-92039711D01*
X98218764Y-92055479D01*
X98228834Y-92069441D01*
X98237862Y-92082784D01*
X98245903Y-92096693D01*
X98253014Y-92112356D01*
X98259253Y-92130958D01*
X98264675Y-92153686D01*
X98269338Y-92181727D01*
X98273299Y-92216267D01*
X98276615Y-92258492D01*
X98279341Y-92309589D01*
X98281536Y-92370744D01*
X98283255Y-92443144D01*
X98284556Y-92527975D01*
X98285495Y-92626422D01*
X98286130Y-92739674D01*
X98286516Y-92868916D01*
X98286712Y-93015334D01*
X98286773Y-93180116D01*
X98286757Y-93364447D01*
X98286720Y-93569513D01*
X98286711Y-93692133D01*
X98286735Y-93909082D01*
X98286769Y-94104642D01*
X98286757Y-94279999D01*
X98286642Y-94436341D01*
X98286370Y-94574857D01*
X98285882Y-94696734D01*
X98285124Y-94803160D01*
X98284038Y-94895322D01*
X98282569Y-94974409D01*
X98280660Y-95041608D01*
X98278256Y-95098107D01*
X98275299Y-95145093D01*
X98271734Y-95183755D01*
X98267505Y-95215280D01*
X98262554Y-95240855D01*
X98256827Y-95261670D01*
X98250267Y-95278911D01*
X98242817Y-95293765D01*
X98234421Y-95307422D01*
X98225024Y-95321069D01*
X98214568Y-95335893D01*
X98208477Y-95344783D01*
X98169704Y-95402400D01*
X98701268Y-95402400D01*
X98824517Y-95402365D01*
X98927013Y-95402215D01*
X99010580Y-95401878D01*
X99077044Y-95401286D01*
X99128229Y-95400367D01*
X99165959Y-95399051D01*
X99192060Y-95397269D01*
X99208356Y-95394951D01*
X99216672Y-95392026D01*
X99218832Y-95388424D01*
X99216661Y-95384075D01*
X99215465Y-95382645D01*
X99190315Y-95345573D01*
X99164417Y-95292772D01*
X99140808Y-95230770D01*
X99132539Y-95204357D01*
X99127922Y-95186416D01*
X99124021Y-95165355D01*
X99120752Y-95139089D01*
X99118034Y-95105532D01*
X99115785Y-95062599D01*
X99113923Y-95008204D01*
X99112364Y-94940262D01*
X99111028Y-94856688D01*
X99109831Y-94755395D01*
X99108692Y-94634300D01*
X99108315Y-94589600D01*
X99107298Y-94464449D01*
X99106540Y-94360082D01*
X99106097Y-94274707D01*
X99106030Y-94206533D01*
X99106395Y-94153765D01*
X99107252Y-94114614D01*
X99108659Y-94087285D01*
X99110675Y-94069986D01*
X99113357Y-94060926D01*
X99116764Y-94058312D01*
X99120956Y-94060351D01*
X99125429Y-94064667D01*
X99135784Y-94077602D01*
X99157842Y-94106676D01*
X99190043Y-94149759D01*
X99230826Y-94204718D01*
X99278630Y-94269423D01*
X99331895Y-94341742D01*
X99389060Y-94419544D01*
X99448563Y-94500698D01*
X99508845Y-94583072D01*
X99568345Y-94664536D01*
X99625502Y-94742957D01*
X99678755Y-94816204D01*
X99726543Y-94882147D01*
X99767307Y-94938654D01*
X99799484Y-94983593D01*
X99821515Y-95014834D01*
X99826083Y-95021466D01*
X99849004Y-95058369D01*
X99875812Y-95106359D01*
X99901211Y-95155897D01*
X99904432Y-95162577D01*
X99926110Y-95210772D01*
X99938696Y-95248334D01*
X99944426Y-95284160D01*
X99945544Y-95326200D01*
X99944910Y-95402400D01*
X101099349Y-95402400D01*
X101008185Y-95308669D01*
X100961388Y-95258775D01*
X100911101Y-95202295D01*
X100865056Y-95148026D01*
X100844631Y-95122673D01*
X100814193Y-95083128D01*
X100774138Y-95029916D01*
X100725639Y-94964667D01*
X100669865Y-94889011D01*
X100607989Y-94804577D01*
X100541181Y-94712994D01*
X100470613Y-94615892D01*
X100397455Y-94514901D01*
X100322879Y-94411650D01*
X100248056Y-94307768D01*
X100174157Y-94204885D01*
X100102354Y-94104631D01*
X100033816Y-94008636D01*
X99969716Y-93918527D01*
X99911225Y-93835936D01*
X99859514Y-93762492D01*
X99815753Y-93699824D01*
X99781115Y-93649561D01*
X99756770Y-93613334D01*
X99743889Y-93592771D01*
X99742131Y-93588668D01*
X99750090Y-93577342D01*
X99770885Y-93550162D01*
X99803153Y-93508829D01*
X99845530Y-93455044D01*
X99896653Y-93390506D01*
X99955159Y-93316918D01*
X100019686Y-93235978D01*
X100088869Y-93149388D01*
X100161347Y-93058848D01*
X100235754Y-92966060D01*
X100295483Y-92891702D01*
X101306489Y-92891702D01*
X101312398Y-92904659D01*
X101326728Y-92926908D01*
X101327775Y-92928391D01*
X101346562Y-92958544D01*
X101366209Y-92995375D01*
X101370108Y-93003511D01*
X101373644Y-93011940D01*
X101376770Y-93022059D01*
X101379514Y-93035260D01*
X101381908Y-93052938D01*
X101383981Y-93076484D01*
X101385765Y-93107293D01*
X101387288Y-93146757D01*
X101388581Y-93196269D01*
X101389674Y-93257223D01*
X101390597Y-93331011D01*
X101391381Y-93419028D01*
X101392055Y-93522665D01*
X101392650Y-93643316D01*
X101393195Y-93782374D01*
X101393721Y-93941232D01*
X101394255Y-94120089D01*
X101394794Y-94305207D01*
X101395228Y-94469145D01*
X101395491Y-94613303D01*
X101395516Y-94739079D01*
X101395235Y-94847871D01*
X101394581Y-94941077D01*
X101393486Y-95020097D01*
X101391882Y-95086328D01*
X101389703Y-95141170D01*
X101386881Y-95186021D01*
X101383349Y-95222278D01*
X101379039Y-95251341D01*
X101373883Y-95274609D01*
X101367815Y-95293479D01*
X101360767Y-95309351D01*
X101352671Y-95323622D01*
X101343460Y-95337691D01*
X101334960Y-95350158D01*
X101317824Y-95376452D01*
X101307678Y-95394037D01*
X101306489Y-95397257D01*
X101317396Y-95398334D01*
X101348589Y-95399335D01*
X101397777Y-95400235D01*
X101462667Y-95401010D01*
X101540970Y-95401637D01*
X101630393Y-95402091D01*
X101728644Y-95402349D01*
X101797555Y-95402400D01*
X101902548Y-95402180D01*
X101999390Y-95401548D01*
X102085893Y-95400549D01*
X102159868Y-95399227D01*
X102219126Y-95397626D01*
X102261480Y-95395791D01*
X102284740Y-95393765D01*
X102288622Y-95392493D01*
X102280924Y-95377591D01*
X102272926Y-95369560D01*
X102259754Y-95352434D01*
X102242515Y-95322183D01*
X102230593Y-95297622D01*
X102203955Y-95238711D01*
X102200880Y-94061845D01*
X102197805Y-92884978D01*
X101752147Y-92884978D01*
X101654330Y-92885142D01*
X101563936Y-92885611D01*
X101483370Y-92886347D01*
X101415038Y-92887316D01*
X101361344Y-92888480D01*
X101324695Y-92889803D01*
X101307496Y-92891249D01*
X101306489Y-92891702D01*
X100295483Y-92891702D01*
X100310730Y-92872722D01*
X100384910Y-92780537D01*
X100456931Y-92691204D01*
X100525431Y-92606424D01*
X100589045Y-92527898D01*
X100646412Y-92457326D01*
X100696167Y-92396409D01*
X100736948Y-92346847D01*
X100754112Y-92326178D01*
X100840404Y-92225516D01*
X100917003Y-92142259D01*
X100985817Y-92074438D01*
X101048752Y-92020089D01*
X101058133Y-92012722D01*
X101097644Y-91982117D01*
X99965884Y-91981867D01*
X99971173Y-92029844D01*
X99967870Y-92087188D01*
X99946339Y-92155463D01*
X99906365Y-92235212D01*
X99861057Y-92307495D01*
X99844839Y-92330140D01*
X99816786Y-92367696D01*
X99778570Y-92418021D01*
X99731863Y-92478973D01*
X99678339Y-92548411D01*
X99619669Y-92624194D01*
X99557525Y-92704180D01*
X99493579Y-92786228D01*
X99429505Y-92868196D01*
X99366973Y-92947943D01*
X99307657Y-93023327D01*
X99253229Y-93092207D01*
X99205361Y-93152442D01*
X99165725Y-93201889D01*
X99135994Y-93238408D01*
X99117839Y-93259858D01*
X99114780Y-93263156D01*
X99111921Y-93255149D01*
X99109707Y-93224855D01*
X99108143Y-93172556D01*
X99107233Y-93098531D01*
X99106980Y-93003063D01*
X99107387Y-92886434D01*
X99108296Y-92766445D01*
X99109618Y-92634333D01*
X99111143Y-92522594D01*
X99113119Y-92429025D01*
X99115794Y-92351419D01*
X99119418Y-92287574D01*
X99124239Y-92235283D01*
X99130506Y-92192344D01*
X99138468Y-92156551D01*
X99148373Y-92125700D01*
X99160469Y-92097586D01*
X99175007Y-92070005D01*
X99189689Y-92044966D01*
X99227686Y-91981867D01*
X98167803Y-91981867D01*
X97864966Y-91981867D01*
X97864999Y-91975617D01*
X97865805Y-91873544D01*
X97866830Y-91784633D01*
X97868100Y-91707941D01*
X97869640Y-91642527D01*
X97871476Y-91587449D01*
X97873633Y-91541765D01*
X97876137Y-91504534D01*
X97879013Y-91474813D01*
X97882287Y-91451662D01*
X97885985Y-91434139D01*
X97890131Y-91421301D01*
X97894753Y-91412208D01*
X97899874Y-91405918D01*
X97905522Y-91401488D01*
X97911721Y-91397978D01*
X97918496Y-91394445D01*
X97924492Y-91390876D01*
X97929725Y-91388300D01*
X97937901Y-91385972D01*
X97950114Y-91383878D01*
X97967459Y-91382007D01*
X97991031Y-91380347D01*
X98021923Y-91378884D01*
X98061232Y-91377608D01*
X98110050Y-91376504D01*
X98169473Y-91375561D01*
X98240596Y-91374767D01*
X98324512Y-91374109D01*
X98422317Y-91373575D01*
X98535106Y-91373153D01*
X98663971Y-91372829D01*
X98810009Y-91372592D01*
X98974314Y-91372430D01*
X99157980Y-91372330D01*
X99362103Y-91372280D01*
X99573247Y-91372267D01*
X101193600Y-91372267D01*
X101193600Y-91469054D01*
G37*
X101866957Y-91006571D02*
X101963232Y-91030809D01*
X102049816Y-91073641D01*
X102124627Y-91133419D01*
X102185582Y-91208494D01*
X102230601Y-91297220D01*
X102256864Y-91393530D01*
X102262714Y-91490795D01*
X102247860Y-91584654D01*
X102214160Y-91672511D01*
X102163472Y-91751770D01*
X102097655Y-91819836D01*
X102018566Y-91874112D01*
X101928066Y-91912002D01*
X101876800Y-91924426D01*
X101832302Y-91931947D01*
X101798001Y-91934919D01*
X101765040Y-91933094D01*
X101724566Y-91926225D01*
X101691469Y-91919250D01*
X101598053Y-91887741D01*
X101514381Y-91836617D01*
X101442335Y-91767429D01*
X101383800Y-91681728D01*
X101369852Y-91654489D01*
X101353414Y-91618122D01*
X101343106Y-91587582D01*
X101337540Y-91555450D01*
X101335331Y-91514307D01*
X101335052Y-91468222D01*
X101339139Y-91383865D01*
X101352554Y-91314586D01*
X101377744Y-91253961D01*
X101417154Y-91195567D01*
X101455702Y-91151302D01*
X101527594Y-91085484D01*
X101602687Y-91040053D01*
X101685438Y-91012850D01*
X101763072Y-91002576D01*
X101866957Y-91006571D01*
G36*
X101866957Y-91006571D02*
G01*
X101963232Y-91030809D01*
X102049816Y-91073641D01*
X102124627Y-91133419D01*
X102185582Y-91208494D01*
X102230601Y-91297220D01*
X102256864Y-91393530D01*
X102262714Y-91490795D01*
X102247860Y-91584654D01*
X102214160Y-91672511D01*
X102163472Y-91751770D01*
X102097655Y-91819836D01*
X102018566Y-91874112D01*
X101928066Y-91912002D01*
X101876800Y-91924426D01*
X101832302Y-91931947D01*
X101798001Y-91934919D01*
X101765040Y-91933094D01*
X101724566Y-91926225D01*
X101691469Y-91919250D01*
X101598053Y-91887741D01*
X101514381Y-91836617D01*
X101442335Y-91767429D01*
X101383800Y-91681728D01*
X101369852Y-91654489D01*
X101353414Y-91618122D01*
X101343106Y-91587582D01*
X101337540Y-91555450D01*
X101335331Y-91514307D01*
X101335052Y-91468222D01*
X101339139Y-91383865D01*
X101352554Y-91314586D01*
X101377744Y-91253961D01*
X101417154Y-91195567D01*
X101455702Y-91151302D01*
X101527594Y-91085484D01*
X101602687Y-91040053D01*
X101685438Y-91012850D01*
X101763072Y-91002576D01*
X101866957Y-91006571D01*
G37*
X102839886Y-96253448D02*
X102863452Y-96267273D01*
X102894265Y-96289881D01*
X102933922Y-96322338D01*
X102984020Y-96365708D01*
X103046157Y-96421058D01*
X103121928Y-96489451D01*
X103208666Y-96568084D01*
X103389289Y-96731878D01*
X103394933Y-96512029D01*
X103396971Y-96436351D01*
X103398937Y-96379994D01*
X103401266Y-96339706D01*
X103404394Y-96312235D01*
X103408755Y-96294329D01*
X103414784Y-96282737D01*
X103422916Y-96274208D01*
X103427228Y-96270623D01*
X103461759Y-96251670D01*
X103494617Y-96254441D01*
X103520682Y-96270633D01*
X103547333Y-96292199D01*
X103550648Y-96607151D01*
X103551565Y-96699779D01*
X103552032Y-96772544D01*
X103551887Y-96828161D01*
X103550968Y-96869342D01*
X103549113Y-96898803D01*
X103546161Y-96919255D01*
X103541950Y-96933413D01*
X103536318Y-96943991D01*
X103530073Y-96952474D01*
X103516561Y-96968207D01*
X103503117Y-96978636D01*
X103487876Y-96982639D01*
X103468974Y-96979094D01*
X103444545Y-96966879D01*
X103412727Y-96944871D01*
X103371652Y-96911949D01*
X103319458Y-96866991D01*
X103254278Y-96808875D01*
X103180444Y-96742099D01*
X102915155Y-96501458D01*
X102909511Y-96720589D01*
X102907469Y-96796128D01*
X102905498Y-96852354D01*
X102903161Y-96892524D01*
X102900019Y-96919896D01*
X102895636Y-96937728D01*
X102889576Y-96949279D01*
X102881400Y-96957807D01*
X102877216Y-96961282D01*
X102840235Y-96980372D01*
X102805292Y-96977493D01*
X102774864Y-96953100D01*
X102767903Y-96943286D01*
X102762477Y-96931826D01*
X102758397Y-96915968D01*
X102755471Y-96892963D01*
X102753508Y-96860062D01*
X102752317Y-96814516D01*
X102751708Y-96753573D01*
X102751489Y-96674486D01*
X102751466Y-96615956D01*
X102751540Y-96524407D01*
X102751887Y-96452687D01*
X102752699Y-96398045D01*
X102754167Y-96357732D01*
X102756481Y-96328998D01*
X102759833Y-96309093D01*
X102764412Y-96295268D01*
X102770411Y-96284772D01*
X102774864Y-96278811D01*
X102786150Y-96264691D01*
X102796699Y-96254029D01*
X102808107Y-96247892D01*
X102821970Y-96247343D01*
X102839886Y-96253448D01*
G36*
X102839886Y-96253448D02*
G01*
X102863452Y-96267273D01*
X102894265Y-96289881D01*
X102933922Y-96322338D01*
X102984020Y-96365708D01*
X103046157Y-96421058D01*
X103121928Y-96489451D01*
X103208666Y-96568084D01*
X103389289Y-96731878D01*
X103394933Y-96512029D01*
X103396971Y-96436351D01*
X103398937Y-96379994D01*
X103401266Y-96339706D01*
X103404394Y-96312235D01*
X103408755Y-96294329D01*
X103414784Y-96282737D01*
X103422916Y-96274208D01*
X103427228Y-96270623D01*
X103461759Y-96251670D01*
X103494617Y-96254441D01*
X103520682Y-96270633D01*
X103547333Y-96292199D01*
X103550648Y-96607151D01*
X103551565Y-96699779D01*
X103552032Y-96772544D01*
X103551887Y-96828161D01*
X103550968Y-96869342D01*
X103549113Y-96898803D01*
X103546161Y-96919255D01*
X103541950Y-96933413D01*
X103536318Y-96943991D01*
X103530073Y-96952474D01*
X103516561Y-96968207D01*
X103503117Y-96978636D01*
X103487876Y-96982639D01*
X103468974Y-96979094D01*
X103444545Y-96966879D01*
X103412727Y-96944871D01*
X103371652Y-96911949D01*
X103319458Y-96866991D01*
X103254278Y-96808875D01*
X103180444Y-96742099D01*
X102915155Y-96501458D01*
X102909511Y-96720589D01*
X102907469Y-96796128D01*
X102905498Y-96852354D01*
X102903161Y-96892524D01*
X102900019Y-96919896D01*
X102895636Y-96937728D01*
X102889576Y-96949279D01*
X102881400Y-96957807D01*
X102877216Y-96961282D01*
X102840235Y-96980372D01*
X102805292Y-96977493D01*
X102774864Y-96953100D01*
X102767903Y-96943286D01*
X102762477Y-96931826D01*
X102758397Y-96915968D01*
X102755471Y-96892963D01*
X102753508Y-96860062D01*
X102752317Y-96814516D01*
X102751708Y-96753573D01*
X102751489Y-96674486D01*
X102751466Y-96615956D01*
X102751540Y-96524407D01*
X102751887Y-96452687D01*
X102752699Y-96398045D01*
X102754167Y-96357732D01*
X102756481Y-96328998D01*
X102759833Y-96309093D01*
X102764412Y-96295268D01*
X102770411Y-96284772D01*
X102774864Y-96278811D01*
X102786150Y-96264691D01*
X102796699Y-96254029D01*
X102808107Y-96247892D01*
X102821970Y-96247343D01*
X102839886Y-96253448D01*
G37*
X99427206Y-96249146D02*
X99496614Y-96249518D01*
X99549003Y-96250385D01*
X99587153Y-96251946D01*
X99613841Y-96254403D01*
X99631847Y-96257957D01*
X99643951Y-96262810D01*
X99652931Y-96269161D01*
X99656182Y-96272084D01*
X99675957Y-96303142D01*
X99679518Y-96338828D01*
X99666509Y-96370510D01*
X99660494Y-96376913D01*
X99650765Y-96383121D01*
X99635099Y-96387910D01*
X99610592Y-96391514D01*
X99574339Y-96394164D01*
X99523435Y-96396095D01*
X99454974Y-96397539D01*
X99392383Y-96398418D01*
X99144666Y-96401467D01*
X99141281Y-96466378D01*
X99137895Y-96531289D01*
X99306042Y-96531289D01*
X99379041Y-96531919D01*
X99432483Y-96534553D01*
X99469372Y-96540309D01*
X99492712Y-96550304D01*
X99505506Y-96565656D01*
X99510758Y-96587482D01*
X99511555Y-96607738D01*
X99509077Y-96632592D01*
X99499723Y-96650906D01*
X99480617Y-96663637D01*
X99448882Y-96671741D01*
X99401641Y-96676176D01*
X99336017Y-96677899D01*
X99300199Y-96678045D01*
X99139022Y-96678045D01*
X99139022Y-96836089D01*
X99387378Y-96836089D01*
X99468787Y-96836202D01*
X99530658Y-96836712D01*
X99576032Y-96837870D01*
X99607946Y-96839930D01*
X99629441Y-96843146D01*
X99643557Y-96847772D01*
X99653332Y-96854059D01*
X99658311Y-96858667D01*
X99675390Y-96885560D01*
X99680889Y-96909467D01*
X99673037Y-96938667D01*
X99658311Y-96960267D01*
X99650454Y-96967066D01*
X99640312Y-96972346D01*
X99625156Y-96976298D01*
X99602259Y-96979113D01*
X99568891Y-96980982D01*
X99522325Y-96982098D01*
X99459833Y-96982651D01*
X99378686Y-96982833D01*
X99336578Y-96982845D01*
X99246402Y-96982765D01*
X99176076Y-96982398D01*
X99122871Y-96981552D01*
X99084060Y-96980036D01*
X99056913Y-96977659D01*
X99038702Y-96974229D01*
X99026700Y-96969554D01*
X99018178Y-96963444D01*
X99014844Y-96960267D01*
X99008245Y-96952670D01*
X99003073Y-96942870D01*
X98999154Y-96928239D01*
X98996316Y-96906152D01*
X98994385Y-96873982D01*
X98993188Y-96829103D01*
X98992552Y-96768889D01*
X98992303Y-96690713D01*
X98992266Y-96617923D01*
X98992300Y-96524707D01*
X98992535Y-96451431D01*
X98993170Y-96395458D01*
X98994406Y-96354151D01*
X98996444Y-96324872D01*
X98999483Y-96304984D01*
X99003723Y-96291850D01*
X99009365Y-96282832D01*
X99016609Y-96275293D01*
X99018394Y-96273612D01*
X99027055Y-96266172D01*
X99037118Y-96260409D01*
X99051375Y-96256112D01*
X99072617Y-96253064D01*
X99103636Y-96251051D01*
X99147223Y-96249860D01*
X99206169Y-96249275D01*
X99283266Y-96249083D01*
X99337999Y-96249067D01*
X99427206Y-96249146D01*
G36*
X99427206Y-96249146D02*
G01*
X99496614Y-96249518D01*
X99549003Y-96250385D01*
X99587153Y-96251946D01*
X99613841Y-96254403D01*
X99631847Y-96257957D01*
X99643951Y-96262810D01*
X99652931Y-96269161D01*
X99656182Y-96272084D01*
X99675957Y-96303142D01*
X99679518Y-96338828D01*
X99666509Y-96370510D01*
X99660494Y-96376913D01*
X99650765Y-96383121D01*
X99635099Y-96387910D01*
X99610592Y-96391514D01*
X99574339Y-96394164D01*
X99523435Y-96396095D01*
X99454974Y-96397539D01*
X99392383Y-96398418D01*
X99144666Y-96401467D01*
X99141281Y-96466378D01*
X99137895Y-96531289D01*
X99306042Y-96531289D01*
X99379041Y-96531919D01*
X99432483Y-96534553D01*
X99469372Y-96540309D01*
X99492712Y-96550304D01*
X99505506Y-96565656D01*
X99510758Y-96587482D01*
X99511555Y-96607738D01*
X99509077Y-96632592D01*
X99499723Y-96650906D01*
X99480617Y-96663637D01*
X99448882Y-96671741D01*
X99401641Y-96676176D01*
X99336017Y-96677899D01*
X99300199Y-96678045D01*
X99139022Y-96678045D01*
X99139022Y-96836089D01*
X99387378Y-96836089D01*
X99468787Y-96836202D01*
X99530658Y-96836712D01*
X99576032Y-96837870D01*
X99607946Y-96839930D01*
X99629441Y-96843146D01*
X99643557Y-96847772D01*
X99653332Y-96854059D01*
X99658311Y-96858667D01*
X99675390Y-96885560D01*
X99680889Y-96909467D01*
X99673037Y-96938667D01*
X99658311Y-96960267D01*
X99650454Y-96967066D01*
X99640312Y-96972346D01*
X99625156Y-96976298D01*
X99602259Y-96979113D01*
X99568891Y-96980982D01*
X99522325Y-96982098D01*
X99459833Y-96982651D01*
X99378686Y-96982833D01*
X99336578Y-96982845D01*
X99246402Y-96982765D01*
X99176076Y-96982398D01*
X99122871Y-96981552D01*
X99084060Y-96980036D01*
X99056913Y-96977659D01*
X99038702Y-96974229D01*
X99026700Y-96969554D01*
X99018178Y-96963444D01*
X99014844Y-96960267D01*
X99008245Y-96952670D01*
X99003073Y-96942870D01*
X98999154Y-96928239D01*
X98996316Y-96906152D01*
X98994385Y-96873982D01*
X98993188Y-96829103D01*
X98992552Y-96768889D01*
X98992303Y-96690713D01*
X98992266Y-96617923D01*
X98992300Y-96524707D01*
X98992535Y-96451431D01*
X98993170Y-96395458D01*
X98994406Y-96354151D01*
X98996444Y-96324872D01*
X98999483Y-96304984D01*
X99003723Y-96291850D01*
X99009365Y-96282832D01*
X99016609Y-96275293D01*
X99018394Y-96273612D01*
X99027055Y-96266172D01*
X99037118Y-96260409D01*
X99051375Y-96256112D01*
X99072617Y-96253064D01*
X99103636Y-96251051D01*
X99147223Y-96249860D01*
X99206169Y-96249275D01*
X99283266Y-96249083D01*
X99337999Y-96249067D01*
X99427206Y-96249146D01*
G37*
X104370343Y-96249260D02*
X104446701Y-96250174D01*
X104505217Y-96252311D01*
X104548255Y-96256175D01*
X104578183Y-96262267D01*
X104597368Y-96271090D01*
X104608176Y-96283146D01*
X104612973Y-96298939D01*
X104614127Y-96318970D01*
X104614133Y-96321335D01*
X104613131Y-96343992D01*
X104608396Y-96361503D01*
X104597333Y-96374574D01*
X104577348Y-96383913D01*
X104545846Y-96390227D01*
X104500232Y-96394222D01*
X104437913Y-96396606D01*
X104356293Y-96398086D01*
X104331277Y-96398414D01*
X104089200Y-96401467D01*
X104085814Y-96466378D01*
X104082429Y-96531289D01*
X104250576Y-96531289D01*
X104316266Y-96531531D01*
X104363172Y-96532556D01*
X104395083Y-96534811D01*
X104415791Y-96538742D01*
X104429084Y-96544798D01*
X104438755Y-96553424D01*
X104438817Y-96553493D01*
X104456356Y-96587112D01*
X104455722Y-96623448D01*
X104437314Y-96654423D01*
X104433671Y-96657607D01*
X104420741Y-96665812D01*
X104403024Y-96671521D01*
X104376570Y-96675162D01*
X104337432Y-96677167D01*
X104281662Y-96677964D01*
X104245994Y-96678045D01*
X104083555Y-96678045D01*
X104083555Y-96836089D01*
X104330161Y-96836089D01*
X104411580Y-96836231D01*
X104473410Y-96836814D01*
X104518637Y-96838068D01*
X104550248Y-96840227D01*
X104571231Y-96843523D01*
X104584573Y-96848189D01*
X104593261Y-96854457D01*
X104595450Y-96856733D01*
X104611614Y-96888280D01*
X104612797Y-96924168D01*
X104599536Y-96955285D01*
X104589043Y-96965271D01*
X104578129Y-96970769D01*
X104561217Y-96975022D01*
X104535633Y-96978180D01*
X104498701Y-96980392D01*
X104447746Y-96981806D01*
X104380094Y-96982572D01*
X104293069Y-96982838D01*
X104273394Y-96982845D01*
X104184911Y-96982787D01*
X104116227Y-96982467D01*
X104064564Y-96981667D01*
X104027145Y-96980167D01*
X104001190Y-96977749D01*
X103983922Y-96974194D01*
X103972562Y-96969282D01*
X103964332Y-96962795D01*
X103959817Y-96958138D01*
X103953021Y-96949889D01*
X103947712Y-96939669D01*
X103943706Y-96924800D01*
X103940821Y-96902602D01*
X103938874Y-96870393D01*
X103937681Y-96825496D01*
X103937061Y-96765228D01*
X103936829Y-96686911D01*
X103936800Y-96620994D01*
X103936871Y-96528628D01*
X103937208Y-96456117D01*
X103937998Y-96400737D01*
X103939426Y-96359765D01*
X103941679Y-96330478D01*
X103944943Y-96310153D01*
X103949404Y-96296066D01*
X103955248Y-96285495D01*
X103960197Y-96278811D01*
X103983594Y-96249067D01*
X104273774Y-96249067D01*
X104370343Y-96249260D01*
G36*
X104370343Y-96249260D02*
G01*
X104446701Y-96250174D01*
X104505217Y-96252311D01*
X104548255Y-96256175D01*
X104578183Y-96262267D01*
X104597368Y-96271090D01*
X104608176Y-96283146D01*
X104612973Y-96298939D01*
X104614127Y-96318970D01*
X104614133Y-96321335D01*
X104613131Y-96343992D01*
X104608396Y-96361503D01*
X104597333Y-96374574D01*
X104577348Y-96383913D01*
X104545846Y-96390227D01*
X104500232Y-96394222D01*
X104437913Y-96396606D01*
X104356293Y-96398086D01*
X104331277Y-96398414D01*
X104089200Y-96401467D01*
X104085814Y-96466378D01*
X104082429Y-96531289D01*
X104250576Y-96531289D01*
X104316266Y-96531531D01*
X104363172Y-96532556D01*
X104395083Y-96534811D01*
X104415791Y-96538742D01*
X104429084Y-96544798D01*
X104438755Y-96553424D01*
X104438817Y-96553493D01*
X104456356Y-96587112D01*
X104455722Y-96623448D01*
X104437314Y-96654423D01*
X104433671Y-96657607D01*
X104420741Y-96665812D01*
X104403024Y-96671521D01*
X104376570Y-96675162D01*
X104337432Y-96677167D01*
X104281662Y-96677964D01*
X104245994Y-96678045D01*
X104083555Y-96678045D01*
X104083555Y-96836089D01*
X104330161Y-96836089D01*
X104411580Y-96836231D01*
X104473410Y-96836814D01*
X104518637Y-96838068D01*
X104550248Y-96840227D01*
X104571231Y-96843523D01*
X104584573Y-96848189D01*
X104593261Y-96854457D01*
X104595450Y-96856733D01*
X104611614Y-96888280D01*
X104612797Y-96924168D01*
X104599536Y-96955285D01*
X104589043Y-96965271D01*
X104578129Y-96970769D01*
X104561217Y-96975022D01*
X104535633Y-96978180D01*
X104498701Y-96980392D01*
X104447746Y-96981806D01*
X104380094Y-96982572D01*
X104293069Y-96982838D01*
X104273394Y-96982845D01*
X104184911Y-96982787D01*
X104116227Y-96982467D01*
X104064564Y-96981667D01*
X104027145Y-96980167D01*
X104001190Y-96977749D01*
X103983922Y-96974194D01*
X103972562Y-96969282D01*
X103964332Y-96962795D01*
X103959817Y-96958138D01*
X103953021Y-96949889D01*
X103947712Y-96939669D01*
X103943706Y-96924800D01*
X103940821Y-96902602D01*
X103938874Y-96870393D01*
X103937681Y-96825496D01*
X103937061Y-96765228D01*
X103936829Y-96686911D01*
X103936800Y-96620994D01*
X103936871Y-96528628D01*
X103937208Y-96456117D01*
X103937998Y-96400737D01*
X103939426Y-96359765D01*
X103941679Y-96330478D01*
X103944943Y-96310153D01*
X103949404Y-96296066D01*
X103955248Y-96285495D01*
X103960197Y-96278811D01*
X103983594Y-96249067D01*
X104273774Y-96249067D01*
X104370343Y-96249260D01*
G37*
X108328614Y-96255877D02*
X108352327Y-96270647D01*
X108378978Y-96292227D01*
X108378978Y-96613773D01*
X108378893Y-96707830D01*
X108378529Y-96781932D01*
X108377724Y-96838704D01*
X108376313Y-96880768D01*
X108374133Y-96910748D01*
X108371021Y-96931267D01*
X108366814Y-96944949D01*
X108361348Y-96954416D01*
X108357472Y-96959082D01*
X108326034Y-96979575D01*
X108290233Y-96978739D01*
X108258873Y-96961264D01*
X108232222Y-96939684D01*
X108232222Y-96292227D01*
X108258873Y-96270647D01*
X108284594Y-96254949D01*
X108305600Y-96249067D01*
X108328614Y-96255877D01*
G36*
X108328614Y-96255877D02*
G01*
X108352327Y-96270647D01*
X108378978Y-96292227D01*
X108378978Y-96613773D01*
X108378893Y-96707830D01*
X108378529Y-96781932D01*
X108377724Y-96838704D01*
X108376313Y-96880768D01*
X108374133Y-96910748D01*
X108371021Y-96931267D01*
X108366814Y-96944949D01*
X108361348Y-96954416D01*
X108357472Y-96959082D01*
X108326034Y-96979575D01*
X108290233Y-96978739D01*
X108258873Y-96961264D01*
X108232222Y-96939684D01*
X108232222Y-96292227D01*
X108258873Y-96270647D01*
X108284594Y-96254949D01*
X108305600Y-96249067D01*
X108328614Y-96255877D01*
G37*
X110368823Y-96254533D02*
X110400202Y-96276776D01*
X110427911Y-96304485D01*
X110427911Y-96613920D01*
X110427838Y-96705799D01*
X110427495Y-96777840D01*
X110426692Y-96832780D01*
X110425241Y-96873360D01*
X110422952Y-96902317D01*
X110419636Y-96922391D01*
X110415105Y-96936321D01*
X110409169Y-96946845D01*
X110404514Y-96953100D01*
X110373783Y-96977673D01*
X110338496Y-96980341D01*
X110306245Y-96965271D01*
X110295588Y-96956374D01*
X110288464Y-96944557D01*
X110284167Y-96925526D01*
X110281991Y-96894992D01*
X110281228Y-96848662D01*
X110281155Y-96812871D01*
X110281155Y-96678045D01*
X109784444Y-96678045D01*
X109784444Y-96800700D01*
X109783931Y-96856787D01*
X109781876Y-96895333D01*
X109777508Y-96921361D01*
X109770056Y-96939897D01*
X109761047Y-96953100D01*
X109730144Y-96977604D01*
X109695196Y-96980506D01*
X109661738Y-96963089D01*
X109652604Y-96953959D01*
X109646152Y-96941855D01*
X109641897Y-96923001D01*
X109639352Y-96893620D01*
X109638029Y-96849937D01*
X109637443Y-96788175D01*
X109637375Y-96774000D01*
X109636891Y-96657631D01*
X109636641Y-96561727D01*
X109636723Y-96484177D01*
X109637231Y-96422869D01*
X109638262Y-96375690D01*
X109639913Y-96340530D01*
X109642279Y-96315276D01*
X109645457Y-96297817D01*
X109649544Y-96286041D01*
X109654634Y-96277835D01*
X109660266Y-96271645D01*
X109692128Y-96251844D01*
X109725357Y-96254533D01*
X109756735Y-96276776D01*
X109769433Y-96291126D01*
X109777526Y-96306978D01*
X109782042Y-96329554D01*
X109784006Y-96364078D01*
X109784444Y-96415776D01*
X109784444Y-96531289D01*
X110281155Y-96531289D01*
X110281155Y-96412756D01*
X110281662Y-96358148D01*
X110283698Y-96321275D01*
X110288035Y-96297307D01*
X110295447Y-96281415D01*
X110303733Y-96271645D01*
X110335594Y-96251844D01*
X110368823Y-96254533D01*
G36*
X110368823Y-96254533D02*
G01*
X110400202Y-96276776D01*
X110427911Y-96304485D01*
X110427911Y-96613920D01*
X110427838Y-96705799D01*
X110427495Y-96777840D01*
X110426692Y-96832780D01*
X110425241Y-96873360D01*
X110422952Y-96902317D01*
X110419636Y-96922391D01*
X110415105Y-96936321D01*
X110409169Y-96946845D01*
X110404514Y-96953100D01*
X110373783Y-96977673D01*
X110338496Y-96980341D01*
X110306245Y-96965271D01*
X110295588Y-96956374D01*
X110288464Y-96944557D01*
X110284167Y-96925526D01*
X110281991Y-96894992D01*
X110281228Y-96848662D01*
X110281155Y-96812871D01*
X110281155Y-96678045D01*
X109784444Y-96678045D01*
X109784444Y-96800700D01*
X109783931Y-96856787D01*
X109781876Y-96895333D01*
X109777508Y-96921361D01*
X109770056Y-96939897D01*
X109761047Y-96953100D01*
X109730144Y-96977604D01*
X109695196Y-96980506D01*
X109661738Y-96963089D01*
X109652604Y-96953959D01*
X109646152Y-96941855D01*
X109641897Y-96923001D01*
X109639352Y-96893620D01*
X109638029Y-96849937D01*
X109637443Y-96788175D01*
X109637375Y-96774000D01*
X109636891Y-96657631D01*
X109636641Y-96561727D01*
X109636723Y-96484177D01*
X109637231Y-96422869D01*
X109638262Y-96375690D01*
X109639913Y-96340530D01*
X109642279Y-96315276D01*
X109645457Y-96297817D01*
X109649544Y-96286041D01*
X109654634Y-96277835D01*
X109660266Y-96271645D01*
X109692128Y-96251844D01*
X109725357Y-96254533D01*
X109756735Y-96276776D01*
X109769433Y-96291126D01*
X109777526Y-96306978D01*
X109782042Y-96329554D01*
X109784006Y-96364078D01*
X109784444Y-96415776D01*
X109784444Y-96531289D01*
X110281155Y-96531289D01*
X110281155Y-96412756D01*
X110281662Y-96358148D01*
X110283698Y-96321275D01*
X110288035Y-96297307D01*
X110295447Y-96281415D01*
X110303733Y-96271645D01*
X110335594Y-96251844D01*
X110368823Y-96254533D01*
G37*
X102189919Y-96254599D02*
X102258435Y-96266095D01*
X102311057Y-96283967D01*
X102345292Y-96307499D01*
X102354621Y-96320924D01*
X102364107Y-96352148D01*
X102357723Y-96380395D01*
X102337570Y-96407182D01*
X102306255Y-96419713D01*
X102260817Y-96418696D01*
X102225674Y-96411906D01*
X102147581Y-96398971D01*
X102067774Y-96397742D01*
X101978445Y-96408241D01*
X101953771Y-96412690D01*
X101870709Y-96436108D01*
X101805727Y-96470945D01*
X101759539Y-96516604D01*
X101732855Y-96572494D01*
X101727337Y-96601388D01*
X101730949Y-96660012D01*
X101754271Y-96711879D01*
X101795176Y-96755978D01*
X101851541Y-96791299D01*
X101921240Y-96816829D01*
X102002148Y-96831559D01*
X102092140Y-96834478D01*
X102189090Y-96824575D01*
X102194564Y-96823641D01*
X102233125Y-96816459D01*
X102254506Y-96809521D01*
X102263773Y-96799227D01*
X102265994Y-96781976D01*
X102266044Y-96772841D01*
X102266044Y-96734489D01*
X102197569Y-96734489D01*
X102137100Y-96730347D01*
X102095835Y-96717147D01*
X102071825Y-96693730D01*
X102063123Y-96658936D01*
X102063017Y-96654394D01*
X102068108Y-96624654D01*
X102085567Y-96603419D01*
X102118061Y-96589366D01*
X102168257Y-96581173D01*
X102216877Y-96578161D01*
X102287544Y-96576433D01*
X102338802Y-96579070D01*
X102373761Y-96588800D01*
X102395530Y-96608353D01*
X102407220Y-96640456D01*
X102411940Y-96687838D01*
X102412800Y-96750071D01*
X102411391Y-96819535D01*
X102407152Y-96866786D01*
X102400064Y-96892012D01*
X102398689Y-96893988D01*
X102359772Y-96925508D01*
X102302714Y-96950470D01*
X102231131Y-96968340D01*
X102148642Y-96978586D01*
X102058861Y-96980673D01*
X101965408Y-96974068D01*
X101910444Y-96965956D01*
X101824234Y-96941554D01*
X101744108Y-96901662D01*
X101677023Y-96849887D01*
X101666827Y-96839539D01*
X101633698Y-96796035D01*
X101603806Y-96742118D01*
X101580643Y-96685592D01*
X101567702Y-96634259D01*
X101566142Y-96614544D01*
X101572782Y-96573419D01*
X101590432Y-96522252D01*
X101615703Y-96468394D01*
X101645211Y-96419195D01*
X101671281Y-96386334D01*
X101732235Y-96337452D01*
X101811031Y-96298545D01*
X101904843Y-96270494D01*
X102010850Y-96254179D01*
X102108000Y-96250192D01*
X102189919Y-96254599D01*
G36*
X102189919Y-96254599D02*
G01*
X102258435Y-96266095D01*
X102311057Y-96283967D01*
X102345292Y-96307499D01*
X102354621Y-96320924D01*
X102364107Y-96352148D01*
X102357723Y-96380395D01*
X102337570Y-96407182D01*
X102306255Y-96419713D01*
X102260817Y-96418696D01*
X102225674Y-96411906D01*
X102147581Y-96398971D01*
X102067774Y-96397742D01*
X101978445Y-96408241D01*
X101953771Y-96412690D01*
X101870709Y-96436108D01*
X101805727Y-96470945D01*
X101759539Y-96516604D01*
X101732855Y-96572494D01*
X101727337Y-96601388D01*
X101730949Y-96660012D01*
X101754271Y-96711879D01*
X101795176Y-96755978D01*
X101851541Y-96791299D01*
X101921240Y-96816829D01*
X102002148Y-96831559D01*
X102092140Y-96834478D01*
X102189090Y-96824575D01*
X102194564Y-96823641D01*
X102233125Y-96816459D01*
X102254506Y-96809521D01*
X102263773Y-96799227D01*
X102265994Y-96781976D01*
X102266044Y-96772841D01*
X102266044Y-96734489D01*
X102197569Y-96734489D01*
X102137100Y-96730347D01*
X102095835Y-96717147D01*
X102071825Y-96693730D01*
X102063123Y-96658936D01*
X102063017Y-96654394D01*
X102068108Y-96624654D01*
X102085567Y-96603419D01*
X102118061Y-96589366D01*
X102168257Y-96581173D01*
X102216877Y-96578161D01*
X102287544Y-96576433D01*
X102338802Y-96579070D01*
X102373761Y-96588800D01*
X102395530Y-96608353D01*
X102407220Y-96640456D01*
X102411940Y-96687838D01*
X102412800Y-96750071D01*
X102411391Y-96819535D01*
X102407152Y-96866786D01*
X102400064Y-96892012D01*
X102398689Y-96893988D01*
X102359772Y-96925508D01*
X102302714Y-96950470D01*
X102231131Y-96968340D01*
X102148642Y-96978586D01*
X102058861Y-96980673D01*
X101965408Y-96974068D01*
X101910444Y-96965956D01*
X101824234Y-96941554D01*
X101744108Y-96901662D01*
X101677023Y-96849887D01*
X101666827Y-96839539D01*
X101633698Y-96796035D01*
X101603806Y-96742118D01*
X101580643Y-96685592D01*
X101567702Y-96634259D01*
X101566142Y-96614544D01*
X101572782Y-96573419D01*
X101590432Y-96522252D01*
X101615703Y-96468394D01*
X101645211Y-96419195D01*
X101671281Y-96386334D01*
X101732235Y-96337452D01*
X101811031Y-96298545D01*
X101904843Y-96270494D01*
X102010850Y-96254179D01*
X102108000Y-96250192D01*
X102189919Y-96254599D01*
G37*
X105158309Y-96249275D02*
X105287288Y-96253636D01*
X105396991Y-96266861D01*
X105489226Y-96289741D01*
X105565802Y-96323070D01*
X105628527Y-96367638D01*
X105679212Y-96424236D01*
X105719663Y-96493658D01*
X105720459Y-96495351D01*
X105744601Y-96557483D01*
X105753203Y-96612509D01*
X105746231Y-96667887D01*
X105723654Y-96731073D01*
X105719372Y-96740689D01*
X105690172Y-96796966D01*
X105657356Y-96840451D01*
X105615002Y-96877417D01*
X105557190Y-96914135D01*
X105553831Y-96916052D01*
X105503504Y-96940227D01*
X105446621Y-96958282D01*
X105379527Y-96970839D01*
X105298565Y-96978522D01*
X105200082Y-96981953D01*
X105165286Y-96982251D01*
X104999594Y-96982845D01*
X104976197Y-96953100D01*
X104969257Y-96943319D01*
X104963842Y-96931897D01*
X104959765Y-96916095D01*
X104956837Y-96893175D01*
X104954867Y-96860396D01*
X104954225Y-96836089D01*
X105110844Y-96836089D01*
X105204726Y-96836089D01*
X105259664Y-96834483D01*
X105316060Y-96830255D01*
X105362345Y-96824292D01*
X105365139Y-96823790D01*
X105447348Y-96801736D01*
X105511114Y-96768600D01*
X105558452Y-96722847D01*
X105591382Y-96662939D01*
X105597108Y-96647061D01*
X105602721Y-96622333D01*
X105600291Y-96597902D01*
X105588467Y-96565400D01*
X105581340Y-96549434D01*
X105558000Y-96507006D01*
X105529880Y-96477240D01*
X105498940Y-96456511D01*
X105436966Y-96429537D01*
X105357651Y-96409998D01*
X105265253Y-96398746D01*
X105198333Y-96396270D01*
X105110844Y-96395822D01*
X105110844Y-96836089D01*
X104954225Y-96836089D01*
X104953668Y-96815021D01*
X104953050Y-96754311D01*
X104952825Y-96675526D01*
X104952800Y-96613920D01*
X104952800Y-96304485D01*
X104980509Y-96276776D01*
X104992806Y-96265544D01*
X105006103Y-96257853D01*
X105024672Y-96253040D01*
X105052786Y-96250446D01*
X105094717Y-96249410D01*
X105154737Y-96249270D01*
X105158309Y-96249275D01*
G36*
X105158309Y-96249275D02*
G01*
X105287288Y-96253636D01*
X105396991Y-96266861D01*
X105489226Y-96289741D01*
X105565802Y-96323070D01*
X105628527Y-96367638D01*
X105679212Y-96424236D01*
X105719663Y-96493658D01*
X105720459Y-96495351D01*
X105744601Y-96557483D01*
X105753203Y-96612509D01*
X105746231Y-96667887D01*
X105723654Y-96731073D01*
X105719372Y-96740689D01*
X105690172Y-96796966D01*
X105657356Y-96840451D01*
X105615002Y-96877417D01*
X105557190Y-96914135D01*
X105553831Y-96916052D01*
X105503504Y-96940227D01*
X105446621Y-96958282D01*
X105379527Y-96970839D01*
X105298565Y-96978522D01*
X105200082Y-96981953D01*
X105165286Y-96982251D01*
X104999594Y-96982845D01*
X104976197Y-96953100D01*
X104969257Y-96943319D01*
X104963842Y-96931897D01*
X104959765Y-96916095D01*
X104956837Y-96893175D01*
X104954867Y-96860396D01*
X104954225Y-96836089D01*
X105110844Y-96836089D01*
X105204726Y-96836089D01*
X105259664Y-96834483D01*
X105316060Y-96830255D01*
X105362345Y-96824292D01*
X105365139Y-96823790D01*
X105447348Y-96801736D01*
X105511114Y-96768600D01*
X105558452Y-96722847D01*
X105591382Y-96662939D01*
X105597108Y-96647061D01*
X105602721Y-96622333D01*
X105600291Y-96597902D01*
X105588467Y-96565400D01*
X105581340Y-96549434D01*
X105558000Y-96507006D01*
X105529880Y-96477240D01*
X105498940Y-96456511D01*
X105436966Y-96429537D01*
X105357651Y-96409998D01*
X105265253Y-96398746D01*
X105198333Y-96396270D01*
X105110844Y-96395822D01*
X105110844Y-96836089D01*
X104954225Y-96836089D01*
X104953668Y-96815021D01*
X104953050Y-96754311D01*
X104952825Y-96675526D01*
X104952800Y-96613920D01*
X104952800Y-96304485D01*
X104980509Y-96276776D01*
X104992806Y-96265544D01*
X105006103Y-96257853D01*
X105024672Y-96253040D01*
X105052786Y-96250446D01*
X105094717Y-96249410D01*
X105154737Y-96249270D01*
X105158309Y-96249275D01*
G37*
X104468429Y-91929071D02*
X104628570Y-91950245D01*
X104792510Y-91990385D01*
X104962313Y-92049889D01*
X105140043Y-92129154D01*
X105151310Y-92134699D01*
X105209005Y-92162725D01*
X105260552Y-92186802D01*
X105302191Y-92205249D01*
X105330162Y-92216386D01*
X105339733Y-92218933D01*
X105358950Y-92223941D01*
X105363561Y-92228147D01*
X105358458Y-92238580D01*
X105342418Y-92264868D01*
X105317288Y-92304257D01*
X105284914Y-92353991D01*
X105247143Y-92411315D01*
X105205822Y-92473476D01*
X105162798Y-92537718D01*
X105119917Y-92601285D01*
X105079026Y-92661425D01*
X105041971Y-92715380D01*
X105010600Y-92760397D01*
X104986759Y-92793721D01*
X104972294Y-92812597D01*
X104970309Y-92814787D01*
X104960191Y-92810138D01*
X104937850Y-92792962D01*
X104907280Y-92766440D01*
X104891536Y-92751964D01*
X104795047Y-92676682D01*
X104688336Y-92621241D01*
X104572832Y-92586141D01*
X104449962Y-92571880D01*
X104380561Y-92573051D01*
X104259423Y-92590212D01*
X104150205Y-92626094D01*
X104052582Y-92680959D01*
X103966228Y-92755070D01*
X103890815Y-92848688D01*
X103826018Y-92962076D01*
X103788601Y-93048667D01*
X103744748Y-93184366D01*
X103712428Y-93331850D01*
X103691557Y-93487314D01*
X103682051Y-93646956D01*
X103683827Y-93806973D01*
X103696803Y-93963561D01*
X103720894Y-94112918D01*
X103756018Y-94251240D01*
X103802092Y-94374724D01*
X103818373Y-94408978D01*
X103886620Y-94523064D01*
X103967079Y-94619557D01*
X104058570Y-94697670D01*
X104159911Y-94756617D01*
X104269920Y-94795612D01*
X104387415Y-94813868D01*
X104428883Y-94815211D01*
X104550441Y-94804290D01*
X104670878Y-94771474D01*
X104788666Y-94717439D01*
X104902277Y-94642865D01*
X104993685Y-94564539D01*
X105040215Y-94520008D01*
X105221483Y-94817271D01*
X105266580Y-94891433D01*
X105307819Y-94959646D01*
X105343735Y-95019459D01*
X105372866Y-95068420D01*
X105393750Y-95104079D01*
X105404924Y-95123984D01*
X105406375Y-95127079D01*
X105398146Y-95136718D01*
X105372567Y-95153999D01*
X105332873Y-95177283D01*
X105282297Y-95204934D01*
X105224074Y-95235315D01*
X105161437Y-95266790D01*
X105097621Y-95297722D01*
X105035860Y-95326473D01*
X104979388Y-95351408D01*
X104931438Y-95370889D01*
X104907986Y-95379318D01*
X104774221Y-95417133D01*
X104636327Y-95442136D01*
X104488622Y-95455140D01*
X104361833Y-95457468D01*
X104293878Y-95456373D01*
X104228277Y-95454275D01*
X104170847Y-95451434D01*
X104127403Y-95448106D01*
X104113298Y-95446422D01*
X103974284Y-95417587D01*
X103832757Y-95372468D01*
X103695275Y-95313750D01*
X103568394Y-95244120D01*
X103490889Y-95191441D01*
X103363481Y-95083239D01*
X103245178Y-94956671D01*
X103138172Y-94814866D01*
X103044652Y-94660951D01*
X102966810Y-94498053D01*
X102922956Y-94380756D01*
X102872708Y-94197128D01*
X102839209Y-94002581D01*
X102822449Y-93801325D01*
X102822416Y-93597568D01*
X102839101Y-93395521D01*
X102872493Y-93199392D01*
X102922580Y-93013391D01*
X102926397Y-93001803D01*
X102989281Y-92839750D01*
X103066028Y-92691832D01*
X103159242Y-92553865D01*
X103271527Y-92421661D01*
X103315392Y-92376399D01*
X103451534Y-92252457D01*
X103591491Y-92149915D01*
X103737411Y-92067656D01*
X103891442Y-92004564D01*
X104055732Y-91959523D01*
X104151289Y-91942033D01*
X104310023Y-91926466D01*
X104468429Y-91929071D01*
G36*
X104468429Y-91929071D02*
G01*
X104628570Y-91950245D01*
X104792510Y-91990385D01*
X104962313Y-92049889D01*
X105140043Y-92129154D01*
X105151310Y-92134699D01*
X105209005Y-92162725D01*
X105260552Y-92186802D01*
X105302191Y-92205249D01*
X105330162Y-92216386D01*
X105339733Y-92218933D01*
X105358950Y-92223941D01*
X105363561Y-92228147D01*
X105358458Y-92238580D01*
X105342418Y-92264868D01*
X105317288Y-92304257D01*
X105284914Y-92353991D01*
X105247143Y-92411315D01*
X105205822Y-92473476D01*
X105162798Y-92537718D01*
X105119917Y-92601285D01*
X105079026Y-92661425D01*
X105041971Y-92715380D01*
X105010600Y-92760397D01*
X104986759Y-92793721D01*
X104972294Y-92812597D01*
X104970309Y-92814787D01*
X104960191Y-92810138D01*
X104937850Y-92792962D01*
X104907280Y-92766440D01*
X104891536Y-92751964D01*
X104795047Y-92676682D01*
X104688336Y-92621241D01*
X104572832Y-92586141D01*
X104449962Y-92571880D01*
X104380561Y-92573051D01*
X104259423Y-92590212D01*
X104150205Y-92626094D01*
X104052582Y-92680959D01*
X103966228Y-92755070D01*
X103890815Y-92848688D01*
X103826018Y-92962076D01*
X103788601Y-93048667D01*
X103744748Y-93184366D01*
X103712428Y-93331850D01*
X103691557Y-93487314D01*
X103682051Y-93646956D01*
X103683827Y-93806973D01*
X103696803Y-93963561D01*
X103720894Y-94112918D01*
X103756018Y-94251240D01*
X103802092Y-94374724D01*
X103818373Y-94408978D01*
X103886620Y-94523064D01*
X103967079Y-94619557D01*
X104058570Y-94697670D01*
X104159911Y-94756617D01*
X104269920Y-94795612D01*
X104387415Y-94813868D01*
X104428883Y-94815211D01*
X104550441Y-94804290D01*
X104670878Y-94771474D01*
X104788666Y-94717439D01*
X104902277Y-94642865D01*
X104993685Y-94564539D01*
X105040215Y-94520008D01*
X105221483Y-94817271D01*
X105266580Y-94891433D01*
X105307819Y-94959646D01*
X105343735Y-95019459D01*
X105372866Y-95068420D01*
X105393750Y-95104079D01*
X105404924Y-95123984D01*
X105406375Y-95127079D01*
X105398146Y-95136718D01*
X105372567Y-95153999D01*
X105332873Y-95177283D01*
X105282297Y-95204934D01*
X105224074Y-95235315D01*
X105161437Y-95266790D01*
X105097621Y-95297722D01*
X105035860Y-95326473D01*
X104979388Y-95351408D01*
X104931438Y-95370889D01*
X104907986Y-95379318D01*
X104774221Y-95417133D01*
X104636327Y-95442136D01*
X104488622Y-95455140D01*
X104361833Y-95457468D01*
X104293878Y-95456373D01*
X104228277Y-95454275D01*
X104170847Y-95451434D01*
X104127403Y-95448106D01*
X104113298Y-95446422D01*
X103974284Y-95417587D01*
X103832757Y-95372468D01*
X103695275Y-95313750D01*
X103568394Y-95244120D01*
X103490889Y-95191441D01*
X103363481Y-95083239D01*
X103245178Y-94956671D01*
X103138172Y-94814866D01*
X103044652Y-94660951D01*
X102966810Y-94498053D01*
X102922956Y-94380756D01*
X102872708Y-94197128D01*
X102839209Y-94002581D01*
X102822449Y-93801325D01*
X102822416Y-93597568D01*
X102839101Y-93395521D01*
X102872493Y-93199392D01*
X102922580Y-93013391D01*
X102926397Y-93001803D01*
X102989281Y-92839750D01*
X103066028Y-92691832D01*
X103159242Y-92553865D01*
X103271527Y-92421661D01*
X103315392Y-92376399D01*
X103451534Y-92252457D01*
X103591491Y-92149915D01*
X103737411Y-92067656D01*
X103891442Y-92004564D01*
X104055732Y-91959523D01*
X104151289Y-91942033D01*
X104310023Y-91926466D01*
X104468429Y-91929071D01*
G37*
X101216178Y-96271645D02*
X101222758Y-96279218D01*
X101227921Y-96288987D01*
X101231836Y-96303571D01*
X101234676Y-96325585D01*
X101236613Y-96357648D01*
X101237817Y-96402375D01*
X101238461Y-96462385D01*
X101238716Y-96540294D01*
X101238755Y-96615956D01*
X101238686Y-96709802D01*
X101238362Y-96783689D01*
X101237614Y-96840232D01*
X101236268Y-96882049D01*
X101234154Y-96911757D01*
X101231100Y-96931973D01*
X101226934Y-96945314D01*
X101221484Y-96954398D01*
X101216178Y-96960267D01*
X101183174Y-96979947D01*
X101148009Y-96978181D01*
X101116545Y-96956717D01*
X101109316Y-96948337D01*
X101103666Y-96938614D01*
X101099401Y-96924861D01*
X101096327Y-96904389D01*
X101094248Y-96874512D01*
X101092970Y-96832541D01*
X101092299Y-96775789D01*
X101092041Y-96701567D01*
X101092000Y-96617537D01*
X101092000Y-96304485D01*
X101119709Y-96276776D01*
X101153863Y-96253463D01*
X101186994Y-96252623D01*
X101216178Y-96271645D01*
G36*
X101216178Y-96271645D02*
G01*
X101222758Y-96279218D01*
X101227921Y-96288987D01*
X101231836Y-96303571D01*
X101234676Y-96325585D01*
X101236613Y-96357648D01*
X101237817Y-96402375D01*
X101238461Y-96462385D01*
X101238716Y-96540294D01*
X101238755Y-96615956D01*
X101238686Y-96709802D01*
X101238362Y-96783689D01*
X101237614Y-96840232D01*
X101236268Y-96882049D01*
X101234154Y-96911757D01*
X101231100Y-96931973D01*
X101226934Y-96945314D01*
X101221484Y-96954398D01*
X101216178Y-96960267D01*
X101183174Y-96979947D01*
X101148009Y-96978181D01*
X101116545Y-96956717D01*
X101109316Y-96948337D01*
X101103666Y-96938614D01*
X101099401Y-96924861D01*
X101096327Y-96904389D01*
X101094248Y-96874512D01*
X101092970Y-96832541D01*
X101092299Y-96775789D01*
X101092041Y-96701567D01*
X101092000Y-96617537D01*
X101092000Y-96304485D01*
X101119709Y-96276776D01*
X101153863Y-96253463D01*
X101186994Y-96252623D01*
X101216178Y-96271645D01*
G37*
X106813574Y-92846552D02*
X106965492Y-92866567D01*
X107100756Y-92900202D01*
X107220239Y-92947725D01*
X107324815Y-93009405D01*
X107402424Y-93072965D01*
X107471265Y-93147099D01*
X107525006Y-93226871D01*
X107567910Y-93319091D01*
X107583384Y-93362161D01*
X107596244Y-93401142D01*
X107607446Y-93437289D01*
X107617120Y-93472434D01*
X107625396Y-93508410D01*
X107632403Y-93547050D01*
X107638272Y-93590185D01*
X107643131Y-93639649D01*
X107647110Y-93697273D01*
X107650340Y-93764891D01*
X107652949Y-93844334D01*
X107655067Y-93937436D01*
X107656824Y-94046027D01*
X107658349Y-94171942D01*
X107659772Y-94317012D01*
X107661025Y-94459778D01*
X107662351Y-94615968D01*
X107663556Y-94751239D01*
X107664766Y-94867246D01*
X107666106Y-94965645D01*
X107667700Y-95048093D01*
X107669675Y-95116246D01*
X107672156Y-95171760D01*
X107675269Y-95216292D01*
X107679138Y-95251498D01*
X107683889Y-95279034D01*
X107689648Y-95300556D01*
X107696539Y-95317722D01*
X107704689Y-95332186D01*
X107714223Y-95345606D01*
X107725266Y-95359638D01*
X107729566Y-95365071D01*
X107745386Y-95387910D01*
X107752422Y-95403463D01*
X107752444Y-95403922D01*
X107741567Y-95406121D01*
X107710582Y-95408147D01*
X107661957Y-95409942D01*
X107598163Y-95411451D01*
X107521669Y-95412616D01*
X107434944Y-95413380D01*
X107340457Y-95413686D01*
X107329550Y-95413689D01*
X106906657Y-95413689D01*
X106903395Y-95317622D01*
X106900133Y-95221556D01*
X106838044Y-95272543D01*
X106740714Y-95340057D01*
X106630813Y-95394749D01*
X106544349Y-95424978D01*
X106475278Y-95439666D01*
X106391925Y-95449659D01*
X106302159Y-95454646D01*
X106213845Y-95454313D01*
X106134851Y-95448351D01*
X106098622Y-95442638D01*
X105958603Y-95404776D01*
X105832178Y-95349932D01*
X105720260Y-95278924D01*
X105623762Y-95192568D01*
X105543600Y-95091679D01*
X105480687Y-94977076D01*
X105436312Y-94850984D01*
X105423978Y-94794401D01*
X105416368Y-94732202D01*
X105412739Y-94657363D01*
X105412245Y-94623467D01*
X105412310Y-94620282D01*
X106172248Y-94620282D01*
X106181541Y-94695333D01*
X106209728Y-94759160D01*
X106258197Y-94814798D01*
X106263254Y-94819211D01*
X106311548Y-94854037D01*
X106363257Y-94876620D01*
X106423989Y-94888540D01*
X106499352Y-94891383D01*
X106517459Y-94890978D01*
X106571278Y-94888325D01*
X106611308Y-94882909D01*
X106646324Y-94872745D01*
X106685103Y-94855850D01*
X106695745Y-94850672D01*
X106756396Y-94814844D01*
X106803215Y-94772212D01*
X106815952Y-94756973D01*
X106860622Y-94700462D01*
X106860622Y-94504586D01*
X106860086Y-94425939D01*
X106858396Y-94367988D01*
X106855428Y-94328875D01*
X106851057Y-94306741D01*
X106846972Y-94300274D01*
X106831047Y-94297111D01*
X106797264Y-94294488D01*
X106750340Y-94292655D01*
X106694993Y-94291857D01*
X106686106Y-94291842D01*
X106565330Y-94297096D01*
X106462660Y-94313263D01*
X106376106Y-94340961D01*
X106303681Y-94380808D01*
X106248751Y-94427758D01*
X106204204Y-94485645D01*
X106179480Y-94548693D01*
X106172248Y-94620282D01*
X105412310Y-94620282D01*
X105414178Y-94529712D01*
X105422522Y-94450812D01*
X105438768Y-94379590D01*
X105464405Y-94308864D01*
X105488401Y-94256493D01*
X105547020Y-94161196D01*
X105625117Y-94073170D01*
X105720315Y-93994017D01*
X105830238Y-93925340D01*
X105952510Y-93868741D01*
X106084755Y-93825821D01*
X106149422Y-93810882D01*
X106285604Y-93788777D01*
X106434049Y-93774194D01*
X106585505Y-93767813D01*
X106712064Y-93769445D01*
X106873950Y-93776224D01*
X106866530Y-93717245D01*
X106847238Y-93618092D01*
X106816104Y-93537372D01*
X106772269Y-93474466D01*
X106714871Y-93428756D01*
X106643048Y-93399622D01*
X106555941Y-93386447D01*
X106452686Y-93388611D01*
X106414711Y-93392612D01*
X106273520Y-93417780D01*
X106136707Y-93458814D01*
X106042178Y-93496815D01*
X105997018Y-93516190D01*
X105958585Y-93531760D01*
X105932234Y-93541405D01*
X105924546Y-93543452D01*
X105914802Y-93534374D01*
X105898083Y-93505405D01*
X105874232Y-93456217D01*
X105843093Y-93386484D01*
X105804507Y-93295879D01*
X105797910Y-93280089D01*
X105767853Y-93207772D01*
X105740874Y-93142425D01*
X105718136Y-93086906D01*
X105700806Y-93044072D01*
X105690048Y-93016781D01*
X105686941Y-93007942D01*
X105696940Y-93003187D01*
X105723217Y-92997910D01*
X105751489Y-92994231D01*
X105781646Y-92989474D01*
X105829433Y-92980028D01*
X105890612Y-92966820D01*
X105960946Y-92950776D01*
X106036194Y-92932820D01*
X106064755Y-92925797D01*
X106169816Y-92900209D01*
X106257480Y-92880147D01*
X106332068Y-92864969D01*
X106397903Y-92854035D01*
X106459307Y-92846704D01*
X106520602Y-92842335D01*
X106586110Y-92840287D01*
X106644128Y-92839889D01*
X106813574Y-92846552D01*
G36*
X106813574Y-92846552D02*
G01*
X106965492Y-92866567D01*
X107100756Y-92900202D01*
X107220239Y-92947725D01*
X107324815Y-93009405D01*
X107402424Y-93072965D01*
X107471265Y-93147099D01*
X107525006Y-93226871D01*
X107567910Y-93319091D01*
X107583384Y-93362161D01*
X107596244Y-93401142D01*
X107607446Y-93437289D01*
X107617120Y-93472434D01*
X107625396Y-93508410D01*
X107632403Y-93547050D01*
X107638272Y-93590185D01*
X107643131Y-93639649D01*
X107647110Y-93697273D01*
X107650340Y-93764891D01*
X107652949Y-93844334D01*
X107655067Y-93937436D01*
X107656824Y-94046027D01*
X107658349Y-94171942D01*
X107659772Y-94317012D01*
X107661025Y-94459778D01*
X107662351Y-94615968D01*
X107663556Y-94751239D01*
X107664766Y-94867246D01*
X107666106Y-94965645D01*
X107667700Y-95048093D01*
X107669675Y-95116246D01*
X107672156Y-95171760D01*
X107675269Y-95216292D01*
X107679138Y-95251498D01*
X107683889Y-95279034D01*
X107689648Y-95300556D01*
X107696539Y-95317722D01*
X107704689Y-95332186D01*
X107714223Y-95345606D01*
X107725266Y-95359638D01*
X107729566Y-95365071D01*
X107745386Y-95387910D01*
X107752422Y-95403463D01*
X107752444Y-95403922D01*
X107741567Y-95406121D01*
X107710582Y-95408147D01*
X107661957Y-95409942D01*
X107598163Y-95411451D01*
X107521669Y-95412616D01*
X107434944Y-95413380D01*
X107340457Y-95413686D01*
X107329550Y-95413689D01*
X106906657Y-95413689D01*
X106903395Y-95317622D01*
X106900133Y-95221556D01*
X106838044Y-95272543D01*
X106740714Y-95340057D01*
X106630813Y-95394749D01*
X106544349Y-95424978D01*
X106475278Y-95439666D01*
X106391925Y-95449659D01*
X106302159Y-95454646D01*
X106213845Y-95454313D01*
X106134851Y-95448351D01*
X106098622Y-95442638D01*
X105958603Y-95404776D01*
X105832178Y-95349932D01*
X105720260Y-95278924D01*
X105623762Y-95192568D01*
X105543600Y-95091679D01*
X105480687Y-94977076D01*
X105436312Y-94850984D01*
X105423978Y-94794401D01*
X105416368Y-94732202D01*
X105412739Y-94657363D01*
X105412245Y-94623467D01*
X105412310Y-94620282D01*
X106172248Y-94620282D01*
X106181541Y-94695333D01*
X106209728Y-94759160D01*
X106258197Y-94814798D01*
X106263254Y-94819211D01*
X106311548Y-94854037D01*
X106363257Y-94876620D01*
X106423989Y-94888540D01*
X106499352Y-94891383D01*
X106517459Y-94890978D01*
X106571278Y-94888325D01*
X106611308Y-94882909D01*
X106646324Y-94872745D01*
X106685103Y-94855850D01*
X106695745Y-94850672D01*
X106756396Y-94814844D01*
X106803215Y-94772212D01*
X106815952Y-94756973D01*
X106860622Y-94700462D01*
X106860622Y-94504586D01*
X106860086Y-94425939D01*
X106858396Y-94367988D01*
X106855428Y-94328875D01*
X106851057Y-94306741D01*
X106846972Y-94300274D01*
X106831047Y-94297111D01*
X106797264Y-94294488D01*
X106750340Y-94292655D01*
X106694993Y-94291857D01*
X106686106Y-94291842D01*
X106565330Y-94297096D01*
X106462660Y-94313263D01*
X106376106Y-94340961D01*
X106303681Y-94380808D01*
X106248751Y-94427758D01*
X106204204Y-94485645D01*
X106179480Y-94548693D01*
X106172248Y-94620282D01*
X105412310Y-94620282D01*
X105414178Y-94529712D01*
X105422522Y-94450812D01*
X105438768Y-94379590D01*
X105464405Y-94308864D01*
X105488401Y-94256493D01*
X105547020Y-94161196D01*
X105625117Y-94073170D01*
X105720315Y-93994017D01*
X105830238Y-93925340D01*
X105952510Y-93868741D01*
X106084755Y-93825821D01*
X106149422Y-93810882D01*
X106285604Y-93788777D01*
X106434049Y-93774194D01*
X106585505Y-93767813D01*
X106712064Y-93769445D01*
X106873950Y-93776224D01*
X106866530Y-93717245D01*
X106847238Y-93618092D01*
X106816104Y-93537372D01*
X106772269Y-93474466D01*
X106714871Y-93428756D01*
X106643048Y-93399622D01*
X106555941Y-93386447D01*
X106452686Y-93388611D01*
X106414711Y-93392612D01*
X106273520Y-93417780D01*
X106136707Y-93458814D01*
X106042178Y-93496815D01*
X105997018Y-93516190D01*
X105958585Y-93531760D01*
X105932234Y-93541405D01*
X105924546Y-93543452D01*
X105914802Y-93534374D01*
X105898083Y-93505405D01*
X105874232Y-93456217D01*
X105843093Y-93386484D01*
X105804507Y-93295879D01*
X105797910Y-93280089D01*
X105767853Y-93207772D01*
X105740874Y-93142425D01*
X105718136Y-93086906D01*
X105700806Y-93044072D01*
X105690048Y-93016781D01*
X105686941Y-93007942D01*
X105696940Y-93003187D01*
X105723217Y-92997910D01*
X105751489Y-92994231D01*
X105781646Y-92989474D01*
X105829433Y-92980028D01*
X105890612Y-92966820D01*
X105960946Y-92950776D01*
X106036194Y-92932820D01*
X106064755Y-92925797D01*
X106169816Y-92900209D01*
X106257480Y-92880147D01*
X106332068Y-92864969D01*
X106397903Y-92854035D01*
X106459307Y-92846704D01*
X106520602Y-92842335D01*
X106586110Y-92840287D01*
X106644128Y-92839889D01*
X106813574Y-92846552D01*
G37*
X100448297Y-96250351D02*
X100523112Y-96255581D01*
X100592694Y-96263750D01*
X100652998Y-96274550D01*
X100699980Y-96287673D01*
X100729594Y-96302813D01*
X100734140Y-96307269D01*
X100749946Y-96341850D01*
X100745153Y-96377351D01*
X100720636Y-96407725D01*
X100719466Y-96408596D01*
X100705046Y-96417954D01*
X100689992Y-96422876D01*
X100668995Y-96423473D01*
X100636743Y-96419861D01*
X100587927Y-96412154D01*
X100584000Y-96411505D01*
X100511261Y-96402569D01*
X100432783Y-96398161D01*
X100354073Y-96398119D01*
X100280639Y-96402279D01*
X100217989Y-96410479D01*
X100171630Y-96422557D01*
X100168584Y-96423771D01*
X100134952Y-96442615D01*
X100123136Y-96461685D01*
X100132386Y-96480439D01*
X100161953Y-96498337D01*
X100211089Y-96514837D01*
X100279043Y-96529396D01*
X100324355Y-96536406D01*
X100418544Y-96549889D01*
X100493456Y-96562214D01*
X100552283Y-96574449D01*
X100598215Y-96587661D01*
X100634445Y-96602917D01*
X100664162Y-96621285D01*
X100690558Y-96643831D01*
X100711770Y-96665971D01*
X100736935Y-96696819D01*
X100749319Y-96723345D01*
X100753192Y-96756026D01*
X100753333Y-96767995D01*
X100750424Y-96807712D01*
X100738798Y-96837259D01*
X100718677Y-96863486D01*
X100677784Y-96903576D01*
X100632183Y-96934149D01*
X100578487Y-96956203D01*
X100513308Y-96970735D01*
X100433256Y-96978741D01*
X100334943Y-96981218D01*
X100318711Y-96981177D01*
X100253151Y-96979818D01*
X100188134Y-96976730D01*
X100130748Y-96972356D01*
X100088078Y-96967140D01*
X100084628Y-96966541D01*
X100042204Y-96956491D01*
X100006220Y-96943796D01*
X99985850Y-96932190D01*
X99966893Y-96901572D01*
X99965573Y-96865918D01*
X99981915Y-96834144D01*
X99985571Y-96830551D01*
X100000685Y-96819876D01*
X100019585Y-96815276D01*
X100048838Y-96816059D01*
X100084349Y-96820127D01*
X100124030Y-96823762D01*
X100179655Y-96826828D01*
X100244594Y-96829053D01*
X100312215Y-96830164D01*
X100330000Y-96830237D01*
X100397872Y-96829964D01*
X100447546Y-96828646D01*
X100483390Y-96825827D01*
X100509776Y-96821050D01*
X100531074Y-96813857D01*
X100543874Y-96807867D01*
X100572000Y-96791233D01*
X100589932Y-96776168D01*
X100592553Y-96771897D01*
X100587024Y-96754263D01*
X100560740Y-96737192D01*
X100515522Y-96721458D01*
X100453192Y-96707838D01*
X100434829Y-96704804D01*
X100338910Y-96689738D01*
X100262359Y-96677146D01*
X100202220Y-96666111D01*
X100155540Y-96655720D01*
X100119363Y-96645056D01*
X100090735Y-96633205D01*
X100066702Y-96619251D01*
X100044308Y-96602281D01*
X100020598Y-96581378D01*
X100012620Y-96574049D01*
X99984647Y-96546699D01*
X99969840Y-96525029D01*
X99964048Y-96500232D01*
X99963111Y-96468983D01*
X99973425Y-96407705D01*
X100004248Y-96355640D01*
X100055405Y-96312958D01*
X100126717Y-96279825D01*
X100177600Y-96264964D01*
X100232900Y-96255366D01*
X100299147Y-96249936D01*
X100372294Y-96248367D01*
X100448297Y-96250351D01*
G36*
X100448297Y-96250351D02*
G01*
X100523112Y-96255581D01*
X100592694Y-96263750D01*
X100652998Y-96274550D01*
X100699980Y-96287673D01*
X100729594Y-96302813D01*
X100734140Y-96307269D01*
X100749946Y-96341850D01*
X100745153Y-96377351D01*
X100720636Y-96407725D01*
X100719466Y-96408596D01*
X100705046Y-96417954D01*
X100689992Y-96422876D01*
X100668995Y-96423473D01*
X100636743Y-96419861D01*
X100587927Y-96412154D01*
X100584000Y-96411505D01*
X100511261Y-96402569D01*
X100432783Y-96398161D01*
X100354073Y-96398119D01*
X100280639Y-96402279D01*
X100217989Y-96410479D01*
X100171630Y-96422557D01*
X100168584Y-96423771D01*
X100134952Y-96442615D01*
X100123136Y-96461685D01*
X100132386Y-96480439D01*
X100161953Y-96498337D01*
X100211089Y-96514837D01*
X100279043Y-96529396D01*
X100324355Y-96536406D01*
X100418544Y-96549889D01*
X100493456Y-96562214D01*
X100552283Y-96574449D01*
X100598215Y-96587661D01*
X100634445Y-96602917D01*
X100664162Y-96621285D01*
X100690558Y-96643831D01*
X100711770Y-96665971D01*
X100736935Y-96696819D01*
X100749319Y-96723345D01*
X100753192Y-96756026D01*
X100753333Y-96767995D01*
X100750424Y-96807712D01*
X100738798Y-96837259D01*
X100718677Y-96863486D01*
X100677784Y-96903576D01*
X100632183Y-96934149D01*
X100578487Y-96956203D01*
X100513308Y-96970735D01*
X100433256Y-96978741D01*
X100334943Y-96981218D01*
X100318711Y-96981177D01*
X100253151Y-96979818D01*
X100188134Y-96976730D01*
X100130748Y-96972356D01*
X100088078Y-96967140D01*
X100084628Y-96966541D01*
X100042204Y-96956491D01*
X100006220Y-96943796D01*
X99985850Y-96932190D01*
X99966893Y-96901572D01*
X99965573Y-96865918D01*
X99981915Y-96834144D01*
X99985571Y-96830551D01*
X100000685Y-96819876D01*
X100019585Y-96815276D01*
X100048838Y-96816059D01*
X100084349Y-96820127D01*
X100124030Y-96823762D01*
X100179655Y-96826828D01*
X100244594Y-96829053D01*
X100312215Y-96830164D01*
X100330000Y-96830237D01*
X100397872Y-96829964D01*
X100447546Y-96828646D01*
X100483390Y-96825827D01*
X100509776Y-96821050D01*
X100531074Y-96813857D01*
X100543874Y-96807867D01*
X100572000Y-96791233D01*
X100589932Y-96776168D01*
X100592553Y-96771897D01*
X100587024Y-96754263D01*
X100560740Y-96737192D01*
X100515522Y-96721458D01*
X100453192Y-96707838D01*
X100434829Y-96704804D01*
X100338910Y-96689738D01*
X100262359Y-96677146D01*
X100202220Y-96666111D01*
X100155540Y-96655720D01*
X100119363Y-96645056D01*
X100090735Y-96633205D01*
X100066702Y-96619251D01*
X100044308Y-96602281D01*
X100020598Y-96581378D01*
X100012620Y-96574049D01*
X99984647Y-96546699D01*
X99969840Y-96525029D01*
X99964048Y-96500232D01*
X99963111Y-96468983D01*
X99973425Y-96407705D01*
X100004248Y-96355640D01*
X100055405Y-96312958D01*
X100126717Y-96279825D01*
X100177600Y-96264964D01*
X100232900Y-96255366D01*
X100299147Y-96249936D01*
X100372294Y-96248367D01*
X100448297Y-96250351D01*
G37*
D12*
%TO.C,R2*%
X108180000Y-71120000D02*
X107410000Y-71120000D01*
X107410000Y-72490000D02*
X107410000Y-69750000D01*
X107410000Y-69750000D02*
X100870000Y-69750000D01*
X100870000Y-72490000D02*
X107410000Y-72490000D01*
X100870000Y-69750000D02*
X100870000Y-72490000D01*
X100100000Y-71120000D02*
X100870000Y-71120000D01*
%TO.C,C1*%
X110430000Y-84990000D02*
X110430000Y-87730000D01*
X110430000Y-84990000D02*
X115670000Y-84990000D01*
X110430000Y-87730000D02*
X115670000Y-87730000D01*
X115670000Y-84990000D02*
X115670000Y-87730000D01*
%TO.C,J1*%
X90170000Y-76200000D02*
X82550000Y-76200000D01*
X82550000Y-76200000D02*
X82550000Y-86360000D01*
X90170000Y-86360000D02*
X90170000Y-76200000D01*
X83820000Y-86360000D02*
X83820000Y-76200000D01*
X82550000Y-86360000D02*
X90170000Y-86360000D01*
%TO.C,D1*%
X112755000Y-82570000D02*
X115845000Y-82570000D01*
X114300462Y-77020001D02*
G75*
G03*
X112755170Y-82569999I-462J-2989999D01*
G01*
X115844830Y-82570000D02*
G75*
G03*
X114299538Y-77020000I-1544830J2560000D01*
G01*
X116800000Y-80010000D02*
G75*
G03*
X116800000Y-80010000I-2500000J0D01*
G01*
%TO.C,R1*%
X93980000Y-82780000D02*
X93980000Y-82010000D01*
X92610000Y-82010000D02*
X95350000Y-82010000D01*
X95350000Y-82010000D02*
X95350000Y-75470000D01*
X92610000Y-75470000D02*
X92610000Y-82010000D01*
X95350000Y-75470000D02*
X92610000Y-75470000D01*
X93980000Y-74700000D02*
X93980000Y-75470000D01*
%TO.C,R3*%
X99540000Y-76200000D02*
X100310000Y-76200000D01*
X100310000Y-74830000D02*
X100310000Y-77570000D01*
X100310000Y-77570000D02*
X106850000Y-77570000D01*
X106850000Y-74830000D02*
X100310000Y-74830000D01*
X106850000Y-77570000D02*
X106850000Y-74830000D01*
X107620000Y-76200000D02*
X106850000Y-76200000D01*
%TO.C,U1*%
X100460000Y-78690000D02*
X100460000Y-88970000D01*
X100460000Y-88970000D02*
X104960000Y-88970000D01*
X101710000Y-78690000D02*
X100460000Y-78690000D01*
X104960000Y-78690000D02*
X103710000Y-78690000D01*
X104960000Y-88970000D02*
X104960000Y-78690000D01*
X101710000Y-78690000D02*
G75*
G03*
X103710000Y-78690000I1000000J0D01*
G01*
%TD*%
M02*
