M48
; DRILL file {KiCad 7.0.5} date Mon Aug 21 09:14:14 2023
; FORMAT={-:-/ absolute / inch / decimal}
; #@! TF.CreationDate,2023-08-21T09:14:14+09:00
; #@! TF.GenerationSoftware,Kicad,Pcbnew,7.0.5
; #@! TF.FileFunction,Plated,1,2,PTH
FMAT,2
INCH
; #@! TA.AperFunction,Plated,PTH,ComponentDrill
T1C0.0315
; #@! TA.AperFunction,Plated,PTH,ComponentDrill
T2C0.0354
; #@! TA.AperFunction,Plated,PTH,ComponentDrill
T3C0.0598
%
G90
G05
T1
X3.7Y-2.9
X3.7Y-3.3
X3.878Y-3.0
X3.8937Y-3.1504
X3.8937Y-3.2504
X3.8937Y-3.3504
X3.8937Y-3.4504
X3.9Y-2.8
X4.1937Y-3.1504
X4.1937Y-3.2504
X4.1937Y-3.3504
X4.1937Y-3.4504
X4.278Y-3.0
X4.3Y-2.8
X4.4016Y-3.4
X4.5Y-3.4
T2
X4.5Y-3.1
X4.5Y-3.2
T3
X3.4Y-3.1
X3.4Y-3.3
T0
M30
