%TF.GenerationSoftware,KiCad,Pcbnew,7.0.5*%
%TF.CreationDate,2023-08-21T09:13:57+09:00*%
%TF.ProjectId,How to make PCB,486f7720-746f-4206-9d61-6b6520504342,rev?*%
%TF.SameCoordinates,Original*%
%TF.FileFunction,Copper,L2,Bot*%
%TF.FilePolarity,Positive*%
%FSLAX46Y46*%
G04 Gerber Fmt 4.6, Leading zero omitted, Abs format (unit mm)*
G04 Created by KiCad (PCBNEW 7.0.5) date 2023-08-21 09:13:57*
%MOMM*%
%LPD*%
G01*
G04 APERTURE LIST*
%TA.AperFunction,ComponentPad*%
%ADD10C,1.600000*%
%TD*%
%TA.AperFunction,ComponentPad*%
%ADD11O,1.600000X1.600000*%
%TD*%
%TA.AperFunction,ComponentPad*%
%ADD12R,3.000000X3.000000*%
%TD*%
%TA.AperFunction,ComponentPad*%
%ADD13C,3.000000*%
%TD*%
%TA.AperFunction,ComponentPad*%
%ADD14R,1.800000X1.800000*%
%TD*%
%TA.AperFunction,ComponentPad*%
%ADD15C,1.800000*%
%TD*%
%TA.AperFunction,ComponentPad*%
%ADD16R,2.400000X1.600000*%
%TD*%
%TA.AperFunction,ComponentPad*%
%ADD17O,2.400000X1.600000*%
%TD*%
G04 APERTURE END LIST*
D10*
%TO.P,R2,1*%
%TO.N,+9V*%
X109220000Y-71120000D03*
D11*
%TO.P,R2,2*%
%TO.N,1*%
X99060000Y-71120000D03*
%TD*%
D10*
%TO.P,C1,1*%
%TO.N,Net-(U1-THR)*%
X111800000Y-86360000D03*
%TO.P,C1,2*%
%TO.N,GND*%
X114300000Y-86360000D03*
%TD*%
D12*
%TO.P,J1,1,Pin_1*%
%TO.N,GND*%
X86360000Y-78740000D03*
D13*
%TO.P,J1,2,Pin_2*%
%TO.N,+9V*%
X86360000Y-83820000D03*
%TD*%
D14*
%TO.P,D1,1,K*%
%TO.N,GND*%
X114300000Y-81280000D03*
D15*
%TO.P,D1,2,A*%
%TO.N,Net-(D1-A)*%
X114300000Y-78740000D03*
%TD*%
D10*
%TO.P,R1,1*%
%TO.N,Net-(U1-THR)*%
X93980000Y-83820000D03*
D11*
%TO.P,R1,2*%
%TO.N,1*%
X93980000Y-73660000D03*
%TD*%
D10*
%TO.P,R3,1*%
%TO.N,Net-(U1-Q)*%
X98500000Y-76200000D03*
D11*
%TO.P,R3,2*%
%TO.N,Net-(D1-A)*%
X108660000Y-76200000D03*
%TD*%
D16*
%TO.P,U1,1,GND*%
%TO.N,GND*%
X98900000Y-80020000D03*
D17*
%TO.P,U1,2,TR*%
%TO.N,Net-(U1-THR)*%
X98900000Y-82560000D03*
%TO.P,U1,3,Q*%
%TO.N,Net-(U1-Q)*%
X98900000Y-85100000D03*
%TO.P,U1,4,R*%
%TO.N,+9V*%
X98900000Y-87640000D03*
%TO.P,U1,5,CV*%
%TO.N,unconnected-(U1-CV-Pad5)*%
X106520000Y-87640000D03*
%TO.P,U1,6,THR*%
%TO.N,Net-(U1-THR)*%
X106520000Y-85100000D03*
%TO.P,U1,7,DIS*%
%TO.N,1*%
X106520000Y-82560000D03*
%TO.P,U1,8,VCC*%
%TO.N,+9V*%
X106520000Y-80020000D03*
%TD*%
%TA.AperFunction,Conductor*%
%TO.N,GND*%
G36*
X124403039Y-66059685D02*
G01*
X124448794Y-66112489D01*
X124460000Y-66164000D01*
X124460000Y-73986214D01*
X124440315Y-74053253D01*
X124387511Y-74099008D01*
X124336000Y-74110214D01*
X119165214Y-74110214D01*
X119165214Y-76414786D01*
X124336000Y-76414786D01*
X124403039Y-76434471D01*
X124448794Y-76487275D01*
X124460000Y-76538786D01*
X124460000Y-96396000D01*
X124440315Y-96463039D01*
X124387511Y-96508794D01*
X124336000Y-96520000D01*
X83944000Y-96520000D01*
X83876961Y-96500315D01*
X83831206Y-96447511D01*
X83820000Y-96396000D01*
X83820000Y-94047763D01*
X84505787Y-94047763D01*
X84535413Y-94317013D01*
X84535415Y-94317024D01*
X84603926Y-94579082D01*
X84603928Y-94579088D01*
X84709870Y-94828390D01*
X84781998Y-94946575D01*
X84850979Y-95059605D01*
X84850986Y-95059615D01*
X85024253Y-95267819D01*
X85024259Y-95267824D01*
X85225998Y-95448582D01*
X85451910Y-95598044D01*
X85697176Y-95713020D01*
X85697183Y-95713022D01*
X85697185Y-95713023D01*
X85956557Y-95791057D01*
X85956564Y-95791058D01*
X85956569Y-95791060D01*
X86224561Y-95830500D01*
X86224566Y-95830500D01*
X86427629Y-95830500D01*
X86427631Y-95830500D01*
X86427636Y-95830499D01*
X86427648Y-95830499D01*
X86465191Y-95827750D01*
X86630156Y-95815677D01*
X86742758Y-95790593D01*
X86894546Y-95756782D01*
X86894548Y-95756781D01*
X86894553Y-95756780D01*
X87147558Y-95660014D01*
X87383777Y-95527441D01*
X87598177Y-95361888D01*
X87786186Y-95166881D01*
X87943799Y-94946579D01*
X88017787Y-94802669D01*
X88067649Y-94705690D01*
X88067651Y-94705684D01*
X88067656Y-94705675D01*
X88155118Y-94449305D01*
X88204319Y-94182933D01*
X88209259Y-94047763D01*
X120065787Y-94047763D01*
X120095413Y-94317013D01*
X120095415Y-94317024D01*
X120163926Y-94579082D01*
X120163928Y-94579088D01*
X120269870Y-94828390D01*
X120341998Y-94946575D01*
X120410979Y-95059605D01*
X120410986Y-95059615D01*
X120584253Y-95267819D01*
X120584259Y-95267824D01*
X120785998Y-95448582D01*
X121011910Y-95598044D01*
X121257176Y-95713020D01*
X121257183Y-95713022D01*
X121257185Y-95713023D01*
X121516557Y-95791057D01*
X121516564Y-95791058D01*
X121516569Y-95791060D01*
X121784561Y-95830500D01*
X121784566Y-95830500D01*
X121987629Y-95830500D01*
X121987631Y-95830500D01*
X121987636Y-95830499D01*
X121987648Y-95830499D01*
X122025191Y-95827750D01*
X122190156Y-95815677D01*
X122302758Y-95790593D01*
X122454546Y-95756782D01*
X122454548Y-95756781D01*
X122454553Y-95756780D01*
X122707558Y-95660014D01*
X122943777Y-95527441D01*
X123158177Y-95361888D01*
X123346186Y-95166881D01*
X123503799Y-94946579D01*
X123577787Y-94802669D01*
X123627649Y-94705690D01*
X123627651Y-94705684D01*
X123627656Y-94705675D01*
X123715118Y-94449305D01*
X123764319Y-94182933D01*
X123774212Y-93912235D01*
X123744586Y-93642982D01*
X123676072Y-93380912D01*
X123570130Y-93131610D01*
X123429018Y-92900390D01*
X123339747Y-92793119D01*
X123255746Y-92692180D01*
X123255740Y-92692175D01*
X123054002Y-92511418D01*
X122828092Y-92361957D01*
X122828090Y-92361956D01*
X122582824Y-92246980D01*
X122582819Y-92246978D01*
X122582814Y-92246976D01*
X122323442Y-92168942D01*
X122323428Y-92168939D01*
X122207791Y-92151921D01*
X122055439Y-92129500D01*
X121852369Y-92129500D01*
X121852351Y-92129500D01*
X121649844Y-92144323D01*
X121649831Y-92144325D01*
X121385453Y-92203217D01*
X121385446Y-92203220D01*
X121132439Y-92299987D01*
X120896226Y-92432557D01*
X120681822Y-92598112D01*
X120493822Y-92793109D01*
X120493816Y-92793116D01*
X120336202Y-93013419D01*
X120336199Y-93013424D01*
X120212350Y-93254309D01*
X120212343Y-93254327D01*
X120124884Y-93510685D01*
X120124881Y-93510699D01*
X120075681Y-93777068D01*
X120075680Y-93777075D01*
X120065787Y-94047763D01*
X88209259Y-94047763D01*
X88214212Y-93912235D01*
X88184586Y-93642982D01*
X88116072Y-93380912D01*
X88010130Y-93131610D01*
X87869018Y-92900390D01*
X87779747Y-92793119D01*
X87695746Y-92692180D01*
X87695740Y-92692175D01*
X87494002Y-92511418D01*
X87268092Y-92361957D01*
X87268090Y-92361956D01*
X87022824Y-92246980D01*
X87022819Y-92246978D01*
X87022814Y-92246976D01*
X86763442Y-92168942D01*
X86763428Y-92168939D01*
X86647791Y-92151921D01*
X86495439Y-92129500D01*
X86292369Y-92129500D01*
X86292351Y-92129500D01*
X86089844Y-92144323D01*
X86089831Y-92144325D01*
X85825453Y-92203217D01*
X85825446Y-92203220D01*
X85572439Y-92299987D01*
X85336226Y-92432557D01*
X85121822Y-92598112D01*
X84933822Y-92793109D01*
X84933816Y-92793116D01*
X84776202Y-93013419D01*
X84776199Y-93013424D01*
X84652350Y-93254309D01*
X84652343Y-93254327D01*
X84564884Y-93510685D01*
X84564881Y-93510699D01*
X84515681Y-93777068D01*
X84515680Y-93777075D01*
X84505787Y-94047763D01*
X83820000Y-94047763D01*
X83820000Y-87640001D01*
X97194532Y-87640001D01*
X97214364Y-87866686D01*
X97214366Y-87866697D01*
X97273258Y-88086488D01*
X97273261Y-88086497D01*
X97369431Y-88292732D01*
X97369432Y-88292734D01*
X97499954Y-88479141D01*
X97660858Y-88640045D01*
X97660861Y-88640047D01*
X97847266Y-88770568D01*
X98053504Y-88866739D01*
X98273308Y-88925635D01*
X98443214Y-88940499D01*
X98443215Y-88940500D01*
X98443216Y-88940500D01*
X99356785Y-88940500D01*
X99356785Y-88940499D01*
X99526692Y-88925635D01*
X99746496Y-88866739D01*
X99952734Y-88770568D01*
X100139139Y-88640047D01*
X100300047Y-88479139D01*
X100430568Y-88292734D01*
X100526739Y-88086496D01*
X100585635Y-87866692D01*
X100605468Y-87640001D01*
X104814532Y-87640001D01*
X104834364Y-87866686D01*
X104834366Y-87866697D01*
X104893258Y-88086488D01*
X104893261Y-88086497D01*
X104989431Y-88292732D01*
X104989432Y-88292734D01*
X105119954Y-88479141D01*
X105280858Y-88640045D01*
X105280861Y-88640047D01*
X105467266Y-88770568D01*
X105673504Y-88866739D01*
X105893308Y-88925635D01*
X106063214Y-88940499D01*
X106063215Y-88940500D01*
X106063216Y-88940500D01*
X106976785Y-88940500D01*
X106976785Y-88940499D01*
X107146692Y-88925635D01*
X107366496Y-88866739D01*
X107572734Y-88770568D01*
X107759139Y-88640047D01*
X107920047Y-88479139D01*
X108050568Y-88292734D01*
X108146739Y-88086496D01*
X108205635Y-87866692D01*
X108225468Y-87640000D01*
X108205635Y-87413308D01*
X108160916Y-87246415D01*
X108146741Y-87193511D01*
X108146738Y-87193502D01*
X108050568Y-86987266D01*
X107920047Y-86800861D01*
X107920045Y-86800858D01*
X107759141Y-86639954D01*
X107572734Y-86509432D01*
X107572728Y-86509429D01*
X107514725Y-86482382D01*
X107462285Y-86436210D01*
X107443133Y-86369017D01*
X107445858Y-86360001D01*
X110494532Y-86360001D01*
X110514364Y-86586686D01*
X110514366Y-86586697D01*
X110573258Y-86806488D01*
X110573261Y-86806497D01*
X110669431Y-87012732D01*
X110669432Y-87012734D01*
X110799954Y-87199141D01*
X110960858Y-87360045D01*
X110960861Y-87360047D01*
X111147266Y-87490568D01*
X111353504Y-87586739D01*
X111573308Y-87645635D01*
X111735230Y-87659801D01*
X111799998Y-87665468D01*
X111800000Y-87665468D01*
X111800002Y-87665468D01*
X111856673Y-87660509D01*
X112026692Y-87645635D01*
X112246496Y-87586739D01*
X112452734Y-87490568D01*
X112639139Y-87360047D01*
X112800047Y-87199139D01*
X112930568Y-87012734D01*
X112937893Y-86997023D01*
X112984062Y-86944586D01*
X113051254Y-86925432D01*
X113118136Y-86945645D01*
X113162657Y-86997023D01*
X113169865Y-87012481D01*
X113169866Y-87012483D01*
X113220973Y-87085471D01*
X113220974Y-87085472D01*
X113902046Y-86404399D01*
X113914835Y-86485148D01*
X113972359Y-86598045D01*
X114061955Y-86687641D01*
X114174852Y-86745165D01*
X114255599Y-86757953D01*
X113574526Y-87439025D01*
X113574526Y-87439026D01*
X113647512Y-87490131D01*
X113647516Y-87490133D01*
X113853673Y-87586265D01*
X113853682Y-87586269D01*
X114073389Y-87645139D01*
X114073400Y-87645141D01*
X114299998Y-87664966D01*
X114300002Y-87664966D01*
X114526599Y-87645141D01*
X114526610Y-87645139D01*
X114746317Y-87586269D01*
X114746331Y-87586264D01*
X114952478Y-87490136D01*
X115025472Y-87439025D01*
X114344401Y-86757953D01*
X114425148Y-86745165D01*
X114538045Y-86687641D01*
X114627641Y-86598045D01*
X114685165Y-86485148D01*
X114697953Y-86404400D01*
X115379025Y-87085472D01*
X115430136Y-87012478D01*
X115526264Y-86806331D01*
X115526269Y-86806317D01*
X115585139Y-86586610D01*
X115585141Y-86586599D01*
X115604966Y-86360002D01*
X115604966Y-86359997D01*
X115585141Y-86133400D01*
X115585139Y-86133389D01*
X115526269Y-85913682D01*
X115526265Y-85913673D01*
X115430133Y-85707516D01*
X115430131Y-85707512D01*
X115379026Y-85634526D01*
X115379025Y-85634526D01*
X114697953Y-86315598D01*
X114685165Y-86234852D01*
X114627641Y-86121955D01*
X114538045Y-86032359D01*
X114425148Y-85974835D01*
X114344400Y-85962046D01*
X115025472Y-85280974D01*
X115025471Y-85280973D01*
X114952483Y-85229866D01*
X114952481Y-85229865D01*
X114746326Y-85133734D01*
X114746317Y-85133730D01*
X114526610Y-85074860D01*
X114526599Y-85074858D01*
X114300002Y-85055034D01*
X114299998Y-85055034D01*
X114073400Y-85074858D01*
X114073389Y-85074860D01*
X113853682Y-85133730D01*
X113853673Y-85133734D01*
X113647513Y-85229868D01*
X113574527Y-85280972D01*
X113574526Y-85280973D01*
X114255600Y-85962046D01*
X114174852Y-85974835D01*
X114061955Y-86032359D01*
X113972359Y-86121955D01*
X113914835Y-86234852D01*
X113902046Y-86315599D01*
X113220973Y-85634526D01*
X113220972Y-85634527D01*
X113169868Y-85707512D01*
X113162656Y-85722979D01*
X113116482Y-85775417D01*
X113049288Y-85794567D01*
X112982407Y-85774350D01*
X112937893Y-85722976D01*
X112930568Y-85707266D01*
X112800047Y-85520861D01*
X112800045Y-85520858D01*
X112639141Y-85359954D01*
X112452734Y-85229432D01*
X112452732Y-85229431D01*
X112246497Y-85133261D01*
X112246488Y-85133258D01*
X112026697Y-85074366D01*
X112026693Y-85074365D01*
X112026692Y-85074365D01*
X112026691Y-85074364D01*
X112026686Y-85074364D01*
X111800002Y-85054532D01*
X111799998Y-85054532D01*
X111573313Y-85074364D01*
X111573302Y-85074366D01*
X111353511Y-85133258D01*
X111353502Y-85133261D01*
X111147267Y-85229431D01*
X111147265Y-85229432D01*
X110960858Y-85359954D01*
X110799954Y-85520858D01*
X110669432Y-85707265D01*
X110669431Y-85707267D01*
X110573261Y-85913502D01*
X110573258Y-85913511D01*
X110514366Y-86133302D01*
X110514364Y-86133313D01*
X110494532Y-86359998D01*
X110494532Y-86360001D01*
X107445858Y-86360001D01*
X107463348Y-86302135D01*
X107514725Y-86257618D01*
X107572734Y-86230568D01*
X107759139Y-86100047D01*
X107920047Y-85939139D01*
X108050568Y-85752734D01*
X108146739Y-85546496D01*
X108205635Y-85326692D01*
X108225468Y-85100000D01*
X108205635Y-84873308D01*
X108160916Y-84706415D01*
X108146741Y-84653511D01*
X108146738Y-84653502D01*
X108050568Y-84447267D01*
X108050567Y-84447265D01*
X107920045Y-84260858D01*
X107759141Y-84099954D01*
X107572734Y-83969432D01*
X107572728Y-83969429D01*
X107514725Y-83942382D01*
X107462285Y-83896210D01*
X107443133Y-83829017D01*
X107463348Y-83762135D01*
X107514725Y-83717618D01*
X107572734Y-83690568D01*
X107759139Y-83560047D01*
X107920047Y-83399139D01*
X108050568Y-83212734D01*
X108146739Y-83006496D01*
X108205635Y-82786692D01*
X108225468Y-82560000D01*
X108205635Y-82333308D01*
X108146739Y-82113504D01*
X108050568Y-81907266D01*
X107920047Y-81720861D01*
X107920045Y-81720858D01*
X107759141Y-81559954D01*
X107572734Y-81429432D01*
X107572728Y-81429429D01*
X107514725Y-81402382D01*
X107462285Y-81356210D01*
X107443133Y-81289017D01*
X107463348Y-81222135D01*
X107514725Y-81177618D01*
X107515643Y-81177190D01*
X107572734Y-81150568D01*
X107759139Y-81020047D01*
X107920047Y-80859139D01*
X108050568Y-80672734D01*
X108146739Y-80466496D01*
X108205635Y-80246692D01*
X108225468Y-80020000D01*
X108205635Y-79793308D01*
X108146739Y-79573504D01*
X108050568Y-79367266D01*
X107920047Y-79180861D01*
X107920045Y-79180858D01*
X107759141Y-79019954D01*
X107572734Y-78889432D01*
X107572732Y-78889431D01*
X107366497Y-78793261D01*
X107366488Y-78793258D01*
X107167746Y-78740006D01*
X112894700Y-78740006D01*
X112913864Y-78971297D01*
X112913866Y-78971308D01*
X112970842Y-79196300D01*
X113064075Y-79408848D01*
X113191018Y-79603150D01*
X113286167Y-79706510D01*
X113317089Y-79769164D01*
X113309228Y-79838590D01*
X113265081Y-79892746D01*
X113238271Y-79906674D01*
X113157911Y-79936646D01*
X113157906Y-79936649D01*
X113042812Y-80022809D01*
X113042809Y-80022812D01*
X112956649Y-80137906D01*
X112956645Y-80137913D01*
X112906403Y-80272620D01*
X112906401Y-80272627D01*
X112900000Y-80332155D01*
X112900000Y-81030000D01*
X113924722Y-81030000D01*
X113876375Y-81113740D01*
X113846190Y-81245992D01*
X113856327Y-81381265D01*
X113905887Y-81507541D01*
X113923797Y-81530000D01*
X112900000Y-81530000D01*
X112900000Y-82227844D01*
X112906401Y-82287372D01*
X112906403Y-82287379D01*
X112956645Y-82422086D01*
X112956649Y-82422093D01*
X113042809Y-82537187D01*
X113042812Y-82537190D01*
X113157906Y-82623350D01*
X113157913Y-82623354D01*
X113292620Y-82673596D01*
X113292627Y-82673598D01*
X113352155Y-82679999D01*
X113352172Y-82680000D01*
X114049999Y-82680000D01*
X114049999Y-81654189D01*
X114102547Y-81690016D01*
X114232173Y-81730000D01*
X114333724Y-81730000D01*
X114434138Y-81714865D01*
X114550000Y-81659068D01*
X114550000Y-82680000D01*
X115247828Y-82680000D01*
X115247844Y-82679999D01*
X115307372Y-82673598D01*
X115307379Y-82673596D01*
X115442086Y-82623354D01*
X115442093Y-82623350D01*
X115557187Y-82537190D01*
X115557190Y-82537187D01*
X115643350Y-82422093D01*
X115643354Y-82422086D01*
X115693596Y-82287379D01*
X115693598Y-82287372D01*
X115699999Y-82227844D01*
X115700000Y-82227827D01*
X115700000Y-81530000D01*
X114675278Y-81530000D01*
X114723625Y-81446260D01*
X114753810Y-81314008D01*
X114743673Y-81178735D01*
X114694113Y-81052459D01*
X114676203Y-81030000D01*
X115700000Y-81030000D01*
X115700000Y-80332172D01*
X115699999Y-80332155D01*
X115693598Y-80272627D01*
X115693596Y-80272620D01*
X115643354Y-80137913D01*
X115643350Y-80137906D01*
X115557190Y-80022812D01*
X115557187Y-80022809D01*
X115442093Y-79936649D01*
X115442086Y-79936645D01*
X115361729Y-79906674D01*
X115305795Y-79864803D01*
X115281378Y-79799338D01*
X115296230Y-79731065D01*
X115313826Y-79706516D01*
X115408979Y-79603153D01*
X115535924Y-79408849D01*
X115629157Y-79196300D01*
X115686134Y-78971305D01*
X115692918Y-78889431D01*
X115705300Y-78740006D01*
X115705300Y-78739993D01*
X115686135Y-78508702D01*
X115686133Y-78508691D01*
X115629157Y-78283699D01*
X115535924Y-78071151D01*
X115408983Y-77876852D01*
X115408980Y-77876849D01*
X115408979Y-77876847D01*
X115251784Y-77706087D01*
X115251779Y-77706083D01*
X115251777Y-77706081D01*
X115068634Y-77563535D01*
X115068628Y-77563531D01*
X114864504Y-77453064D01*
X114864495Y-77453061D01*
X114644984Y-77377702D01*
X114473282Y-77349050D01*
X114416049Y-77339500D01*
X114183951Y-77339500D01*
X114138164Y-77347140D01*
X113955015Y-77377702D01*
X113735504Y-77453061D01*
X113735495Y-77453064D01*
X113531371Y-77563531D01*
X113531365Y-77563535D01*
X113348222Y-77706081D01*
X113348219Y-77706084D01*
X113191016Y-77876852D01*
X113064075Y-78071151D01*
X112970842Y-78283699D01*
X112913866Y-78508691D01*
X112913864Y-78508702D01*
X112894700Y-78739993D01*
X112894700Y-78740006D01*
X107167746Y-78740006D01*
X107146697Y-78734366D01*
X107146687Y-78734364D01*
X106976785Y-78719500D01*
X106976784Y-78719500D01*
X106063216Y-78719500D01*
X106063215Y-78719500D01*
X105893312Y-78734364D01*
X105893302Y-78734366D01*
X105673511Y-78793258D01*
X105673502Y-78793261D01*
X105467267Y-78889431D01*
X105467265Y-78889432D01*
X105280858Y-79019954D01*
X105119954Y-79180858D01*
X104989432Y-79367265D01*
X104989431Y-79367267D01*
X104893261Y-79573502D01*
X104893258Y-79573511D01*
X104834366Y-79793302D01*
X104834364Y-79793313D01*
X104814532Y-80019998D01*
X104814532Y-80020001D01*
X104834364Y-80246686D01*
X104834366Y-80246697D01*
X104893258Y-80466488D01*
X104893261Y-80466497D01*
X104989431Y-80672732D01*
X104989432Y-80672734D01*
X105119954Y-80859141D01*
X105280858Y-81020045D01*
X105280861Y-81020047D01*
X105467266Y-81150568D01*
X105524357Y-81177190D01*
X105525275Y-81177618D01*
X105577714Y-81223791D01*
X105596866Y-81290984D01*
X105576650Y-81357865D01*
X105525275Y-81402382D01*
X105467267Y-81429431D01*
X105467265Y-81429432D01*
X105280858Y-81559954D01*
X105119954Y-81720858D01*
X104989432Y-81907265D01*
X104989431Y-81907267D01*
X104893261Y-82113502D01*
X104893258Y-82113511D01*
X104834366Y-82333302D01*
X104834364Y-82333313D01*
X104814532Y-82559998D01*
X104814532Y-82560001D01*
X104834364Y-82786686D01*
X104834366Y-82786697D01*
X104893258Y-83006488D01*
X104893261Y-83006497D01*
X104989431Y-83212732D01*
X104989432Y-83212734D01*
X105119954Y-83399141D01*
X105280858Y-83560045D01*
X105280861Y-83560047D01*
X105467266Y-83690568D01*
X105525275Y-83717618D01*
X105577714Y-83763791D01*
X105596866Y-83830984D01*
X105576650Y-83897865D01*
X105525275Y-83942382D01*
X105467267Y-83969431D01*
X105467265Y-83969432D01*
X105280858Y-84099954D01*
X105119954Y-84260858D01*
X104989432Y-84447265D01*
X104989431Y-84447267D01*
X104893261Y-84653502D01*
X104893258Y-84653511D01*
X104834366Y-84873302D01*
X104834364Y-84873313D01*
X104814532Y-85099998D01*
X104814532Y-85100001D01*
X104834364Y-85326686D01*
X104834366Y-85326697D01*
X104893258Y-85546488D01*
X104893261Y-85546497D01*
X104989431Y-85752732D01*
X104989432Y-85752734D01*
X105119954Y-85939141D01*
X105280858Y-86100045D01*
X105280861Y-86100047D01*
X105467266Y-86230568D01*
X105525275Y-86257618D01*
X105577714Y-86303791D01*
X105596866Y-86370984D01*
X105576650Y-86437865D01*
X105525275Y-86482382D01*
X105467267Y-86509431D01*
X105467265Y-86509432D01*
X105280858Y-86639954D01*
X105119954Y-86800858D01*
X104989432Y-86987265D01*
X104989431Y-86987267D01*
X104893261Y-87193502D01*
X104893258Y-87193511D01*
X104834366Y-87413302D01*
X104834364Y-87413313D01*
X104814532Y-87639998D01*
X104814532Y-87640001D01*
X100605468Y-87640001D01*
X100605468Y-87640000D01*
X100585635Y-87413308D01*
X100540916Y-87246415D01*
X100526741Y-87193511D01*
X100526738Y-87193502D01*
X100430568Y-86987266D01*
X100300047Y-86800861D01*
X100300045Y-86800858D01*
X100139141Y-86639954D01*
X99952734Y-86509432D01*
X99952728Y-86509429D01*
X99894725Y-86482382D01*
X99842285Y-86436210D01*
X99823133Y-86369017D01*
X99843348Y-86302135D01*
X99894725Y-86257618D01*
X99952734Y-86230568D01*
X100139139Y-86100047D01*
X100300047Y-85939139D01*
X100430568Y-85752734D01*
X100526739Y-85546496D01*
X100585635Y-85326692D01*
X100605468Y-85100000D01*
X100585635Y-84873308D01*
X100540916Y-84706415D01*
X100526741Y-84653511D01*
X100526738Y-84653502D01*
X100430568Y-84447267D01*
X100430567Y-84447265D01*
X100300045Y-84260858D01*
X100139141Y-84099954D01*
X99952734Y-83969432D01*
X99952728Y-83969429D01*
X99894725Y-83942382D01*
X99842285Y-83896210D01*
X99823133Y-83829017D01*
X99843348Y-83762135D01*
X99894725Y-83717618D01*
X99952734Y-83690568D01*
X100139139Y-83560047D01*
X100300047Y-83399139D01*
X100430568Y-83212734D01*
X100526739Y-83006496D01*
X100585635Y-82786692D01*
X100605468Y-82560000D01*
X100585635Y-82333308D01*
X100526739Y-82113504D01*
X100430568Y-81907266D01*
X100300047Y-81720861D01*
X100300045Y-81720858D01*
X100139143Y-81559956D01*
X100113912Y-81542289D01*
X100070287Y-81487712D01*
X100063095Y-81418213D01*
X100094617Y-81355859D01*
X100154847Y-81320445D01*
X100171781Y-81317424D01*
X100207380Y-81313596D01*
X100342086Y-81263354D01*
X100342093Y-81263350D01*
X100457187Y-81177190D01*
X100457190Y-81177187D01*
X100543350Y-81062093D01*
X100543354Y-81062086D01*
X100593596Y-80927379D01*
X100593598Y-80927372D01*
X100599999Y-80867844D01*
X100600000Y-80867827D01*
X100600000Y-80270000D01*
X99215686Y-80270000D01*
X99227641Y-80258045D01*
X99285165Y-80145148D01*
X99304986Y-80020000D01*
X99285165Y-79894852D01*
X99227641Y-79781955D01*
X99215686Y-79770000D01*
X100599999Y-79770000D01*
X100600000Y-79172172D01*
X100599999Y-79172155D01*
X100593598Y-79112627D01*
X100593596Y-79112620D01*
X100543354Y-78977913D01*
X100543350Y-78977906D01*
X100457190Y-78862812D01*
X100457187Y-78862809D01*
X100342093Y-78776649D01*
X100342086Y-78776645D01*
X100207379Y-78726403D01*
X100207372Y-78726401D01*
X100147844Y-78720000D01*
X99150000Y-78720000D01*
X99149999Y-79704313D01*
X99138045Y-79692359D01*
X99025148Y-79634835D01*
X98931481Y-79620000D01*
X98868519Y-79620000D01*
X98774852Y-79634835D01*
X98661955Y-79692359D01*
X98650000Y-79704313D01*
X98650000Y-78720000D01*
X97652155Y-78720000D01*
X97592627Y-78726401D01*
X97592620Y-78726403D01*
X97457913Y-78776645D01*
X97457906Y-78776649D01*
X97342812Y-78862809D01*
X97342809Y-78862812D01*
X97256649Y-78977906D01*
X97256645Y-78977913D01*
X97206403Y-79112620D01*
X97206401Y-79112627D01*
X97200000Y-79172155D01*
X97200000Y-79770000D01*
X98584314Y-79770000D01*
X98572359Y-79781955D01*
X98514835Y-79894852D01*
X98495014Y-80020000D01*
X98514835Y-80145148D01*
X98572359Y-80258045D01*
X98584314Y-80270000D01*
X97200000Y-80270000D01*
X97200000Y-80867844D01*
X97206401Y-80927372D01*
X97206403Y-80927379D01*
X97256645Y-81062086D01*
X97256649Y-81062093D01*
X97342809Y-81177187D01*
X97342812Y-81177190D01*
X97457906Y-81263350D01*
X97457913Y-81263354D01*
X97592620Y-81313596D01*
X97592627Y-81313598D01*
X97628218Y-81317425D01*
X97692769Y-81344163D01*
X97732618Y-81401555D01*
X97735111Y-81471380D01*
X97699459Y-81531469D01*
X97686088Y-81542287D01*
X97660861Y-81559951D01*
X97499954Y-81720858D01*
X97369432Y-81907265D01*
X97369431Y-81907267D01*
X97273261Y-82113502D01*
X97273258Y-82113511D01*
X97214366Y-82333302D01*
X97214364Y-82333313D01*
X97194532Y-82559998D01*
X97194532Y-82560001D01*
X97214364Y-82786686D01*
X97214366Y-82786697D01*
X97273258Y-83006488D01*
X97273261Y-83006497D01*
X97369431Y-83212732D01*
X97369432Y-83212734D01*
X97499954Y-83399141D01*
X97660858Y-83560045D01*
X97660861Y-83560047D01*
X97847266Y-83690568D01*
X97905275Y-83717618D01*
X97957714Y-83763791D01*
X97976866Y-83830984D01*
X97956650Y-83897865D01*
X97905275Y-83942382D01*
X97847267Y-83969431D01*
X97847265Y-83969432D01*
X97660858Y-84099954D01*
X97499954Y-84260858D01*
X97369432Y-84447265D01*
X97369431Y-84447267D01*
X97273261Y-84653502D01*
X97273258Y-84653511D01*
X97214366Y-84873302D01*
X97214364Y-84873313D01*
X97194532Y-85099998D01*
X97194532Y-85100001D01*
X97214364Y-85326686D01*
X97214366Y-85326697D01*
X97273258Y-85546488D01*
X97273261Y-85546497D01*
X97369431Y-85752732D01*
X97369432Y-85752734D01*
X97499954Y-85939141D01*
X97660858Y-86100045D01*
X97660861Y-86100047D01*
X97847266Y-86230568D01*
X97905275Y-86257618D01*
X97957714Y-86303791D01*
X97976866Y-86370984D01*
X97956650Y-86437865D01*
X97905275Y-86482382D01*
X97847267Y-86509431D01*
X97847265Y-86509432D01*
X97660858Y-86639954D01*
X97499954Y-86800858D01*
X97369432Y-86987265D01*
X97369431Y-86987267D01*
X97273261Y-87193502D01*
X97273258Y-87193511D01*
X97214366Y-87413302D01*
X97214364Y-87413313D01*
X97194532Y-87639998D01*
X97194532Y-87640001D01*
X83820000Y-87640001D01*
X83820000Y-83820001D01*
X84354390Y-83820001D01*
X84374804Y-84105433D01*
X84435628Y-84385037D01*
X84435630Y-84385043D01*
X84435631Y-84385046D01*
X84468337Y-84472734D01*
X84535635Y-84653166D01*
X84672770Y-84904309D01*
X84672775Y-84904317D01*
X84844254Y-85133387D01*
X84844270Y-85133405D01*
X85046594Y-85335729D01*
X85046612Y-85335745D01*
X85275682Y-85507224D01*
X85275690Y-85507229D01*
X85526833Y-85644364D01*
X85526832Y-85644364D01*
X85526836Y-85644365D01*
X85526839Y-85644367D01*
X85794954Y-85744369D01*
X85794960Y-85744370D01*
X85794962Y-85744371D01*
X86074566Y-85805195D01*
X86074568Y-85805195D01*
X86074572Y-85805196D01*
X86328220Y-85823337D01*
X86359999Y-85825610D01*
X86360000Y-85825610D01*
X86360001Y-85825610D01*
X86388595Y-85823564D01*
X86645428Y-85805196D01*
X86782321Y-85775417D01*
X86925037Y-85744371D01*
X86925037Y-85744370D01*
X86925046Y-85744369D01*
X87193161Y-85644367D01*
X87444315Y-85507226D01*
X87673395Y-85335739D01*
X87875739Y-85133395D01*
X88047226Y-84904315D01*
X88184367Y-84653161D01*
X88284369Y-84385046D01*
X88345196Y-84105428D01*
X88365610Y-83820001D01*
X92674532Y-83820001D01*
X92694364Y-84046686D01*
X92694366Y-84046697D01*
X92753258Y-84266488D01*
X92753261Y-84266497D01*
X92849431Y-84472732D01*
X92849432Y-84472734D01*
X92979954Y-84659141D01*
X93140858Y-84820045D01*
X93140861Y-84820047D01*
X93327266Y-84950568D01*
X93533504Y-85046739D01*
X93533509Y-85046740D01*
X93533511Y-85046741D01*
X93586415Y-85060916D01*
X93753308Y-85105635D01*
X93915230Y-85119801D01*
X93979998Y-85125468D01*
X93980000Y-85125468D01*
X93980002Y-85125468D01*
X94036673Y-85120509D01*
X94206692Y-85105635D01*
X94426496Y-85046739D01*
X94632734Y-84950568D01*
X94819139Y-84820047D01*
X94980047Y-84659139D01*
X95110568Y-84472734D01*
X95206739Y-84266496D01*
X95265635Y-84046692D01*
X95285468Y-83820000D01*
X95265635Y-83593308D01*
X95206739Y-83373504D01*
X95110568Y-83167266D01*
X94980047Y-82980861D01*
X94980045Y-82980858D01*
X94819141Y-82819954D01*
X94632734Y-82689432D01*
X94632732Y-82689431D01*
X94426497Y-82593261D01*
X94426488Y-82593258D01*
X94206697Y-82534366D01*
X94206693Y-82534365D01*
X94206692Y-82534365D01*
X94206691Y-82534364D01*
X94206686Y-82534364D01*
X93980002Y-82514532D01*
X93979998Y-82514532D01*
X93753313Y-82534364D01*
X93753302Y-82534366D01*
X93533511Y-82593258D01*
X93533502Y-82593261D01*
X93327267Y-82689431D01*
X93327265Y-82689432D01*
X93140858Y-82819954D01*
X92979954Y-82980858D01*
X92849432Y-83167265D01*
X92849431Y-83167267D01*
X92753261Y-83373502D01*
X92753258Y-83373511D01*
X92694366Y-83593302D01*
X92694364Y-83593313D01*
X92674532Y-83819998D01*
X92674532Y-83820001D01*
X88365610Y-83820001D01*
X88365610Y-83820000D01*
X88345196Y-83534572D01*
X88315734Y-83399139D01*
X88284371Y-83254962D01*
X88284370Y-83254960D01*
X88284369Y-83254954D01*
X88184367Y-82986839D01*
X88047226Y-82735685D01*
X88047224Y-82735682D01*
X87875745Y-82506612D01*
X87875729Y-82506594D01*
X87673405Y-82304270D01*
X87673387Y-82304254D01*
X87444317Y-82132775D01*
X87444309Y-82132770D01*
X87193166Y-81995635D01*
X87193167Y-81995635D01*
X87085914Y-81955632D01*
X86925046Y-81895631D01*
X86925043Y-81895630D01*
X86925037Y-81895628D01*
X86645433Y-81834804D01*
X86360001Y-81814390D01*
X86359999Y-81814390D01*
X86074566Y-81834804D01*
X85794962Y-81895628D01*
X85526833Y-81995635D01*
X85275690Y-82132770D01*
X85275682Y-82132775D01*
X85046612Y-82304254D01*
X85046594Y-82304270D01*
X84844270Y-82506594D01*
X84844254Y-82506612D01*
X84672775Y-82735682D01*
X84672770Y-82735690D01*
X84535635Y-82986833D01*
X84435628Y-83254962D01*
X84374804Y-83534566D01*
X84354390Y-83819998D01*
X84354390Y-83820001D01*
X83820000Y-83820001D01*
X83820000Y-80287844D01*
X84360000Y-80287844D01*
X84366401Y-80347372D01*
X84366403Y-80347379D01*
X84416645Y-80482086D01*
X84416649Y-80482093D01*
X84502809Y-80597187D01*
X84502812Y-80597190D01*
X84617906Y-80683350D01*
X84617913Y-80683354D01*
X84752620Y-80733596D01*
X84752627Y-80733598D01*
X84812155Y-80739999D01*
X84812172Y-80740000D01*
X86110000Y-80740000D01*
X86110000Y-79461802D01*
X86271169Y-79500000D01*
X86404267Y-79500000D01*
X86536461Y-79484549D01*
X86610000Y-79457782D01*
X86610000Y-80740000D01*
X87907828Y-80740000D01*
X87907844Y-80739999D01*
X87967372Y-80733598D01*
X87967379Y-80733596D01*
X88102086Y-80683354D01*
X88102093Y-80683350D01*
X88217187Y-80597190D01*
X88217190Y-80597187D01*
X88303350Y-80482093D01*
X88303354Y-80482086D01*
X88353596Y-80347379D01*
X88353598Y-80347372D01*
X88359999Y-80287844D01*
X88360000Y-80287827D01*
X88360000Y-78990000D01*
X87078483Y-78990000D01*
X87113549Y-78872871D01*
X87123879Y-78695509D01*
X87093029Y-78520546D01*
X87079853Y-78490000D01*
X88360000Y-78490000D01*
X88360000Y-77192172D01*
X88359999Y-77192155D01*
X88353598Y-77132627D01*
X88353596Y-77132620D01*
X88303354Y-76997913D01*
X88303350Y-76997906D01*
X88217190Y-76882812D01*
X88217187Y-76882809D01*
X88102093Y-76796649D01*
X88102086Y-76796645D01*
X87967379Y-76746403D01*
X87967372Y-76746401D01*
X87907844Y-76740000D01*
X86610000Y-76740000D01*
X86610000Y-78018197D01*
X86448831Y-77980000D01*
X86315733Y-77980000D01*
X86183539Y-77995451D01*
X86110000Y-78022217D01*
X86110000Y-76740000D01*
X84812155Y-76740000D01*
X84752627Y-76746401D01*
X84752620Y-76746403D01*
X84617913Y-76796645D01*
X84617906Y-76796649D01*
X84502812Y-76882809D01*
X84502809Y-76882812D01*
X84416649Y-76997906D01*
X84416645Y-76997913D01*
X84366403Y-77132620D01*
X84366401Y-77132627D01*
X84360000Y-77192155D01*
X84360000Y-78490000D01*
X85641517Y-78490000D01*
X85606451Y-78607129D01*
X85596121Y-78784491D01*
X85626971Y-78959454D01*
X85640147Y-78990000D01*
X84360000Y-78990000D01*
X84360000Y-80287844D01*
X83820000Y-80287844D01*
X83820000Y-76200001D01*
X97194532Y-76200001D01*
X97214364Y-76426686D01*
X97214366Y-76426697D01*
X97273258Y-76646488D01*
X97273261Y-76646497D01*
X97369431Y-76852732D01*
X97369432Y-76852734D01*
X97499954Y-77039141D01*
X97660858Y-77200045D01*
X97660861Y-77200047D01*
X97847266Y-77330568D01*
X98053504Y-77426739D01*
X98273308Y-77485635D01*
X98435230Y-77499801D01*
X98499998Y-77505468D01*
X98500000Y-77505468D01*
X98500002Y-77505468D01*
X98556673Y-77500509D01*
X98726692Y-77485635D01*
X98946496Y-77426739D01*
X99152734Y-77330568D01*
X99339139Y-77200047D01*
X99500047Y-77039139D01*
X99630568Y-76852734D01*
X99726739Y-76646496D01*
X99785635Y-76426692D01*
X99805468Y-76200001D01*
X107354532Y-76200001D01*
X107374364Y-76426686D01*
X107374366Y-76426697D01*
X107433258Y-76646488D01*
X107433261Y-76646497D01*
X107529431Y-76852732D01*
X107529432Y-76852734D01*
X107659954Y-77039141D01*
X107820858Y-77200045D01*
X107820861Y-77200047D01*
X108007266Y-77330568D01*
X108213504Y-77426739D01*
X108433308Y-77485635D01*
X108595230Y-77499801D01*
X108659998Y-77505468D01*
X108660000Y-77505468D01*
X108660002Y-77505468D01*
X108716673Y-77500509D01*
X108886692Y-77485635D01*
X109106496Y-77426739D01*
X109312734Y-77330568D01*
X109499139Y-77200047D01*
X109660047Y-77039139D01*
X109790568Y-76852734D01*
X109886739Y-76646496D01*
X109945635Y-76426692D01*
X109965468Y-76200000D01*
X109945635Y-75973308D01*
X109886739Y-75753504D01*
X109790568Y-75547266D01*
X109660047Y-75360861D01*
X109660045Y-75360858D01*
X109499141Y-75199954D01*
X109312734Y-75069432D01*
X109312732Y-75069431D01*
X109106497Y-74973261D01*
X109106488Y-74973258D01*
X108886697Y-74914366D01*
X108886693Y-74914365D01*
X108886692Y-74914365D01*
X108886691Y-74914364D01*
X108886686Y-74914364D01*
X108660002Y-74894532D01*
X108659998Y-74894532D01*
X108433313Y-74914364D01*
X108433302Y-74914366D01*
X108213511Y-74973258D01*
X108213502Y-74973261D01*
X108007267Y-75069431D01*
X108007265Y-75069432D01*
X107820858Y-75199954D01*
X107659954Y-75360858D01*
X107529432Y-75547265D01*
X107529431Y-75547267D01*
X107433261Y-75753502D01*
X107433258Y-75753511D01*
X107374366Y-75973302D01*
X107374364Y-75973313D01*
X107354532Y-76199998D01*
X107354532Y-76200001D01*
X99805468Y-76200001D01*
X99805468Y-76200000D01*
X99785635Y-75973308D01*
X99726739Y-75753504D01*
X99630568Y-75547266D01*
X99500047Y-75360861D01*
X99500045Y-75360858D01*
X99339141Y-75199954D01*
X99152734Y-75069432D01*
X99152732Y-75069431D01*
X98946497Y-74973261D01*
X98946488Y-74973258D01*
X98726697Y-74914366D01*
X98726693Y-74914365D01*
X98726692Y-74914365D01*
X98726691Y-74914364D01*
X98726686Y-74914364D01*
X98500002Y-74894532D01*
X98499998Y-74894532D01*
X98273313Y-74914364D01*
X98273302Y-74914366D01*
X98053511Y-74973258D01*
X98053502Y-74973261D01*
X97847267Y-75069431D01*
X97847265Y-75069432D01*
X97660858Y-75199954D01*
X97499954Y-75360858D01*
X97369432Y-75547265D01*
X97369431Y-75547267D01*
X97273261Y-75753502D01*
X97273258Y-75753511D01*
X97214366Y-75973302D01*
X97214364Y-75973313D01*
X97194532Y-76199998D01*
X97194532Y-76200001D01*
X83820000Y-76200001D01*
X83820000Y-73660001D01*
X92674532Y-73660001D01*
X92694364Y-73886686D01*
X92694366Y-73886697D01*
X92753258Y-74106488D01*
X92753261Y-74106497D01*
X92849431Y-74312732D01*
X92849432Y-74312734D01*
X92979954Y-74499141D01*
X93140858Y-74660045D01*
X93140861Y-74660047D01*
X93327266Y-74790568D01*
X93533504Y-74886739D01*
X93753308Y-74945635D01*
X93915230Y-74959801D01*
X93979998Y-74965468D01*
X93980000Y-74965468D01*
X93980002Y-74965468D01*
X94036673Y-74960509D01*
X94206692Y-74945635D01*
X94426496Y-74886739D01*
X94632734Y-74790568D01*
X94819139Y-74660047D01*
X94980047Y-74499139D01*
X95110568Y-74312734D01*
X95206739Y-74106496D01*
X95265635Y-73886692D01*
X95285468Y-73660000D01*
X95265635Y-73433308D01*
X95206739Y-73213504D01*
X95110568Y-73007266D01*
X94980047Y-72820861D01*
X94980045Y-72820858D01*
X94819141Y-72659954D01*
X94632734Y-72529432D01*
X94632732Y-72529431D01*
X94426497Y-72433261D01*
X94426488Y-72433258D01*
X94206697Y-72374366D01*
X94206693Y-72374365D01*
X94206692Y-72374365D01*
X94206691Y-72374364D01*
X94206686Y-72374364D01*
X93980002Y-72354532D01*
X93979998Y-72354532D01*
X93753313Y-72374364D01*
X93753302Y-72374366D01*
X93533511Y-72433258D01*
X93533502Y-72433261D01*
X93327267Y-72529431D01*
X93327265Y-72529432D01*
X93140858Y-72659954D01*
X92979954Y-72820858D01*
X92849432Y-73007265D01*
X92849431Y-73007267D01*
X92753261Y-73213502D01*
X92753258Y-73213511D01*
X92694366Y-73433302D01*
X92694364Y-73433313D01*
X92674532Y-73659998D01*
X92674532Y-73660001D01*
X83820000Y-73660001D01*
X83820000Y-71120001D01*
X97754532Y-71120001D01*
X97774364Y-71346686D01*
X97774366Y-71346697D01*
X97833258Y-71566488D01*
X97833261Y-71566497D01*
X97929431Y-71772732D01*
X97929432Y-71772734D01*
X98059954Y-71959141D01*
X98220858Y-72120045D01*
X98220861Y-72120047D01*
X98407266Y-72250568D01*
X98613504Y-72346739D01*
X98833308Y-72405635D01*
X98995230Y-72419801D01*
X99059998Y-72425468D01*
X99060000Y-72425468D01*
X99060002Y-72425468D01*
X99116673Y-72420509D01*
X99286692Y-72405635D01*
X99506496Y-72346739D01*
X99712734Y-72250568D01*
X99899139Y-72120047D01*
X100060047Y-71959139D01*
X100190568Y-71772734D01*
X100286739Y-71566496D01*
X100345635Y-71346692D01*
X100365468Y-71120001D01*
X107914532Y-71120001D01*
X107934364Y-71346686D01*
X107934366Y-71346697D01*
X107993258Y-71566488D01*
X107993261Y-71566497D01*
X108089431Y-71772732D01*
X108089432Y-71772734D01*
X108219954Y-71959141D01*
X108380858Y-72120045D01*
X108380861Y-72120047D01*
X108567266Y-72250568D01*
X108773504Y-72346739D01*
X108993308Y-72405635D01*
X109155230Y-72419801D01*
X109219998Y-72425468D01*
X109220000Y-72425468D01*
X109220002Y-72425468D01*
X109276673Y-72420509D01*
X109446692Y-72405635D01*
X109666496Y-72346739D01*
X109872734Y-72250568D01*
X110059139Y-72120047D01*
X110220047Y-71959139D01*
X110350568Y-71772734D01*
X110446739Y-71566496D01*
X110505635Y-71346692D01*
X110525468Y-71120000D01*
X110505635Y-70893308D01*
X110446739Y-70673504D01*
X110350568Y-70467266D01*
X110220047Y-70280861D01*
X110220045Y-70280858D01*
X110059141Y-70119954D01*
X109872734Y-69989432D01*
X109872732Y-69989431D01*
X109666497Y-69893261D01*
X109666488Y-69893258D01*
X109446697Y-69834366D01*
X109446693Y-69834365D01*
X109446692Y-69834365D01*
X109446691Y-69834364D01*
X109446686Y-69834364D01*
X109220002Y-69814532D01*
X109219998Y-69814532D01*
X108993313Y-69834364D01*
X108993302Y-69834366D01*
X108773511Y-69893258D01*
X108773502Y-69893261D01*
X108567267Y-69989431D01*
X108567265Y-69989432D01*
X108380858Y-70119954D01*
X108219954Y-70280858D01*
X108089432Y-70467265D01*
X108089431Y-70467267D01*
X107993261Y-70673502D01*
X107993258Y-70673511D01*
X107934366Y-70893302D01*
X107934364Y-70893313D01*
X107914532Y-71119998D01*
X107914532Y-71120001D01*
X100365468Y-71120001D01*
X100365468Y-71120000D01*
X100345635Y-70893308D01*
X100286739Y-70673504D01*
X100190568Y-70467266D01*
X100060047Y-70280861D01*
X100060045Y-70280858D01*
X99899141Y-70119954D01*
X99712734Y-69989432D01*
X99712732Y-69989431D01*
X99506497Y-69893261D01*
X99506488Y-69893258D01*
X99286697Y-69834366D01*
X99286693Y-69834365D01*
X99286692Y-69834365D01*
X99286691Y-69834364D01*
X99286686Y-69834364D01*
X99060002Y-69814532D01*
X99059998Y-69814532D01*
X98833313Y-69834364D01*
X98833302Y-69834366D01*
X98613511Y-69893258D01*
X98613502Y-69893261D01*
X98407267Y-69989431D01*
X98407265Y-69989432D01*
X98220858Y-70119954D01*
X98059954Y-70280858D01*
X97929432Y-70467265D01*
X97929431Y-70467267D01*
X97833261Y-70673502D01*
X97833258Y-70673511D01*
X97774366Y-70893302D01*
X97774364Y-70893313D01*
X97754532Y-71119998D01*
X97754532Y-71120001D01*
X83820000Y-71120001D01*
X83820000Y-68647763D01*
X84505787Y-68647763D01*
X84535413Y-68917013D01*
X84535415Y-68917024D01*
X84603926Y-69179082D01*
X84603928Y-69179088D01*
X84709870Y-69428390D01*
X84781998Y-69546575D01*
X84850979Y-69659605D01*
X84850986Y-69659615D01*
X85024253Y-69867819D01*
X85024259Y-69867824D01*
X85052649Y-69893261D01*
X85225998Y-70048582D01*
X85451910Y-70198044D01*
X85697176Y-70313020D01*
X85697183Y-70313022D01*
X85697185Y-70313023D01*
X85956557Y-70391057D01*
X85956564Y-70391058D01*
X85956569Y-70391060D01*
X86224561Y-70430500D01*
X86224566Y-70430500D01*
X86427629Y-70430500D01*
X86427631Y-70430500D01*
X86427636Y-70430499D01*
X86427648Y-70430499D01*
X86465191Y-70427750D01*
X86630156Y-70415677D01*
X86742758Y-70390593D01*
X86894546Y-70356782D01*
X86894548Y-70356781D01*
X86894553Y-70356780D01*
X87147558Y-70260014D01*
X87383777Y-70127441D01*
X87598177Y-69961888D01*
X87786186Y-69766881D01*
X87943799Y-69546579D01*
X88017787Y-69402669D01*
X88067649Y-69305690D01*
X88067651Y-69305684D01*
X88067656Y-69305675D01*
X88155118Y-69049305D01*
X88204319Y-68782933D01*
X88209259Y-68647763D01*
X120065787Y-68647763D01*
X120095413Y-68917013D01*
X120095415Y-68917024D01*
X120163926Y-69179082D01*
X120163928Y-69179088D01*
X120269870Y-69428390D01*
X120341998Y-69546575D01*
X120410979Y-69659605D01*
X120410986Y-69659615D01*
X120584253Y-69867819D01*
X120584259Y-69867824D01*
X120612649Y-69893261D01*
X120785998Y-70048582D01*
X121011910Y-70198044D01*
X121257176Y-70313020D01*
X121257183Y-70313022D01*
X121257185Y-70313023D01*
X121516557Y-70391057D01*
X121516564Y-70391058D01*
X121516569Y-70391060D01*
X121784561Y-70430500D01*
X121784566Y-70430500D01*
X121987629Y-70430500D01*
X121987631Y-70430500D01*
X121987636Y-70430499D01*
X121987648Y-70430499D01*
X122025191Y-70427750D01*
X122190156Y-70415677D01*
X122302758Y-70390593D01*
X122454546Y-70356782D01*
X122454548Y-70356781D01*
X122454553Y-70356780D01*
X122707558Y-70260014D01*
X122943777Y-70127441D01*
X123158177Y-69961888D01*
X123346186Y-69766881D01*
X123503799Y-69546579D01*
X123577787Y-69402669D01*
X123627649Y-69305690D01*
X123627651Y-69305684D01*
X123627656Y-69305675D01*
X123715118Y-69049305D01*
X123764319Y-68782933D01*
X123774212Y-68512235D01*
X123744586Y-68242982D01*
X123676072Y-67980912D01*
X123570130Y-67731610D01*
X123429018Y-67500390D01*
X123339747Y-67393119D01*
X123255746Y-67292180D01*
X123255740Y-67292175D01*
X123054002Y-67111418D01*
X122828092Y-66961957D01*
X122828090Y-66961956D01*
X122582824Y-66846980D01*
X122582819Y-66846978D01*
X122582814Y-66846976D01*
X122323442Y-66768942D01*
X122323428Y-66768939D01*
X122207791Y-66751921D01*
X122055439Y-66729500D01*
X121852369Y-66729500D01*
X121852351Y-66729500D01*
X121649844Y-66744323D01*
X121649831Y-66744325D01*
X121385453Y-66803217D01*
X121385446Y-66803220D01*
X121132439Y-66899987D01*
X120896226Y-67032557D01*
X120681822Y-67198112D01*
X120493822Y-67393109D01*
X120493816Y-67393116D01*
X120336202Y-67613419D01*
X120336199Y-67613424D01*
X120212350Y-67854309D01*
X120212343Y-67854327D01*
X120124884Y-68110685D01*
X120124881Y-68110699D01*
X120075681Y-68377068D01*
X120075680Y-68377075D01*
X120065787Y-68647763D01*
X88209259Y-68647763D01*
X88214212Y-68512235D01*
X88184586Y-68242982D01*
X88116072Y-67980912D01*
X88010130Y-67731610D01*
X87869018Y-67500390D01*
X87779747Y-67393119D01*
X87695746Y-67292180D01*
X87695740Y-67292175D01*
X87494002Y-67111418D01*
X87268092Y-66961957D01*
X87268090Y-66961956D01*
X87022824Y-66846980D01*
X87022819Y-66846978D01*
X87022814Y-66846976D01*
X86763442Y-66768942D01*
X86763428Y-66768939D01*
X86647791Y-66751921D01*
X86495439Y-66729500D01*
X86292369Y-66729500D01*
X86292351Y-66729500D01*
X86089844Y-66744323D01*
X86089831Y-66744325D01*
X85825453Y-66803217D01*
X85825446Y-66803220D01*
X85572439Y-66899987D01*
X85336226Y-67032557D01*
X85121822Y-67198112D01*
X84933822Y-67393109D01*
X84933816Y-67393116D01*
X84776202Y-67613419D01*
X84776199Y-67613424D01*
X84652350Y-67854309D01*
X84652343Y-67854327D01*
X84564884Y-68110685D01*
X84564881Y-68110699D01*
X84515681Y-68377068D01*
X84515680Y-68377075D01*
X84505787Y-68647763D01*
X83820000Y-68647763D01*
X83820000Y-66164000D01*
X83839685Y-66096961D01*
X83892489Y-66051206D01*
X83944000Y-66040000D01*
X124336000Y-66040000D01*
X124403039Y-66059685D01*
G37*
%TD.AperFunction*%
%TD*%
M02*
