%TF.GenerationSoftware,KiCad,Pcbnew,7.0.5*%
%TF.CreationDate,2023-08-21T09:13:57+09:00*%
%TF.ProjectId,How to make PCB,486f7720-746f-4206-9d61-6b6520504342,rev?*%
%TF.SameCoordinates,Original*%
%TF.FileFunction,Profile,NP*%
%FSLAX46Y46*%
G04 Gerber Fmt 4.6, Leading zero omitted, Abs format (unit mm)*
G04 Created by KiCad (PCBNEW 7.0.5) date 2023-08-21 09:13:57*
%MOMM*%
%LPD*%
G01*
G04 APERTURE LIST*
%ADD10C,0.150000*%
%TA.AperFunction,Profile*%
%ADD11C,0.100000*%
%TD*%
G04 APERTURE END LIST*
D10*
X119692969Y-75008628D02*
X120050112Y-76008628D01*
X120050112Y-76008628D02*
X120407255Y-75008628D01*
X121764398Y-76008628D02*
X120907255Y-76008628D01*
X121335826Y-76008628D02*
X121335826Y-74508628D01*
X121335826Y-74508628D02*
X121192969Y-74722914D01*
X121192969Y-74722914D02*
X121050112Y-74865771D01*
X121050112Y-74865771D02*
X120907255Y-74937200D01*
X122407254Y-75865771D02*
X122478683Y-75937200D01*
X122478683Y-75937200D02*
X122407254Y-76008628D01*
X122407254Y-76008628D02*
X122335826Y-75937200D01*
X122335826Y-75937200D02*
X122407254Y-75865771D01*
X122407254Y-75865771D02*
X122407254Y-76008628D01*
X123407255Y-74508628D02*
X123550112Y-74508628D01*
X123550112Y-74508628D02*
X123692969Y-74580057D01*
X123692969Y-74580057D02*
X123764398Y-74651485D01*
X123764398Y-74651485D02*
X123835826Y-74794342D01*
X123835826Y-74794342D02*
X123907255Y-75080057D01*
X123907255Y-75080057D02*
X123907255Y-75437200D01*
X123907255Y-75437200D02*
X123835826Y-75722914D01*
X123835826Y-75722914D02*
X123764398Y-75865771D01*
X123764398Y-75865771D02*
X123692969Y-75937200D01*
X123692969Y-75937200D02*
X123550112Y-76008628D01*
X123550112Y-76008628D02*
X123407255Y-76008628D01*
X123407255Y-76008628D02*
X123264398Y-75937200D01*
X123264398Y-75937200D02*
X123192969Y-75865771D01*
X123192969Y-75865771D02*
X123121540Y-75722914D01*
X123121540Y-75722914D02*
X123050112Y-75437200D01*
X123050112Y-75437200D02*
X123050112Y-75080057D01*
X123050112Y-75080057D02*
X123121540Y-74794342D01*
X123121540Y-74794342D02*
X123192969Y-74651485D01*
X123192969Y-74651485D02*
X123264398Y-74580057D01*
X123264398Y-74580057D02*
X123407255Y-74508628D01*
D11*
X83820000Y-99060000D02*
X124460000Y-99060000D01*
X81280000Y-66040000D02*
X81280000Y-96520000D01*
X124460000Y-63500000D02*
X83820000Y-63500000D01*
X127000000Y-66040000D02*
X127000000Y-96520000D01*
X124460000Y-99060000D02*
G75*
G03*
X127000000Y-96520000I0J2540000D01*
G01*
X81280000Y-96520000D02*
G75*
G03*
X83820000Y-99060000I2540000J0D01*
G01*
X83820000Y-63500000D02*
G75*
G03*
X81280000Y-66040000I0J-2540000D01*
G01*
X127000000Y-66040000D02*
G75*
G03*
X124460000Y-63500000I-2540000J0D01*
G01*
M02*
