M48
; DRILL file {KiCad 9.0.2} date 2025-06-20T02:33:58+0900
; FORMAT={-:-/ absolute / metric / decimal}
; #@! TF.CreationDate,2025-06-20T02:33:58+09:00
; #@! TF.GenerationSoftware,Kicad,Pcbnew,9.0.2
; #@! TF.FileFunction,Plated,1,2,PTH
FMAT,2
METRIC
; #@! TA.AperFunction,Plated,PTH,ViaDrill
T1C0.300
; #@! TA.AperFunction,Plated,PTH,ComponentDrill
T2C0.800
; #@! TA.AperFunction,Plated,PTH,ComponentDrill
T3C0.920
; #@! TA.AperFunction,Plated,PTH,ComponentDrill
T4C1.000
; #@! TA.AperFunction,Plated,PTH,ComponentDrill
T5C2.330
%
G90
G05
T1
X89.367Y-71.095
X89.367Y-73.635
X89.367Y-76.175
X89.367Y-78.715
X89.367Y-81.255
X89.367Y-83.795
X89.367Y-86.335
X89.367Y-106.655
X89.367Y-109.195
X89.367Y-111.735
X89.367Y-114.275
X89.367Y-116.815
X89.367Y-119.355
X89.367Y-121.895
X89.367Y-124.435
X89.367Y-126.975
X89.367Y-129.515
X91.907Y-71.095
X91.907Y-73.635
X91.907Y-76.175
X91.907Y-78.715
X91.907Y-81.255
X91.907Y-83.795
X91.907Y-106.655
X91.907Y-109.195
X91.907Y-111.735
X91.907Y-114.275
X91.907Y-116.815
X91.907Y-119.355
X91.907Y-121.895
X91.907Y-124.435
X91.907Y-126.975
X91.907Y-129.515
X94.447Y-71.095
X94.447Y-73.635
X94.447Y-76.175
X94.447Y-78.715
X94.447Y-81.255
X94.447Y-86.335
X94.447Y-88.875
X94.447Y-91.415
X94.447Y-101.575
X94.447Y-104.115
X94.447Y-106.655
X94.447Y-109.195
X94.447Y-111.735
X94.447Y-114.275
X94.447Y-116.815
X94.447Y-119.355
X94.447Y-121.895
X94.447Y-124.435
X94.447Y-126.975
X94.447Y-129.515
X96.987Y-71.095
X96.987Y-73.635
X96.987Y-76.175
X96.987Y-78.715
X96.987Y-81.255
X96.987Y-83.795
X96.987Y-86.335
X96.987Y-88.875
X96.987Y-91.415
X96.987Y-93.955
X96.987Y-96.495
X96.987Y-101.575
X96.987Y-104.115
X96.987Y-106.655
X96.987Y-109.195
X96.987Y-111.735
X96.987Y-114.275
X96.987Y-116.815
X96.987Y-119.355
X96.987Y-121.895
X96.987Y-124.435
X96.987Y-126.975
X96.987Y-129.515
X99.527Y-73.635
X99.527Y-76.175
X99.527Y-78.715
X99.527Y-81.255
X99.527Y-86.335
X99.527Y-88.875
X99.527Y-91.415
X99.527Y-93.955
X99.527Y-96.495
X99.527Y-101.575
X99.527Y-104.115
X99.527Y-106.655
X99.527Y-109.195
X99.527Y-111.735
X99.527Y-114.275
X99.527Y-116.815
X99.527Y-119.355
X99.527Y-121.895
X99.527Y-124.435
X99.527Y-126.975
X99.527Y-129.515
X102.067Y-76.175
X102.067Y-78.715
X102.067Y-81.255
X102.067Y-83.795
X102.067Y-86.335
X102.067Y-88.875
X102.067Y-91.415
X102.067Y-93.955
X102.067Y-96.495
X102.067Y-101.575
X102.067Y-104.115
X102.067Y-106.655
X102.067Y-109.195
X102.067Y-111.735
X102.067Y-114.275
X102.067Y-116.815
X102.067Y-119.355
X102.067Y-121.895
X102.067Y-124.435
X102.067Y-126.975
X102.067Y-129.515
X104.607Y-78.715
X104.607Y-81.255
X104.607Y-83.795
X104.607Y-86.335
X104.607Y-88.875
X104.607Y-91.415
X104.607Y-93.955
X104.607Y-96.495
X104.607Y-101.575
X104.607Y-104.115
X104.607Y-106.655
X104.607Y-109.195
X104.607Y-111.735
X104.607Y-114.275
X104.607Y-116.815
X104.607Y-119.355
X104.607Y-121.895
X104.607Y-124.435
X104.607Y-126.975
X104.607Y-129.515
X107.147Y-71.095
X107.147Y-78.715
X107.147Y-81.255
X107.147Y-86.335
X107.147Y-88.875
X107.147Y-91.415
X107.147Y-93.955
X107.147Y-96.495
X107.147Y-101.575
X107.147Y-104.115
X107.147Y-106.655
X107.147Y-109.195
X107.147Y-111.735
X107.147Y-114.275
X107.147Y-116.815
X107.147Y-119.355
X107.147Y-121.895
X107.147Y-124.435
X107.147Y-126.975
X107.147Y-129.515
X109.687Y-71.095
X109.687Y-78.715
X109.687Y-81.255
X109.687Y-86.335
X109.687Y-88.875
X109.687Y-91.415
X109.687Y-93.955
X109.687Y-96.495
X109.687Y-101.575
X109.687Y-104.115
X109.687Y-106.655
X109.687Y-109.195
X109.687Y-111.735
X109.687Y-116.815
X109.687Y-124.435
X109.687Y-129.515
X112.227Y-88.875
X112.227Y-91.415
X112.227Y-93.955
X112.227Y-96.495
X112.227Y-101.575
X112.227Y-104.115
X112.227Y-106.655
X112.227Y-116.815
X112.227Y-121.895
X112.227Y-124.435
X112.227Y-129.515
X114.767Y-71.095
X114.767Y-78.715
X114.767Y-91.415
X114.767Y-93.955
X114.767Y-96.495
X114.767Y-101.575
X114.767Y-104.115
X114.767Y-116.815
X114.767Y-124.435
X114.767Y-129.515
X117.307Y-71.095
X117.307Y-78.715
X117.307Y-81.255
X117.307Y-93.955
X117.307Y-96.495
X117.307Y-101.575
X117.307Y-109.195
X117.307Y-111.735
X117.307Y-114.275
X117.307Y-116.815
X117.307Y-119.355
X117.307Y-121.895
X117.307Y-124.435
X117.307Y-126.975
X117.307Y-129.515
X119.847Y-71.095
X119.847Y-81.255
X119.847Y-83.795
X119.847Y-93.955
X119.847Y-106.655
X119.847Y-109.195
X119.847Y-111.735
X119.847Y-114.275
X119.847Y-116.815
X119.847Y-119.355
X119.847Y-121.895
X119.847Y-124.435
X119.847Y-126.975
X119.847Y-129.515
X122.387Y-71.095
X122.387Y-83.795
X122.387Y-91.415
X122.387Y-99.035
X122.387Y-104.115
X122.387Y-106.655
X122.387Y-109.195
X122.387Y-111.735
X122.387Y-114.275
X122.387Y-116.815
X122.387Y-119.355
X122.387Y-121.895
X122.387Y-124.435
X122.387Y-126.975
X122.387Y-129.515
X124.927Y-124.435
X124.927Y-126.975
X124.927Y-129.515
X127.467Y-71.095
X127.467Y-73.635
X127.467Y-76.175
X127.467Y-78.715
X127.467Y-81.255
X127.467Y-83.795
X127.467Y-86.335
X127.467Y-88.875
X127.467Y-91.415
X127.467Y-99.035
X127.467Y-101.575
X127.467Y-104.115
X127.467Y-121.895
X127.467Y-124.435
X127.467Y-126.975
X127.467Y-129.515
X130.007Y-71.095
X130.007Y-73.635
X130.007Y-76.175
X130.007Y-78.715
X130.007Y-81.255
X130.007Y-83.795
X130.007Y-86.335
X130.007Y-88.875
X130.007Y-91.415
X130.007Y-99.035
X130.007Y-101.575
X130.007Y-104.115
X130.007Y-121.895
X130.007Y-124.435
X130.007Y-126.975
X130.007Y-129.515
X132.547Y-71.095
X132.547Y-73.635
X132.547Y-76.175
X132.547Y-78.715
X132.547Y-81.255
X132.547Y-83.795
X132.547Y-86.335
X132.547Y-88.875
X132.547Y-91.415
X132.547Y-99.035
X132.547Y-101.575
X132.547Y-104.115
X132.547Y-106.655
X135.087Y-71.095
X135.087Y-73.635
X135.087Y-76.175
X135.087Y-78.715
X135.087Y-81.255
X135.087Y-83.795
X135.087Y-86.335
X135.087Y-88.875
X135.087Y-91.415
X135.087Y-99.035
X135.087Y-101.575
X135.087Y-104.115
X135.087Y-106.655
X135.087Y-109.195
X137.627Y-71.095
X137.627Y-73.635
X137.627Y-76.175
X137.627Y-78.715
X137.627Y-81.255
X137.627Y-83.795
X137.627Y-86.335
X137.627Y-88.875
X137.627Y-91.415
X137.627Y-99.035
X137.627Y-101.575
X137.627Y-104.115
X137.627Y-106.655
X137.627Y-109.195
X137.627Y-111.735
X137.627Y-114.275
X137.627Y-116.815
X137.627Y-119.355
X142.707Y-71.095
X142.707Y-73.635
X142.707Y-76.175
X142.707Y-78.715
X142.707Y-81.255
X142.707Y-83.795
X142.707Y-86.335
X142.707Y-88.875
X142.707Y-91.415
X142.707Y-93.955
X142.707Y-96.495
X142.707Y-99.035
X142.707Y-101.575
X142.707Y-104.115
X142.707Y-106.655
X142.707Y-109.195
X142.707Y-111.735
X142.707Y-114.275
X142.707Y-116.815
X142.707Y-119.355
X142.707Y-121.895
X142.707Y-124.435
X145.247Y-71.095
X145.247Y-73.635
X145.247Y-76.175
X145.247Y-78.715
X145.247Y-81.255
X145.247Y-83.795
X145.247Y-86.335
X145.247Y-88.875
X145.247Y-91.415
X145.247Y-93.955
X145.247Y-96.495
X145.247Y-99.035
X145.247Y-101.575
X145.247Y-104.115
X145.247Y-106.655
X145.247Y-109.195
X145.247Y-111.735
X145.247Y-114.275
X145.247Y-116.815
X145.247Y-119.355
X145.247Y-121.895
X145.247Y-124.435
X145.247Y-126.975
X147.787Y-71.095
X147.787Y-73.635
X147.787Y-76.175
X147.787Y-78.715
X147.787Y-81.255
X147.787Y-83.795
X147.787Y-86.335
X147.787Y-88.875
X147.787Y-91.415
X147.787Y-93.955
X147.787Y-96.495
X147.787Y-99.035
X147.787Y-101.575
X147.787Y-104.115
X147.787Y-106.655
X147.787Y-109.195
X147.787Y-111.735
X147.787Y-114.275
X147.787Y-116.815
X147.787Y-119.355
X147.787Y-121.895
X147.787Y-124.435
X147.787Y-126.975
X147.787Y-129.515
T2
X110.834Y-114.427
X110.871Y-120.396
X110.871Y-127.896
X115.697Y-120.329
X115.697Y-127.829
X115.714Y-114.427
X125.222Y-72.39
X125.222Y-74.93
X125.222Y-77.47
X125.222Y-80.01
X125.222Y-82.55
X125.222Y-85.09
X125.222Y-87.63
X125.222Y-90.17
X125.222Y-92.71
X125.222Y-95.25
X125.222Y-97.79
X125.222Y-100.33
X125.222Y-102.87
X125.222Y-105.41
X125.222Y-107.95
X125.222Y-110.49
X125.222Y-113.03
X125.222Y-115.57
X125.222Y-118.11
X125.222Y-120.65
X140.462Y-72.39
X140.462Y-74.93
X140.462Y-77.47
X140.462Y-80.01
X140.462Y-82.55
X140.462Y-85.09
X140.462Y-87.63
X140.462Y-90.17
X140.462Y-92.71
X140.462Y-95.25
X140.462Y-97.79
X140.462Y-100.33
X140.462Y-102.87
X140.462Y-105.41
X140.462Y-107.95
X140.462Y-110.49
X140.462Y-113.03
X140.462Y-115.57
X140.462Y-118.11
X140.462Y-120.65
T3
X92.742Y-95.504
X92.742Y-98.004
X94.742Y-95.504
X94.742Y-98.004
T4
X95.63Y-64.5
X98.17Y-64.5
X100.71Y-64.5
X103.25Y-64.5
X105.79Y-64.5
X110.871Y-64.516
X113.411Y-64.516
X115.951Y-64.516
X130.96Y-133.0
X133.5Y-133.0
X136.04Y-133.0
X138.58Y-133.0
X141.12Y-133.0
X143.66Y-133.0
X146.2Y-133.0
X155.194Y-72.39
X155.194Y-74.93
X155.194Y-77.47
X155.194Y-80.01
X155.194Y-82.55
X155.194Y-85.09
X155.194Y-87.63
X155.194Y-90.17
X155.194Y-92.71
X155.194Y-95.25
X155.194Y-97.79
X155.194Y-100.33
X155.194Y-102.87
X155.194Y-105.41
X155.194Y-107.95
X155.194Y-110.49
X155.194Y-113.03
X155.194Y-115.57
X155.194Y-118.11
X155.194Y-120.65
T5
X90.032Y-90.734
X90.032Y-102.774
M30
