%TF.GenerationSoftware,KiCad,Pcbnew,7.0.10*%
%TF.CreationDate,2024-03-02T18:49:49+09:00*%
%TF.ProjectId,STM32F103x8,53544d33-3246-4313-9033-78382e6b6963,rev?*%
%TF.SameCoordinates,Original*%
%TF.FileFunction,Copper,L2,Bot*%
%TF.FilePolarity,Positive*%
%FSLAX46Y46*%
G04 Gerber Fmt 4.6, Leading zero omitted, Abs format (unit mm)*
G04 Created by KiCad (PCBNEW 7.0.10) date 2024-03-02 18:49:49*
%MOMM*%
%LPD*%
G01*
G04 APERTURE LIST*
G04 Aperture macros list*
%AMFreePoly0*
4,1,9,3.862500,-0.866500,0.737500,-0.866500,0.737500,-0.450000,-0.737500,-0.450000,-0.737500,0.450000,0.737500,0.450000,0.737500,0.866500,3.862500,0.866500,3.862500,-0.866500,3.862500,-0.866500,$1*%
G04 Aperture macros list end*
%TA.AperFunction,ComponentPad*%
%ADD10R,1.700000X1.700000*%
%TD*%
%TA.AperFunction,ComponentPad*%
%ADD11O,1.700000X1.700000*%
%TD*%
%TA.AperFunction,ComponentPad*%
%ADD12O,3.200000X1.300000*%
%TD*%
%TA.AperFunction,ComponentPad*%
%ADD13C,1.500000*%
%TD*%
%TA.AperFunction,ComponentPad*%
%ADD14O,3.048000X1.850000*%
%TD*%
%TA.AperFunction,ComponentPad*%
%ADD15C,1.600000*%
%TD*%
%TA.AperFunction,ComponentPad*%
%ADD16O,1.600000X1.600000*%
%TD*%
%TA.AperFunction,SMDPad,CuDef*%
%ADD17R,0.900000X1.300000*%
%TD*%
%TA.AperFunction,SMDPad,CuDef*%
%ADD18FreePoly0,90.000000*%
%TD*%
%TA.AperFunction,ViaPad*%
%ADD19C,0.600000*%
%TD*%
%TA.AperFunction,ViaPad*%
%ADD20C,1.000000*%
%TD*%
%TA.AperFunction,Conductor*%
%ADD21C,0.200000*%
%TD*%
%TA.AperFunction,Conductor*%
%ADD22C,1.000000*%
%TD*%
G04 APERTURE END LIST*
D10*
%TO.P,J3,1,Pin_1*%
%TO.N,Net-(J3-Pin_1)*%
X167005000Y-96520000D03*
%TD*%
%TO.P,J2,1,Pin_1*%
%TO.N,Net-(J2-Pin_1)*%
X127000000Y-66045000D03*
D11*
%TO.P,J2,2,Pin_2*%
%TO.N,Net-(J2-Pin_2)*%
X127000000Y-68585000D03*
%TO.P,J2,3,Pin_3*%
%TO.N,Net-(J2-Pin_3)*%
X127000000Y-71125000D03*
%TO.P,J2,4,Pin_4*%
%TO.N,Net-(J2-Pin_4)*%
X127000000Y-73665000D03*
%TO.P,J2,5,Pin_5*%
%TO.N,Net-(J2-Pin_5)*%
X127000000Y-76205000D03*
%TD*%
D12*
%TO.P,J4,5,Shield*%
%TO.N,unconnected-(J4-Shield-Pad5)*%
X182155000Y-70985000D03*
X182155000Y-82685000D03*
%TD*%
D13*
%TO.P,Y1,1,1*%
%TO.N,Net-(U1-PD0-OSC_IN)*%
X170434000Y-76254000D03*
%TO.P,Y1,2,2*%
%TO.N,Net-(U1-PD1-OSC_OUT)*%
X170434000Y-71374000D03*
%TD*%
D14*
%TO.P,SW1,1,1*%
%TO.N,Net-(U1-NRST)*%
X132715000Y-86915000D03*
X120215000Y-86915000D03*
%TO.P,SW1,2,2*%
%TO.N,GND*%
X132715000Y-81915000D03*
X120215000Y-81915000D03*
%TD*%
D15*
%TO.P,C5,1*%
%TO.N,Net-(U1-NRST)*%
X157794000Y-70358000D03*
D16*
%TO.P,C5,2*%
%TO.N,GND*%
X165294000Y-70358000D03*
%TD*%
D10*
%TO.P,J6,1,Pin_1*%
%TO.N,Net-(J6-Pin_1)*%
X144145000Y-96520000D03*
D11*
%TO.P,J6,2,Pin_2*%
%TO.N,Net-(J6-Pin_2)*%
X146685000Y-96520000D03*
%TO.P,J6,3,Pin_3*%
%TO.N,Net-(J6-Pin_3)*%
X149225000Y-96520000D03*
%TO.P,J6,4,Pin_4*%
%TO.N,Net-(J6-Pin_4)*%
X151765000Y-96520000D03*
%TO.P,J6,5,Pin_5*%
%TO.N,Net-(J6-Pin_5)*%
X154305000Y-96520000D03*
%TO.P,J6,6,Pin_6*%
%TO.N,Net-(J6-Pin_6)*%
X156845000Y-96520000D03*
%TO.P,J6,7,Pin_7*%
%TO.N,Net-(J6-Pin_7)*%
X159385000Y-96520000D03*
%TO.P,J6,8,Pin_8*%
%TO.N,Net-(J6-Pin_8)*%
X161925000Y-96520000D03*
%TD*%
D10*
%TO.P,J5,1,Pin_1*%
%TO.N,GND*%
X132578000Y-96012000D03*
D11*
%TO.P,J5,2,Pin_2*%
%TO.N,Net-(J5-Pin_2)*%
X130038000Y-96012000D03*
%TO.P,J5,3,Pin_3*%
%TO.N,Net-(J5-Pin_3)*%
X127498000Y-96012000D03*
%TO.P,J5,4,Pin_4*%
%TO.N,+3V3*%
X124958000Y-96012000D03*
%TD*%
D10*
%TO.P,J1,1,Pin_1*%
%TO.N,Net-(J1-Pin_1)*%
X172720000Y-55880000D03*
D11*
%TO.P,J1,2,Pin_2*%
%TO.N,Net-(J1-Pin_2)*%
X170180000Y-55880000D03*
%TO.P,J1,3,Pin_3*%
%TO.N,Net-(J1-Pin_3)*%
X167640000Y-55880000D03*
%TO.P,J1,4,Pin_4*%
%TO.N,Net-(J1-Pin_4)*%
X165100000Y-55880000D03*
%TO.P,J1,5,Pin_5*%
%TO.N,Net-(J1-Pin_5)*%
X162560000Y-55880000D03*
%TO.P,J1,6,Pin_6*%
%TO.N,Net-(J1-Pin_6)*%
X160020000Y-55880000D03*
%TO.P,J1,7,Pin_7*%
%TO.N,Net-(J1-Pin_7)*%
X157480000Y-55880000D03*
%TO.P,J1,8,Pin_8*%
%TO.N,Net-(J1-Pin_8)*%
X154940000Y-55880000D03*
%TO.P,J1,9,Pin_9*%
%TO.N,Net-(J1-Pin_9)*%
X152400000Y-55880000D03*
%TO.P,J1,10,Pin_10*%
%TO.N,Net-(J1-Pin_10)*%
X149860000Y-55880000D03*
%TO.P,J1,11,Pin_11*%
%TO.N,Net-(J1-Pin_11)*%
X147320000Y-55880000D03*
%TO.P,J1,12,Pin_12*%
%TO.N,Net-(J1-Pin_12)*%
X144780000Y-55880000D03*
%TO.P,J1,13,Pin_13*%
%TO.N,Net-(J1-Pin_13)*%
X142240000Y-55880000D03*
%TO.P,J1,14,Pin_14*%
%TO.N,Net-(J1-Pin_14)*%
X139700000Y-55880000D03*
%TO.P,J1,15,Pin_15*%
%TO.N,Net-(J1-Pin_15)*%
X137160000Y-55880000D03*
%TO.P,J1,16,Pin_16*%
%TO.N,Net-(J1-Pin_16)*%
X134620000Y-55880000D03*
%TO.P,J1,17,Pin_17*%
%TO.N,Net-(J1-Pin_17)*%
X132080000Y-55880000D03*
%TD*%
D15*
%TO.P,C3,1*%
%TO.N,GND*%
X165294000Y-74930000D03*
D16*
%TO.P,C3,2*%
%TO.N,Net-(U1-PD1-OSC_OUT)*%
X157794000Y-74930000D03*
%TD*%
D15*
%TO.P,C2,1*%
%TO.N,GND*%
X170628000Y-82550000D03*
D16*
%TO.P,C2,2*%
%TO.N,Net-(U1-PC14-OSC32_IN)*%
X163128000Y-82550000D03*
%TD*%
D15*
%TO.P,C4,1*%
%TO.N,GND*%
X165294000Y-78232000D03*
D16*
%TO.P,C4,2*%
%TO.N,Net-(U1-PD0-OSC_IN)*%
X157794000Y-78232000D03*
%TD*%
D15*
%TO.P,C1,1*%
%TO.N,GND*%
X172406000Y-91440000D03*
D16*
%TO.P,C1,2*%
%TO.N,Net-(U1-PC15-OSC32_OUT)*%
X164906000Y-91440000D03*
%TD*%
D17*
%TO.P,U2,1,VIN*%
%TO.N,Net-(J4-VBUS)*%
X174728000Y-64815000D03*
D18*
%TO.P,U2,2,GND*%
%TO.N,GND*%
X173228000Y-64727500D03*
D17*
%TO.P,U2,3,VOUT*%
%TO.N,+3V3*%
X171728000Y-64815000D03*
%TD*%
D19*
%TO.N,+3V3*%
X131826000Y-85344000D03*
X153416000Y-72136000D03*
%TO.N,Net-(J3-Pin_1)*%
X153416000Y-78232000D03*
%TO.N,Net-(U1-PC14-OSC32_IN)*%
X156464000Y-80264000D03*
%TO.N,Net-(U1-NRST)*%
X148336000Y-73660000D03*
%TO.N,GND*%
X121920000Y-80264000D03*
X149352000Y-80264000D03*
D20*
X177363000Y-80335000D03*
D19*
X143256000Y-66548000D03*
X137160000Y-76708000D03*
X155448000Y-72136000D03*
%TO.N,Net-(J4-VBUS)*%
X174752000Y-68580000D03*
%TO.N,Net-(J5-Pin_3)*%
X141732000Y-82296000D03*
%TD*%
D21*
%TO.N,+3V3*%
X124958000Y-92212000D02*
X124958000Y-96012000D01*
X131826000Y-85344000D02*
X124958000Y-92212000D01*
X153416000Y-72136000D02*
X160737000Y-64815000D01*
X160737000Y-64815000D02*
X171855000Y-64815000D01*
%TO.N,Net-(J3-Pin_1)*%
X160020000Y-88900000D02*
X167005000Y-95885000D01*
X160020000Y-84836000D02*
X160020000Y-88900000D01*
X153416000Y-78232000D02*
X160020000Y-84836000D01*
X167005000Y-95885000D02*
X167005000Y-96520000D01*
%TO.N,Net-(U1-PC14-OSC32_IN)*%
X156464000Y-80264000D02*
X161544000Y-85344000D01*
%TO.N,Net-(U1-NRST)*%
X132715000Y-86741000D02*
X145796000Y-73660000D01*
X145796000Y-73660000D02*
X148336000Y-73660000D01*
X132715000Y-86915000D02*
X132715000Y-86741000D01*
D22*
%TO.N,GND*%
X177363000Y-80335000D02*
X177292000Y-80264000D01*
X177292000Y-80264000D02*
X173736000Y-80264000D01*
D21*
X137160000Y-77470000D02*
X132715000Y-81915000D01*
X137160000Y-76708000D02*
X137160000Y-77470000D01*
%TO.N,Net-(J4-VBUS)*%
X174728000Y-68556000D02*
X174752000Y-68580000D01*
X174728000Y-64815000D02*
X174728000Y-68556000D01*
%TO.N,Net-(J5-Pin_3)*%
X130048000Y-93980000D02*
X130048000Y-96012000D01*
X141732000Y-82296000D02*
X130048000Y-93980000D01*
D22*
%TO.N,unconnected-(J4-Shield-Pad5)*%
X183642000Y-72472000D02*
X183642000Y-81198000D01*
X182155000Y-70985000D02*
X183642000Y-72472000D01*
X183642000Y-81198000D02*
X182155000Y-82685000D01*
%TD*%
%TA.AperFunction,Conductor*%
%TO.N,GND*%
G36*
X175457039Y-52597685D02*
G01*
X175502794Y-52650489D01*
X175514000Y-52702000D01*
X175514000Y-63577546D01*
X175494315Y-63644585D01*
X175441511Y-63690340D01*
X175372353Y-63700284D01*
X175346668Y-63693728D01*
X175285485Y-63670909D01*
X175285483Y-63670908D01*
X175225883Y-63664501D01*
X175225881Y-63664500D01*
X175225873Y-63664500D01*
X175225864Y-63664500D01*
X174230129Y-63664500D01*
X174230123Y-63664501D01*
X174170516Y-63670908D01*
X174035671Y-63721202D01*
X174035664Y-63721206D01*
X173920455Y-63807452D01*
X173920452Y-63807455D01*
X173834206Y-63922664D01*
X173834202Y-63922671D01*
X173783908Y-64057517D01*
X173777501Y-64117116D01*
X173777501Y-64117123D01*
X173777500Y-64117135D01*
X173777500Y-65512870D01*
X173777501Y-65512876D01*
X173783908Y-65572483D01*
X173834202Y-65707328D01*
X173834206Y-65707335D01*
X173920452Y-65822544D01*
X173920455Y-65822547D01*
X174035665Y-65908794D01*
X174035667Y-65908794D01*
X174035669Y-65908796D01*
X174046830Y-65912958D01*
X174102764Y-65954826D01*
X174127184Y-66020289D01*
X174127500Y-66029141D01*
X174127500Y-68033553D01*
X174108494Y-68099525D01*
X174026211Y-68230476D01*
X173966631Y-68400745D01*
X173966630Y-68400750D01*
X173946435Y-68579996D01*
X173946435Y-68580003D01*
X173966630Y-68759249D01*
X173966631Y-68759254D01*
X174026211Y-68929523D01*
X174101067Y-69048655D01*
X174122184Y-69082262D01*
X174249738Y-69209816D01*
X174402478Y-69305789D01*
X174551554Y-69357953D01*
X174572745Y-69365368D01*
X174572750Y-69365369D01*
X174751996Y-69385565D01*
X174752000Y-69385565D01*
X174752004Y-69385565D01*
X174931249Y-69365369D01*
X174931252Y-69365368D01*
X174931255Y-69365368D01*
X175101522Y-69305789D01*
X175254262Y-69209816D01*
X175302319Y-69161759D01*
X175363642Y-69128274D01*
X175433334Y-69133258D01*
X175489267Y-69175130D01*
X175513684Y-69240594D01*
X175514000Y-69249440D01*
X175514000Y-98936000D01*
X175494315Y-99003039D01*
X175441511Y-99048794D01*
X175390000Y-99060000D01*
X118488000Y-99060000D01*
X118420961Y-99040315D01*
X118375206Y-98987511D01*
X118364000Y-98936000D01*
X118364000Y-97417870D01*
X142794500Y-97417870D01*
X142794501Y-97417876D01*
X142800908Y-97477483D01*
X142851202Y-97612328D01*
X142851206Y-97612335D01*
X142937452Y-97727544D01*
X142937455Y-97727547D01*
X143052664Y-97813793D01*
X143052671Y-97813797D01*
X143187517Y-97864091D01*
X143187516Y-97864091D01*
X143194444Y-97864835D01*
X143247127Y-97870500D01*
X145042872Y-97870499D01*
X145102483Y-97864091D01*
X145237331Y-97813796D01*
X145352546Y-97727546D01*
X145438796Y-97612331D01*
X145487810Y-97480916D01*
X145529681Y-97424984D01*
X145595145Y-97400566D01*
X145663418Y-97415417D01*
X145691673Y-97436569D01*
X145813599Y-97558495D01*
X145910384Y-97626265D01*
X146007165Y-97694032D01*
X146007167Y-97694033D01*
X146007170Y-97694035D01*
X146221337Y-97793903D01*
X146449592Y-97855063D01*
X146626034Y-97870500D01*
X146684999Y-97875659D01*
X146685000Y-97875659D01*
X146685001Y-97875659D01*
X146743966Y-97870500D01*
X146920408Y-97855063D01*
X147148663Y-97793903D01*
X147362830Y-97694035D01*
X147556401Y-97558495D01*
X147723495Y-97391401D01*
X147853425Y-97205842D01*
X147908002Y-97162217D01*
X147977500Y-97155023D01*
X148039855Y-97186546D01*
X148056575Y-97205842D01*
X148186500Y-97391395D01*
X148186505Y-97391401D01*
X148353599Y-97558495D01*
X148450384Y-97626265D01*
X148547165Y-97694032D01*
X148547167Y-97694033D01*
X148547170Y-97694035D01*
X148761337Y-97793903D01*
X148989592Y-97855063D01*
X149166034Y-97870500D01*
X149224999Y-97875659D01*
X149225000Y-97875659D01*
X149225001Y-97875659D01*
X149283966Y-97870500D01*
X149460408Y-97855063D01*
X149688663Y-97793903D01*
X149902830Y-97694035D01*
X150096401Y-97558495D01*
X150263495Y-97391401D01*
X150393425Y-97205842D01*
X150448002Y-97162217D01*
X150517500Y-97155023D01*
X150579855Y-97186546D01*
X150596575Y-97205842D01*
X150726500Y-97391395D01*
X150726505Y-97391401D01*
X150893599Y-97558495D01*
X150990384Y-97626265D01*
X151087165Y-97694032D01*
X151087167Y-97694033D01*
X151087170Y-97694035D01*
X151301337Y-97793903D01*
X151529592Y-97855063D01*
X151706034Y-97870500D01*
X151764999Y-97875659D01*
X151765000Y-97875659D01*
X151765001Y-97875659D01*
X151823966Y-97870500D01*
X152000408Y-97855063D01*
X152228663Y-97793903D01*
X152442830Y-97694035D01*
X152636401Y-97558495D01*
X152803495Y-97391401D01*
X152933425Y-97205842D01*
X152988002Y-97162217D01*
X153057500Y-97155023D01*
X153119855Y-97186546D01*
X153136575Y-97205842D01*
X153266500Y-97391395D01*
X153266505Y-97391401D01*
X153433599Y-97558495D01*
X153530384Y-97626265D01*
X153627165Y-97694032D01*
X153627167Y-97694033D01*
X153627170Y-97694035D01*
X153841337Y-97793903D01*
X154069592Y-97855063D01*
X154246034Y-97870500D01*
X154304999Y-97875659D01*
X154305000Y-97875659D01*
X154305001Y-97875659D01*
X154363966Y-97870500D01*
X154540408Y-97855063D01*
X154768663Y-97793903D01*
X154982830Y-97694035D01*
X155176401Y-97558495D01*
X155343495Y-97391401D01*
X155473425Y-97205842D01*
X155528002Y-97162217D01*
X155597500Y-97155023D01*
X155659855Y-97186546D01*
X155676575Y-97205842D01*
X155806500Y-97391395D01*
X155806505Y-97391401D01*
X155973599Y-97558495D01*
X156070384Y-97626265D01*
X156167165Y-97694032D01*
X156167167Y-97694033D01*
X156167170Y-97694035D01*
X156381337Y-97793903D01*
X156609592Y-97855063D01*
X156786034Y-97870500D01*
X156844999Y-97875659D01*
X156845000Y-97875659D01*
X156845001Y-97875659D01*
X156903966Y-97870500D01*
X157080408Y-97855063D01*
X157308663Y-97793903D01*
X157522830Y-97694035D01*
X157716401Y-97558495D01*
X157883495Y-97391401D01*
X158013425Y-97205842D01*
X158068002Y-97162217D01*
X158137500Y-97155023D01*
X158199855Y-97186546D01*
X158216575Y-97205842D01*
X158346500Y-97391395D01*
X158346505Y-97391401D01*
X158513599Y-97558495D01*
X158610384Y-97626265D01*
X158707165Y-97694032D01*
X158707167Y-97694033D01*
X158707170Y-97694035D01*
X158921337Y-97793903D01*
X159149592Y-97855063D01*
X159326034Y-97870500D01*
X159384999Y-97875659D01*
X159385000Y-97875659D01*
X159385001Y-97875659D01*
X159443966Y-97870500D01*
X159620408Y-97855063D01*
X159848663Y-97793903D01*
X160062830Y-97694035D01*
X160256401Y-97558495D01*
X160423495Y-97391401D01*
X160553425Y-97205842D01*
X160608002Y-97162217D01*
X160677500Y-97155023D01*
X160739855Y-97186546D01*
X160756575Y-97205842D01*
X160886500Y-97391395D01*
X160886505Y-97391401D01*
X161053599Y-97558495D01*
X161150384Y-97626265D01*
X161247165Y-97694032D01*
X161247167Y-97694033D01*
X161247170Y-97694035D01*
X161461337Y-97793903D01*
X161689592Y-97855063D01*
X161866034Y-97870500D01*
X161924999Y-97875659D01*
X161925000Y-97875659D01*
X161925001Y-97875659D01*
X161983966Y-97870500D01*
X162160408Y-97855063D01*
X162388663Y-97793903D01*
X162602830Y-97694035D01*
X162796401Y-97558495D01*
X162963495Y-97391401D01*
X163099035Y-97197830D01*
X163198903Y-96983663D01*
X163260063Y-96755408D01*
X163280659Y-96520000D01*
X163260063Y-96284592D01*
X163213626Y-96111285D01*
X163198905Y-96056344D01*
X163198904Y-96056343D01*
X163198903Y-96056337D01*
X163099035Y-95842171D01*
X163093425Y-95834158D01*
X162963494Y-95648597D01*
X162796402Y-95481506D01*
X162796395Y-95481501D01*
X162602834Y-95345967D01*
X162602830Y-95345965D01*
X162560354Y-95326158D01*
X162388663Y-95246097D01*
X162388659Y-95246096D01*
X162388655Y-95246094D01*
X162160413Y-95184938D01*
X162160403Y-95184936D01*
X161925001Y-95164341D01*
X161924999Y-95164341D01*
X161689596Y-95184936D01*
X161689586Y-95184938D01*
X161461344Y-95246094D01*
X161461335Y-95246098D01*
X161247171Y-95345964D01*
X161247169Y-95345965D01*
X161053597Y-95481505D01*
X160886505Y-95648597D01*
X160756575Y-95834158D01*
X160701998Y-95877783D01*
X160632500Y-95884977D01*
X160570145Y-95853454D01*
X160553425Y-95834158D01*
X160423494Y-95648597D01*
X160256402Y-95481506D01*
X160256395Y-95481501D01*
X160062834Y-95345967D01*
X160062830Y-95345965D01*
X160020354Y-95326158D01*
X159848663Y-95246097D01*
X159848659Y-95246096D01*
X159848655Y-95246094D01*
X159620413Y-95184938D01*
X159620403Y-95184936D01*
X159385001Y-95164341D01*
X159384999Y-95164341D01*
X159149596Y-95184936D01*
X159149586Y-95184938D01*
X158921344Y-95246094D01*
X158921335Y-95246098D01*
X158707171Y-95345964D01*
X158707169Y-95345965D01*
X158513597Y-95481505D01*
X158346505Y-95648597D01*
X158216575Y-95834158D01*
X158161998Y-95877783D01*
X158092500Y-95884977D01*
X158030145Y-95853454D01*
X158013425Y-95834158D01*
X157883494Y-95648597D01*
X157716402Y-95481506D01*
X157716395Y-95481501D01*
X157522834Y-95345967D01*
X157522830Y-95345965D01*
X157480354Y-95326158D01*
X157308663Y-95246097D01*
X157308659Y-95246096D01*
X157308655Y-95246094D01*
X157080413Y-95184938D01*
X157080403Y-95184936D01*
X156845001Y-95164341D01*
X156844999Y-95164341D01*
X156609596Y-95184936D01*
X156609586Y-95184938D01*
X156381344Y-95246094D01*
X156381335Y-95246098D01*
X156167171Y-95345964D01*
X156167169Y-95345965D01*
X155973597Y-95481505D01*
X155806505Y-95648597D01*
X155676575Y-95834158D01*
X155621998Y-95877783D01*
X155552500Y-95884977D01*
X155490145Y-95853454D01*
X155473425Y-95834158D01*
X155343494Y-95648597D01*
X155176402Y-95481506D01*
X155176395Y-95481501D01*
X154982834Y-95345967D01*
X154982830Y-95345965D01*
X154940354Y-95326158D01*
X154768663Y-95246097D01*
X154768659Y-95246096D01*
X154768655Y-95246094D01*
X154540413Y-95184938D01*
X154540403Y-95184936D01*
X154305001Y-95164341D01*
X154304999Y-95164341D01*
X154069596Y-95184936D01*
X154069586Y-95184938D01*
X153841344Y-95246094D01*
X153841335Y-95246098D01*
X153627171Y-95345964D01*
X153627169Y-95345965D01*
X153433597Y-95481505D01*
X153266505Y-95648597D01*
X153136575Y-95834158D01*
X153081998Y-95877783D01*
X153012500Y-95884977D01*
X152950145Y-95853454D01*
X152933425Y-95834158D01*
X152803494Y-95648597D01*
X152636402Y-95481506D01*
X152636395Y-95481501D01*
X152442834Y-95345967D01*
X152442830Y-95345965D01*
X152400354Y-95326158D01*
X152228663Y-95246097D01*
X152228659Y-95246096D01*
X152228655Y-95246094D01*
X152000413Y-95184938D01*
X152000403Y-95184936D01*
X151765001Y-95164341D01*
X151764999Y-95164341D01*
X151529596Y-95184936D01*
X151529586Y-95184938D01*
X151301344Y-95246094D01*
X151301335Y-95246098D01*
X151087171Y-95345964D01*
X151087169Y-95345965D01*
X150893597Y-95481505D01*
X150726505Y-95648597D01*
X150596575Y-95834158D01*
X150541998Y-95877783D01*
X150472500Y-95884977D01*
X150410145Y-95853454D01*
X150393425Y-95834158D01*
X150263494Y-95648597D01*
X150096402Y-95481506D01*
X150096395Y-95481501D01*
X149902834Y-95345967D01*
X149902830Y-95345965D01*
X149860354Y-95326158D01*
X149688663Y-95246097D01*
X149688659Y-95246096D01*
X149688655Y-95246094D01*
X149460413Y-95184938D01*
X149460403Y-95184936D01*
X149225001Y-95164341D01*
X149224999Y-95164341D01*
X148989596Y-95184936D01*
X148989586Y-95184938D01*
X148761344Y-95246094D01*
X148761335Y-95246098D01*
X148547171Y-95345964D01*
X148547169Y-95345965D01*
X148353597Y-95481505D01*
X148186505Y-95648597D01*
X148056575Y-95834158D01*
X148001998Y-95877783D01*
X147932500Y-95884977D01*
X147870145Y-95853454D01*
X147853425Y-95834158D01*
X147723494Y-95648597D01*
X147556402Y-95481506D01*
X147556395Y-95481501D01*
X147362834Y-95345967D01*
X147362830Y-95345965D01*
X147320354Y-95326158D01*
X147148663Y-95246097D01*
X147148659Y-95246096D01*
X147148655Y-95246094D01*
X146920413Y-95184938D01*
X146920403Y-95184936D01*
X146685001Y-95164341D01*
X146684999Y-95164341D01*
X146449596Y-95184936D01*
X146449586Y-95184938D01*
X146221344Y-95246094D01*
X146221335Y-95246098D01*
X146007171Y-95345964D01*
X146007169Y-95345965D01*
X145813600Y-95481503D01*
X145691673Y-95603430D01*
X145630350Y-95636914D01*
X145560658Y-95631930D01*
X145504725Y-95590058D01*
X145487810Y-95559081D01*
X145438797Y-95427671D01*
X145438793Y-95427664D01*
X145352547Y-95312455D01*
X145352544Y-95312452D01*
X145237335Y-95226206D01*
X145237328Y-95226202D01*
X145102482Y-95175908D01*
X145102483Y-95175908D01*
X145042883Y-95169501D01*
X145042881Y-95169500D01*
X145042873Y-95169500D01*
X145042864Y-95169500D01*
X143247129Y-95169500D01*
X143247123Y-95169501D01*
X143187516Y-95175908D01*
X143052671Y-95226202D01*
X143052664Y-95226206D01*
X142937455Y-95312452D01*
X142937452Y-95312455D01*
X142851206Y-95427664D01*
X142851202Y-95427671D01*
X142800908Y-95562517D01*
X142796510Y-95603430D01*
X142794501Y-95622123D01*
X142794500Y-95622135D01*
X142794500Y-97417870D01*
X118364000Y-97417870D01*
X118364000Y-96012000D01*
X123602341Y-96012000D01*
X123622936Y-96247403D01*
X123622938Y-96247413D01*
X123684094Y-96475655D01*
X123684096Y-96475659D01*
X123684097Y-96475663D01*
X123704772Y-96520000D01*
X123783965Y-96689830D01*
X123783967Y-96689834D01*
X123892281Y-96844521D01*
X123919505Y-96883401D01*
X124086599Y-97050495D01*
X124163135Y-97104086D01*
X124280165Y-97186032D01*
X124280167Y-97186033D01*
X124280170Y-97186035D01*
X124494337Y-97285903D01*
X124722592Y-97347063D01*
X124893319Y-97362000D01*
X124957999Y-97367659D01*
X124958000Y-97367659D01*
X124958001Y-97367659D01*
X125022681Y-97362000D01*
X125193408Y-97347063D01*
X125421663Y-97285903D01*
X125635830Y-97186035D01*
X125829401Y-97050495D01*
X125996495Y-96883401D01*
X126126425Y-96697842D01*
X126181002Y-96654217D01*
X126250500Y-96647023D01*
X126312855Y-96678546D01*
X126329575Y-96697842D01*
X126459500Y-96883395D01*
X126459505Y-96883401D01*
X126626599Y-97050495D01*
X126703135Y-97104086D01*
X126820165Y-97186032D01*
X126820167Y-97186033D01*
X126820170Y-97186035D01*
X127034337Y-97285903D01*
X127262592Y-97347063D01*
X127433319Y-97362000D01*
X127497999Y-97367659D01*
X127498000Y-97367659D01*
X127498001Y-97367659D01*
X127562681Y-97362000D01*
X127733408Y-97347063D01*
X127961663Y-97285903D01*
X128175830Y-97186035D01*
X128369401Y-97050495D01*
X128536495Y-96883401D01*
X128666425Y-96697842D01*
X128721002Y-96654217D01*
X128790500Y-96647023D01*
X128852855Y-96678546D01*
X128869575Y-96697842D01*
X128999500Y-96883395D01*
X128999505Y-96883401D01*
X129166599Y-97050495D01*
X129243135Y-97104086D01*
X129360165Y-97186032D01*
X129360167Y-97186033D01*
X129360170Y-97186035D01*
X129574337Y-97285903D01*
X129802592Y-97347063D01*
X129973319Y-97362000D01*
X130037999Y-97367659D01*
X130038000Y-97367659D01*
X130038001Y-97367659D01*
X130102681Y-97362000D01*
X130273408Y-97347063D01*
X130501663Y-97285903D01*
X130715830Y-97186035D01*
X130909401Y-97050495D01*
X131031717Y-96928178D01*
X131093036Y-96894696D01*
X131162728Y-96899680D01*
X131218662Y-96941551D01*
X131235577Y-96972528D01*
X131284646Y-97104088D01*
X131284649Y-97104093D01*
X131370809Y-97219187D01*
X131370812Y-97219190D01*
X131485906Y-97305350D01*
X131485913Y-97305354D01*
X131620620Y-97355596D01*
X131620627Y-97355598D01*
X131680155Y-97361999D01*
X131680172Y-97362000D01*
X132328000Y-97362000D01*
X132328000Y-96447501D01*
X132435685Y-96496680D01*
X132542237Y-96512000D01*
X132613763Y-96512000D01*
X132720315Y-96496680D01*
X132828000Y-96447501D01*
X132828000Y-97362000D01*
X133475828Y-97362000D01*
X133475844Y-97361999D01*
X133535372Y-97355598D01*
X133535379Y-97355596D01*
X133670086Y-97305354D01*
X133670093Y-97305350D01*
X133785187Y-97219190D01*
X133785190Y-97219187D01*
X133871350Y-97104093D01*
X133871354Y-97104086D01*
X133921596Y-96969379D01*
X133921598Y-96969372D01*
X133927999Y-96909844D01*
X133928000Y-96909827D01*
X133928000Y-96262000D01*
X133011686Y-96262000D01*
X133037493Y-96221844D01*
X133078000Y-96083889D01*
X133078000Y-95940111D01*
X133037493Y-95802156D01*
X133011686Y-95762000D01*
X133928000Y-95762000D01*
X133928000Y-95114172D01*
X133927999Y-95114155D01*
X133921598Y-95054627D01*
X133921596Y-95054620D01*
X133871354Y-94919913D01*
X133871350Y-94919906D01*
X133785190Y-94804812D01*
X133785187Y-94804809D01*
X133670093Y-94718649D01*
X133670086Y-94718645D01*
X133535379Y-94668403D01*
X133535372Y-94668401D01*
X133475844Y-94662000D01*
X132828000Y-94662000D01*
X132828000Y-95576498D01*
X132720315Y-95527320D01*
X132613763Y-95512000D01*
X132542237Y-95512000D01*
X132435685Y-95527320D01*
X132328000Y-95576498D01*
X132328000Y-94662000D01*
X131680155Y-94662000D01*
X131620627Y-94668401D01*
X131620620Y-94668403D01*
X131485913Y-94718645D01*
X131485906Y-94718649D01*
X131370812Y-94804809D01*
X131370809Y-94804812D01*
X131284649Y-94919906D01*
X131284645Y-94919913D01*
X131235578Y-95051470D01*
X131193707Y-95107404D01*
X131128242Y-95131821D01*
X131059969Y-95116969D01*
X131031715Y-95095819D01*
X130987366Y-95051470D01*
X130909401Y-94973505D01*
X130909397Y-94973502D01*
X130909396Y-94973501D01*
X130715831Y-94837965D01*
X130711140Y-94835257D01*
X130712350Y-94833160D01*
X130667603Y-94793696D01*
X130648500Y-94727571D01*
X130648500Y-94280096D01*
X130668185Y-94213057D01*
X130684814Y-94192420D01*
X141750535Y-83126698D01*
X141811856Y-83093215D01*
X141824311Y-83091163D01*
X141911255Y-83081368D01*
X142081522Y-83021789D01*
X142234262Y-82925816D01*
X142361816Y-82798262D01*
X142457789Y-82645522D01*
X142517368Y-82475255D01*
X142520412Y-82448242D01*
X142537565Y-82296003D01*
X142537565Y-82295996D01*
X142517369Y-82116750D01*
X142517368Y-82116745D01*
X142457788Y-81946476D01*
X142361815Y-81793737D01*
X142234262Y-81666184D01*
X142081523Y-81570211D01*
X141911254Y-81510631D01*
X141911249Y-81510630D01*
X141732004Y-81490435D01*
X141731996Y-81490435D01*
X141552750Y-81510630D01*
X141552745Y-81510631D01*
X141382476Y-81570211D01*
X141229737Y-81666184D01*
X141102184Y-81793737D01*
X141006210Y-81946478D01*
X140946630Y-82116750D01*
X140936837Y-82203668D01*
X140909770Y-82268082D01*
X140901298Y-82277465D01*
X129656965Y-93521798D01*
X129644774Y-93532490D01*
X129619718Y-93551717D01*
X129595549Y-93583213D01*
X129595550Y-93583214D01*
X129523464Y-93677158D01*
X129523461Y-93677163D01*
X129462957Y-93823234D01*
X129462955Y-93823239D01*
X129442318Y-93979998D01*
X129442318Y-93979999D01*
X129446439Y-94011301D01*
X129447500Y-94027487D01*
X129447500Y-94718245D01*
X129427815Y-94785284D01*
X129375909Y-94830625D01*
X129360174Y-94837962D01*
X129360169Y-94837965D01*
X129166597Y-94973505D01*
X128999505Y-95140597D01*
X128869575Y-95326158D01*
X128814998Y-95369783D01*
X128745500Y-95376977D01*
X128683145Y-95345454D01*
X128666425Y-95326158D01*
X128536494Y-95140597D01*
X128369402Y-94973506D01*
X128369395Y-94973501D01*
X128175834Y-94837967D01*
X128175830Y-94837965D01*
X128072855Y-94789947D01*
X127961663Y-94738097D01*
X127961659Y-94738096D01*
X127961655Y-94738094D01*
X127733413Y-94676938D01*
X127733403Y-94676936D01*
X127498001Y-94656341D01*
X127497999Y-94656341D01*
X127262596Y-94676936D01*
X127262586Y-94676938D01*
X127034344Y-94738094D01*
X127034335Y-94738098D01*
X126820171Y-94837964D01*
X126820169Y-94837965D01*
X126626597Y-94973505D01*
X126459505Y-95140597D01*
X126329575Y-95326158D01*
X126274998Y-95369783D01*
X126205500Y-95376977D01*
X126143145Y-95345454D01*
X126126425Y-95326158D01*
X125996494Y-95140597D01*
X125829402Y-94973506D01*
X125829395Y-94973501D01*
X125635831Y-94837965D01*
X125635826Y-94837962D01*
X125630091Y-94835288D01*
X125577653Y-94789113D01*
X125558500Y-94722908D01*
X125558500Y-92512096D01*
X125578185Y-92445057D01*
X125594814Y-92424420D01*
X130597327Y-87421906D01*
X130658648Y-87388423D01*
X130728340Y-87393407D01*
X130784273Y-87435279D01*
X130800064Y-87463355D01*
X130838530Y-87559082D01*
X130965757Y-87765713D01*
X131126075Y-87947869D01*
X131126079Y-87947873D01*
X131314870Y-88100311D01*
X131526709Y-88218652D01*
X131526712Y-88218653D01*
X131755507Y-88299491D01*
X131755513Y-88299492D01*
X131994662Y-88340499D01*
X131994670Y-88340499D01*
X131994672Y-88340500D01*
X131994673Y-88340500D01*
X133374553Y-88340500D01*
X133374554Y-88340500D01*
X133374555Y-88340499D01*
X133374572Y-88340499D01*
X133555775Y-88325076D01*
X133555775Y-88325075D01*
X133555782Y-88325075D01*
X133790608Y-88263931D01*
X133790611Y-88263930D01*
X134011713Y-88163986D01*
X134011716Y-88163983D01*
X134011723Y-88163981D01*
X134212765Y-88028100D01*
X134387952Y-87860197D01*
X134532244Y-87665102D01*
X134641488Y-87448429D01*
X134712543Y-87216409D01*
X134743365Y-86975719D01*
X134733066Y-86733281D01*
X134681944Y-86496072D01*
X134591468Y-86270914D01*
X134464242Y-86064286D01*
X134436580Y-86032856D01*
X134407065Y-85969526D01*
X134416474Y-85900293D01*
X134441979Y-85863254D01*
X142073231Y-78232003D01*
X152610435Y-78232003D01*
X152630630Y-78411249D01*
X152630631Y-78411254D01*
X152690211Y-78581523D01*
X152712607Y-78617165D01*
X152786184Y-78734262D01*
X152913738Y-78861816D01*
X153066478Y-78957789D01*
X153236745Y-79017368D01*
X153323669Y-79027161D01*
X153388080Y-79054226D01*
X153397465Y-79062700D01*
X159383181Y-85048416D01*
X159416666Y-85109739D01*
X159419500Y-85136097D01*
X159419500Y-88852512D01*
X159418439Y-88868697D01*
X159414318Y-88899998D01*
X159414318Y-88900000D01*
X159419500Y-88939360D01*
X159419500Y-88939361D01*
X159434955Y-89056760D01*
X159434956Y-89056762D01*
X159495464Y-89202841D01*
X159591718Y-89328282D01*
X159591719Y-89328283D01*
X159616769Y-89347504D01*
X159628964Y-89358199D01*
X165651385Y-95380620D01*
X165684870Y-95441943D01*
X165679887Y-95511632D01*
X165660909Y-95562514D01*
X165660908Y-95562520D01*
X165656510Y-95603430D01*
X165654501Y-95622123D01*
X165654500Y-95622135D01*
X165654500Y-97417870D01*
X165654501Y-97417876D01*
X165660908Y-97477483D01*
X165711202Y-97612328D01*
X165711206Y-97612335D01*
X165797452Y-97727544D01*
X165797455Y-97727547D01*
X165912664Y-97813793D01*
X165912671Y-97813797D01*
X166047517Y-97864091D01*
X166047516Y-97864091D01*
X166054444Y-97864835D01*
X166107127Y-97870500D01*
X167902872Y-97870499D01*
X167962483Y-97864091D01*
X168097331Y-97813796D01*
X168212546Y-97727546D01*
X168298796Y-97612331D01*
X168349091Y-97477483D01*
X168355500Y-97417873D01*
X168355499Y-95622128D01*
X168349091Y-95562517D01*
X168347809Y-95559081D01*
X168298797Y-95427671D01*
X168298793Y-95427664D01*
X168212547Y-95312455D01*
X168212544Y-95312452D01*
X168097335Y-95226206D01*
X168097328Y-95226202D01*
X167962482Y-95175908D01*
X167962483Y-95175908D01*
X167902883Y-95169501D01*
X167902881Y-95169500D01*
X167902873Y-95169500D01*
X167902865Y-95169500D01*
X167190097Y-95169500D01*
X167123058Y-95149815D01*
X167102416Y-95133181D01*
X164918125Y-92948890D01*
X164884640Y-92887567D01*
X164889624Y-92817875D01*
X164931496Y-92761942D01*
X164994997Y-92737681D01*
X165132692Y-92725635D01*
X165352496Y-92666739D01*
X165558734Y-92570568D01*
X165745139Y-92440047D01*
X165906047Y-92279139D01*
X166036568Y-92092734D01*
X166132739Y-91886496D01*
X166191635Y-91666692D01*
X166209637Y-91460926D01*
X166211468Y-91440002D01*
X171101034Y-91440002D01*
X171120858Y-91666599D01*
X171120860Y-91666610D01*
X171179730Y-91886317D01*
X171179735Y-91886331D01*
X171275863Y-92092478D01*
X171326974Y-92165472D01*
X172008046Y-91484400D01*
X172020835Y-91565148D01*
X172078359Y-91678045D01*
X172167955Y-91767641D01*
X172280852Y-91825165D01*
X172361599Y-91837953D01*
X171680526Y-92519025D01*
X171753513Y-92570132D01*
X171753521Y-92570136D01*
X171959668Y-92666264D01*
X171959682Y-92666269D01*
X172179389Y-92725139D01*
X172179400Y-92725141D01*
X172405998Y-92744966D01*
X172406002Y-92744966D01*
X172632599Y-92725141D01*
X172632610Y-92725139D01*
X172852317Y-92666269D01*
X172852331Y-92666264D01*
X173058478Y-92570136D01*
X173131471Y-92519024D01*
X172450400Y-91837953D01*
X172531148Y-91825165D01*
X172644045Y-91767641D01*
X172733641Y-91678045D01*
X172791165Y-91565148D01*
X172803953Y-91484400D01*
X173485024Y-92165471D01*
X173536136Y-92092478D01*
X173632264Y-91886331D01*
X173632269Y-91886317D01*
X173691139Y-91666610D01*
X173691141Y-91666599D01*
X173710966Y-91440002D01*
X173710966Y-91439997D01*
X173691141Y-91213400D01*
X173691139Y-91213389D01*
X173632269Y-90993682D01*
X173632264Y-90993668D01*
X173536136Y-90787521D01*
X173536132Y-90787513D01*
X173485025Y-90714526D01*
X172803953Y-91395598D01*
X172791165Y-91314852D01*
X172733641Y-91201955D01*
X172644045Y-91112359D01*
X172531148Y-91054835D01*
X172450401Y-91042046D01*
X173131472Y-90360974D01*
X173058478Y-90309863D01*
X172852331Y-90213735D01*
X172852317Y-90213730D01*
X172632610Y-90154860D01*
X172632599Y-90154858D01*
X172406002Y-90135034D01*
X172405998Y-90135034D01*
X172179400Y-90154858D01*
X172179389Y-90154860D01*
X171959682Y-90213730D01*
X171959673Y-90213734D01*
X171753516Y-90309866D01*
X171753512Y-90309868D01*
X171680526Y-90360973D01*
X171680526Y-90360974D01*
X172361599Y-91042046D01*
X172280852Y-91054835D01*
X172167955Y-91112359D01*
X172078359Y-91201955D01*
X172020835Y-91314852D01*
X172008046Y-91395598D01*
X171326974Y-90714526D01*
X171326973Y-90714526D01*
X171275868Y-90787512D01*
X171275866Y-90787516D01*
X171179734Y-90993673D01*
X171179730Y-90993682D01*
X171120860Y-91213389D01*
X171120858Y-91213400D01*
X171101034Y-91439997D01*
X171101034Y-91440002D01*
X166211468Y-91440002D01*
X166211468Y-91440001D01*
X166211468Y-91439998D01*
X166191635Y-91213313D01*
X166191635Y-91213312D01*
X166191635Y-91213308D01*
X166132739Y-90993504D01*
X166036568Y-90787266D01*
X165906047Y-90600861D01*
X165906045Y-90600858D01*
X165745141Y-90439954D01*
X165558734Y-90309432D01*
X165558732Y-90309431D01*
X165352497Y-90213261D01*
X165352488Y-90213258D01*
X165132697Y-90154366D01*
X165132693Y-90154365D01*
X165132692Y-90154365D01*
X165132691Y-90154364D01*
X165132686Y-90154364D01*
X164906002Y-90134532D01*
X164905998Y-90134532D01*
X164679313Y-90154364D01*
X164679302Y-90154366D01*
X164459511Y-90213258D01*
X164459502Y-90213261D01*
X164253267Y-90309431D01*
X164253265Y-90309432D01*
X164066858Y-90439954D01*
X163905954Y-90600858D01*
X163775432Y-90787265D01*
X163775431Y-90787267D01*
X163679261Y-90993502D01*
X163679258Y-90993511D01*
X163620366Y-91213302D01*
X163620364Y-91213312D01*
X163608318Y-91351001D01*
X163582865Y-91416069D01*
X163526274Y-91457048D01*
X163456512Y-91460926D01*
X163397109Y-91427874D01*
X160656819Y-88687584D01*
X160623334Y-88626261D01*
X160620500Y-88599903D01*
X160620500Y-85569097D01*
X160640185Y-85502058D01*
X160692989Y-85456303D01*
X160762147Y-85446359D01*
X160825703Y-85475384D01*
X160832181Y-85481416D01*
X161147210Y-85796446D01*
X161147216Y-85796451D01*
X161154320Y-85801902D01*
X161241159Y-85868536D01*
X161241161Y-85868536D01*
X161241163Y-85868538D01*
X161273980Y-85882131D01*
X161387238Y-85929044D01*
X161465619Y-85939363D01*
X161543999Y-85949682D01*
X161544000Y-85949682D01*
X161544001Y-85949682D01*
X161622320Y-85939371D01*
X161700762Y-85929044D01*
X161846841Y-85868536D01*
X161972282Y-85772282D01*
X162068536Y-85646841D01*
X162129044Y-85500762D01*
X162142802Y-85396254D01*
X162149682Y-85344001D01*
X162149682Y-85343998D01*
X162129044Y-85187239D01*
X162129042Y-85187234D01*
X162068538Y-85041163D01*
X162068535Y-85041158D01*
X161996451Y-84947216D01*
X161996445Y-84947209D01*
X159599236Y-82550001D01*
X161822532Y-82550001D01*
X161842364Y-82776686D01*
X161842366Y-82776697D01*
X161901258Y-82996488D01*
X161901261Y-82996497D01*
X161997431Y-83202732D01*
X161997432Y-83202734D01*
X162127954Y-83389141D01*
X162288858Y-83550045D01*
X162288861Y-83550047D01*
X162475266Y-83680568D01*
X162681504Y-83776739D01*
X162901308Y-83835635D01*
X163063230Y-83849801D01*
X163127998Y-83855468D01*
X163128000Y-83855468D01*
X163128002Y-83855468D01*
X163184673Y-83850509D01*
X163354692Y-83835635D01*
X163574496Y-83776739D01*
X163780734Y-83680568D01*
X163967139Y-83550047D01*
X164128047Y-83389139D01*
X164258568Y-83202734D01*
X164354739Y-82996496D01*
X164413635Y-82776692D01*
X164433468Y-82550002D01*
X169323034Y-82550002D01*
X169342858Y-82776599D01*
X169342860Y-82776610D01*
X169401730Y-82996317D01*
X169401735Y-82996331D01*
X169497863Y-83202478D01*
X169548974Y-83275472D01*
X170230046Y-82594400D01*
X170242835Y-82675148D01*
X170300359Y-82788045D01*
X170389955Y-82877641D01*
X170502852Y-82935165D01*
X170583599Y-82947953D01*
X169902526Y-83629025D01*
X169975513Y-83680132D01*
X169975521Y-83680136D01*
X170181668Y-83776264D01*
X170181682Y-83776269D01*
X170401389Y-83835139D01*
X170401400Y-83835141D01*
X170627998Y-83854966D01*
X170628002Y-83854966D01*
X170854599Y-83835141D01*
X170854610Y-83835139D01*
X171074317Y-83776269D01*
X171074331Y-83776264D01*
X171280478Y-83680136D01*
X171353471Y-83629024D01*
X170672400Y-82947953D01*
X170753148Y-82935165D01*
X170866045Y-82877641D01*
X170955641Y-82788045D01*
X171013165Y-82675148D01*
X171025953Y-82594400D01*
X171707024Y-83275471D01*
X171758136Y-83202478D01*
X171854264Y-82996331D01*
X171854269Y-82996317D01*
X171913139Y-82776610D01*
X171913141Y-82776599D01*
X171932966Y-82550002D01*
X171932966Y-82549997D01*
X171913141Y-82323400D01*
X171913139Y-82323389D01*
X171854269Y-82103682D01*
X171854264Y-82103668D01*
X171758136Y-81897521D01*
X171758132Y-81897513D01*
X171707025Y-81824526D01*
X171025953Y-82505598D01*
X171013165Y-82424852D01*
X170955641Y-82311955D01*
X170866045Y-82222359D01*
X170753148Y-82164835D01*
X170672401Y-82152046D01*
X171353472Y-81470974D01*
X171280478Y-81419863D01*
X171074331Y-81323735D01*
X171074317Y-81323730D01*
X170854610Y-81264860D01*
X170854599Y-81264858D01*
X170628002Y-81245034D01*
X170627998Y-81245034D01*
X170401400Y-81264858D01*
X170401389Y-81264860D01*
X170181682Y-81323730D01*
X170181673Y-81323734D01*
X169975516Y-81419866D01*
X169975512Y-81419868D01*
X169902526Y-81470973D01*
X169902526Y-81470974D01*
X170583599Y-82152046D01*
X170502852Y-82164835D01*
X170389955Y-82222359D01*
X170300359Y-82311955D01*
X170242835Y-82424852D01*
X170230046Y-82505598D01*
X169548974Y-81824526D01*
X169548973Y-81824526D01*
X169497868Y-81897512D01*
X169497866Y-81897516D01*
X169401734Y-82103673D01*
X169401730Y-82103682D01*
X169342860Y-82323389D01*
X169342858Y-82323400D01*
X169323034Y-82549997D01*
X169323034Y-82550002D01*
X164433468Y-82550002D01*
X164433468Y-82550000D01*
X164413635Y-82323308D01*
X164354739Y-82103504D01*
X164258568Y-81897266D01*
X164128047Y-81710861D01*
X164128045Y-81710858D01*
X163967141Y-81549954D01*
X163780734Y-81419432D01*
X163780732Y-81419431D01*
X163574497Y-81323261D01*
X163574488Y-81323258D01*
X163354697Y-81264366D01*
X163354693Y-81264365D01*
X163354692Y-81264365D01*
X163354691Y-81264364D01*
X163354686Y-81264364D01*
X163128002Y-81244532D01*
X163127998Y-81244532D01*
X162901313Y-81264364D01*
X162901302Y-81264366D01*
X162681511Y-81323258D01*
X162681502Y-81323261D01*
X162475267Y-81419431D01*
X162475265Y-81419432D01*
X162288858Y-81549954D01*
X162127954Y-81710858D01*
X161997432Y-81897265D01*
X161997431Y-81897267D01*
X161901261Y-82103502D01*
X161901258Y-82103511D01*
X161842366Y-82323302D01*
X161842364Y-82323313D01*
X161822532Y-82549998D01*
X161822532Y-82550001D01*
X159599236Y-82550001D01*
X157294700Y-80245465D01*
X157261215Y-80184142D01*
X157259163Y-80171686D01*
X157249368Y-80084745D01*
X157189789Y-79914478D01*
X157093816Y-79761738D01*
X156966262Y-79634184D01*
X156966260Y-79634183D01*
X156813523Y-79538211D01*
X156643254Y-79478631D01*
X156643249Y-79478630D01*
X156464004Y-79458435D01*
X156463996Y-79458435D01*
X156284750Y-79478630D01*
X156284745Y-79478631D01*
X156114476Y-79538211D01*
X155961739Y-79634183D01*
X155902259Y-79693663D01*
X155840935Y-79727147D01*
X155771244Y-79722162D01*
X155726897Y-79693662D01*
X154265236Y-78232001D01*
X156488532Y-78232001D01*
X156508364Y-78458686D01*
X156508366Y-78458697D01*
X156567258Y-78678488D01*
X156567261Y-78678497D01*
X156663431Y-78884732D01*
X156663432Y-78884734D01*
X156793954Y-79071141D01*
X156954858Y-79232045D01*
X156954861Y-79232047D01*
X157141266Y-79362568D01*
X157347504Y-79458739D01*
X157567308Y-79517635D01*
X157729230Y-79531801D01*
X157793998Y-79537468D01*
X157794000Y-79537468D01*
X157794002Y-79537468D01*
X157850673Y-79532509D01*
X158020692Y-79517635D01*
X158240496Y-79458739D01*
X158446734Y-79362568D01*
X158633139Y-79232047D01*
X158794047Y-79071139D01*
X158924568Y-78884734D01*
X159020739Y-78678496D01*
X159079635Y-78458692D01*
X159099468Y-78232002D01*
X163989034Y-78232002D01*
X164008858Y-78458599D01*
X164008860Y-78458610D01*
X164067730Y-78678317D01*
X164067735Y-78678331D01*
X164163863Y-78884478D01*
X164214974Y-78957472D01*
X164896046Y-78276400D01*
X164908835Y-78357148D01*
X164966359Y-78470045D01*
X165055955Y-78559641D01*
X165168852Y-78617165D01*
X165249599Y-78629953D01*
X164568526Y-79311025D01*
X164641513Y-79362132D01*
X164641521Y-79362136D01*
X164847668Y-79458264D01*
X164847682Y-79458269D01*
X165067389Y-79517139D01*
X165067400Y-79517141D01*
X165293998Y-79536966D01*
X165294002Y-79536966D01*
X165520599Y-79517141D01*
X165520610Y-79517139D01*
X165740317Y-79458269D01*
X165740331Y-79458264D01*
X165946478Y-79362136D01*
X166019471Y-79311024D01*
X165338400Y-78629953D01*
X165419148Y-78617165D01*
X165532045Y-78559641D01*
X165621641Y-78470045D01*
X165679165Y-78357148D01*
X165691953Y-78276400D01*
X166373024Y-78957471D01*
X166424136Y-78884478D01*
X166520264Y-78678331D01*
X166520269Y-78678317D01*
X166579139Y-78458610D01*
X166579141Y-78458599D01*
X166598966Y-78232002D01*
X166598966Y-78231997D01*
X166579141Y-78005400D01*
X166579139Y-78005389D01*
X166520269Y-77785682D01*
X166520264Y-77785668D01*
X166424136Y-77579521D01*
X166424132Y-77579513D01*
X166373025Y-77506526D01*
X165691953Y-78187598D01*
X165679165Y-78106852D01*
X165621641Y-77993955D01*
X165532045Y-77904359D01*
X165419148Y-77846835D01*
X165338401Y-77834046D01*
X166019472Y-77152974D01*
X165946478Y-77101863D01*
X165740331Y-77005735D01*
X165740317Y-77005730D01*
X165520610Y-76946860D01*
X165520599Y-76946858D01*
X165294002Y-76927034D01*
X165293998Y-76927034D01*
X165067400Y-76946858D01*
X165067389Y-76946860D01*
X164847682Y-77005730D01*
X164847673Y-77005734D01*
X164641516Y-77101866D01*
X164641512Y-77101868D01*
X164568526Y-77152973D01*
X164568526Y-77152974D01*
X165249599Y-77834046D01*
X165168852Y-77846835D01*
X165055955Y-77904359D01*
X164966359Y-77993955D01*
X164908835Y-78106852D01*
X164896046Y-78187598D01*
X164214974Y-77506526D01*
X164214973Y-77506526D01*
X164163868Y-77579512D01*
X164163866Y-77579516D01*
X164067734Y-77785673D01*
X164067730Y-77785682D01*
X164008860Y-78005389D01*
X164008858Y-78005400D01*
X163989034Y-78231997D01*
X163989034Y-78232002D01*
X159099468Y-78232002D01*
X159099468Y-78232000D01*
X159097846Y-78213465D01*
X159088519Y-78106852D01*
X159079635Y-78005308D01*
X159020739Y-77785504D01*
X158924568Y-77579266D01*
X158794047Y-77392861D01*
X158794045Y-77392858D01*
X158633141Y-77231954D01*
X158446734Y-77101432D01*
X158446732Y-77101431D01*
X158240497Y-77005261D01*
X158240488Y-77005258D01*
X158020697Y-76946366D01*
X158020693Y-76946365D01*
X158020692Y-76946365D01*
X158020691Y-76946364D01*
X158020686Y-76946364D01*
X157794002Y-76926532D01*
X157793998Y-76926532D01*
X157567313Y-76946364D01*
X157567302Y-76946366D01*
X157347511Y-77005258D01*
X157347502Y-77005261D01*
X157141267Y-77101431D01*
X157141265Y-77101432D01*
X156954858Y-77231954D01*
X156793954Y-77392858D01*
X156663432Y-77579265D01*
X156663431Y-77579267D01*
X156567261Y-77785502D01*
X156567258Y-77785511D01*
X156508366Y-78005302D01*
X156508364Y-78005313D01*
X156488532Y-78231998D01*
X156488532Y-78232001D01*
X154265236Y-78232001D01*
X154246700Y-78213465D01*
X154213215Y-78152142D01*
X154211163Y-78139686D01*
X154201368Y-78052745D01*
X154141789Y-77882478D01*
X154045816Y-77729738D01*
X153918262Y-77602184D01*
X153882186Y-77579516D01*
X153765523Y-77506211D01*
X153595254Y-77446631D01*
X153595249Y-77446630D01*
X153416004Y-77426435D01*
X153415996Y-77426435D01*
X153236750Y-77446630D01*
X153236745Y-77446631D01*
X153066476Y-77506211D01*
X152913737Y-77602184D01*
X152786184Y-77729737D01*
X152690211Y-77882476D01*
X152630631Y-78052745D01*
X152630630Y-78052750D01*
X152610435Y-78231996D01*
X152610435Y-78232003D01*
X142073231Y-78232003D01*
X144051233Y-76254002D01*
X169178723Y-76254002D01*
X169197793Y-76471975D01*
X169197793Y-76471979D01*
X169254422Y-76683322D01*
X169254424Y-76683326D01*
X169254425Y-76683330D01*
X169300661Y-76782484D01*
X169346897Y-76881638D01*
X169371998Y-76917486D01*
X169472402Y-77060877D01*
X169627123Y-77215598D01*
X169806361Y-77341102D01*
X170004670Y-77433575D01*
X170216023Y-77490207D01*
X170398926Y-77506208D01*
X170433998Y-77509277D01*
X170434000Y-77509277D01*
X170434002Y-77509277D01*
X170469045Y-77506211D01*
X170651977Y-77490207D01*
X170863330Y-77433575D01*
X171061639Y-77341102D01*
X171240877Y-77215598D01*
X171395598Y-77060877D01*
X171521102Y-76881639D01*
X171613575Y-76683330D01*
X171670207Y-76471977D01*
X171689277Y-76254000D01*
X171670207Y-76036023D01*
X171613575Y-75824670D01*
X171521102Y-75626362D01*
X171521100Y-75626359D01*
X171521099Y-75626357D01*
X171395599Y-75447124D01*
X171324792Y-75376317D01*
X171240877Y-75292402D01*
X171061639Y-75166898D01*
X171061640Y-75166898D01*
X171061638Y-75166897D01*
X170962484Y-75120661D01*
X170863330Y-75074425D01*
X170863326Y-75074424D01*
X170863322Y-75074422D01*
X170651977Y-75017793D01*
X170434002Y-74998723D01*
X170433998Y-74998723D01*
X170288682Y-75011436D01*
X170216023Y-75017793D01*
X170216020Y-75017793D01*
X170004677Y-75074422D01*
X170004668Y-75074426D01*
X169806361Y-75166898D01*
X169806357Y-75166900D01*
X169627121Y-75292402D01*
X169472402Y-75447121D01*
X169346900Y-75626357D01*
X169346898Y-75626361D01*
X169254426Y-75824668D01*
X169254422Y-75824677D01*
X169197793Y-76036020D01*
X169197793Y-76036024D01*
X169178723Y-76253997D01*
X169178723Y-76254002D01*
X144051233Y-76254002D01*
X145375234Y-74930001D01*
X156488532Y-74930001D01*
X156508364Y-75156686D01*
X156508366Y-75156697D01*
X156567258Y-75376488D01*
X156567261Y-75376497D01*
X156663431Y-75582732D01*
X156663432Y-75582734D01*
X156793954Y-75769141D01*
X156954858Y-75930045D01*
X156954861Y-75930047D01*
X157141266Y-76060568D01*
X157347504Y-76156739D01*
X157567308Y-76215635D01*
X157729230Y-76229801D01*
X157793998Y-76235468D01*
X157794000Y-76235468D01*
X157794002Y-76235468D01*
X157850673Y-76230509D01*
X158020692Y-76215635D01*
X158240496Y-76156739D01*
X158446734Y-76060568D01*
X158633139Y-75930047D01*
X158794047Y-75769139D01*
X158924568Y-75582734D01*
X159020739Y-75376496D01*
X159079635Y-75156692D01*
X159099468Y-74930002D01*
X163989034Y-74930002D01*
X164008858Y-75156599D01*
X164008860Y-75156610D01*
X164067730Y-75376317D01*
X164067735Y-75376331D01*
X164163863Y-75582478D01*
X164214974Y-75655472D01*
X164896046Y-74974400D01*
X164908835Y-75055148D01*
X164966359Y-75168045D01*
X165055955Y-75257641D01*
X165168852Y-75315165D01*
X165249599Y-75327953D01*
X164568526Y-76009025D01*
X164641513Y-76060132D01*
X164641521Y-76060136D01*
X164847668Y-76156264D01*
X164847682Y-76156269D01*
X165067389Y-76215139D01*
X165067400Y-76215141D01*
X165293998Y-76234966D01*
X165294002Y-76234966D01*
X165520599Y-76215141D01*
X165520610Y-76215139D01*
X165740317Y-76156269D01*
X165740331Y-76156264D01*
X165946478Y-76060136D01*
X166019471Y-76009024D01*
X165338400Y-75327953D01*
X165419148Y-75315165D01*
X165532045Y-75257641D01*
X165621641Y-75168045D01*
X165679165Y-75055148D01*
X165691953Y-74974400D01*
X166373024Y-75655471D01*
X166424136Y-75582478D01*
X166520264Y-75376331D01*
X166520269Y-75376317D01*
X166579139Y-75156610D01*
X166579141Y-75156599D01*
X166598966Y-74930002D01*
X166598966Y-74929997D01*
X166579141Y-74703400D01*
X166579139Y-74703389D01*
X166520269Y-74483682D01*
X166520264Y-74483668D01*
X166424136Y-74277521D01*
X166424132Y-74277513D01*
X166373025Y-74204526D01*
X165691953Y-74885598D01*
X165679165Y-74804852D01*
X165621641Y-74691955D01*
X165532045Y-74602359D01*
X165419148Y-74544835D01*
X165338401Y-74532046D01*
X166019472Y-73850974D01*
X165946478Y-73799863D01*
X165740331Y-73703735D01*
X165740317Y-73703730D01*
X165520610Y-73644860D01*
X165520599Y-73644858D01*
X165294002Y-73625034D01*
X165293998Y-73625034D01*
X165067400Y-73644858D01*
X165067389Y-73644860D01*
X164847682Y-73703730D01*
X164847673Y-73703734D01*
X164641516Y-73799866D01*
X164641512Y-73799868D01*
X164568526Y-73850973D01*
X164568526Y-73850974D01*
X165249599Y-74532046D01*
X165168852Y-74544835D01*
X165055955Y-74602359D01*
X164966359Y-74691955D01*
X164908835Y-74804852D01*
X164896046Y-74885598D01*
X164214974Y-74204526D01*
X164214973Y-74204526D01*
X164163868Y-74277512D01*
X164163866Y-74277516D01*
X164067734Y-74483673D01*
X164067730Y-74483682D01*
X164008860Y-74703389D01*
X164008858Y-74703400D01*
X163989034Y-74929997D01*
X163989034Y-74930002D01*
X159099468Y-74930002D01*
X159099468Y-74930000D01*
X159079635Y-74703308D01*
X159020739Y-74483504D01*
X158924568Y-74277266D01*
X158794047Y-74090861D01*
X158794045Y-74090858D01*
X158633141Y-73929954D01*
X158446734Y-73799432D01*
X158446732Y-73799431D01*
X158240497Y-73703261D01*
X158240488Y-73703258D01*
X158020697Y-73644366D01*
X158020693Y-73644365D01*
X158020692Y-73644365D01*
X158020691Y-73644364D01*
X158020686Y-73644364D01*
X157794002Y-73624532D01*
X157793998Y-73624532D01*
X157567313Y-73644364D01*
X157567302Y-73644366D01*
X157347511Y-73703258D01*
X157347502Y-73703261D01*
X157141267Y-73799431D01*
X157141265Y-73799432D01*
X156954858Y-73929954D01*
X156793954Y-74090858D01*
X156663432Y-74277265D01*
X156663431Y-74277267D01*
X156567261Y-74483502D01*
X156567258Y-74483511D01*
X156508366Y-74703302D01*
X156508364Y-74703313D01*
X156488532Y-74929998D01*
X156488532Y-74930001D01*
X145375234Y-74930001D01*
X146008416Y-74296819D01*
X146069739Y-74263334D01*
X146096097Y-74260500D01*
X147753588Y-74260500D01*
X147820627Y-74280185D01*
X147830903Y-74287555D01*
X147833736Y-74289814D01*
X147833738Y-74289816D01*
X147986478Y-74385789D01*
X148156745Y-74445368D01*
X148156750Y-74445369D01*
X148335996Y-74465565D01*
X148336000Y-74465565D01*
X148336004Y-74465565D01*
X148515249Y-74445369D01*
X148515252Y-74445368D01*
X148515255Y-74445368D01*
X148685522Y-74385789D01*
X148838262Y-74289816D01*
X148965816Y-74162262D01*
X149061789Y-74009522D01*
X149121368Y-73839255D01*
X149125806Y-73799866D01*
X149141565Y-73660003D01*
X149141565Y-73659996D01*
X149121369Y-73480750D01*
X149121368Y-73480745D01*
X149061788Y-73310476D01*
X149012301Y-73231718D01*
X148965816Y-73157738D01*
X148838262Y-73030184D01*
X148685523Y-72934211D01*
X148515254Y-72874631D01*
X148515249Y-72874630D01*
X148336004Y-72854435D01*
X148335996Y-72854435D01*
X148156750Y-72874630D01*
X148156745Y-72874631D01*
X147986476Y-72934211D01*
X147833736Y-73030185D01*
X147830903Y-73032445D01*
X147828724Y-73033334D01*
X147827842Y-73033889D01*
X147827744Y-73033734D01*
X147766217Y-73058855D01*
X147753588Y-73059500D01*
X145843487Y-73059500D01*
X145827302Y-73058439D01*
X145796000Y-73054318D01*
X145756639Y-73059500D01*
X145639239Y-73074955D01*
X145639237Y-73074956D01*
X145493157Y-73135464D01*
X145367718Y-73231716D01*
X145348489Y-73256775D01*
X145337798Y-73268965D01*
X133153584Y-85453181D01*
X133092261Y-85486666D01*
X133065903Y-85489500D01*
X132753927Y-85489500D01*
X132686888Y-85469815D01*
X132641133Y-85417011D01*
X132630707Y-85351615D01*
X132631565Y-85344000D01*
X132631565Y-85343996D01*
X132611369Y-85164750D01*
X132611368Y-85164745D01*
X132601344Y-85136097D01*
X132551789Y-84994478D01*
X132455816Y-84841738D01*
X132328262Y-84714184D01*
X132175523Y-84618211D01*
X132005254Y-84558631D01*
X132005249Y-84558630D01*
X131826004Y-84538435D01*
X131825996Y-84538435D01*
X131646750Y-84558630D01*
X131646745Y-84558631D01*
X131476476Y-84618211D01*
X131323737Y-84714184D01*
X131196184Y-84841737D01*
X131100210Y-84994478D01*
X131040630Y-85164750D01*
X131030837Y-85251668D01*
X131003770Y-85316082D01*
X130995298Y-85325465D01*
X124566965Y-91753798D01*
X124554774Y-91764490D01*
X124529718Y-91783717D01*
X124505549Y-91815213D01*
X124505550Y-91815214D01*
X124433464Y-91909158D01*
X124433461Y-91909163D01*
X124372957Y-92055234D01*
X124372955Y-92055239D01*
X124352318Y-92211998D01*
X124352318Y-92211999D01*
X124356439Y-92243301D01*
X124357500Y-92259487D01*
X124357500Y-94722908D01*
X124337815Y-94789947D01*
X124285914Y-94835286D01*
X124280173Y-94837963D01*
X124280169Y-94837965D01*
X124086597Y-94973505D01*
X123919505Y-95140597D01*
X123783965Y-95334169D01*
X123783964Y-95334171D01*
X123684098Y-95548335D01*
X123684094Y-95548344D01*
X123622938Y-95776586D01*
X123622936Y-95776596D01*
X123602341Y-96011999D01*
X123602341Y-96012000D01*
X118364000Y-96012000D01*
X118364000Y-87978672D01*
X118383685Y-87911633D01*
X118436489Y-87865878D01*
X118505647Y-87855934D01*
X118569203Y-87884959D01*
X118581083Y-87896748D01*
X118626075Y-87947869D01*
X118626079Y-87947873D01*
X118814870Y-88100311D01*
X119026709Y-88218652D01*
X119026712Y-88218653D01*
X119255507Y-88299491D01*
X119255513Y-88299492D01*
X119494662Y-88340499D01*
X119494670Y-88340499D01*
X119494672Y-88340500D01*
X119494673Y-88340500D01*
X120874553Y-88340500D01*
X120874554Y-88340500D01*
X120874555Y-88340499D01*
X120874572Y-88340499D01*
X121055775Y-88325076D01*
X121055775Y-88325075D01*
X121055782Y-88325075D01*
X121290608Y-88263931D01*
X121290611Y-88263930D01*
X121511713Y-88163986D01*
X121511716Y-88163983D01*
X121511723Y-88163981D01*
X121712765Y-88028100D01*
X121887952Y-87860197D01*
X122032244Y-87665102D01*
X122141488Y-87448429D01*
X122212543Y-87216409D01*
X122243365Y-86975719D01*
X122233066Y-86733281D01*
X122181944Y-86496072D01*
X122091468Y-86270914D01*
X121964242Y-86064286D01*
X121803925Y-85882131D01*
X121803924Y-85882130D01*
X121803920Y-85882126D01*
X121615129Y-85729688D01*
X121403290Y-85611347D01*
X121174500Y-85530511D01*
X121174486Y-85530507D01*
X120935337Y-85489500D01*
X120935328Y-85489500D01*
X119555446Y-85489500D01*
X119555427Y-85489500D01*
X119374224Y-85504923D01*
X119374222Y-85504924D01*
X119139391Y-85566068D01*
X119139388Y-85566069D01*
X118918286Y-85666013D01*
X118918274Y-85666020D01*
X118717234Y-85801900D01*
X118717232Y-85801902D01*
X118573800Y-85939371D01*
X118511780Y-85971546D01*
X118442210Y-85965084D01*
X118387178Y-85922035D01*
X118364156Y-85856067D01*
X118364000Y-85849848D01*
X118364000Y-82977915D01*
X118383685Y-82910876D01*
X118436489Y-82865121D01*
X118505647Y-82855177D01*
X118569203Y-82884202D01*
X118581084Y-82895992D01*
X118626423Y-82947508D01*
X118626426Y-82947511D01*
X118815144Y-83099890D01*
X118815150Y-83099894D01*
X119026917Y-83218194D01*
X119255629Y-83299003D01*
X119255637Y-83299005D01*
X119494706Y-83339999D01*
X119494715Y-83340000D01*
X119965000Y-83340000D01*
X119965000Y-82519310D01*
X119973817Y-82524158D01*
X120132886Y-82565000D01*
X120255894Y-82565000D01*
X120377933Y-82549583D01*
X120465000Y-82515110D01*
X120465000Y-83340000D01*
X120874533Y-83340000D01*
X120874550Y-83339999D01*
X121055692Y-83324582D01*
X121290440Y-83263458D01*
X121511472Y-83163546D01*
X121511480Y-83163541D01*
X121712450Y-83027708D01*
X121712453Y-83027706D01*
X121887575Y-82859864D01*
X121887576Y-82859863D01*
X122031813Y-82664843D01*
X122141021Y-82448242D01*
X122212053Y-82216299D01*
X122218622Y-82165000D01*
X120815728Y-82165000D01*
X120838100Y-82117457D01*
X120868873Y-81956138D01*
X120858561Y-81792234D01*
X120817220Y-81665000D01*
X122217839Y-81665000D01*
X122217839Y-81664999D01*
X130711377Y-81664999D01*
X130711378Y-81665000D01*
X132114272Y-81665000D01*
X132091900Y-81712543D01*
X132061127Y-81873862D01*
X132071439Y-82037766D01*
X132112780Y-82165000D01*
X130712161Y-82165000D01*
X130748536Y-82333782D01*
X130748537Y-82333785D01*
X130838978Y-82558856D01*
X130966161Y-82765415D01*
X131126422Y-82947507D01*
X131126426Y-82947511D01*
X131315144Y-83099890D01*
X131315150Y-83099894D01*
X131526917Y-83218194D01*
X131755629Y-83299003D01*
X131755637Y-83299005D01*
X131994706Y-83339999D01*
X131994715Y-83340000D01*
X132465000Y-83340000D01*
X132465000Y-82519310D01*
X132473817Y-82524158D01*
X132632886Y-82565000D01*
X132755894Y-82565000D01*
X132877933Y-82549583D01*
X132965000Y-82515110D01*
X132965000Y-83340000D01*
X133374533Y-83340000D01*
X133374550Y-83339999D01*
X133555692Y-83324582D01*
X133790440Y-83263458D01*
X134011472Y-83163546D01*
X134011480Y-83163541D01*
X134212450Y-83027708D01*
X134212453Y-83027706D01*
X134387575Y-82859864D01*
X134387576Y-82859863D01*
X134531813Y-82664843D01*
X134641021Y-82448242D01*
X134712053Y-82216299D01*
X134718622Y-82165000D01*
X133315728Y-82165000D01*
X133338100Y-82117457D01*
X133368873Y-81956138D01*
X133358561Y-81792234D01*
X133317220Y-81665000D01*
X134717839Y-81665000D01*
X134681463Y-81496217D01*
X134681462Y-81496214D01*
X134591021Y-81271143D01*
X134463838Y-81064584D01*
X134303577Y-80882492D01*
X134303573Y-80882488D01*
X134114855Y-80730109D01*
X134114849Y-80730105D01*
X133903082Y-80611805D01*
X133674370Y-80530996D01*
X133674362Y-80530994D01*
X133435293Y-80490000D01*
X132965000Y-80490000D01*
X132965000Y-81310689D01*
X132956183Y-81305842D01*
X132797114Y-81265000D01*
X132674106Y-81265000D01*
X132552067Y-81280417D01*
X132465000Y-81314889D01*
X132465000Y-80490000D01*
X132055449Y-80490000D01*
X131874307Y-80505417D01*
X131639559Y-80566541D01*
X131418527Y-80666453D01*
X131418519Y-80666458D01*
X131217549Y-80802291D01*
X131217546Y-80802293D01*
X131042424Y-80970135D01*
X131042423Y-80970136D01*
X130898186Y-81165156D01*
X130788978Y-81381757D01*
X130717946Y-81613700D01*
X130711377Y-81664999D01*
X122217839Y-81664999D01*
X122181463Y-81496217D01*
X122181462Y-81496214D01*
X122091021Y-81271143D01*
X121963838Y-81064584D01*
X121803577Y-80882492D01*
X121803573Y-80882488D01*
X121614855Y-80730109D01*
X121614849Y-80730105D01*
X121403082Y-80611805D01*
X121174370Y-80530996D01*
X121174362Y-80530994D01*
X120935293Y-80490000D01*
X120465000Y-80490000D01*
X120465000Y-81310689D01*
X120456183Y-81305842D01*
X120297114Y-81265000D01*
X120174106Y-81265000D01*
X120052067Y-81280417D01*
X119965000Y-81314889D01*
X119965000Y-80490000D01*
X119555449Y-80490000D01*
X119374307Y-80505417D01*
X119139559Y-80566541D01*
X118918527Y-80666453D01*
X118918519Y-80666458D01*
X118717549Y-80802291D01*
X118717547Y-80802293D01*
X118573800Y-80940064D01*
X118511780Y-80972239D01*
X118442210Y-80965777D01*
X118387178Y-80922728D01*
X118364156Y-80856760D01*
X118364000Y-80850541D01*
X118364000Y-76205000D01*
X125644341Y-76205000D01*
X125664936Y-76440403D01*
X125664938Y-76440413D01*
X125726094Y-76668655D01*
X125726096Y-76668659D01*
X125726097Y-76668663D01*
X125732937Y-76683331D01*
X125825965Y-76882830D01*
X125825967Y-76882834D01*
X125912023Y-77005734D01*
X125961505Y-77076401D01*
X126128599Y-77243495D01*
X126225384Y-77311265D01*
X126322165Y-77379032D01*
X126322167Y-77379033D01*
X126322170Y-77379035D01*
X126536337Y-77478903D01*
X126764592Y-77540063D01*
X126952918Y-77556539D01*
X126999999Y-77560659D01*
X127000000Y-77560659D01*
X127000001Y-77560659D01*
X127039234Y-77557226D01*
X127235408Y-77540063D01*
X127463663Y-77478903D01*
X127677830Y-77379035D01*
X127871401Y-77243495D01*
X128038495Y-77076401D01*
X128174035Y-76882830D01*
X128273903Y-76668663D01*
X128335063Y-76440408D01*
X128355659Y-76205000D01*
X128335063Y-75969592D01*
X128273903Y-75741337D01*
X128174035Y-75527171D01*
X128068533Y-75376497D01*
X128038494Y-75333597D01*
X127871402Y-75166506D01*
X127871396Y-75166501D01*
X127685842Y-75036575D01*
X127642217Y-74981998D01*
X127635023Y-74912500D01*
X127666546Y-74850145D01*
X127685842Y-74833425D01*
X127726648Y-74804852D01*
X127871401Y-74703495D01*
X128038495Y-74536401D01*
X128174035Y-74342830D01*
X128273903Y-74128663D01*
X128335063Y-73900408D01*
X128355659Y-73665000D01*
X128335063Y-73429592D01*
X128288626Y-73256285D01*
X128273905Y-73201344D01*
X128273904Y-73201343D01*
X128273903Y-73201337D01*
X128174035Y-72987171D01*
X128142102Y-72941565D01*
X128038494Y-72793597D01*
X127871402Y-72626506D01*
X127871396Y-72626501D01*
X127685842Y-72496575D01*
X127642217Y-72441998D01*
X127635023Y-72372500D01*
X127666546Y-72310145D01*
X127685842Y-72293425D01*
X127778803Y-72228333D01*
X127871401Y-72163495D01*
X127898893Y-72136003D01*
X152610435Y-72136003D01*
X152630630Y-72315249D01*
X152630631Y-72315254D01*
X152690211Y-72485523D01*
X152768555Y-72610206D01*
X152786184Y-72638262D01*
X152913738Y-72765816D01*
X153066478Y-72861789D01*
X153236745Y-72921368D01*
X153236750Y-72921369D01*
X153415996Y-72941565D01*
X153416000Y-72941565D01*
X153416004Y-72941565D01*
X153595249Y-72921369D01*
X153595252Y-72921368D01*
X153595255Y-72921368D01*
X153765522Y-72861789D01*
X153918262Y-72765816D01*
X154045816Y-72638262D01*
X154141789Y-72485522D01*
X154201368Y-72315255D01*
X154211161Y-72228329D01*
X154238226Y-72163918D01*
X154246690Y-72154543D01*
X156290325Y-70110908D01*
X156351646Y-70077425D01*
X156421338Y-70082409D01*
X156477271Y-70124281D01*
X156501688Y-70189745D01*
X156501532Y-70209398D01*
X156488532Y-70357997D01*
X156488532Y-70358001D01*
X156508364Y-70584686D01*
X156508366Y-70584697D01*
X156567258Y-70804488D01*
X156567261Y-70804497D01*
X156663431Y-71010732D01*
X156663432Y-71010734D01*
X156793954Y-71197141D01*
X156954858Y-71358045D01*
X156954861Y-71358047D01*
X157141266Y-71488568D01*
X157347504Y-71584739D01*
X157347509Y-71584740D01*
X157347511Y-71584741D01*
X157374524Y-71591979D01*
X157567308Y-71643635D01*
X157729230Y-71657801D01*
X157793998Y-71663468D01*
X157794000Y-71663468D01*
X157794002Y-71663468D01*
X157850673Y-71658509D01*
X158020692Y-71643635D01*
X158240496Y-71584739D01*
X158446734Y-71488568D01*
X158633139Y-71358047D01*
X158794047Y-71197139D01*
X158924568Y-71010734D01*
X159020739Y-70804496D01*
X159079635Y-70584692D01*
X159099468Y-70358000D01*
X159079635Y-70131308D01*
X159073389Y-70107999D01*
X164015127Y-70107999D01*
X164015128Y-70108000D01*
X164978314Y-70108000D01*
X164966359Y-70119955D01*
X164908835Y-70232852D01*
X164889014Y-70358000D01*
X164908835Y-70483148D01*
X164966359Y-70596045D01*
X164978314Y-70608000D01*
X164015128Y-70608000D01*
X164067730Y-70804317D01*
X164067734Y-70804326D01*
X164163865Y-71010482D01*
X164294342Y-71196820D01*
X164455179Y-71357657D01*
X164641517Y-71488134D01*
X164847673Y-71584265D01*
X164847682Y-71584269D01*
X165043999Y-71636872D01*
X165044000Y-71636871D01*
X165044000Y-70673686D01*
X165055955Y-70685641D01*
X165168852Y-70743165D01*
X165262519Y-70758000D01*
X165325481Y-70758000D01*
X165419148Y-70743165D01*
X165532045Y-70685641D01*
X165544000Y-70673686D01*
X165544000Y-71636872D01*
X165740317Y-71584269D01*
X165740326Y-71584265D01*
X165946482Y-71488134D01*
X166109480Y-71374000D01*
X169178723Y-71374000D01*
X169197502Y-71588655D01*
X169197793Y-71591975D01*
X169197793Y-71591979D01*
X169254422Y-71803322D01*
X169254424Y-71803326D01*
X169254425Y-71803330D01*
X169300661Y-71902484D01*
X169346897Y-72001638D01*
X169346898Y-72001639D01*
X169472402Y-72180877D01*
X169627123Y-72335598D01*
X169806361Y-72461102D01*
X170004670Y-72553575D01*
X170216023Y-72610207D01*
X170398926Y-72626208D01*
X170433998Y-72629277D01*
X170434000Y-72629277D01*
X170434002Y-72629277D01*
X170462254Y-72626805D01*
X170651977Y-72610207D01*
X170863330Y-72553575D01*
X171061639Y-72461102D01*
X171240877Y-72335598D01*
X171395598Y-72180877D01*
X171521102Y-72001639D01*
X171613575Y-71803330D01*
X171670207Y-71591977D01*
X171689277Y-71374000D01*
X171688088Y-71360413D01*
X171685569Y-71331618D01*
X171670207Y-71156023D01*
X171613575Y-70944670D01*
X171521102Y-70746362D01*
X171521100Y-70746359D01*
X171521099Y-70746357D01*
X171395599Y-70567124D01*
X171395596Y-70567121D01*
X171240877Y-70412402D01*
X171061639Y-70286898D01*
X171061640Y-70286898D01*
X171061638Y-70286897D01*
X170945737Y-70232852D01*
X170863330Y-70194425D01*
X170863326Y-70194424D01*
X170863322Y-70194422D01*
X170651977Y-70137793D01*
X170434002Y-70118723D01*
X170433998Y-70118723D01*
X170290217Y-70131302D01*
X170216023Y-70137793D01*
X170216020Y-70137793D01*
X170004677Y-70194422D01*
X170004668Y-70194426D01*
X169806361Y-70286898D01*
X169806357Y-70286900D01*
X169627121Y-70412402D01*
X169472402Y-70567121D01*
X169346900Y-70746357D01*
X169346898Y-70746361D01*
X169254426Y-70944668D01*
X169254422Y-70944677D01*
X169197793Y-71156020D01*
X169197793Y-71156024D01*
X169179912Y-71360413D01*
X169178723Y-71374000D01*
X166109480Y-71374000D01*
X166132820Y-71357657D01*
X166293657Y-71196820D01*
X166424134Y-71010482D01*
X166520265Y-70804326D01*
X166520269Y-70804317D01*
X166572872Y-70608000D01*
X165609686Y-70608000D01*
X165621641Y-70596045D01*
X165679165Y-70483148D01*
X165698986Y-70358000D01*
X165679165Y-70232852D01*
X165621641Y-70119955D01*
X165609686Y-70108000D01*
X166572872Y-70108000D01*
X166572872Y-70107999D01*
X166520269Y-69911682D01*
X166520265Y-69911673D01*
X166424134Y-69705517D01*
X166293657Y-69519179D01*
X166132820Y-69358342D01*
X165946482Y-69227865D01*
X165740328Y-69131734D01*
X165544000Y-69079127D01*
X165544000Y-70042314D01*
X165532045Y-70030359D01*
X165419148Y-69972835D01*
X165325481Y-69958000D01*
X165262519Y-69958000D01*
X165168852Y-69972835D01*
X165055955Y-70030359D01*
X165044000Y-70042314D01*
X165044000Y-69079127D01*
X164847671Y-69131734D01*
X164641517Y-69227865D01*
X164455179Y-69358342D01*
X164294342Y-69519179D01*
X164163865Y-69705517D01*
X164067734Y-69911673D01*
X164067730Y-69911682D01*
X164015127Y-70107999D01*
X159073389Y-70107999D01*
X159032816Y-69956575D01*
X159020741Y-69911511D01*
X159020738Y-69911502D01*
X159016306Y-69901998D01*
X158924568Y-69705266D01*
X158794047Y-69518861D01*
X158794045Y-69518858D01*
X158633141Y-69357954D01*
X158446734Y-69227432D01*
X158446732Y-69227431D01*
X158240497Y-69131261D01*
X158240488Y-69131258D01*
X158020697Y-69072366D01*
X158020693Y-69072365D01*
X158020692Y-69072365D01*
X158020691Y-69072364D01*
X158020686Y-69072364D01*
X157794002Y-69052532D01*
X157793998Y-69052532D01*
X157645399Y-69065532D01*
X157576899Y-69051765D01*
X157526716Y-69003150D01*
X157510783Y-68935121D01*
X157534159Y-68869277D01*
X157546904Y-68854330D01*
X160949417Y-65451819D01*
X161010740Y-65418334D01*
X161037098Y-65415500D01*
X170655649Y-65415500D01*
X170722688Y-65435185D01*
X170768443Y-65487989D01*
X170778939Y-65526248D01*
X170783908Y-65572483D01*
X170834202Y-65707328D01*
X170834206Y-65707335D01*
X170920452Y-65822544D01*
X170920455Y-65822547D01*
X171035664Y-65908793D01*
X171035671Y-65908797D01*
X171170517Y-65959091D01*
X171170516Y-65959091D01*
X171177444Y-65959835D01*
X171230127Y-65965500D01*
X172225872Y-65965499D01*
X172285483Y-65959091D01*
X172420331Y-65908796D01*
X172535546Y-65822546D01*
X172621796Y-65707331D01*
X172672091Y-65572483D01*
X172678500Y-65512873D01*
X172678499Y-64117128D01*
X172672091Y-64057517D01*
X172621796Y-63922669D01*
X172621795Y-63922668D01*
X172621793Y-63922664D01*
X172535547Y-63807455D01*
X172535544Y-63807452D01*
X172420335Y-63721206D01*
X172420328Y-63721202D01*
X172285482Y-63670908D01*
X172285483Y-63670908D01*
X172225883Y-63664501D01*
X172225881Y-63664500D01*
X172225873Y-63664500D01*
X172225864Y-63664500D01*
X171230129Y-63664500D01*
X171230123Y-63664501D01*
X171170516Y-63670908D01*
X171035671Y-63721202D01*
X171035664Y-63721206D01*
X170920455Y-63807452D01*
X170920452Y-63807455D01*
X170834206Y-63922664D01*
X170834202Y-63922671D01*
X170783910Y-64057513D01*
X170783909Y-64057517D01*
X170778937Y-64103757D01*
X170752201Y-64168306D01*
X170694809Y-64208154D01*
X170655649Y-64214500D01*
X160784487Y-64214500D01*
X160768302Y-64213439D01*
X160737000Y-64209318D01*
X160697639Y-64214500D01*
X160580239Y-64229955D01*
X160580237Y-64229956D01*
X160434157Y-64290464D01*
X160308718Y-64386716D01*
X160289492Y-64411771D01*
X160278801Y-64423961D01*
X153397465Y-71305298D01*
X153336142Y-71338783D01*
X153323668Y-71340837D01*
X153236750Y-71350630D01*
X153066478Y-71410210D01*
X152913737Y-71506184D01*
X152786184Y-71633737D01*
X152690211Y-71786476D01*
X152630631Y-71956745D01*
X152630630Y-71956750D01*
X152610435Y-72135996D01*
X152610435Y-72136003D01*
X127898893Y-72136003D01*
X128038495Y-71996401D01*
X128174035Y-71802830D01*
X128273903Y-71588663D01*
X128335063Y-71360408D01*
X128355659Y-71125000D01*
X128335063Y-70889592D01*
X128273903Y-70661337D01*
X128174035Y-70447171D01*
X128149691Y-70412403D01*
X128038494Y-70253597D01*
X127871402Y-70086506D01*
X127871396Y-70086501D01*
X127685842Y-69956575D01*
X127642217Y-69901998D01*
X127635023Y-69832500D01*
X127666546Y-69770145D01*
X127685842Y-69753425D01*
X127708026Y-69737891D01*
X127871401Y-69623495D01*
X128038495Y-69456401D01*
X128174035Y-69262830D01*
X128273903Y-69048663D01*
X128335063Y-68820408D01*
X128355659Y-68585000D01*
X128335063Y-68349592D01*
X128273903Y-68121337D01*
X128174035Y-67907171D01*
X128038495Y-67713599D01*
X127916567Y-67591671D01*
X127883084Y-67530351D01*
X127888068Y-67460659D01*
X127929939Y-67404725D01*
X127960915Y-67387810D01*
X128092331Y-67338796D01*
X128207546Y-67252546D01*
X128293796Y-67137331D01*
X128344091Y-67002483D01*
X128350500Y-66942873D01*
X128350499Y-65147128D01*
X128344091Y-65087517D01*
X128293796Y-64952669D01*
X128293795Y-64952668D01*
X128293793Y-64952664D01*
X128207547Y-64837455D01*
X128207544Y-64837452D01*
X128092335Y-64751206D01*
X128092328Y-64751202D01*
X127957482Y-64700908D01*
X127957483Y-64700908D01*
X127897883Y-64694501D01*
X127897881Y-64694500D01*
X127897873Y-64694500D01*
X127897864Y-64694500D01*
X126102129Y-64694500D01*
X126102123Y-64694501D01*
X126042516Y-64700908D01*
X125907671Y-64751202D01*
X125907664Y-64751206D01*
X125792455Y-64837452D01*
X125792452Y-64837455D01*
X125706206Y-64952664D01*
X125706202Y-64952671D01*
X125655908Y-65087517D01*
X125649501Y-65147116D01*
X125649501Y-65147123D01*
X125649500Y-65147135D01*
X125649500Y-66942870D01*
X125649501Y-66942876D01*
X125655908Y-67002483D01*
X125706202Y-67137328D01*
X125706206Y-67137335D01*
X125792452Y-67252544D01*
X125792455Y-67252547D01*
X125907664Y-67338793D01*
X125907671Y-67338797D01*
X126039081Y-67387810D01*
X126095015Y-67429681D01*
X126119432Y-67495145D01*
X126104580Y-67563418D01*
X126083430Y-67591673D01*
X125961503Y-67713600D01*
X125825965Y-67907169D01*
X125825964Y-67907171D01*
X125726098Y-68121335D01*
X125726094Y-68121344D01*
X125664938Y-68349586D01*
X125664936Y-68349596D01*
X125644341Y-68584999D01*
X125644341Y-68585000D01*
X125664936Y-68820403D01*
X125664938Y-68820413D01*
X125726094Y-69048655D01*
X125726096Y-69048659D01*
X125726097Y-69048663D01*
X125801244Y-69209815D01*
X125825965Y-69262830D01*
X125825967Y-69262834D01*
X125961501Y-69456395D01*
X125961506Y-69456402D01*
X126128597Y-69623493D01*
X126128603Y-69623498D01*
X126314158Y-69753425D01*
X126357783Y-69808002D01*
X126364977Y-69877500D01*
X126333454Y-69939855D01*
X126314158Y-69956575D01*
X126128597Y-70086505D01*
X125961505Y-70253597D01*
X125825965Y-70447169D01*
X125825964Y-70447171D01*
X125726098Y-70661335D01*
X125726094Y-70661344D01*
X125664938Y-70889586D01*
X125664936Y-70889596D01*
X125644341Y-71124999D01*
X125644341Y-71125000D01*
X125664936Y-71360403D01*
X125664938Y-71360413D01*
X125726094Y-71588655D01*
X125726096Y-71588659D01*
X125726097Y-71588663D01*
X125818339Y-71786476D01*
X125825965Y-71802830D01*
X125825967Y-71802834D01*
X125961501Y-71996395D01*
X125961506Y-71996402D01*
X126128597Y-72163493D01*
X126128603Y-72163498D01*
X126314158Y-72293425D01*
X126357783Y-72348002D01*
X126364977Y-72417500D01*
X126333454Y-72479855D01*
X126314158Y-72496575D01*
X126128597Y-72626505D01*
X125961505Y-72793597D01*
X125825965Y-72987169D01*
X125825964Y-72987171D01*
X125726098Y-73201335D01*
X125726094Y-73201344D01*
X125664938Y-73429586D01*
X125664936Y-73429596D01*
X125644341Y-73664999D01*
X125644341Y-73665000D01*
X125664936Y-73900403D01*
X125664938Y-73900413D01*
X125726094Y-74128655D01*
X125726096Y-74128659D01*
X125726097Y-74128663D01*
X125795511Y-74277521D01*
X125825965Y-74342830D01*
X125825967Y-74342834D01*
X125961501Y-74536395D01*
X125961506Y-74536402D01*
X126128597Y-74703493D01*
X126128603Y-74703498D01*
X126314158Y-74833425D01*
X126357783Y-74888002D01*
X126364977Y-74957500D01*
X126333454Y-75019855D01*
X126314158Y-75036575D01*
X126128597Y-75166505D01*
X125961505Y-75333597D01*
X125825965Y-75527169D01*
X125825964Y-75527171D01*
X125726098Y-75741335D01*
X125726094Y-75741344D01*
X125664938Y-75969586D01*
X125664936Y-75969596D01*
X125644341Y-76204999D01*
X125644341Y-76205000D01*
X118364000Y-76205000D01*
X118364000Y-55880000D01*
X130724341Y-55880000D01*
X130744936Y-56115403D01*
X130744938Y-56115413D01*
X130806094Y-56343655D01*
X130806096Y-56343659D01*
X130806097Y-56343663D01*
X130810000Y-56352032D01*
X130905965Y-56557830D01*
X130905967Y-56557834D01*
X131014281Y-56712521D01*
X131041505Y-56751401D01*
X131208599Y-56918495D01*
X131305384Y-56986265D01*
X131402165Y-57054032D01*
X131402167Y-57054033D01*
X131402170Y-57054035D01*
X131616337Y-57153903D01*
X131844592Y-57215063D01*
X132021034Y-57230500D01*
X132079999Y-57235659D01*
X132080000Y-57235659D01*
X132080001Y-57235659D01*
X132138966Y-57230500D01*
X132315408Y-57215063D01*
X132543663Y-57153903D01*
X132757830Y-57054035D01*
X132951401Y-56918495D01*
X133118495Y-56751401D01*
X133248425Y-56565842D01*
X133303002Y-56522217D01*
X133372500Y-56515023D01*
X133434855Y-56546546D01*
X133451575Y-56565842D01*
X133581500Y-56751395D01*
X133581505Y-56751401D01*
X133748599Y-56918495D01*
X133845384Y-56986265D01*
X133942165Y-57054032D01*
X133942167Y-57054033D01*
X133942170Y-57054035D01*
X134156337Y-57153903D01*
X134384592Y-57215063D01*
X134561034Y-57230500D01*
X134619999Y-57235659D01*
X134620000Y-57235659D01*
X134620001Y-57235659D01*
X134678966Y-57230500D01*
X134855408Y-57215063D01*
X135083663Y-57153903D01*
X135297830Y-57054035D01*
X135491401Y-56918495D01*
X135658495Y-56751401D01*
X135788425Y-56565842D01*
X135843002Y-56522217D01*
X135912500Y-56515023D01*
X135974855Y-56546546D01*
X135991575Y-56565842D01*
X136121500Y-56751395D01*
X136121505Y-56751401D01*
X136288599Y-56918495D01*
X136385384Y-56986265D01*
X136482165Y-57054032D01*
X136482167Y-57054033D01*
X136482170Y-57054035D01*
X136696337Y-57153903D01*
X136924592Y-57215063D01*
X137101034Y-57230500D01*
X137159999Y-57235659D01*
X137160000Y-57235659D01*
X137160001Y-57235659D01*
X137218966Y-57230500D01*
X137395408Y-57215063D01*
X137623663Y-57153903D01*
X137837830Y-57054035D01*
X138031401Y-56918495D01*
X138198495Y-56751401D01*
X138328425Y-56565842D01*
X138383002Y-56522217D01*
X138452500Y-56515023D01*
X138514855Y-56546546D01*
X138531575Y-56565842D01*
X138661500Y-56751395D01*
X138661505Y-56751401D01*
X138828599Y-56918495D01*
X138925384Y-56986265D01*
X139022165Y-57054032D01*
X139022167Y-57054033D01*
X139022170Y-57054035D01*
X139236337Y-57153903D01*
X139464592Y-57215063D01*
X139641034Y-57230500D01*
X139699999Y-57235659D01*
X139700000Y-57235659D01*
X139700001Y-57235659D01*
X139758966Y-57230500D01*
X139935408Y-57215063D01*
X140163663Y-57153903D01*
X140377830Y-57054035D01*
X140571401Y-56918495D01*
X140738495Y-56751401D01*
X140868425Y-56565842D01*
X140923002Y-56522217D01*
X140992500Y-56515023D01*
X141054855Y-56546546D01*
X141071575Y-56565842D01*
X141201500Y-56751395D01*
X141201505Y-56751401D01*
X141368599Y-56918495D01*
X141465384Y-56986265D01*
X141562165Y-57054032D01*
X141562167Y-57054033D01*
X141562170Y-57054035D01*
X141776337Y-57153903D01*
X142004592Y-57215063D01*
X142181034Y-57230500D01*
X142239999Y-57235659D01*
X142240000Y-57235659D01*
X142240001Y-57235659D01*
X142298966Y-57230500D01*
X142475408Y-57215063D01*
X142703663Y-57153903D01*
X142917830Y-57054035D01*
X143111401Y-56918495D01*
X143278495Y-56751401D01*
X143408425Y-56565842D01*
X143463002Y-56522217D01*
X143532500Y-56515023D01*
X143594855Y-56546546D01*
X143611575Y-56565842D01*
X143741500Y-56751395D01*
X143741505Y-56751401D01*
X143908599Y-56918495D01*
X144005384Y-56986265D01*
X144102165Y-57054032D01*
X144102167Y-57054033D01*
X144102170Y-57054035D01*
X144316337Y-57153903D01*
X144544592Y-57215063D01*
X144721034Y-57230500D01*
X144779999Y-57235659D01*
X144780000Y-57235659D01*
X144780001Y-57235659D01*
X144838966Y-57230500D01*
X145015408Y-57215063D01*
X145243663Y-57153903D01*
X145457830Y-57054035D01*
X145651401Y-56918495D01*
X145818495Y-56751401D01*
X145948425Y-56565842D01*
X146003002Y-56522217D01*
X146072500Y-56515023D01*
X146134855Y-56546546D01*
X146151575Y-56565842D01*
X146281500Y-56751395D01*
X146281505Y-56751401D01*
X146448599Y-56918495D01*
X146545384Y-56986265D01*
X146642165Y-57054032D01*
X146642167Y-57054033D01*
X146642170Y-57054035D01*
X146856337Y-57153903D01*
X147084592Y-57215063D01*
X147261034Y-57230500D01*
X147319999Y-57235659D01*
X147320000Y-57235659D01*
X147320001Y-57235659D01*
X147378966Y-57230500D01*
X147555408Y-57215063D01*
X147783663Y-57153903D01*
X147997830Y-57054035D01*
X148191401Y-56918495D01*
X148358495Y-56751401D01*
X148488425Y-56565842D01*
X148543002Y-56522217D01*
X148612500Y-56515023D01*
X148674855Y-56546546D01*
X148691575Y-56565842D01*
X148821500Y-56751395D01*
X148821505Y-56751401D01*
X148988599Y-56918495D01*
X149085384Y-56986265D01*
X149182165Y-57054032D01*
X149182167Y-57054033D01*
X149182170Y-57054035D01*
X149396337Y-57153903D01*
X149624592Y-57215063D01*
X149801034Y-57230500D01*
X149859999Y-57235659D01*
X149860000Y-57235659D01*
X149860001Y-57235659D01*
X149918966Y-57230500D01*
X150095408Y-57215063D01*
X150323663Y-57153903D01*
X150537830Y-57054035D01*
X150731401Y-56918495D01*
X150898495Y-56751401D01*
X151028425Y-56565842D01*
X151083002Y-56522217D01*
X151152500Y-56515023D01*
X151214855Y-56546546D01*
X151231575Y-56565842D01*
X151361500Y-56751395D01*
X151361505Y-56751401D01*
X151528599Y-56918495D01*
X151625384Y-56986265D01*
X151722165Y-57054032D01*
X151722167Y-57054033D01*
X151722170Y-57054035D01*
X151936337Y-57153903D01*
X152164592Y-57215063D01*
X152341034Y-57230500D01*
X152399999Y-57235659D01*
X152400000Y-57235659D01*
X152400001Y-57235659D01*
X152458966Y-57230500D01*
X152635408Y-57215063D01*
X152863663Y-57153903D01*
X153077830Y-57054035D01*
X153271401Y-56918495D01*
X153438495Y-56751401D01*
X153568425Y-56565842D01*
X153623002Y-56522217D01*
X153692500Y-56515023D01*
X153754855Y-56546546D01*
X153771575Y-56565842D01*
X153901500Y-56751395D01*
X153901505Y-56751401D01*
X154068599Y-56918495D01*
X154165384Y-56986265D01*
X154262165Y-57054032D01*
X154262167Y-57054033D01*
X154262170Y-57054035D01*
X154476337Y-57153903D01*
X154704592Y-57215063D01*
X154881034Y-57230500D01*
X154939999Y-57235659D01*
X154940000Y-57235659D01*
X154940001Y-57235659D01*
X154998966Y-57230500D01*
X155175408Y-57215063D01*
X155403663Y-57153903D01*
X155617830Y-57054035D01*
X155811401Y-56918495D01*
X155978495Y-56751401D01*
X156108425Y-56565842D01*
X156163002Y-56522217D01*
X156232500Y-56515023D01*
X156294855Y-56546546D01*
X156311575Y-56565842D01*
X156441500Y-56751395D01*
X156441505Y-56751401D01*
X156608599Y-56918495D01*
X156705384Y-56986265D01*
X156802165Y-57054032D01*
X156802167Y-57054033D01*
X156802170Y-57054035D01*
X157016337Y-57153903D01*
X157244592Y-57215063D01*
X157421034Y-57230500D01*
X157479999Y-57235659D01*
X157480000Y-57235659D01*
X157480001Y-57235659D01*
X157538966Y-57230500D01*
X157715408Y-57215063D01*
X157943663Y-57153903D01*
X158157830Y-57054035D01*
X158351401Y-56918495D01*
X158518495Y-56751401D01*
X158648425Y-56565842D01*
X158703002Y-56522217D01*
X158772500Y-56515023D01*
X158834855Y-56546546D01*
X158851575Y-56565842D01*
X158981500Y-56751395D01*
X158981505Y-56751401D01*
X159148599Y-56918495D01*
X159245384Y-56986265D01*
X159342165Y-57054032D01*
X159342167Y-57054033D01*
X159342170Y-57054035D01*
X159556337Y-57153903D01*
X159784592Y-57215063D01*
X159961034Y-57230500D01*
X160019999Y-57235659D01*
X160020000Y-57235659D01*
X160020001Y-57235659D01*
X160078966Y-57230500D01*
X160255408Y-57215063D01*
X160483663Y-57153903D01*
X160697830Y-57054035D01*
X160891401Y-56918495D01*
X161058495Y-56751401D01*
X161188425Y-56565842D01*
X161243002Y-56522217D01*
X161312500Y-56515023D01*
X161374855Y-56546546D01*
X161391575Y-56565842D01*
X161521500Y-56751395D01*
X161521505Y-56751401D01*
X161688599Y-56918495D01*
X161785384Y-56986265D01*
X161882165Y-57054032D01*
X161882167Y-57054033D01*
X161882170Y-57054035D01*
X162096337Y-57153903D01*
X162324592Y-57215063D01*
X162501034Y-57230500D01*
X162559999Y-57235659D01*
X162560000Y-57235659D01*
X162560001Y-57235659D01*
X162618966Y-57230500D01*
X162795408Y-57215063D01*
X163023663Y-57153903D01*
X163237830Y-57054035D01*
X163431401Y-56918495D01*
X163598495Y-56751401D01*
X163728425Y-56565842D01*
X163783002Y-56522217D01*
X163852500Y-56515023D01*
X163914855Y-56546546D01*
X163931575Y-56565842D01*
X164061500Y-56751395D01*
X164061505Y-56751401D01*
X164228599Y-56918495D01*
X164325384Y-56986265D01*
X164422165Y-57054032D01*
X164422167Y-57054033D01*
X164422170Y-57054035D01*
X164636337Y-57153903D01*
X164864592Y-57215063D01*
X165041034Y-57230500D01*
X165099999Y-57235659D01*
X165100000Y-57235659D01*
X165100001Y-57235659D01*
X165158966Y-57230500D01*
X165335408Y-57215063D01*
X165563663Y-57153903D01*
X165777830Y-57054035D01*
X165971401Y-56918495D01*
X166138495Y-56751401D01*
X166268425Y-56565842D01*
X166323002Y-56522217D01*
X166392500Y-56515023D01*
X166454855Y-56546546D01*
X166471575Y-56565842D01*
X166601500Y-56751395D01*
X166601505Y-56751401D01*
X166768599Y-56918495D01*
X166865384Y-56986265D01*
X166962165Y-57054032D01*
X166962167Y-57054033D01*
X166962170Y-57054035D01*
X167176337Y-57153903D01*
X167404592Y-57215063D01*
X167581034Y-57230500D01*
X167639999Y-57235659D01*
X167640000Y-57235659D01*
X167640001Y-57235659D01*
X167698966Y-57230500D01*
X167875408Y-57215063D01*
X168103663Y-57153903D01*
X168317830Y-57054035D01*
X168511401Y-56918495D01*
X168678495Y-56751401D01*
X168808425Y-56565842D01*
X168863002Y-56522217D01*
X168932500Y-56515023D01*
X168994855Y-56546546D01*
X169011575Y-56565842D01*
X169141500Y-56751395D01*
X169141505Y-56751401D01*
X169308599Y-56918495D01*
X169405384Y-56986265D01*
X169502165Y-57054032D01*
X169502167Y-57054033D01*
X169502170Y-57054035D01*
X169716337Y-57153903D01*
X169944592Y-57215063D01*
X170121034Y-57230500D01*
X170179999Y-57235659D01*
X170180000Y-57235659D01*
X170180001Y-57235659D01*
X170238966Y-57230500D01*
X170415408Y-57215063D01*
X170643663Y-57153903D01*
X170857830Y-57054035D01*
X171051401Y-56918495D01*
X171173329Y-56796566D01*
X171234648Y-56763084D01*
X171304340Y-56768068D01*
X171360274Y-56809939D01*
X171377189Y-56840917D01*
X171426202Y-56972328D01*
X171426206Y-56972335D01*
X171512452Y-57087544D01*
X171512455Y-57087547D01*
X171627664Y-57173793D01*
X171627671Y-57173797D01*
X171762517Y-57224091D01*
X171762516Y-57224091D01*
X171769444Y-57224835D01*
X171822127Y-57230500D01*
X173617872Y-57230499D01*
X173677483Y-57224091D01*
X173812331Y-57173796D01*
X173927546Y-57087546D01*
X174013796Y-56972331D01*
X174064091Y-56837483D01*
X174070500Y-56777873D01*
X174070499Y-54982128D01*
X174064091Y-54922517D01*
X174062810Y-54919083D01*
X174013797Y-54787671D01*
X174013793Y-54787664D01*
X173927547Y-54672455D01*
X173927544Y-54672452D01*
X173812335Y-54586206D01*
X173812328Y-54586202D01*
X173677482Y-54535908D01*
X173677483Y-54535908D01*
X173617883Y-54529501D01*
X173617881Y-54529500D01*
X173617873Y-54529500D01*
X173617864Y-54529500D01*
X171822129Y-54529500D01*
X171822123Y-54529501D01*
X171762516Y-54535908D01*
X171627671Y-54586202D01*
X171627664Y-54586206D01*
X171512455Y-54672452D01*
X171512452Y-54672455D01*
X171426206Y-54787664D01*
X171426203Y-54787669D01*
X171377189Y-54919083D01*
X171335317Y-54975016D01*
X171269853Y-54999433D01*
X171201580Y-54984581D01*
X171173326Y-54963430D01*
X171051402Y-54841506D01*
X171051395Y-54841501D01*
X170857834Y-54705967D01*
X170857830Y-54705965D01*
X170857828Y-54705964D01*
X170643663Y-54606097D01*
X170643659Y-54606096D01*
X170643655Y-54606094D01*
X170415413Y-54544938D01*
X170415403Y-54544936D01*
X170180001Y-54524341D01*
X170179999Y-54524341D01*
X169944596Y-54544936D01*
X169944586Y-54544938D01*
X169716344Y-54606094D01*
X169716335Y-54606098D01*
X169502171Y-54705964D01*
X169502169Y-54705965D01*
X169308597Y-54841505D01*
X169141505Y-55008597D01*
X169011575Y-55194158D01*
X168956998Y-55237783D01*
X168887500Y-55244977D01*
X168825145Y-55213454D01*
X168808425Y-55194158D01*
X168678494Y-55008597D01*
X168511402Y-54841506D01*
X168511395Y-54841501D01*
X168317834Y-54705967D01*
X168317830Y-54705965D01*
X168317828Y-54705964D01*
X168103663Y-54606097D01*
X168103659Y-54606096D01*
X168103655Y-54606094D01*
X167875413Y-54544938D01*
X167875403Y-54544936D01*
X167640001Y-54524341D01*
X167639999Y-54524341D01*
X167404596Y-54544936D01*
X167404586Y-54544938D01*
X167176344Y-54606094D01*
X167176335Y-54606098D01*
X166962171Y-54705964D01*
X166962169Y-54705965D01*
X166768597Y-54841505D01*
X166601505Y-55008597D01*
X166471575Y-55194158D01*
X166416998Y-55237783D01*
X166347500Y-55244977D01*
X166285145Y-55213454D01*
X166268425Y-55194158D01*
X166138494Y-55008597D01*
X165971402Y-54841506D01*
X165971395Y-54841501D01*
X165777834Y-54705967D01*
X165777830Y-54705965D01*
X165777828Y-54705964D01*
X165563663Y-54606097D01*
X165563659Y-54606096D01*
X165563655Y-54606094D01*
X165335413Y-54544938D01*
X165335403Y-54544936D01*
X165100001Y-54524341D01*
X165099999Y-54524341D01*
X164864596Y-54544936D01*
X164864586Y-54544938D01*
X164636344Y-54606094D01*
X164636335Y-54606098D01*
X164422171Y-54705964D01*
X164422169Y-54705965D01*
X164228597Y-54841505D01*
X164061505Y-55008597D01*
X163931575Y-55194158D01*
X163876998Y-55237783D01*
X163807500Y-55244977D01*
X163745145Y-55213454D01*
X163728425Y-55194158D01*
X163598494Y-55008597D01*
X163431402Y-54841506D01*
X163431395Y-54841501D01*
X163237834Y-54705967D01*
X163237830Y-54705965D01*
X163237828Y-54705964D01*
X163023663Y-54606097D01*
X163023659Y-54606096D01*
X163023655Y-54606094D01*
X162795413Y-54544938D01*
X162795403Y-54544936D01*
X162560001Y-54524341D01*
X162559999Y-54524341D01*
X162324596Y-54544936D01*
X162324586Y-54544938D01*
X162096344Y-54606094D01*
X162096335Y-54606098D01*
X161882171Y-54705964D01*
X161882169Y-54705965D01*
X161688597Y-54841505D01*
X161521505Y-55008597D01*
X161391575Y-55194158D01*
X161336998Y-55237783D01*
X161267500Y-55244977D01*
X161205145Y-55213454D01*
X161188425Y-55194158D01*
X161058494Y-55008597D01*
X160891402Y-54841506D01*
X160891395Y-54841501D01*
X160697834Y-54705967D01*
X160697830Y-54705965D01*
X160697828Y-54705964D01*
X160483663Y-54606097D01*
X160483659Y-54606096D01*
X160483655Y-54606094D01*
X160255413Y-54544938D01*
X160255403Y-54544936D01*
X160020001Y-54524341D01*
X160019999Y-54524341D01*
X159784596Y-54544936D01*
X159784586Y-54544938D01*
X159556344Y-54606094D01*
X159556335Y-54606098D01*
X159342171Y-54705964D01*
X159342169Y-54705965D01*
X159148597Y-54841505D01*
X158981505Y-55008597D01*
X158851575Y-55194158D01*
X158796998Y-55237783D01*
X158727500Y-55244977D01*
X158665145Y-55213454D01*
X158648425Y-55194158D01*
X158518494Y-55008597D01*
X158351402Y-54841506D01*
X158351395Y-54841501D01*
X158157834Y-54705967D01*
X158157830Y-54705965D01*
X158157828Y-54705964D01*
X157943663Y-54606097D01*
X157943659Y-54606096D01*
X157943655Y-54606094D01*
X157715413Y-54544938D01*
X157715403Y-54544936D01*
X157480001Y-54524341D01*
X157479999Y-54524341D01*
X157244596Y-54544936D01*
X157244586Y-54544938D01*
X157016344Y-54606094D01*
X157016335Y-54606098D01*
X156802171Y-54705964D01*
X156802169Y-54705965D01*
X156608597Y-54841505D01*
X156441505Y-55008597D01*
X156311575Y-55194158D01*
X156256998Y-55237783D01*
X156187500Y-55244977D01*
X156125145Y-55213454D01*
X156108425Y-55194158D01*
X155978494Y-55008597D01*
X155811402Y-54841506D01*
X155811395Y-54841501D01*
X155617834Y-54705967D01*
X155617830Y-54705965D01*
X155617828Y-54705964D01*
X155403663Y-54606097D01*
X155403659Y-54606096D01*
X155403655Y-54606094D01*
X155175413Y-54544938D01*
X155175403Y-54544936D01*
X154940001Y-54524341D01*
X154939999Y-54524341D01*
X154704596Y-54544936D01*
X154704586Y-54544938D01*
X154476344Y-54606094D01*
X154476335Y-54606098D01*
X154262171Y-54705964D01*
X154262169Y-54705965D01*
X154068597Y-54841505D01*
X153901505Y-55008597D01*
X153771575Y-55194158D01*
X153716998Y-55237783D01*
X153647500Y-55244977D01*
X153585145Y-55213454D01*
X153568425Y-55194158D01*
X153438494Y-55008597D01*
X153271402Y-54841506D01*
X153271395Y-54841501D01*
X153077834Y-54705967D01*
X153077830Y-54705965D01*
X153077828Y-54705964D01*
X152863663Y-54606097D01*
X152863659Y-54606096D01*
X152863655Y-54606094D01*
X152635413Y-54544938D01*
X152635403Y-54544936D01*
X152400001Y-54524341D01*
X152399999Y-54524341D01*
X152164596Y-54544936D01*
X152164586Y-54544938D01*
X151936344Y-54606094D01*
X151936335Y-54606098D01*
X151722171Y-54705964D01*
X151722169Y-54705965D01*
X151528597Y-54841505D01*
X151361505Y-55008597D01*
X151231575Y-55194158D01*
X151176998Y-55237783D01*
X151107500Y-55244977D01*
X151045145Y-55213454D01*
X151028425Y-55194158D01*
X150898494Y-55008597D01*
X150731402Y-54841506D01*
X150731395Y-54841501D01*
X150537834Y-54705967D01*
X150537830Y-54705965D01*
X150537828Y-54705964D01*
X150323663Y-54606097D01*
X150323659Y-54606096D01*
X150323655Y-54606094D01*
X150095413Y-54544938D01*
X150095403Y-54544936D01*
X149860001Y-54524341D01*
X149859999Y-54524341D01*
X149624596Y-54544936D01*
X149624586Y-54544938D01*
X149396344Y-54606094D01*
X149396335Y-54606098D01*
X149182171Y-54705964D01*
X149182169Y-54705965D01*
X148988597Y-54841505D01*
X148821505Y-55008597D01*
X148691575Y-55194158D01*
X148636998Y-55237783D01*
X148567500Y-55244977D01*
X148505145Y-55213454D01*
X148488425Y-55194158D01*
X148358494Y-55008597D01*
X148191402Y-54841506D01*
X148191395Y-54841501D01*
X147997834Y-54705967D01*
X147997830Y-54705965D01*
X147997828Y-54705964D01*
X147783663Y-54606097D01*
X147783659Y-54606096D01*
X147783655Y-54606094D01*
X147555413Y-54544938D01*
X147555403Y-54544936D01*
X147320001Y-54524341D01*
X147319999Y-54524341D01*
X147084596Y-54544936D01*
X147084586Y-54544938D01*
X146856344Y-54606094D01*
X146856335Y-54606098D01*
X146642171Y-54705964D01*
X146642169Y-54705965D01*
X146448597Y-54841505D01*
X146281505Y-55008597D01*
X146151575Y-55194158D01*
X146096998Y-55237783D01*
X146027500Y-55244977D01*
X145965145Y-55213454D01*
X145948425Y-55194158D01*
X145818494Y-55008597D01*
X145651402Y-54841506D01*
X145651395Y-54841501D01*
X145457834Y-54705967D01*
X145457830Y-54705965D01*
X145457828Y-54705964D01*
X145243663Y-54606097D01*
X145243659Y-54606096D01*
X145243655Y-54606094D01*
X145015413Y-54544938D01*
X145015403Y-54544936D01*
X144780001Y-54524341D01*
X144779999Y-54524341D01*
X144544596Y-54544936D01*
X144544586Y-54544938D01*
X144316344Y-54606094D01*
X144316335Y-54606098D01*
X144102171Y-54705964D01*
X144102169Y-54705965D01*
X143908597Y-54841505D01*
X143741505Y-55008597D01*
X143611575Y-55194158D01*
X143556998Y-55237783D01*
X143487500Y-55244977D01*
X143425145Y-55213454D01*
X143408425Y-55194158D01*
X143278494Y-55008597D01*
X143111402Y-54841506D01*
X143111395Y-54841501D01*
X142917834Y-54705967D01*
X142917830Y-54705965D01*
X142917828Y-54705964D01*
X142703663Y-54606097D01*
X142703659Y-54606096D01*
X142703655Y-54606094D01*
X142475413Y-54544938D01*
X142475403Y-54544936D01*
X142240001Y-54524341D01*
X142239999Y-54524341D01*
X142004596Y-54544936D01*
X142004586Y-54544938D01*
X141776344Y-54606094D01*
X141776335Y-54606098D01*
X141562171Y-54705964D01*
X141562169Y-54705965D01*
X141368597Y-54841505D01*
X141201505Y-55008597D01*
X141071575Y-55194158D01*
X141016998Y-55237783D01*
X140947500Y-55244977D01*
X140885145Y-55213454D01*
X140868425Y-55194158D01*
X140738494Y-55008597D01*
X140571402Y-54841506D01*
X140571395Y-54841501D01*
X140377834Y-54705967D01*
X140377830Y-54705965D01*
X140377828Y-54705964D01*
X140163663Y-54606097D01*
X140163659Y-54606096D01*
X140163655Y-54606094D01*
X139935413Y-54544938D01*
X139935403Y-54544936D01*
X139700001Y-54524341D01*
X139699999Y-54524341D01*
X139464596Y-54544936D01*
X139464586Y-54544938D01*
X139236344Y-54606094D01*
X139236335Y-54606098D01*
X139022171Y-54705964D01*
X139022169Y-54705965D01*
X138828597Y-54841505D01*
X138661505Y-55008597D01*
X138531575Y-55194158D01*
X138476998Y-55237783D01*
X138407500Y-55244977D01*
X138345145Y-55213454D01*
X138328425Y-55194158D01*
X138198494Y-55008597D01*
X138031402Y-54841506D01*
X138031395Y-54841501D01*
X137837834Y-54705967D01*
X137837830Y-54705965D01*
X137837828Y-54705964D01*
X137623663Y-54606097D01*
X137623659Y-54606096D01*
X137623655Y-54606094D01*
X137395413Y-54544938D01*
X137395403Y-54544936D01*
X137160001Y-54524341D01*
X137159999Y-54524341D01*
X136924596Y-54544936D01*
X136924586Y-54544938D01*
X136696344Y-54606094D01*
X136696335Y-54606098D01*
X136482171Y-54705964D01*
X136482169Y-54705965D01*
X136288597Y-54841505D01*
X136121505Y-55008597D01*
X135991575Y-55194158D01*
X135936998Y-55237783D01*
X135867500Y-55244977D01*
X135805145Y-55213454D01*
X135788425Y-55194158D01*
X135658494Y-55008597D01*
X135491402Y-54841506D01*
X135491395Y-54841501D01*
X135297834Y-54705967D01*
X135297830Y-54705965D01*
X135297828Y-54705964D01*
X135083663Y-54606097D01*
X135083659Y-54606096D01*
X135083655Y-54606094D01*
X134855413Y-54544938D01*
X134855403Y-54544936D01*
X134620001Y-54524341D01*
X134619999Y-54524341D01*
X134384596Y-54544936D01*
X134384586Y-54544938D01*
X134156344Y-54606094D01*
X134156335Y-54606098D01*
X133942171Y-54705964D01*
X133942169Y-54705965D01*
X133748597Y-54841505D01*
X133581505Y-55008597D01*
X133451575Y-55194158D01*
X133396998Y-55237783D01*
X133327500Y-55244977D01*
X133265145Y-55213454D01*
X133248425Y-55194158D01*
X133118494Y-55008597D01*
X132951402Y-54841506D01*
X132951395Y-54841501D01*
X132757834Y-54705967D01*
X132757830Y-54705965D01*
X132757828Y-54705964D01*
X132543663Y-54606097D01*
X132543659Y-54606096D01*
X132543655Y-54606094D01*
X132315413Y-54544938D01*
X132315403Y-54544936D01*
X132080001Y-54524341D01*
X132079999Y-54524341D01*
X131844596Y-54544936D01*
X131844586Y-54544938D01*
X131616344Y-54606094D01*
X131616335Y-54606098D01*
X131402171Y-54705964D01*
X131402169Y-54705965D01*
X131208597Y-54841505D01*
X131041505Y-55008597D01*
X130905965Y-55202169D01*
X130905964Y-55202171D01*
X130806098Y-55416335D01*
X130806094Y-55416344D01*
X130744938Y-55644586D01*
X130744936Y-55644596D01*
X130724341Y-55879999D01*
X130724341Y-55880000D01*
X118364000Y-55880000D01*
X118364000Y-52702000D01*
X118383685Y-52634961D01*
X118436489Y-52589206D01*
X118488000Y-52578000D01*
X175390000Y-52578000D01*
X175457039Y-52597685D01*
G37*
%TD.AperFunction*%
%TD*%
M02*
