%TF.GenerationSoftware,KiCad,Pcbnew,7.0.10*%
%TF.CreationDate,2024-03-02T18:50:19+09:00*%
%TF.ProjectId,STM32F103x8,53544d33-3246-4313-9033-78382e6b6963,rev?*%
%TF.SameCoordinates,Original*%
%TF.FileFunction,Drillmap*%
%TF.FilePolarity,Positive*%
%FSLAX45Y45*%
G04 Gerber Fmt 4.5, Leading zero omitted, Abs format (unit mm)*
G04 Created by KiCad (PCBNEW 7.0.10) date 2024-03-02 18:50:19*
%MOMM*%
%LPD*%
G01*
G04 APERTURE LIST*
%ADD10C,0.200000*%
%ADD11C,0.110000*%
G04 APERTURE END LIST*
D10*
X12319000Y-10337800D02*
G75*
G03*
X11811000Y-10337800I-254000J0D01*
G01*
X11811000Y-10337800D02*
G75*
G03*
X12319000Y-10337800I254000J0D01*
G01*
X18491200Y-10337800D02*
G75*
G03*
X17983200Y-10337800I-254000J0D01*
G01*
X17983200Y-10337800D02*
G75*
G03*
X18491200Y-10337800I254000J0D01*
G01*
X12268200Y-4927600D02*
G75*
G03*
X11760200Y-4927600I-254000J0D01*
G01*
X11760200Y-4927600D02*
G75*
G03*
X12268200Y-4927600I254000J0D01*
G01*
X11658600Y-4572000D02*
X18542000Y-4572000D01*
X18542000Y-10668000D01*
X11658600Y-10668000D01*
X11658600Y-4572000D01*
X18465800Y-4902200D02*
G75*
G03*
X17957800Y-4902200I-254000J0D01*
G01*
X17957800Y-4902200D02*
G75*
G03*
X18465800Y-4902200I254000J0D01*
G01*
D11*
X18160500Y-7403500D02*
X18270500Y-7513500D01*
X18270500Y-7403500D02*
X18160500Y-7513500D01*
X18160500Y-7853500D02*
X18270500Y-7963500D01*
X18270500Y-7853500D02*
X18160500Y-7963500D01*
D10*
X11909377Y-10989484D02*
X11909377Y-10789484D01*
X11909377Y-10789484D02*
X11956996Y-10789484D01*
X11956996Y-10789484D02*
X11985567Y-10799008D01*
X11985567Y-10799008D02*
X12004615Y-10818055D01*
X12004615Y-10818055D02*
X12014139Y-10837103D01*
X12014139Y-10837103D02*
X12023662Y-10875198D01*
X12023662Y-10875198D02*
X12023662Y-10903770D01*
X12023662Y-10903770D02*
X12014139Y-10941865D01*
X12014139Y-10941865D02*
X12004615Y-10960912D01*
X12004615Y-10960912D02*
X11985567Y-10979960D01*
X11985567Y-10979960D02*
X11956996Y-10989484D01*
X11956996Y-10989484D02*
X11909377Y-10989484D01*
X12109377Y-10989484D02*
X12109377Y-10856150D01*
X12109377Y-10894246D02*
X12118901Y-10875198D01*
X12118901Y-10875198D02*
X12128424Y-10865674D01*
X12128424Y-10865674D02*
X12147472Y-10856150D01*
X12147472Y-10856150D02*
X12166520Y-10856150D01*
X12233186Y-10989484D02*
X12233186Y-10856150D01*
X12233186Y-10789484D02*
X12223662Y-10799008D01*
X12223662Y-10799008D02*
X12233186Y-10808531D01*
X12233186Y-10808531D02*
X12242710Y-10799008D01*
X12242710Y-10799008D02*
X12233186Y-10789484D01*
X12233186Y-10789484D02*
X12233186Y-10808531D01*
X12356996Y-10989484D02*
X12337948Y-10979960D01*
X12337948Y-10979960D02*
X12328424Y-10960912D01*
X12328424Y-10960912D02*
X12328424Y-10789484D01*
X12461758Y-10989484D02*
X12442710Y-10979960D01*
X12442710Y-10979960D02*
X12433186Y-10960912D01*
X12433186Y-10960912D02*
X12433186Y-10789484D01*
X12690329Y-10989484D02*
X12690329Y-10789484D01*
X12690329Y-10789484D02*
X12756996Y-10932341D01*
X12756996Y-10932341D02*
X12823662Y-10789484D01*
X12823662Y-10789484D02*
X12823662Y-10989484D01*
X13004615Y-10989484D02*
X13004615Y-10884722D01*
X13004615Y-10884722D02*
X12995091Y-10865674D01*
X12995091Y-10865674D02*
X12976043Y-10856150D01*
X12976043Y-10856150D02*
X12937948Y-10856150D01*
X12937948Y-10856150D02*
X12918901Y-10865674D01*
X13004615Y-10979960D02*
X12985567Y-10989484D01*
X12985567Y-10989484D02*
X12937948Y-10989484D01*
X12937948Y-10989484D02*
X12918901Y-10979960D01*
X12918901Y-10979960D02*
X12909377Y-10960912D01*
X12909377Y-10960912D02*
X12909377Y-10941865D01*
X12909377Y-10941865D02*
X12918901Y-10922817D01*
X12918901Y-10922817D02*
X12937948Y-10913293D01*
X12937948Y-10913293D02*
X12985567Y-10913293D01*
X12985567Y-10913293D02*
X13004615Y-10903770D01*
X13099853Y-10856150D02*
X13099853Y-11056150D01*
X13099853Y-10865674D02*
X13118901Y-10856150D01*
X13118901Y-10856150D02*
X13156996Y-10856150D01*
X13156996Y-10856150D02*
X13176043Y-10865674D01*
X13176043Y-10865674D02*
X13185567Y-10875198D01*
X13185567Y-10875198D02*
X13195091Y-10894246D01*
X13195091Y-10894246D02*
X13195091Y-10951389D01*
X13195091Y-10951389D02*
X13185567Y-10970436D01*
X13185567Y-10970436D02*
X13176043Y-10979960D01*
X13176043Y-10979960D02*
X13156996Y-10989484D01*
X13156996Y-10989484D02*
X13118901Y-10989484D01*
X13118901Y-10989484D02*
X13099853Y-10979960D01*
X13280805Y-10970436D02*
X13290329Y-10979960D01*
X13290329Y-10979960D02*
X13280805Y-10989484D01*
X13280805Y-10989484D02*
X13271282Y-10979960D01*
X13271282Y-10979960D02*
X13280805Y-10970436D01*
X13280805Y-10970436D02*
X13280805Y-10989484D01*
X13280805Y-10865674D02*
X13290329Y-10875198D01*
X13290329Y-10875198D02*
X13280805Y-10884722D01*
X13280805Y-10884722D02*
X13271282Y-10875198D01*
X13271282Y-10875198D02*
X13280805Y-10865674D01*
X13280805Y-10865674D02*
X13280805Y-10884722D01*
D11*
X11538600Y-11263000D02*
X11648600Y-11373000D01*
X11648600Y-11263000D02*
X11538600Y-11373000D01*
D10*
X12014139Y-11409484D02*
X11899853Y-11409484D01*
X11956996Y-11409484D02*
X11956996Y-11209484D01*
X11956996Y-11209484D02*
X11937948Y-11238055D01*
X11937948Y-11238055D02*
X11918901Y-11257103D01*
X11918901Y-11257103D02*
X11899853Y-11266627D01*
X12099853Y-11390436D02*
X12109377Y-11399960D01*
X12109377Y-11399960D02*
X12099853Y-11409484D01*
X12099853Y-11409484D02*
X12090329Y-11399960D01*
X12090329Y-11399960D02*
X12099853Y-11390436D01*
X12099853Y-11390436D02*
X12099853Y-11409484D01*
X12299853Y-11409484D02*
X12185567Y-11409484D01*
X12242710Y-11409484D02*
X12242710Y-11209484D01*
X12242710Y-11209484D02*
X12223662Y-11238055D01*
X12223662Y-11238055D02*
X12204615Y-11257103D01*
X12204615Y-11257103D02*
X12185567Y-11266627D01*
X12423662Y-11209484D02*
X12442710Y-11209484D01*
X12442710Y-11209484D02*
X12461758Y-11219008D01*
X12461758Y-11219008D02*
X12471282Y-11228531D01*
X12471282Y-11228531D02*
X12480805Y-11247579D01*
X12480805Y-11247579D02*
X12490329Y-11285674D01*
X12490329Y-11285674D02*
X12490329Y-11333293D01*
X12490329Y-11333293D02*
X12480805Y-11371388D01*
X12480805Y-11371388D02*
X12471282Y-11390436D01*
X12471282Y-11390436D02*
X12461758Y-11399960D01*
X12461758Y-11399960D02*
X12442710Y-11409484D01*
X12442710Y-11409484D02*
X12423662Y-11409484D01*
X12423662Y-11409484D02*
X12404615Y-11399960D01*
X12404615Y-11399960D02*
X12395091Y-11390436D01*
X12395091Y-11390436D02*
X12385567Y-11371388D01*
X12385567Y-11371388D02*
X12376043Y-11333293D01*
X12376043Y-11333293D02*
X12376043Y-11285674D01*
X12376043Y-11285674D02*
X12385567Y-11247579D01*
X12385567Y-11247579D02*
X12395091Y-11228531D01*
X12395091Y-11228531D02*
X12404615Y-11219008D01*
X12404615Y-11219008D02*
X12423662Y-11209484D01*
X12614139Y-11209484D02*
X12633186Y-11209484D01*
X12633186Y-11209484D02*
X12652234Y-11219008D01*
X12652234Y-11219008D02*
X12661758Y-11228531D01*
X12661758Y-11228531D02*
X12671282Y-11247579D01*
X12671282Y-11247579D02*
X12680805Y-11285674D01*
X12680805Y-11285674D02*
X12680805Y-11333293D01*
X12680805Y-11333293D02*
X12671282Y-11371388D01*
X12671282Y-11371388D02*
X12661758Y-11390436D01*
X12661758Y-11390436D02*
X12652234Y-11399960D01*
X12652234Y-11399960D02*
X12633186Y-11409484D01*
X12633186Y-11409484D02*
X12614139Y-11409484D01*
X12614139Y-11409484D02*
X12595091Y-11399960D01*
X12595091Y-11399960D02*
X12585567Y-11390436D01*
X12585567Y-11390436D02*
X12576043Y-11371388D01*
X12576043Y-11371388D02*
X12566520Y-11333293D01*
X12566520Y-11333293D02*
X12566520Y-11285674D01*
X12566520Y-11285674D02*
X12576043Y-11247579D01*
X12576043Y-11247579D02*
X12585567Y-11228531D01*
X12585567Y-11228531D02*
X12595091Y-11219008D01*
X12595091Y-11219008D02*
X12614139Y-11209484D01*
X12766520Y-11409484D02*
X12766520Y-11276150D01*
X12766520Y-11295198D02*
X12776043Y-11285674D01*
X12776043Y-11285674D02*
X12795091Y-11276150D01*
X12795091Y-11276150D02*
X12823663Y-11276150D01*
X12823663Y-11276150D02*
X12842710Y-11285674D01*
X12842710Y-11285674D02*
X12852234Y-11304722D01*
X12852234Y-11304722D02*
X12852234Y-11409484D01*
X12852234Y-11304722D02*
X12861758Y-11285674D01*
X12861758Y-11285674D02*
X12880805Y-11276150D01*
X12880805Y-11276150D02*
X12909377Y-11276150D01*
X12909377Y-11276150D02*
X12928424Y-11285674D01*
X12928424Y-11285674D02*
X12937948Y-11304722D01*
X12937948Y-11304722D02*
X12937948Y-11409484D01*
X13033186Y-11409484D02*
X13033186Y-11276150D01*
X13033186Y-11295198D02*
X13042710Y-11285674D01*
X13042710Y-11285674D02*
X13061758Y-11276150D01*
X13061758Y-11276150D02*
X13090329Y-11276150D01*
X13090329Y-11276150D02*
X13109377Y-11285674D01*
X13109377Y-11285674D02*
X13118901Y-11304722D01*
X13118901Y-11304722D02*
X13118901Y-11409484D01*
X13118901Y-11304722D02*
X13128424Y-11285674D01*
X13128424Y-11285674D02*
X13147472Y-11276150D01*
X13147472Y-11276150D02*
X13176043Y-11276150D01*
X13176043Y-11276150D02*
X13195091Y-11285674D01*
X13195091Y-11285674D02*
X13204615Y-11304722D01*
X13204615Y-11304722D02*
X13204615Y-11409484D01*
X13595091Y-11199960D02*
X13423663Y-11457103D01*
X13852234Y-11209484D02*
X13871282Y-11209484D01*
X13871282Y-11209484D02*
X13890329Y-11219008D01*
X13890329Y-11219008D02*
X13899853Y-11228531D01*
X13899853Y-11228531D02*
X13909377Y-11247579D01*
X13909377Y-11247579D02*
X13918901Y-11285674D01*
X13918901Y-11285674D02*
X13918901Y-11333293D01*
X13918901Y-11333293D02*
X13909377Y-11371388D01*
X13909377Y-11371388D02*
X13899853Y-11390436D01*
X13899853Y-11390436D02*
X13890329Y-11399960D01*
X13890329Y-11399960D02*
X13871282Y-11409484D01*
X13871282Y-11409484D02*
X13852234Y-11409484D01*
X13852234Y-11409484D02*
X13833186Y-11399960D01*
X13833186Y-11399960D02*
X13823663Y-11390436D01*
X13823663Y-11390436D02*
X13814139Y-11371388D01*
X13814139Y-11371388D02*
X13804615Y-11333293D01*
X13804615Y-11333293D02*
X13804615Y-11285674D01*
X13804615Y-11285674D02*
X13814139Y-11247579D01*
X13814139Y-11247579D02*
X13823663Y-11228531D01*
X13823663Y-11228531D02*
X13833186Y-11219008D01*
X13833186Y-11219008D02*
X13852234Y-11209484D01*
X14004615Y-11390436D02*
X14014139Y-11399960D01*
X14014139Y-11399960D02*
X14004615Y-11409484D01*
X14004615Y-11409484D02*
X13995091Y-11399960D01*
X13995091Y-11399960D02*
X14004615Y-11390436D01*
X14004615Y-11390436D02*
X14004615Y-11409484D01*
X14137948Y-11209484D02*
X14156996Y-11209484D01*
X14156996Y-11209484D02*
X14176044Y-11219008D01*
X14176044Y-11219008D02*
X14185567Y-11228531D01*
X14185567Y-11228531D02*
X14195091Y-11247579D01*
X14195091Y-11247579D02*
X14204615Y-11285674D01*
X14204615Y-11285674D02*
X14204615Y-11333293D01*
X14204615Y-11333293D02*
X14195091Y-11371388D01*
X14195091Y-11371388D02*
X14185567Y-11390436D01*
X14185567Y-11390436D02*
X14176044Y-11399960D01*
X14176044Y-11399960D02*
X14156996Y-11409484D01*
X14156996Y-11409484D02*
X14137948Y-11409484D01*
X14137948Y-11409484D02*
X14118901Y-11399960D01*
X14118901Y-11399960D02*
X14109377Y-11390436D01*
X14109377Y-11390436D02*
X14099853Y-11371388D01*
X14099853Y-11371388D02*
X14090329Y-11333293D01*
X14090329Y-11333293D02*
X14090329Y-11285674D01*
X14090329Y-11285674D02*
X14099853Y-11247579D01*
X14099853Y-11247579D02*
X14109377Y-11228531D01*
X14109377Y-11228531D02*
X14118901Y-11219008D01*
X14118901Y-11219008D02*
X14137948Y-11209484D01*
X14376044Y-11276150D02*
X14376044Y-11409484D01*
X14328425Y-11199960D02*
X14280806Y-11342817D01*
X14280806Y-11342817D02*
X14404615Y-11342817D01*
X14461758Y-11209484D02*
X14585567Y-11209484D01*
X14585567Y-11209484D02*
X14518901Y-11285674D01*
X14518901Y-11285674D02*
X14547472Y-11285674D01*
X14547472Y-11285674D02*
X14566520Y-11295198D01*
X14566520Y-11295198D02*
X14576044Y-11304722D01*
X14576044Y-11304722D02*
X14585567Y-11323769D01*
X14585567Y-11323769D02*
X14585567Y-11371388D01*
X14585567Y-11371388D02*
X14576044Y-11390436D01*
X14576044Y-11390436D02*
X14566520Y-11399960D01*
X14566520Y-11399960D02*
X14547472Y-11409484D01*
X14547472Y-11409484D02*
X14490329Y-11409484D01*
X14490329Y-11409484D02*
X14471282Y-11399960D01*
X14471282Y-11399960D02*
X14461758Y-11390436D01*
X14652234Y-11209484D02*
X14776044Y-11209484D01*
X14776044Y-11209484D02*
X14709377Y-11285674D01*
X14709377Y-11285674D02*
X14737948Y-11285674D01*
X14737948Y-11285674D02*
X14756996Y-11295198D01*
X14756996Y-11295198D02*
X14766520Y-11304722D01*
X14766520Y-11304722D02*
X14776044Y-11323769D01*
X14776044Y-11323769D02*
X14776044Y-11371388D01*
X14776044Y-11371388D02*
X14766520Y-11390436D01*
X14766520Y-11390436D02*
X14756996Y-11399960D01*
X14756996Y-11399960D02*
X14737948Y-11409484D01*
X14737948Y-11409484D02*
X14680806Y-11409484D01*
X14680806Y-11409484D02*
X14661758Y-11399960D01*
X14661758Y-11399960D02*
X14652234Y-11390436D01*
X14852234Y-11209484D02*
X14852234Y-11247579D01*
X14928425Y-11209484D02*
X14928425Y-11247579D01*
X15223663Y-11485674D02*
X15214139Y-11476150D01*
X15214139Y-11476150D02*
X15195091Y-11447579D01*
X15195091Y-11447579D02*
X15185568Y-11428531D01*
X15185568Y-11428531D02*
X15176044Y-11399960D01*
X15176044Y-11399960D02*
X15166520Y-11352341D01*
X15166520Y-11352341D02*
X15166520Y-11314246D01*
X15166520Y-11314246D02*
X15176044Y-11266627D01*
X15176044Y-11266627D02*
X15185568Y-11238055D01*
X15185568Y-11238055D02*
X15195091Y-11219008D01*
X15195091Y-11219008D02*
X15214139Y-11190436D01*
X15214139Y-11190436D02*
X15223663Y-11180912D01*
X15290329Y-11228531D02*
X15299853Y-11219008D01*
X15299853Y-11219008D02*
X15318901Y-11209484D01*
X15318901Y-11209484D02*
X15366520Y-11209484D01*
X15366520Y-11209484D02*
X15385568Y-11219008D01*
X15385568Y-11219008D02*
X15395091Y-11228531D01*
X15395091Y-11228531D02*
X15404615Y-11247579D01*
X15404615Y-11247579D02*
X15404615Y-11266627D01*
X15404615Y-11266627D02*
X15395091Y-11295198D01*
X15395091Y-11295198D02*
X15280806Y-11409484D01*
X15280806Y-11409484D02*
X15404615Y-11409484D01*
X15642710Y-11409484D02*
X15642710Y-11209484D01*
X15728425Y-11409484D02*
X15728425Y-11304722D01*
X15728425Y-11304722D02*
X15718901Y-11285674D01*
X15718901Y-11285674D02*
X15699853Y-11276150D01*
X15699853Y-11276150D02*
X15671282Y-11276150D01*
X15671282Y-11276150D02*
X15652234Y-11285674D01*
X15652234Y-11285674D02*
X15642710Y-11295198D01*
X15852234Y-11409484D02*
X15833187Y-11399960D01*
X15833187Y-11399960D02*
X15823663Y-11390436D01*
X15823663Y-11390436D02*
X15814139Y-11371388D01*
X15814139Y-11371388D02*
X15814139Y-11314246D01*
X15814139Y-11314246D02*
X15823663Y-11295198D01*
X15823663Y-11295198D02*
X15833187Y-11285674D01*
X15833187Y-11285674D02*
X15852234Y-11276150D01*
X15852234Y-11276150D02*
X15880806Y-11276150D01*
X15880806Y-11276150D02*
X15899853Y-11285674D01*
X15899853Y-11285674D02*
X15909377Y-11295198D01*
X15909377Y-11295198D02*
X15918901Y-11314246D01*
X15918901Y-11314246D02*
X15918901Y-11371388D01*
X15918901Y-11371388D02*
X15909377Y-11390436D01*
X15909377Y-11390436D02*
X15899853Y-11399960D01*
X15899853Y-11399960D02*
X15880806Y-11409484D01*
X15880806Y-11409484D02*
X15852234Y-11409484D01*
X16033187Y-11409484D02*
X16014139Y-11399960D01*
X16014139Y-11399960D02*
X16004615Y-11380912D01*
X16004615Y-11380912D02*
X16004615Y-11209484D01*
X16185568Y-11399960D02*
X16166520Y-11409484D01*
X16166520Y-11409484D02*
X16128425Y-11409484D01*
X16128425Y-11409484D02*
X16109377Y-11399960D01*
X16109377Y-11399960D02*
X16099853Y-11380912D01*
X16099853Y-11380912D02*
X16099853Y-11304722D01*
X16099853Y-11304722D02*
X16109377Y-11285674D01*
X16109377Y-11285674D02*
X16128425Y-11276150D01*
X16128425Y-11276150D02*
X16166520Y-11276150D01*
X16166520Y-11276150D02*
X16185568Y-11285674D01*
X16185568Y-11285674D02*
X16195091Y-11304722D01*
X16195091Y-11304722D02*
X16195091Y-11323769D01*
X16195091Y-11323769D02*
X16099853Y-11342817D01*
X16271282Y-11399960D02*
X16290330Y-11409484D01*
X16290330Y-11409484D02*
X16328425Y-11409484D01*
X16328425Y-11409484D02*
X16347472Y-11399960D01*
X16347472Y-11399960D02*
X16356996Y-11380912D01*
X16356996Y-11380912D02*
X16356996Y-11371388D01*
X16356996Y-11371388D02*
X16347472Y-11352341D01*
X16347472Y-11352341D02*
X16328425Y-11342817D01*
X16328425Y-11342817D02*
X16299853Y-11342817D01*
X16299853Y-11342817D02*
X16280806Y-11333293D01*
X16280806Y-11333293D02*
X16271282Y-11314246D01*
X16271282Y-11314246D02*
X16271282Y-11304722D01*
X16271282Y-11304722D02*
X16280806Y-11285674D01*
X16280806Y-11285674D02*
X16299853Y-11276150D01*
X16299853Y-11276150D02*
X16328425Y-11276150D01*
X16328425Y-11276150D02*
X16347472Y-11285674D01*
X16423663Y-11485674D02*
X16433187Y-11476150D01*
X16433187Y-11476150D02*
X16452234Y-11447579D01*
X16452234Y-11447579D02*
X16461758Y-11428531D01*
X16461758Y-11428531D02*
X16471282Y-11399960D01*
X16471282Y-11399960D02*
X16480806Y-11352341D01*
X16480806Y-11352341D02*
X16480806Y-11314246D01*
X16480806Y-11314246D02*
X16471282Y-11266627D01*
X16471282Y-11266627D02*
X16461758Y-11238055D01*
X16461758Y-11238055D02*
X16452234Y-11219008D01*
X16452234Y-11219008D02*
X16433187Y-11190436D01*
X16433187Y-11190436D02*
X16423663Y-11180912D01*
X16785568Y-11485674D02*
X16776044Y-11476150D01*
X16776044Y-11476150D02*
X16756996Y-11447579D01*
X16756996Y-11447579D02*
X16747472Y-11428531D01*
X16747472Y-11428531D02*
X16737949Y-11399960D01*
X16737949Y-11399960D02*
X16728425Y-11352341D01*
X16728425Y-11352341D02*
X16728425Y-11314246D01*
X16728425Y-11314246D02*
X16737949Y-11266627D01*
X16737949Y-11266627D02*
X16747472Y-11238055D01*
X16747472Y-11238055D02*
X16756996Y-11219008D01*
X16756996Y-11219008D02*
X16776044Y-11190436D01*
X16776044Y-11190436D02*
X16785568Y-11180912D01*
X16861758Y-11276150D02*
X16861758Y-11409484D01*
X16861758Y-11295198D02*
X16871282Y-11285674D01*
X16871282Y-11285674D02*
X16890330Y-11276150D01*
X16890330Y-11276150D02*
X16918901Y-11276150D01*
X16918901Y-11276150D02*
X16937949Y-11285674D01*
X16937949Y-11285674D02*
X16947473Y-11304722D01*
X16947473Y-11304722D02*
X16947473Y-11409484D01*
X17071282Y-11409484D02*
X17052234Y-11399960D01*
X17052234Y-11399960D02*
X17042711Y-11390436D01*
X17042711Y-11390436D02*
X17033187Y-11371388D01*
X17033187Y-11371388D02*
X17033187Y-11314246D01*
X17033187Y-11314246D02*
X17042711Y-11295198D01*
X17042711Y-11295198D02*
X17052234Y-11285674D01*
X17052234Y-11285674D02*
X17071282Y-11276150D01*
X17071282Y-11276150D02*
X17099854Y-11276150D01*
X17099854Y-11276150D02*
X17118901Y-11285674D01*
X17118901Y-11285674D02*
X17128425Y-11295198D01*
X17128425Y-11295198D02*
X17137949Y-11314246D01*
X17137949Y-11314246D02*
X17137949Y-11371388D01*
X17137949Y-11371388D02*
X17128425Y-11390436D01*
X17128425Y-11390436D02*
X17118901Y-11399960D01*
X17118901Y-11399960D02*
X17099854Y-11409484D01*
X17099854Y-11409484D02*
X17071282Y-11409484D01*
X17195092Y-11276150D02*
X17271282Y-11276150D01*
X17223663Y-11209484D02*
X17223663Y-11380912D01*
X17223663Y-11380912D02*
X17233187Y-11399960D01*
X17233187Y-11399960D02*
X17252234Y-11409484D01*
X17252234Y-11409484D02*
X17271282Y-11409484D01*
X17490330Y-11276150D02*
X17490330Y-11476150D01*
X17490330Y-11285674D02*
X17509377Y-11276150D01*
X17509377Y-11276150D02*
X17547473Y-11276150D01*
X17547473Y-11276150D02*
X17566520Y-11285674D01*
X17566520Y-11285674D02*
X17576044Y-11295198D01*
X17576044Y-11295198D02*
X17585568Y-11314246D01*
X17585568Y-11314246D02*
X17585568Y-11371388D01*
X17585568Y-11371388D02*
X17576044Y-11390436D01*
X17576044Y-11390436D02*
X17566520Y-11399960D01*
X17566520Y-11399960D02*
X17547473Y-11409484D01*
X17547473Y-11409484D02*
X17509377Y-11409484D01*
X17509377Y-11409484D02*
X17490330Y-11399960D01*
X17699854Y-11409484D02*
X17680806Y-11399960D01*
X17680806Y-11399960D02*
X17671282Y-11380912D01*
X17671282Y-11380912D02*
X17671282Y-11209484D01*
X17861758Y-11409484D02*
X17861758Y-11304722D01*
X17861758Y-11304722D02*
X17852235Y-11285674D01*
X17852235Y-11285674D02*
X17833187Y-11276150D01*
X17833187Y-11276150D02*
X17795092Y-11276150D01*
X17795092Y-11276150D02*
X17776044Y-11285674D01*
X17861758Y-11399960D02*
X17842711Y-11409484D01*
X17842711Y-11409484D02*
X17795092Y-11409484D01*
X17795092Y-11409484D02*
X17776044Y-11399960D01*
X17776044Y-11399960D02*
X17766520Y-11380912D01*
X17766520Y-11380912D02*
X17766520Y-11361865D01*
X17766520Y-11361865D02*
X17776044Y-11342817D01*
X17776044Y-11342817D02*
X17795092Y-11333293D01*
X17795092Y-11333293D02*
X17842711Y-11333293D01*
X17842711Y-11333293D02*
X17861758Y-11323769D01*
X17928425Y-11276150D02*
X18004615Y-11276150D01*
X17956996Y-11209484D02*
X17956996Y-11380912D01*
X17956996Y-11380912D02*
X17966520Y-11399960D01*
X17966520Y-11399960D02*
X17985568Y-11409484D01*
X17985568Y-11409484D02*
X18004615Y-11409484D01*
X18147473Y-11399960D02*
X18128425Y-11409484D01*
X18128425Y-11409484D02*
X18090330Y-11409484D01*
X18090330Y-11409484D02*
X18071282Y-11399960D01*
X18071282Y-11399960D02*
X18061758Y-11380912D01*
X18061758Y-11380912D02*
X18061758Y-11304722D01*
X18061758Y-11304722D02*
X18071282Y-11285674D01*
X18071282Y-11285674D02*
X18090330Y-11276150D01*
X18090330Y-11276150D02*
X18128425Y-11276150D01*
X18128425Y-11276150D02*
X18147473Y-11285674D01*
X18147473Y-11285674D02*
X18156996Y-11304722D01*
X18156996Y-11304722D02*
X18156996Y-11323769D01*
X18156996Y-11323769D02*
X18061758Y-11342817D01*
X18328425Y-11409484D02*
X18328425Y-11209484D01*
X18328425Y-11399960D02*
X18309377Y-11409484D01*
X18309377Y-11409484D02*
X18271282Y-11409484D01*
X18271282Y-11409484D02*
X18252235Y-11399960D01*
X18252235Y-11399960D02*
X18242711Y-11390436D01*
X18242711Y-11390436D02*
X18233187Y-11371388D01*
X18233187Y-11371388D02*
X18233187Y-11314246D01*
X18233187Y-11314246D02*
X18242711Y-11295198D01*
X18242711Y-11295198D02*
X18252235Y-11285674D01*
X18252235Y-11285674D02*
X18271282Y-11276150D01*
X18271282Y-11276150D02*
X18309377Y-11276150D01*
X18309377Y-11276150D02*
X18328425Y-11285674D01*
X18404616Y-11485674D02*
X18414139Y-11476150D01*
X18414139Y-11476150D02*
X18433187Y-11447579D01*
X18433187Y-11447579D02*
X18442711Y-11428531D01*
X18442711Y-11428531D02*
X18452235Y-11399960D01*
X18452235Y-11399960D02*
X18461758Y-11352341D01*
X18461758Y-11352341D02*
X18461758Y-11314246D01*
X18461758Y-11314246D02*
X18452235Y-11266627D01*
X18452235Y-11266627D02*
X18442711Y-11238055D01*
X18442711Y-11238055D02*
X18433187Y-11219008D01*
X18433187Y-11219008D02*
X18414139Y-11190436D01*
X18414139Y-11190436D02*
X18404616Y-11180912D01*
M02*
