%TF.GenerationSoftware,KiCad,Pcbnew,7.0.10*%
%TF.CreationDate,2024-03-02T18:49:49+09:00*%
%TF.ProjectId,STM32F103x8,53544d33-3246-4313-9033-78382e6b6963,rev?*%
%TF.SameCoordinates,Original*%
%TF.FileFunction,Soldermask,Top*%
%TF.FilePolarity,Negative*%
%FSLAX46Y46*%
G04 Gerber Fmt 4.6, Leading zero omitted, Abs format (unit mm)*
G04 Created by KiCad (PCBNEW 7.0.10) date 2024-03-02 18:49:49*
%MOMM*%
%LPD*%
G01*
G04 APERTURE LIST*
G04 Aperture macros list*
%AMRoundRect*
0 Rectangle with rounded corners*
0 $1 Rounding radius*
0 $2 $3 $4 $5 $6 $7 $8 $9 X,Y pos of 4 corners*
0 Add a 4 corners polygon primitive as box body*
4,1,4,$2,$3,$4,$5,$6,$7,$8,$9,$2,$3,0*
0 Add four circle primitives for the rounded corners*
1,1,$1+$1,$2,$3*
1,1,$1+$1,$4,$5*
1,1,$1+$1,$6,$7*
1,1,$1+$1,$8,$9*
0 Add four rect primitives between the rounded corners*
20,1,$1+$1,$2,$3,$4,$5,0*
20,1,$1+$1,$4,$5,$6,$7,0*
20,1,$1+$1,$6,$7,$8,$9,0*
20,1,$1+$1,$8,$9,$2,$3,0*%
G04 Aperture macros list end*
%ADD10R,1.700000X1.700000*%
%ADD11O,1.700000X1.700000*%
%ADD12C,1.100000*%
%ADD13RoundRect,0.300000X-0.700000X-0.300000X0.700000X-0.300000X0.700000X0.300000X-0.700000X0.300000X0*%
%ADD14O,3.200000X1.300000*%
%ADD15C,1.500000*%
%ADD16O,3.048000X1.850000*%
%ADD17R,1.800000X1.540000*%
%ADD18C,1.600000*%
%ADD19O,1.600000X1.600000*%
%ADD20RoundRect,0.075000X0.662500X0.075000X-0.662500X0.075000X-0.662500X-0.075000X0.662500X-0.075000X0*%
%ADD21RoundRect,0.075000X0.075000X0.662500X-0.075000X0.662500X-0.075000X-0.662500X0.075000X-0.662500X0*%
G04 APERTURE END LIST*
D10*
%TO.C,J3*%
X167005000Y-96520000D03*
%TD*%
%TO.C,J2*%
X127000000Y-66045000D03*
D11*
X127000000Y-68585000D03*
X127000000Y-71125000D03*
X127000000Y-73665000D03*
X127000000Y-76205000D03*
%TD*%
D12*
%TO.C,J4*%
X182155000Y-74585000D03*
X182155000Y-79085000D03*
D13*
X179555000Y-73335000D03*
X179555000Y-75835000D03*
X179555000Y-77835000D03*
X179555000Y-80335000D03*
D14*
X182155000Y-70985000D03*
X182155000Y-82685000D03*
%TD*%
D15*
%TO.C,Y1*%
X170434000Y-76254000D03*
X170434000Y-71374000D03*
%TD*%
D16*
%TO.C,SW1*%
X132715000Y-86915000D03*
X120215000Y-86915000D03*
X132715000Y-81915000D03*
X120215000Y-81915000D03*
%TD*%
D17*
%TO.C,Y2*%
X161668000Y-85528000D03*
X161668000Y-88208000D03*
X164468000Y-88208000D03*
X164468000Y-85528000D03*
%TD*%
D18*
%TO.C,C5*%
X157794000Y-70358000D03*
D19*
X165294000Y-70358000D03*
%TD*%
D20*
%TO.C,U1*%
X149860000Y-76620000D03*
X149860000Y-76120000D03*
X149860000Y-75620000D03*
X149860000Y-75120000D03*
X149860000Y-74620000D03*
X149860000Y-74120000D03*
X149860000Y-73620000D03*
X149860000Y-73120000D03*
X149860000Y-72620000D03*
X149860000Y-72120000D03*
X149860000Y-71620000D03*
X149860000Y-71120000D03*
D21*
X148447500Y-69707500D03*
X147947500Y-69707500D03*
X147447500Y-69707500D03*
X146947500Y-69707500D03*
X146447500Y-69707500D03*
X145947500Y-69707500D03*
X145447500Y-69707500D03*
X144947500Y-69707500D03*
X144447500Y-69707500D03*
X143947500Y-69707500D03*
X143447500Y-69707500D03*
X142947500Y-69707500D03*
D20*
X141535000Y-71120000D03*
X141535000Y-71620000D03*
X141535000Y-72120000D03*
X141535000Y-72620000D03*
X141535000Y-73120000D03*
X141535000Y-73620000D03*
X141535000Y-74120000D03*
X141535000Y-74620000D03*
X141535000Y-75120000D03*
X141535000Y-75620000D03*
X141535000Y-76120000D03*
X141535000Y-76620000D03*
D21*
X142947500Y-78032500D03*
X143447500Y-78032500D03*
X143947500Y-78032500D03*
X144447500Y-78032500D03*
X144947500Y-78032500D03*
X145447500Y-78032500D03*
X145947500Y-78032500D03*
X146447500Y-78032500D03*
X146947500Y-78032500D03*
X147447500Y-78032500D03*
X147947500Y-78032500D03*
X148447500Y-78032500D03*
%TD*%
D10*
%TO.C,J6*%
X144145000Y-96520000D03*
D11*
X146685000Y-96520000D03*
X149225000Y-96520000D03*
X151765000Y-96520000D03*
X154305000Y-96520000D03*
X156845000Y-96520000D03*
X159385000Y-96520000D03*
X161925000Y-96520000D03*
%TD*%
D10*
%TO.C,J5*%
X132578000Y-96012000D03*
D11*
X130038000Y-96012000D03*
X127498000Y-96012000D03*
X124958000Y-96012000D03*
%TD*%
D10*
%TO.C,J1*%
X172720000Y-55880000D03*
D11*
X170180000Y-55880000D03*
X167640000Y-55880000D03*
X165100000Y-55880000D03*
X162560000Y-55880000D03*
X160020000Y-55880000D03*
X157480000Y-55880000D03*
X154940000Y-55880000D03*
X152400000Y-55880000D03*
X149860000Y-55880000D03*
X147320000Y-55880000D03*
X144780000Y-55880000D03*
X142240000Y-55880000D03*
X139700000Y-55880000D03*
X137160000Y-55880000D03*
X134620000Y-55880000D03*
X132080000Y-55880000D03*
%TD*%
D18*
%TO.C,C3*%
X165294000Y-74930000D03*
D19*
X157794000Y-74930000D03*
%TD*%
D18*
%TO.C,C2*%
X170628000Y-82550000D03*
D19*
X163128000Y-82550000D03*
%TD*%
D18*
%TO.C,C4*%
X165294000Y-78232000D03*
D19*
X157794000Y-78232000D03*
%TD*%
D18*
%TO.C,C1*%
X172406000Y-91440000D03*
D19*
X164906000Y-91440000D03*
%TD*%
M02*
