M48
; DRILL file {KiCad 7.0.10} date Sat Mar  2 18:50:18 2024
; FORMAT={-:-/ absolute / inch / decimal}
; #@! TF.CreationDate,2024-03-02T18:50:18+09:00
; #@! TF.GenerationSoftware,Kicad,Pcbnew,7.0.10
; #@! TF.FileFunction,Plated,1,2,PTH
FMAT,2
INCH
; #@! TA.AperFunction,Plated,PTH,ViaDrill
T1C0.0118
; #@! TA.AperFunction,Plated,PTH,ComponentDrill
T2C0.0276
; #@! TA.AperFunction,Plated,PTH,ComponentDrill
T3C0.0315
; #@! TA.AperFunction,Plated,PTH,ComponentDrill
T4C0.0394
; #@! TA.AperFunction,Plated,PTH,ComponentDrill
T5C0.0512
%
G90
G05
T1
X4.8Y-3.16
X5.19Y-3.36
X5.4Y-3.02
X5.58Y-3.24
X5.64Y-2.62
X5.84Y-2.9
X5.88Y-3.16
X6.04Y-2.84
X6.04Y-3.08
X6.12Y-2.84
X6.16Y-3.16
X6.88Y-2.7
X6.9828Y-3.1628
T3
X6.2124Y-2.77
X6.2124Y-2.95
X6.2124Y-3.08
X6.4224Y-3.25
X6.4924Y-3.6
X6.5076Y-2.77
X6.5076Y-2.95
X6.5076Y-3.08
X6.71Y-2.81
X6.71Y-3.0021
X6.7176Y-3.25
X6.7876Y-3.6
T4
X4.9196Y-3.78
X5.0Y-2.6002
X5.0Y-2.7002
X5.0Y-2.8002
X5.0Y-2.9002
X5.0Y-3.0002
X5.0196Y-3.78
X5.1196Y-3.78
X5.2Y-2.2
X5.2196Y-3.78
X5.3Y-2.2
X5.4Y-2.2
X5.5Y-2.2
X5.6Y-2.2
X5.675Y-3.8
X5.7Y-2.2
X5.775Y-3.8
X5.8Y-2.2
X5.875Y-3.8
X5.9Y-2.2
X5.975Y-3.8
X6.0Y-2.2
X6.075Y-3.8
X6.1Y-2.2
X6.175Y-3.8
X6.2Y-2.2
X6.275Y-3.8
X6.3Y-2.2
X6.375Y-3.8
X6.4Y-2.2
X6.5Y-2.2
X6.575Y-3.8
X6.6Y-2.2
X6.7Y-2.2
X6.8Y-2.2
T5
X4.7329Y-3.225
X4.7329Y-3.4219
X5.225Y-3.225
X5.225Y-3.4219
T2
G00X7.136Y-2.7947
M15
G01X7.2069Y-2.7947
M16
G05
G00X7.136Y-3.2553
M15
G01X7.2069Y-3.2553
M16
G05
M30
