%TF.GenerationSoftware,KiCad,Pcbnew,7.0.10*%
%TF.CreationDate,2024-03-02T18:49:49+09:00*%
%TF.ProjectId,STM32F103x8,53544d33-3246-4313-9033-78382e6b6963,rev?*%
%TF.SameCoordinates,Original*%
%TF.FileFunction,Copper,L1,Top*%
%TF.FilePolarity,Positive*%
%FSLAX46Y46*%
G04 Gerber Fmt 4.6, Leading zero omitted, Abs format (unit mm)*
G04 Created by KiCad (PCBNEW 7.0.10) date 2024-03-02 18:49:49*
%MOMM*%
%LPD*%
G01*
G04 APERTURE LIST*
G04 Aperture macros list*
%AMRoundRect*
0 Rectangle with rounded corners*
0 $1 Rounding radius*
0 $2 $3 $4 $5 $6 $7 $8 $9 X,Y pos of 4 corners*
0 Add a 4 corners polygon primitive as box body*
4,1,4,$2,$3,$4,$5,$6,$7,$8,$9,$2,$3,0*
0 Add four circle primitives for the rounded corners*
1,1,$1+$1,$2,$3*
1,1,$1+$1,$4,$5*
1,1,$1+$1,$6,$7*
1,1,$1+$1,$8,$9*
0 Add four rect primitives between the rounded corners*
20,1,$1+$1,$2,$3,$4,$5,0*
20,1,$1+$1,$4,$5,$6,$7,0*
20,1,$1+$1,$6,$7,$8,$9,0*
20,1,$1+$1,$8,$9,$2,$3,0*%
G04 Aperture macros list end*
%TA.AperFunction,ComponentPad*%
%ADD10R,1.700000X1.700000*%
%TD*%
%TA.AperFunction,ComponentPad*%
%ADD11O,1.700000X1.700000*%
%TD*%
%TA.AperFunction,SMDPad,CuDef*%
%ADD12RoundRect,0.300000X-0.700000X-0.300000X0.700000X-0.300000X0.700000X0.300000X-0.700000X0.300000X0*%
%TD*%
%TA.AperFunction,ComponentPad*%
%ADD13O,3.200000X1.300000*%
%TD*%
%TA.AperFunction,ComponentPad*%
%ADD14C,1.500000*%
%TD*%
%TA.AperFunction,ComponentPad*%
%ADD15O,3.048000X1.850000*%
%TD*%
%TA.AperFunction,SMDPad,CuDef*%
%ADD16R,1.800000X1.540000*%
%TD*%
%TA.AperFunction,ComponentPad*%
%ADD17C,1.600000*%
%TD*%
%TA.AperFunction,ComponentPad*%
%ADD18O,1.600000X1.600000*%
%TD*%
%TA.AperFunction,SMDPad,CuDef*%
%ADD19RoundRect,0.075000X0.662500X0.075000X-0.662500X0.075000X-0.662500X-0.075000X0.662500X-0.075000X0*%
%TD*%
%TA.AperFunction,SMDPad,CuDef*%
%ADD20RoundRect,0.075000X0.075000X0.662500X-0.075000X0.662500X-0.075000X-0.662500X0.075000X-0.662500X0*%
%TD*%
%TA.AperFunction,ViaPad*%
%ADD21C,0.600000*%
%TD*%
%TA.AperFunction,ViaPad*%
%ADD22C,1.000000*%
%TD*%
%TA.AperFunction,Conductor*%
%ADD23C,0.200000*%
%TD*%
%TA.AperFunction,Conductor*%
%ADD24C,1.000000*%
%TD*%
G04 APERTURE END LIST*
D10*
%TO.P,J3,1,Pin_1*%
%TO.N,Net-(J3-Pin_1)*%
X167005000Y-96520000D03*
%TD*%
%TO.P,J2,1,Pin_1*%
%TO.N,Net-(J2-Pin_1)*%
X127000000Y-66045000D03*
D11*
%TO.P,J2,2,Pin_2*%
%TO.N,Net-(J2-Pin_2)*%
X127000000Y-68585000D03*
%TO.P,J2,3,Pin_3*%
%TO.N,Net-(J2-Pin_3)*%
X127000000Y-71125000D03*
%TO.P,J2,4,Pin_4*%
%TO.N,Net-(J2-Pin_4)*%
X127000000Y-73665000D03*
%TO.P,J2,5,Pin_5*%
%TO.N,Net-(J2-Pin_5)*%
X127000000Y-76205000D03*
%TD*%
D12*
%TO.P,J4,1,VBUS*%
%TO.N,Net-(J4-VBUS)*%
X179555000Y-73335000D03*
%TO.P,J4,2,D-*%
%TO.N,unconnected-(J4-D--Pad2)*%
X179555000Y-75835000D03*
%TO.P,J4,3,D+*%
%TO.N,unconnected-(J4-D+-Pad3)*%
X179555000Y-77835000D03*
%TO.P,J4,4,GND*%
%TO.N,GND*%
X179555000Y-80335000D03*
D13*
%TO.P,J4,5,Shield*%
%TO.N,unconnected-(J4-Shield-Pad5)*%
X182155000Y-70985000D03*
X182155000Y-82685000D03*
%TD*%
D14*
%TO.P,Y1,1,1*%
%TO.N,Net-(U1-PD0-OSC_IN)*%
X170434000Y-76254000D03*
%TO.P,Y1,2,2*%
%TO.N,Net-(U1-PD1-OSC_OUT)*%
X170434000Y-71374000D03*
%TD*%
D15*
%TO.P,SW1,1,1*%
%TO.N,Net-(U1-NRST)*%
X132715000Y-86915000D03*
X120215000Y-86915000D03*
%TO.P,SW1,2,2*%
%TO.N,GND*%
X132715000Y-81915000D03*
X120215000Y-81915000D03*
%TD*%
D16*
%TO.P,Y2,1,1*%
%TO.N,Net-(U1-PC14-OSC32_IN)*%
X161668000Y-85528000D03*
%TO.P,Y2,2,2*%
%TO.N,Net-(U1-PC15-OSC32_OUT)*%
X161668000Y-88208000D03*
%TO.P,Y2,3*%
%TO.N,N/C*%
X164468000Y-88208000D03*
%TO.P,Y2,4*%
X164468000Y-85528000D03*
%TD*%
D17*
%TO.P,C5,1*%
%TO.N,Net-(U1-NRST)*%
X157794000Y-70358000D03*
D18*
%TO.P,C5,2*%
%TO.N,GND*%
X165294000Y-70358000D03*
%TD*%
D19*
%TO.P,U1,1,VBAT*%
%TO.N,+3V3*%
X149860000Y-76620000D03*
%TO.P,U1,2,PC13-TAMPER-RTC*%
%TO.N,Net-(J3-Pin_1)*%
X149860000Y-76120000D03*
%TO.P,U1,3,PC14-OSC32_IN*%
%TO.N,Net-(U1-PC14-OSC32_IN)*%
X149860000Y-75620000D03*
%TO.P,U1,4,PC15-OSC32_OUT*%
%TO.N,Net-(U1-PC15-OSC32_OUT)*%
X149860000Y-75120000D03*
%TO.P,U1,5,PD0-OSC_IN*%
%TO.N,Net-(U1-PD0-OSC_IN)*%
X149860000Y-74620000D03*
%TO.P,U1,6,PD1-OSC_OUT*%
%TO.N,Net-(U1-PD1-OSC_OUT)*%
X149860000Y-74120000D03*
%TO.P,U1,7,NRST*%
%TO.N,Net-(U1-NRST)*%
X149860000Y-73620000D03*
%TO.P,U1,8,VSSA*%
%TO.N,GND*%
X149860000Y-73120000D03*
%TO.P,U1,9,VDDA*%
%TO.N,+3V3*%
X149860000Y-72620000D03*
%TO.P,U1,10,PA0-WKUP*%
%TO.N,Net-(J1-Pin_1)*%
X149860000Y-72120000D03*
%TO.P,U1,11,PA1*%
%TO.N,Net-(J1-Pin_2)*%
X149860000Y-71620000D03*
%TO.P,U1,12,PA2*%
%TO.N,Net-(J1-Pin_3)*%
X149860000Y-71120000D03*
D20*
%TO.P,U1,13,PA3*%
%TO.N,Net-(J1-Pin_4)*%
X148447500Y-69707500D03*
%TO.P,U1,14,PA4*%
%TO.N,Net-(J1-Pin_5)*%
X147947500Y-69707500D03*
%TO.P,U1,15,PA5*%
%TO.N,Net-(J1-Pin_6)*%
X147447500Y-69707500D03*
%TO.P,U1,16,PA6*%
%TO.N,Net-(J1-Pin_7)*%
X146947500Y-69707500D03*
%TO.P,U1,17,PA7*%
%TO.N,Net-(J1-Pin_8)*%
X146447500Y-69707500D03*
%TO.P,U1,18,PB0*%
%TO.N,Net-(J1-Pin_9)*%
X145947500Y-69707500D03*
%TO.P,U1,19,PB1*%
%TO.N,Net-(J1-Pin_10)*%
X145447500Y-69707500D03*
%TO.P,U1,20,PB2*%
%TO.N,Net-(J1-Pin_11)*%
X144947500Y-69707500D03*
%TO.P,U1,21,PB10*%
%TO.N,Net-(J1-Pin_12)*%
X144447500Y-69707500D03*
%TO.P,U1,22,PB11*%
%TO.N,Net-(J1-Pin_13)*%
X143947500Y-69707500D03*
%TO.P,U1,23,VSS*%
%TO.N,GND*%
X143447500Y-69707500D03*
%TO.P,U1,24,VDD*%
%TO.N,+3V3*%
X142947500Y-69707500D03*
D19*
%TO.P,U1,25,PB12*%
%TO.N,Net-(J1-Pin_14)*%
X141535000Y-71120000D03*
%TO.P,U1,26,PB13*%
%TO.N,Net-(J1-Pin_15)*%
X141535000Y-71620000D03*
%TO.P,U1,27,PB14*%
%TO.N,Net-(J1-Pin_16)*%
X141535000Y-72120000D03*
%TO.P,U1,28,PB15*%
%TO.N,Net-(J1-Pin_17)*%
X141535000Y-72620000D03*
%TO.P,U1,29,PA8*%
%TO.N,Net-(J2-Pin_1)*%
X141535000Y-73120000D03*
%TO.P,U1,30,PA9*%
%TO.N,Net-(J2-Pin_2)*%
X141535000Y-73620000D03*
%TO.P,U1,31,PA10*%
%TO.N,Net-(J2-Pin_3)*%
X141535000Y-74120000D03*
%TO.P,U1,32,PA11*%
%TO.N,Net-(J2-Pin_4)*%
X141535000Y-74620000D03*
%TO.P,U1,33,PA12*%
%TO.N,Net-(J2-Pin_5)*%
X141535000Y-75120000D03*
%TO.P,U1,34,PA13*%
%TO.N,Net-(J5-Pin_2)*%
X141535000Y-75620000D03*
%TO.P,U1,35,VSS*%
%TO.N,GND*%
X141535000Y-76120000D03*
%TO.P,U1,36,VDD*%
%TO.N,+3V3*%
X141535000Y-76620000D03*
D20*
%TO.P,U1,37,PA14*%
%TO.N,Net-(J5-Pin_3)*%
X142947500Y-78032500D03*
%TO.P,U1,38,PA15*%
%TO.N,Net-(J6-Pin_1)*%
X143447500Y-78032500D03*
%TO.P,U1,39,PB3*%
%TO.N,Net-(J6-Pin_2)*%
X143947500Y-78032500D03*
%TO.P,U1,40,PB4*%
%TO.N,Net-(J6-Pin_3)*%
X144447500Y-78032500D03*
%TO.P,U1,41,PB5*%
%TO.N,Net-(J6-Pin_4)*%
X144947500Y-78032500D03*
%TO.P,U1,42,PB6*%
%TO.N,Net-(J6-Pin_5)*%
X145447500Y-78032500D03*
%TO.P,U1,43,PB7*%
%TO.N,Net-(J6-Pin_6)*%
X145947500Y-78032500D03*
%TO.P,U1,44,BOOT0*%
%TO.N,unconnected-(U1-BOOT0-Pad44)*%
X146447500Y-78032500D03*
%TO.P,U1,45,PB8*%
%TO.N,Net-(J6-Pin_7)*%
X146947500Y-78032500D03*
%TO.P,U1,46,PB9*%
%TO.N,Net-(J6-Pin_8)*%
X147447500Y-78032500D03*
%TO.P,U1,47,VSS*%
%TO.N,GND*%
X147947500Y-78032500D03*
%TO.P,U1,48,VDD*%
%TO.N,+3V3*%
X148447500Y-78032500D03*
%TD*%
D10*
%TO.P,J6,1,Pin_1*%
%TO.N,Net-(J6-Pin_1)*%
X144145000Y-96520000D03*
D11*
%TO.P,J6,2,Pin_2*%
%TO.N,Net-(J6-Pin_2)*%
X146685000Y-96520000D03*
%TO.P,J6,3,Pin_3*%
%TO.N,Net-(J6-Pin_3)*%
X149225000Y-96520000D03*
%TO.P,J6,4,Pin_4*%
%TO.N,Net-(J6-Pin_4)*%
X151765000Y-96520000D03*
%TO.P,J6,5,Pin_5*%
%TO.N,Net-(J6-Pin_5)*%
X154305000Y-96520000D03*
%TO.P,J6,6,Pin_6*%
%TO.N,Net-(J6-Pin_6)*%
X156845000Y-96520000D03*
%TO.P,J6,7,Pin_7*%
%TO.N,Net-(J6-Pin_7)*%
X159385000Y-96520000D03*
%TO.P,J6,8,Pin_8*%
%TO.N,Net-(J6-Pin_8)*%
X161925000Y-96520000D03*
%TD*%
D10*
%TO.P,J5,1,Pin_1*%
%TO.N,GND*%
X132578000Y-96012000D03*
D11*
%TO.P,J5,2,Pin_2*%
%TO.N,Net-(J5-Pin_2)*%
X130038000Y-96012000D03*
%TO.P,J5,3,Pin_3*%
%TO.N,Net-(J5-Pin_3)*%
X127498000Y-96012000D03*
%TO.P,J5,4,Pin_4*%
%TO.N,+3V3*%
X124958000Y-96012000D03*
%TD*%
D10*
%TO.P,J1,1,Pin_1*%
%TO.N,Net-(J1-Pin_1)*%
X172720000Y-55880000D03*
D11*
%TO.P,J1,2,Pin_2*%
%TO.N,Net-(J1-Pin_2)*%
X170180000Y-55880000D03*
%TO.P,J1,3,Pin_3*%
%TO.N,Net-(J1-Pin_3)*%
X167640000Y-55880000D03*
%TO.P,J1,4,Pin_4*%
%TO.N,Net-(J1-Pin_4)*%
X165100000Y-55880000D03*
%TO.P,J1,5,Pin_5*%
%TO.N,Net-(J1-Pin_5)*%
X162560000Y-55880000D03*
%TO.P,J1,6,Pin_6*%
%TO.N,Net-(J1-Pin_6)*%
X160020000Y-55880000D03*
%TO.P,J1,7,Pin_7*%
%TO.N,Net-(J1-Pin_7)*%
X157480000Y-55880000D03*
%TO.P,J1,8,Pin_8*%
%TO.N,Net-(J1-Pin_8)*%
X154940000Y-55880000D03*
%TO.P,J1,9,Pin_9*%
%TO.N,Net-(J1-Pin_9)*%
X152400000Y-55880000D03*
%TO.P,J1,10,Pin_10*%
%TO.N,Net-(J1-Pin_10)*%
X149860000Y-55880000D03*
%TO.P,J1,11,Pin_11*%
%TO.N,Net-(J1-Pin_11)*%
X147320000Y-55880000D03*
%TO.P,J1,12,Pin_12*%
%TO.N,Net-(J1-Pin_12)*%
X144780000Y-55880000D03*
%TO.P,J1,13,Pin_13*%
%TO.N,Net-(J1-Pin_13)*%
X142240000Y-55880000D03*
%TO.P,J1,14,Pin_14*%
%TO.N,Net-(J1-Pin_14)*%
X139700000Y-55880000D03*
%TO.P,J1,15,Pin_15*%
%TO.N,Net-(J1-Pin_15)*%
X137160000Y-55880000D03*
%TO.P,J1,16,Pin_16*%
%TO.N,Net-(J1-Pin_16)*%
X134620000Y-55880000D03*
%TO.P,J1,17,Pin_17*%
%TO.N,Net-(J1-Pin_17)*%
X132080000Y-55880000D03*
%TD*%
D17*
%TO.P,C3,1*%
%TO.N,GND*%
X165294000Y-74930000D03*
D18*
%TO.P,C3,2*%
%TO.N,Net-(U1-PD1-OSC_OUT)*%
X157794000Y-74930000D03*
%TD*%
D17*
%TO.P,C2,1*%
%TO.N,GND*%
X170628000Y-82550000D03*
D18*
%TO.P,C2,2*%
%TO.N,Net-(U1-PC14-OSC32_IN)*%
X163128000Y-82550000D03*
%TD*%
D17*
%TO.P,C4,1*%
%TO.N,GND*%
X165294000Y-78232000D03*
D18*
%TO.P,C4,2*%
%TO.N,Net-(U1-PD0-OSC_IN)*%
X157794000Y-78232000D03*
%TD*%
D17*
%TO.P,C1,1*%
%TO.N,GND*%
X172406000Y-91440000D03*
D18*
%TO.P,C1,2*%
%TO.N,Net-(U1-PC15-OSC32_OUT)*%
X164906000Y-91440000D03*
%TD*%
D21*
%TO.N,+3V3*%
X131826000Y-85344000D03*
X153416000Y-72136000D03*
%TO.N,Net-(J3-Pin_1)*%
X153416000Y-78232000D03*
%TO.N,Net-(U1-PC14-OSC32_IN)*%
X156464000Y-80264000D03*
%TO.N,Net-(U1-NRST)*%
X148336000Y-73660000D03*
%TO.N,GND*%
X121920000Y-80264000D03*
X149352000Y-80264000D03*
D22*
X177363000Y-80335000D03*
D21*
X143256000Y-66548000D03*
X137160000Y-76708000D03*
X155448000Y-72136000D03*
%TO.N,Net-(J4-VBUS)*%
X174752000Y-68580000D03*
%TO.N,Net-(J5-Pin_3)*%
X141732000Y-82296000D03*
%TD*%
D23*
%TO.N,+3V3*%
X144502000Y-72620000D02*
X142947500Y-71065500D01*
X149860000Y-72620000D02*
X146558000Y-72620000D01*
X131826000Y-85344000D02*
X131953000Y-85217000D01*
X153416000Y-72136000D02*
X152932000Y-72620000D01*
X144502000Y-74422910D02*
X142304910Y-76620000D01*
X140550000Y-76620000D02*
X131826000Y-85344000D01*
X142304910Y-76620000D02*
X141535000Y-76620000D01*
X146558000Y-74676000D02*
X148447500Y-76565500D01*
X141535000Y-76620000D02*
X140550000Y-76620000D01*
X144502000Y-72620000D02*
X144502000Y-74422910D01*
X146558000Y-72620000D02*
X146558000Y-74676000D01*
X148447500Y-76565500D02*
X148447500Y-78032500D01*
X152932000Y-72620000D02*
X149860000Y-72620000D01*
X146558000Y-72620000D02*
X144502000Y-72620000D01*
X142947500Y-71065500D02*
X142947500Y-69707500D01*
X148447500Y-76565500D02*
X148502000Y-76620000D01*
X148502000Y-76620000D02*
X149860000Y-76620000D01*
%TO.N,Net-(J3-Pin_1)*%
X149860000Y-76120000D02*
X151304000Y-76120000D01*
X151304000Y-76120000D02*
X152400000Y-77216000D01*
X152400000Y-77216000D02*
X153416000Y-78232000D01*
%TO.N,Net-(U1-PC14-OSC32_IN)*%
X149860000Y-75620000D02*
X151820000Y-75620000D01*
X161668000Y-85528000D02*
X161668000Y-84010000D01*
X161668000Y-85528000D02*
X161668000Y-85214000D01*
X161668000Y-84010000D02*
X163128000Y-82550000D01*
X161668000Y-85214000D02*
X161544000Y-85090000D01*
X151820000Y-75620000D02*
X156464000Y-80264000D01*
%TO.N,Net-(U1-PC15-OSC32_OUT)*%
X161668000Y-88208000D02*
X161674000Y-88208000D01*
X152336000Y-75120000D02*
X158496000Y-81280000D01*
X158496000Y-85036000D02*
X161668000Y-88208000D01*
X161674000Y-88208000D02*
X164906000Y-91440000D01*
X158496000Y-81280000D02*
X158496000Y-85036000D01*
X149860000Y-75120000D02*
X152336000Y-75120000D01*
%TO.N,Net-(U1-PD0-OSC_IN)*%
X159772000Y-76254000D02*
X170434000Y-76254000D01*
X149860000Y-74620000D02*
X154182000Y-74620000D01*
X154182000Y-74620000D02*
X157794000Y-78232000D01*
X157794000Y-78232000D02*
X159772000Y-76254000D01*
%TO.N,Net-(U1-PD1-OSC_OUT)*%
X157794000Y-74930000D02*
X162277635Y-74930000D01*
X155455010Y-74120000D02*
X156265010Y-74930000D01*
X162277635Y-74930000D02*
X165833635Y-71374000D01*
X149860000Y-74120000D02*
X155455010Y-74120000D01*
X165833635Y-71374000D02*
X170434000Y-71374000D01*
X156265010Y-74930000D02*
X157794000Y-74930000D01*
%TO.N,Net-(U1-NRST)*%
X149820000Y-73660000D02*
X149860000Y-73620000D01*
X133260000Y-87590000D02*
X133310000Y-87590000D01*
X148336000Y-73660000D02*
X149820000Y-73660000D01*
X157794000Y-71489370D02*
X157794000Y-70358000D01*
X133310000Y-87590000D02*
X133350000Y-87630000D01*
X149860000Y-73620000D02*
X155663370Y-73620000D01*
X155663370Y-73620000D02*
X157794000Y-71489370D01*
%TO.N,GND*%
X143447500Y-69707500D02*
X143447500Y-66739500D01*
X137668000Y-76200000D02*
X137160000Y-76708000D01*
X154464000Y-73120000D02*
X155448000Y-72136000D01*
X132715000Y-81915000D02*
X131445000Y-81915000D01*
D24*
X179555000Y-80335000D02*
X177363000Y-80335000D01*
D23*
X141535000Y-76120000D02*
X137748000Y-76120000D01*
X147947500Y-78859500D02*
X149352000Y-80264000D01*
X147947500Y-78032500D02*
X147947500Y-78859500D01*
X137748000Y-76120000D02*
X137668000Y-76200000D01*
X143447500Y-66739500D02*
X143256000Y-66548000D01*
X120215000Y-81915000D02*
X121866000Y-80264000D01*
X149860000Y-73120000D02*
X154464000Y-73120000D01*
X121866000Y-80264000D02*
X121920000Y-80264000D01*
%TO.N,Net-(J1-Pin_1)*%
X154940000Y-69215000D02*
X154940000Y-67310000D01*
X163830000Y-63500000D02*
X164465000Y-62865000D01*
X152035000Y-72120000D02*
X154940000Y-69215000D01*
X149860000Y-72120000D02*
X152035000Y-72120000D01*
X165735000Y-62865000D02*
X172720000Y-55880000D01*
X158750000Y-63500000D02*
X163830000Y-63500000D01*
X154940000Y-67310000D02*
X158750000Y-63500000D01*
X164465000Y-62865000D02*
X165735000Y-62865000D01*
%TO.N,Net-(J1-Pin_2)*%
X153670000Y-67310000D02*
X158115000Y-62865000D01*
X158115000Y-62865000D02*
X163195000Y-62865000D01*
X163195000Y-62865000D02*
X170180000Y-55880000D01*
X149860000Y-71620000D02*
X151265000Y-71620000D01*
X151265000Y-71620000D02*
X153670000Y-69215000D01*
X153670000Y-69215000D02*
X153670000Y-67310000D01*
%TO.N,Net-(J1-Pin_3)*%
X149860000Y-71120000D02*
X150495000Y-71120000D01*
X150495000Y-71120000D02*
X152400000Y-69215000D01*
X161925000Y-61595000D02*
X167640000Y-55880000D01*
X158115000Y-61595000D02*
X161925000Y-61595000D01*
X152400000Y-67310000D02*
X158115000Y-61595000D01*
X152400000Y-69215000D02*
X152400000Y-67310000D01*
%TO.N,Net-(J1-Pin_4)*%
X157830000Y-60325000D02*
X160655000Y-60325000D01*
X160655000Y-60325000D02*
X165100000Y-55880000D01*
X148447500Y-69707500D02*
X157830000Y-60325000D01*
%TO.N,Net-(J1-Pin_5)*%
X147947500Y-69707500D02*
X147947500Y-68937590D01*
X158750000Y-59690000D02*
X162560000Y-55880000D01*
X147947500Y-68937590D02*
X157195090Y-59690000D01*
X157195090Y-59690000D02*
X158750000Y-59690000D01*
%TO.N,Net-(J1-Pin_6)*%
X147447500Y-68452500D02*
X160020000Y-55880000D01*
X147447500Y-69707500D02*
X147447500Y-68452500D01*
%TO.N,Net-(J1-Pin_7)*%
X146947500Y-69707500D02*
X146947500Y-67682500D01*
X146947500Y-67682500D02*
X157480000Y-57150000D01*
X157480000Y-57150000D02*
X157480000Y-55880000D01*
%TO.N,Net-(J1-Pin_8)*%
X146447500Y-65642500D02*
X154940000Y-57150000D01*
X154940000Y-57150000D02*
X154940000Y-55880000D01*
X146447500Y-69707500D02*
X146447500Y-65642500D01*
%TO.N,Net-(J2-Pin_5)*%
X141535000Y-75120000D02*
X133160000Y-75120000D01*
X133160000Y-75120000D02*
X132080000Y-76200000D01*
X132080000Y-76200000D02*
X127000000Y-76200000D01*
%TO.N,Net-(J2-Pin_4)*%
X141535000Y-74620000D02*
X133040000Y-74620000D01*
X133040000Y-74620000D02*
X132080000Y-73660000D01*
X132080000Y-73660000D02*
X127000000Y-73660000D01*
%TO.N,Net-(J2-Pin_3)*%
X133810000Y-74120000D02*
X130810000Y-71120000D01*
X130810000Y-71120000D02*
X127000000Y-71120000D01*
X141535000Y-74120000D02*
X133810000Y-74120000D01*
%TO.N,Net-(J2-Pin_2)*%
X129540000Y-68580000D02*
X127000000Y-68580000D01*
X141535000Y-73620000D02*
X134580000Y-73620000D01*
X134580000Y-73620000D02*
X129540000Y-68580000D01*
%TO.N,Net-(J2-Pin_1)*%
X141535000Y-73120000D02*
X135350000Y-73120000D01*
X128270000Y-66040000D02*
X127000000Y-66040000D01*
X135350000Y-73120000D02*
X128270000Y-66040000D01*
%TO.N,Net-(J1-Pin_9)*%
X152400000Y-57150000D02*
X152400000Y-55880000D01*
X145947500Y-69707500D02*
X145947500Y-63602500D01*
X145947500Y-63602500D02*
X152400000Y-57150000D01*
%TO.N,Net-(J1-Pin_10)*%
X145447500Y-63532500D02*
X145415000Y-63500000D01*
X145415000Y-63500000D02*
X149860000Y-59055000D01*
X149860000Y-59055000D02*
X149860000Y-55880000D01*
X145447500Y-69707500D02*
X145447500Y-63532500D01*
%TO.N,Net-(J1-Pin_11)*%
X144947500Y-63332500D02*
X147320000Y-60960000D01*
X147320000Y-60960000D02*
X147320000Y-55880000D01*
X144947500Y-69707500D02*
X144947500Y-63332500D01*
%TO.N,Net-(J1-Pin_12)*%
X144447500Y-69707500D02*
X144447500Y-63197500D01*
X144780000Y-62865000D02*
X144780000Y-55880000D01*
X144447500Y-63197500D02*
X144780000Y-62865000D01*
D24*
%TO.N,Net-(J4-VBUS)*%
X176967000Y-73335000D02*
X174800000Y-71168000D01*
D23*
X179507000Y-73335000D02*
X179324000Y-73152000D01*
X174800000Y-68580000D02*
X174752000Y-68580000D01*
X179555000Y-73335000D02*
X179507000Y-73335000D01*
D24*
X174800000Y-71168000D02*
X174800000Y-68580000D01*
D23*
X179555000Y-72875000D02*
X179555000Y-73335000D01*
D24*
X179555000Y-73335000D02*
X176967000Y-73335000D01*
D23*
%TO.N,Net-(J6-Pin_1)*%
X144145000Y-83820000D02*
X144145000Y-96520000D01*
X143447500Y-78032500D02*
X143447500Y-83122500D01*
X143447500Y-83122500D02*
X144145000Y-83820000D01*
%TO.N,Net-(J5-Pin_2)*%
X127508000Y-84790588D02*
X127508000Y-96012000D01*
X141535000Y-75620000D02*
X136678588Y-75620000D01*
X136678588Y-75620000D02*
X127508000Y-84790588D01*
%TO.N,Net-(J5-Pin_3)*%
X142947500Y-81080500D02*
X141732000Y-82296000D01*
X142947500Y-78032500D02*
X142947500Y-81080500D01*
X142947500Y-78032500D02*
X142875000Y-78105000D01*
%TO.N,Net-(J6-Pin_2)*%
X143947500Y-82352500D02*
X146685000Y-85090000D01*
X146685000Y-85090000D02*
X146685000Y-96520000D01*
X143947500Y-78032500D02*
X143947500Y-82352500D01*
%TO.N,Net-(J1-Pin_13)*%
X143947500Y-69707500D02*
X143947500Y-63302500D01*
X142240000Y-61595000D02*
X142240000Y-55880000D01*
X143947500Y-63302500D02*
X142240000Y-61595000D01*
%TO.N,Net-(J1-Pin_14)*%
X141535000Y-71120000D02*
X140335000Y-71120000D01*
X139700000Y-70485000D02*
X139700000Y-55880000D01*
X140335000Y-71120000D02*
X139700000Y-70485000D01*
%TO.N,Net-(J1-Pin_15)*%
X140130686Y-71620000D02*
X137160000Y-68649314D01*
X137160000Y-68649314D02*
X137160000Y-55880000D01*
X141535000Y-71620000D02*
X140130686Y-71620000D01*
%TO.N,Net-(J1-Pin_16)*%
X141535000Y-72120000D02*
X140065000Y-72120000D01*
X136525000Y-57785000D02*
X134620000Y-55880000D01*
X136525000Y-68580000D02*
X136525000Y-57785000D01*
X140065000Y-72120000D02*
X136525000Y-68580000D01*
%TO.N,Net-(J1-Pin_17)*%
X141535000Y-72620000D02*
X139930000Y-72620000D01*
X135890000Y-68580000D02*
X135890000Y-59690000D01*
X135890000Y-59690000D02*
X132080000Y-55880000D01*
X139930000Y-72620000D02*
X135890000Y-68580000D01*
%TO.N,Net-(J6-Pin_3)*%
X149225000Y-86360000D02*
X149225000Y-96520000D01*
X144447500Y-78032500D02*
X144447500Y-81582500D01*
X144447500Y-81582500D02*
X149225000Y-86360000D01*
%TO.N,Net-(J6-Pin_4)*%
X144947500Y-80812500D02*
X151765000Y-87630000D01*
X144947500Y-78032500D02*
X144947500Y-80812500D01*
X151765000Y-87630000D02*
X151765000Y-96520000D01*
%TO.N,Net-(J6-Pin_5)*%
X154305000Y-89535000D02*
X154305000Y-96520000D01*
X145447500Y-78032500D02*
X145447500Y-80677500D01*
X145447500Y-80677500D02*
X154305000Y-89535000D01*
%TO.N,Net-(J6-Pin_6)*%
X156845000Y-91440000D02*
X156845000Y-96520000D01*
X145947500Y-80542500D02*
X156845000Y-91440000D01*
X145947500Y-78032500D02*
X145947500Y-80542500D01*
%TO.N,Net-(J6-Pin_7)*%
X146947500Y-78032500D02*
X146947500Y-80272500D01*
X159385000Y-92710000D02*
X159385000Y-96520000D01*
X146947500Y-80272500D02*
X159385000Y-92710000D01*
%TO.N,Net-(J6-Pin_8)*%
X161925000Y-93980000D02*
X161925000Y-96520000D01*
X147447500Y-78032500D02*
X147447500Y-79502500D01*
X147447500Y-79502500D02*
X161925000Y-93980000D01*
%TD*%
M02*
