%TF.GenerationSoftware,KiCad,Pcbnew,7.0.10*%
%TF.CreationDate,2024-03-02T18:49:49+09:00*%
%TF.ProjectId,STM32F103x8,53544d33-3246-4313-9033-78382e6b6963,rev?*%
%TF.SameCoordinates,Original*%
%TF.FileFunction,Legend,Top*%
%TF.FilePolarity,Positive*%
%FSLAX46Y46*%
G04 Gerber Fmt 4.6, Leading zero omitted, Abs format (unit mm)*
G04 Created by KiCad (PCBNEW 7.0.10) date 2024-03-02 18:49:49*
%MOMM*%
%LPD*%
G01*
G04 APERTURE LIST*
%ADD10C,0.100000*%
%ADD11C,0.075000*%
%ADD12C,0.150000*%
%ADD13C,0.120000*%
G04 APERTURE END LIST*
D10*
X123771693Y-65727609D02*
X123771693Y-66084752D01*
X123771693Y-66084752D02*
X123747884Y-66156180D01*
X123747884Y-66156180D02*
X123700265Y-66203800D01*
X123700265Y-66203800D02*
X123628836Y-66227609D01*
X123628836Y-66227609D02*
X123581217Y-66227609D01*
X123985979Y-65775228D02*
X124009788Y-65751419D01*
X124009788Y-65751419D02*
X124057407Y-65727609D01*
X124057407Y-65727609D02*
X124176455Y-65727609D01*
X124176455Y-65727609D02*
X124224074Y-65751419D01*
X124224074Y-65751419D02*
X124247883Y-65775228D01*
X124247883Y-65775228D02*
X124271693Y-65822847D01*
X124271693Y-65822847D02*
X124271693Y-65870466D01*
X124271693Y-65870466D02*
X124247883Y-65941895D01*
X124247883Y-65941895D02*
X123962169Y-66227609D01*
X123962169Y-66227609D02*
X124271693Y-66227609D01*
X124485978Y-66179990D02*
X124509788Y-66203800D01*
X124509788Y-66203800D02*
X124485978Y-66227609D01*
X124485978Y-66227609D02*
X124462169Y-66203800D01*
X124462169Y-66203800D02*
X124485978Y-66179990D01*
X124485978Y-66179990D02*
X124485978Y-66227609D01*
X124985978Y-66227609D02*
X124700264Y-66227609D01*
X124843121Y-66227609D02*
X124843121Y-65727609D01*
X124843121Y-65727609D02*
X124795502Y-65799038D01*
X124795502Y-65799038D02*
X124747883Y-65846657D01*
X124747883Y-65846657D02*
X124700264Y-65870466D01*
X123771693Y-73347609D02*
X123771693Y-73704752D01*
X123771693Y-73704752D02*
X123747884Y-73776180D01*
X123747884Y-73776180D02*
X123700265Y-73823800D01*
X123700265Y-73823800D02*
X123628836Y-73847609D01*
X123628836Y-73847609D02*
X123581217Y-73847609D01*
X123985979Y-73395228D02*
X124009788Y-73371419D01*
X124009788Y-73371419D02*
X124057407Y-73347609D01*
X124057407Y-73347609D02*
X124176455Y-73347609D01*
X124176455Y-73347609D02*
X124224074Y-73371419D01*
X124224074Y-73371419D02*
X124247883Y-73395228D01*
X124247883Y-73395228D02*
X124271693Y-73442847D01*
X124271693Y-73442847D02*
X124271693Y-73490466D01*
X124271693Y-73490466D02*
X124247883Y-73561895D01*
X124247883Y-73561895D02*
X123962169Y-73847609D01*
X123962169Y-73847609D02*
X124271693Y-73847609D01*
X124485978Y-73799990D02*
X124509788Y-73823800D01*
X124509788Y-73823800D02*
X124485978Y-73847609D01*
X124485978Y-73847609D02*
X124462169Y-73823800D01*
X124462169Y-73823800D02*
X124485978Y-73799990D01*
X124485978Y-73799990D02*
X124485978Y-73847609D01*
X124938359Y-73514276D02*
X124938359Y-73847609D01*
X124819311Y-73323800D02*
X124700264Y-73680942D01*
X124700264Y-73680942D02*
X125009787Y-73680942D01*
X146245609Y-100002306D02*
X146602752Y-100002306D01*
X146602752Y-100002306D02*
X146674180Y-100026115D01*
X146674180Y-100026115D02*
X146721800Y-100073734D01*
X146721800Y-100073734D02*
X146745609Y-100145163D01*
X146745609Y-100145163D02*
X146745609Y-100192782D01*
X146245609Y-99549925D02*
X146245609Y-99645163D01*
X146245609Y-99645163D02*
X146269419Y-99692782D01*
X146269419Y-99692782D02*
X146293228Y-99716592D01*
X146293228Y-99716592D02*
X146364657Y-99764211D01*
X146364657Y-99764211D02*
X146459895Y-99788020D01*
X146459895Y-99788020D02*
X146650371Y-99788020D01*
X146650371Y-99788020D02*
X146697990Y-99764211D01*
X146697990Y-99764211D02*
X146721800Y-99740401D01*
X146721800Y-99740401D02*
X146745609Y-99692782D01*
X146745609Y-99692782D02*
X146745609Y-99597544D01*
X146745609Y-99597544D02*
X146721800Y-99549925D01*
X146721800Y-99549925D02*
X146697990Y-99526116D01*
X146697990Y-99526116D02*
X146650371Y-99502306D01*
X146650371Y-99502306D02*
X146531323Y-99502306D01*
X146531323Y-99502306D02*
X146483704Y-99526116D01*
X146483704Y-99526116D02*
X146459895Y-99549925D01*
X146459895Y-99549925D02*
X146436085Y-99597544D01*
X146436085Y-99597544D02*
X146436085Y-99692782D01*
X146436085Y-99692782D02*
X146459895Y-99740401D01*
X146459895Y-99740401D02*
X146483704Y-99764211D01*
X146483704Y-99764211D02*
X146531323Y-99788020D01*
X146697990Y-99288021D02*
X146721800Y-99264211D01*
X146721800Y-99264211D02*
X146745609Y-99288021D01*
X146745609Y-99288021D02*
X146721800Y-99311830D01*
X146721800Y-99311830D02*
X146697990Y-99288021D01*
X146697990Y-99288021D02*
X146745609Y-99288021D01*
X146293228Y-99073735D02*
X146269419Y-99049926D01*
X146269419Y-99049926D02*
X146245609Y-99002307D01*
X146245609Y-99002307D02*
X146245609Y-98883259D01*
X146245609Y-98883259D02*
X146269419Y-98835640D01*
X146269419Y-98835640D02*
X146293228Y-98811831D01*
X146293228Y-98811831D02*
X146340847Y-98788021D01*
X146340847Y-98788021D02*
X146388466Y-98788021D01*
X146388466Y-98788021D02*
X146459895Y-98811831D01*
X146459895Y-98811831D02*
X146745609Y-99097545D01*
X146745609Y-99097545D02*
X146745609Y-98788021D01*
X156913609Y-53266306D02*
X157270752Y-53266306D01*
X157270752Y-53266306D02*
X157342180Y-53290115D01*
X157342180Y-53290115D02*
X157389800Y-53337734D01*
X157389800Y-53337734D02*
X157413609Y-53409163D01*
X157413609Y-53409163D02*
X157413609Y-53456782D01*
X157413609Y-52766306D02*
X157413609Y-53052020D01*
X157413609Y-52909163D02*
X156913609Y-52909163D01*
X156913609Y-52909163D02*
X156985038Y-52956782D01*
X156985038Y-52956782D02*
X157032657Y-53004401D01*
X157032657Y-53004401D02*
X157056466Y-53052020D01*
X157365990Y-52552021D02*
X157389800Y-52528211D01*
X157389800Y-52528211D02*
X157413609Y-52552021D01*
X157413609Y-52552021D02*
X157389800Y-52575830D01*
X157389800Y-52575830D02*
X157365990Y-52552021D01*
X157365990Y-52552021D02*
X157413609Y-52552021D01*
X156913609Y-52361545D02*
X156913609Y-52028212D01*
X156913609Y-52028212D02*
X157413609Y-52242497D01*
X135939884Y-49402419D02*
X135939884Y-48402419D01*
X135939884Y-48402419D02*
X136273217Y-49116704D01*
X136273217Y-49116704D02*
X136606550Y-48402419D01*
X136606550Y-48402419D02*
X136606550Y-49402419D01*
X136987503Y-48735752D02*
X137225598Y-49402419D01*
X137463693Y-48735752D02*
X137225598Y-49402419D01*
X137225598Y-49402419D02*
X137130360Y-49640514D01*
X137130360Y-49640514D02*
X137082741Y-49688133D01*
X137082741Y-49688133D02*
X136987503Y-49735752D01*
X138939884Y-48878609D02*
X138606551Y-48878609D01*
X138606551Y-49402419D02*
X138606551Y-48402419D01*
X138606551Y-48402419D02*
X139082741Y-48402419D01*
X139463694Y-49402419D02*
X139463694Y-48735752D01*
X139463694Y-48402419D02*
X139416075Y-48450038D01*
X139416075Y-48450038D02*
X139463694Y-48497657D01*
X139463694Y-48497657D02*
X139511313Y-48450038D01*
X139511313Y-48450038D02*
X139463694Y-48402419D01*
X139463694Y-48402419D02*
X139463694Y-48497657D01*
X139939884Y-49402419D02*
X139939884Y-48735752D01*
X139939884Y-48926228D02*
X139987503Y-48830990D01*
X139987503Y-48830990D02*
X140035122Y-48783371D01*
X140035122Y-48783371D02*
X140130360Y-48735752D01*
X140130360Y-48735752D02*
X140225598Y-48735752D01*
X140511313Y-49354800D02*
X140606551Y-49402419D01*
X140606551Y-49402419D02*
X140797027Y-49402419D01*
X140797027Y-49402419D02*
X140892265Y-49354800D01*
X140892265Y-49354800D02*
X140939884Y-49259561D01*
X140939884Y-49259561D02*
X140939884Y-49211942D01*
X140939884Y-49211942D02*
X140892265Y-49116704D01*
X140892265Y-49116704D02*
X140797027Y-49069085D01*
X140797027Y-49069085D02*
X140654170Y-49069085D01*
X140654170Y-49069085D02*
X140558932Y-49021466D01*
X140558932Y-49021466D02*
X140511313Y-48926228D01*
X140511313Y-48926228D02*
X140511313Y-48878609D01*
X140511313Y-48878609D02*
X140558932Y-48783371D01*
X140558932Y-48783371D02*
X140654170Y-48735752D01*
X140654170Y-48735752D02*
X140797027Y-48735752D01*
X140797027Y-48735752D02*
X140892265Y-48783371D01*
X141225599Y-48735752D02*
X141606551Y-48735752D01*
X141368456Y-48402419D02*
X141368456Y-49259561D01*
X141368456Y-49259561D02*
X141416075Y-49354800D01*
X141416075Y-49354800D02*
X141511313Y-49402419D01*
X141511313Y-49402419D02*
X141606551Y-49402419D01*
X142701790Y-48878609D02*
X143035123Y-48878609D01*
X143177980Y-49402419D02*
X142701790Y-49402419D01*
X142701790Y-49402419D02*
X142701790Y-48402419D01*
X142701790Y-48402419D02*
X143177980Y-48402419D01*
X143606552Y-49402419D02*
X143606552Y-48735752D01*
X143606552Y-48830990D02*
X143654171Y-48783371D01*
X143654171Y-48783371D02*
X143749409Y-48735752D01*
X143749409Y-48735752D02*
X143892266Y-48735752D01*
X143892266Y-48735752D02*
X143987504Y-48783371D01*
X143987504Y-48783371D02*
X144035123Y-48878609D01*
X144035123Y-48878609D02*
X144035123Y-49402419D01*
X144035123Y-48878609D02*
X144082742Y-48783371D01*
X144082742Y-48783371D02*
X144177980Y-48735752D01*
X144177980Y-48735752D02*
X144320837Y-48735752D01*
X144320837Y-48735752D02*
X144416076Y-48783371D01*
X144416076Y-48783371D02*
X144463695Y-48878609D01*
X144463695Y-48878609D02*
X144463695Y-49402419D01*
X144939885Y-49402419D02*
X144939885Y-48402419D01*
X144939885Y-48783371D02*
X145035123Y-48735752D01*
X145035123Y-48735752D02*
X145225599Y-48735752D01*
X145225599Y-48735752D02*
X145320837Y-48783371D01*
X145320837Y-48783371D02*
X145368456Y-48830990D01*
X145368456Y-48830990D02*
X145416075Y-48926228D01*
X145416075Y-48926228D02*
X145416075Y-49211942D01*
X145416075Y-49211942D02*
X145368456Y-49307180D01*
X145368456Y-49307180D02*
X145320837Y-49354800D01*
X145320837Y-49354800D02*
X145225599Y-49402419D01*
X145225599Y-49402419D02*
X145035123Y-49402419D01*
X145035123Y-49402419D02*
X144939885Y-49354800D01*
X146225599Y-49354800D02*
X146130361Y-49402419D01*
X146130361Y-49402419D02*
X145939885Y-49402419D01*
X145939885Y-49402419D02*
X145844647Y-49354800D01*
X145844647Y-49354800D02*
X145797028Y-49259561D01*
X145797028Y-49259561D02*
X145797028Y-48878609D01*
X145797028Y-48878609D02*
X145844647Y-48783371D01*
X145844647Y-48783371D02*
X145939885Y-48735752D01*
X145939885Y-48735752D02*
X146130361Y-48735752D01*
X146130361Y-48735752D02*
X146225599Y-48783371D01*
X146225599Y-48783371D02*
X146273218Y-48878609D01*
X146273218Y-48878609D02*
X146273218Y-48973847D01*
X146273218Y-48973847D02*
X145797028Y-49069085D01*
X147130361Y-49402419D02*
X147130361Y-48402419D01*
X147130361Y-49354800D02*
X147035123Y-49402419D01*
X147035123Y-49402419D02*
X146844647Y-49402419D01*
X146844647Y-49402419D02*
X146749409Y-49354800D01*
X146749409Y-49354800D02*
X146701790Y-49307180D01*
X146701790Y-49307180D02*
X146654171Y-49211942D01*
X146654171Y-49211942D02*
X146654171Y-48926228D01*
X146654171Y-48926228D02*
X146701790Y-48830990D01*
X146701790Y-48830990D02*
X146749409Y-48783371D01*
X146749409Y-48783371D02*
X146844647Y-48735752D01*
X146844647Y-48735752D02*
X147035123Y-48735752D01*
X147035123Y-48735752D02*
X147130361Y-48783371D01*
X148035123Y-49402419D02*
X148035123Y-48402419D01*
X148035123Y-49354800D02*
X147939885Y-49402419D01*
X147939885Y-49402419D02*
X147749409Y-49402419D01*
X147749409Y-49402419D02*
X147654171Y-49354800D01*
X147654171Y-49354800D02*
X147606552Y-49307180D01*
X147606552Y-49307180D02*
X147558933Y-49211942D01*
X147558933Y-49211942D02*
X147558933Y-48926228D01*
X147558933Y-48926228D02*
X147606552Y-48830990D01*
X147606552Y-48830990D02*
X147654171Y-48783371D01*
X147654171Y-48783371D02*
X147749409Y-48735752D01*
X147749409Y-48735752D02*
X147939885Y-48735752D01*
X147939885Y-48735752D02*
X148035123Y-48783371D01*
X148892266Y-49354800D02*
X148797028Y-49402419D01*
X148797028Y-49402419D02*
X148606552Y-49402419D01*
X148606552Y-49402419D02*
X148511314Y-49354800D01*
X148511314Y-49354800D02*
X148463695Y-49259561D01*
X148463695Y-49259561D02*
X148463695Y-48878609D01*
X148463695Y-48878609D02*
X148511314Y-48783371D01*
X148511314Y-48783371D02*
X148606552Y-48735752D01*
X148606552Y-48735752D02*
X148797028Y-48735752D01*
X148797028Y-48735752D02*
X148892266Y-48783371D01*
X148892266Y-48783371D02*
X148939885Y-48878609D01*
X148939885Y-48878609D02*
X148939885Y-48973847D01*
X148939885Y-48973847D02*
X148463695Y-49069085D01*
X149797028Y-49402419D02*
X149797028Y-48402419D01*
X149797028Y-49354800D02*
X149701790Y-49402419D01*
X149701790Y-49402419D02*
X149511314Y-49402419D01*
X149511314Y-49402419D02*
X149416076Y-49354800D01*
X149416076Y-49354800D02*
X149368457Y-49307180D01*
X149368457Y-49307180D02*
X149320838Y-49211942D01*
X149320838Y-49211942D02*
X149320838Y-48926228D01*
X149320838Y-48926228D02*
X149368457Y-48830990D01*
X149368457Y-48830990D02*
X149416076Y-48783371D01*
X149416076Y-48783371D02*
X149511314Y-48735752D01*
X149511314Y-48735752D02*
X149701790Y-48735752D01*
X149701790Y-48735752D02*
X149797028Y-48783371D01*
X151035124Y-49402419D02*
X151035124Y-48402419D01*
X151035124Y-48402419D02*
X151416076Y-48402419D01*
X151416076Y-48402419D02*
X151511314Y-48450038D01*
X151511314Y-48450038D02*
X151558933Y-48497657D01*
X151558933Y-48497657D02*
X151606552Y-48592895D01*
X151606552Y-48592895D02*
X151606552Y-48735752D01*
X151606552Y-48735752D02*
X151558933Y-48830990D01*
X151558933Y-48830990D02*
X151511314Y-48878609D01*
X151511314Y-48878609D02*
X151416076Y-48926228D01*
X151416076Y-48926228D02*
X151035124Y-48926228D01*
X152606552Y-49307180D02*
X152558933Y-49354800D01*
X152558933Y-49354800D02*
X152416076Y-49402419D01*
X152416076Y-49402419D02*
X152320838Y-49402419D01*
X152320838Y-49402419D02*
X152177981Y-49354800D01*
X152177981Y-49354800D02*
X152082743Y-49259561D01*
X152082743Y-49259561D02*
X152035124Y-49164323D01*
X152035124Y-49164323D02*
X151987505Y-48973847D01*
X151987505Y-48973847D02*
X151987505Y-48830990D01*
X151987505Y-48830990D02*
X152035124Y-48640514D01*
X152035124Y-48640514D02*
X152082743Y-48545276D01*
X152082743Y-48545276D02*
X152177981Y-48450038D01*
X152177981Y-48450038D02*
X152320838Y-48402419D01*
X152320838Y-48402419D02*
X152416076Y-48402419D01*
X152416076Y-48402419D02*
X152558933Y-48450038D01*
X152558933Y-48450038D02*
X152606552Y-48497657D01*
X153368457Y-48878609D02*
X153511314Y-48926228D01*
X153511314Y-48926228D02*
X153558933Y-48973847D01*
X153558933Y-48973847D02*
X153606552Y-49069085D01*
X153606552Y-49069085D02*
X153606552Y-49211942D01*
X153606552Y-49211942D02*
X153558933Y-49307180D01*
X153558933Y-49307180D02*
X153511314Y-49354800D01*
X153511314Y-49354800D02*
X153416076Y-49402419D01*
X153416076Y-49402419D02*
X153035124Y-49402419D01*
X153035124Y-49402419D02*
X153035124Y-48402419D01*
X153035124Y-48402419D02*
X153368457Y-48402419D01*
X153368457Y-48402419D02*
X153463695Y-48450038D01*
X153463695Y-48450038D02*
X153511314Y-48497657D01*
X153511314Y-48497657D02*
X153558933Y-48592895D01*
X153558933Y-48592895D02*
X153558933Y-48688133D01*
X153558933Y-48688133D02*
X153511314Y-48783371D01*
X153511314Y-48783371D02*
X153463695Y-48830990D01*
X153463695Y-48830990D02*
X153368457Y-48878609D01*
X153368457Y-48878609D02*
X153035124Y-48878609D01*
X154749410Y-49354800D02*
X154892267Y-49402419D01*
X154892267Y-49402419D02*
X155130362Y-49402419D01*
X155130362Y-49402419D02*
X155225600Y-49354800D01*
X155225600Y-49354800D02*
X155273219Y-49307180D01*
X155273219Y-49307180D02*
X155320838Y-49211942D01*
X155320838Y-49211942D02*
X155320838Y-49116704D01*
X155320838Y-49116704D02*
X155273219Y-49021466D01*
X155273219Y-49021466D02*
X155225600Y-48973847D01*
X155225600Y-48973847D02*
X155130362Y-48926228D01*
X155130362Y-48926228D02*
X154939886Y-48878609D01*
X154939886Y-48878609D02*
X154844648Y-48830990D01*
X154844648Y-48830990D02*
X154797029Y-48783371D01*
X154797029Y-48783371D02*
X154749410Y-48688133D01*
X154749410Y-48688133D02*
X154749410Y-48592895D01*
X154749410Y-48592895D02*
X154797029Y-48497657D01*
X154797029Y-48497657D02*
X154844648Y-48450038D01*
X154844648Y-48450038D02*
X154939886Y-48402419D01*
X154939886Y-48402419D02*
X155177981Y-48402419D01*
X155177981Y-48402419D02*
X155320838Y-48450038D01*
X155606553Y-48402419D02*
X156177981Y-48402419D01*
X155892267Y-49402419D02*
X155892267Y-48402419D01*
X156511315Y-49402419D02*
X156511315Y-48402419D01*
X156511315Y-48402419D02*
X156844648Y-49116704D01*
X156844648Y-49116704D02*
X157177981Y-48402419D01*
X157177981Y-48402419D02*
X157177981Y-49402419D01*
X129481609Y-99240306D02*
X129838752Y-99240306D01*
X129838752Y-99240306D02*
X129910180Y-99264115D01*
X129910180Y-99264115D02*
X129957800Y-99311734D01*
X129957800Y-99311734D02*
X129981609Y-99383163D01*
X129981609Y-99383163D02*
X129981609Y-99430782D01*
X129481609Y-98764116D02*
X129481609Y-99002211D01*
X129481609Y-99002211D02*
X129719704Y-99026020D01*
X129719704Y-99026020D02*
X129695895Y-99002211D01*
X129695895Y-99002211D02*
X129672085Y-98954592D01*
X129672085Y-98954592D02*
X129672085Y-98835544D01*
X129672085Y-98835544D02*
X129695895Y-98787925D01*
X129695895Y-98787925D02*
X129719704Y-98764116D01*
X129719704Y-98764116D02*
X129767323Y-98740306D01*
X129767323Y-98740306D02*
X129886371Y-98740306D01*
X129886371Y-98740306D02*
X129933990Y-98764116D01*
X129933990Y-98764116D02*
X129957800Y-98787925D01*
X129957800Y-98787925D02*
X129981609Y-98835544D01*
X129981609Y-98835544D02*
X129981609Y-98954592D01*
X129981609Y-98954592D02*
X129957800Y-99002211D01*
X129957800Y-99002211D02*
X129933990Y-99026020D01*
X129933990Y-98526021D02*
X129957800Y-98502211D01*
X129957800Y-98502211D02*
X129981609Y-98526021D01*
X129981609Y-98526021D02*
X129957800Y-98549830D01*
X129957800Y-98549830D02*
X129933990Y-98526021D01*
X129933990Y-98526021D02*
X129981609Y-98526021D01*
X129529228Y-98311735D02*
X129505419Y-98287926D01*
X129505419Y-98287926D02*
X129481609Y-98240307D01*
X129481609Y-98240307D02*
X129481609Y-98121259D01*
X129481609Y-98121259D02*
X129505419Y-98073640D01*
X129505419Y-98073640D02*
X129529228Y-98049831D01*
X129529228Y-98049831D02*
X129576847Y-98026021D01*
X129576847Y-98026021D02*
X129624466Y-98026021D01*
X129624466Y-98026021D02*
X129695895Y-98049831D01*
X129695895Y-98049831D02*
X129981609Y-98335545D01*
X129981609Y-98335545D02*
X129981609Y-98026021D01*
X141673609Y-53266306D02*
X142030752Y-53266306D01*
X142030752Y-53266306D02*
X142102180Y-53290115D01*
X142102180Y-53290115D02*
X142149800Y-53337734D01*
X142149800Y-53337734D02*
X142173609Y-53409163D01*
X142173609Y-53409163D02*
X142173609Y-53456782D01*
X142173609Y-52766306D02*
X142173609Y-53052020D01*
X142173609Y-52909163D02*
X141673609Y-52909163D01*
X141673609Y-52909163D02*
X141745038Y-52956782D01*
X141745038Y-52956782D02*
X141792657Y-53004401D01*
X141792657Y-53004401D02*
X141816466Y-53052020D01*
X142125990Y-52552021D02*
X142149800Y-52528211D01*
X142149800Y-52528211D02*
X142173609Y-52552021D01*
X142173609Y-52552021D02*
X142149800Y-52575830D01*
X142149800Y-52575830D02*
X142125990Y-52552021D01*
X142125990Y-52552021D02*
X142173609Y-52552021D01*
X142173609Y-52052021D02*
X142173609Y-52337735D01*
X142173609Y-52194878D02*
X141673609Y-52194878D01*
X141673609Y-52194878D02*
X141745038Y-52242497D01*
X141745038Y-52242497D02*
X141792657Y-52290116D01*
X141792657Y-52290116D02*
X141816466Y-52337735D01*
X141673609Y-51885355D02*
X141673609Y-51575831D01*
X141673609Y-51575831D02*
X141864085Y-51742498D01*
X141864085Y-51742498D02*
X141864085Y-51671069D01*
X141864085Y-51671069D02*
X141887895Y-51623450D01*
X141887895Y-51623450D02*
X141911704Y-51599641D01*
X141911704Y-51599641D02*
X141959323Y-51575831D01*
X141959323Y-51575831D02*
X142078371Y-51575831D01*
X142078371Y-51575831D02*
X142125990Y-51599641D01*
X142125990Y-51599641D02*
X142149800Y-51623450D01*
X142149800Y-51623450D02*
X142173609Y-51671069D01*
X142173609Y-51671069D02*
X142173609Y-51813926D01*
X142173609Y-51813926D02*
X142149800Y-51861545D01*
X142149800Y-51861545D02*
X142125990Y-51885355D01*
X166311609Y-100002306D02*
X166668752Y-100002306D01*
X166668752Y-100002306D02*
X166740180Y-100026115D01*
X166740180Y-100026115D02*
X166787800Y-100073734D01*
X166787800Y-100073734D02*
X166811609Y-100145163D01*
X166811609Y-100145163D02*
X166811609Y-100192782D01*
X166311609Y-99811830D02*
X166311609Y-99502306D01*
X166311609Y-99502306D02*
X166502085Y-99668973D01*
X166502085Y-99668973D02*
X166502085Y-99597544D01*
X166502085Y-99597544D02*
X166525895Y-99549925D01*
X166525895Y-99549925D02*
X166549704Y-99526116D01*
X166549704Y-99526116D02*
X166597323Y-99502306D01*
X166597323Y-99502306D02*
X166716371Y-99502306D01*
X166716371Y-99502306D02*
X166763990Y-99526116D01*
X166763990Y-99526116D02*
X166787800Y-99549925D01*
X166787800Y-99549925D02*
X166811609Y-99597544D01*
X166811609Y-99597544D02*
X166811609Y-99740401D01*
X166811609Y-99740401D02*
X166787800Y-99788020D01*
X166787800Y-99788020D02*
X166763990Y-99811830D01*
X139133609Y-53266306D02*
X139490752Y-53266306D01*
X139490752Y-53266306D02*
X139562180Y-53290115D01*
X139562180Y-53290115D02*
X139609800Y-53337734D01*
X139609800Y-53337734D02*
X139633609Y-53409163D01*
X139633609Y-53409163D02*
X139633609Y-53456782D01*
X139633609Y-52766306D02*
X139633609Y-53052020D01*
X139633609Y-52909163D02*
X139133609Y-52909163D01*
X139133609Y-52909163D02*
X139205038Y-52956782D01*
X139205038Y-52956782D02*
X139252657Y-53004401D01*
X139252657Y-53004401D02*
X139276466Y-53052020D01*
X139585990Y-52552021D02*
X139609800Y-52528211D01*
X139609800Y-52528211D02*
X139633609Y-52552021D01*
X139633609Y-52552021D02*
X139609800Y-52575830D01*
X139609800Y-52575830D02*
X139585990Y-52552021D01*
X139585990Y-52552021D02*
X139633609Y-52552021D01*
X139633609Y-52052021D02*
X139633609Y-52337735D01*
X139633609Y-52194878D02*
X139133609Y-52194878D01*
X139133609Y-52194878D02*
X139205038Y-52242497D01*
X139205038Y-52242497D02*
X139252657Y-52290116D01*
X139252657Y-52290116D02*
X139276466Y-52337735D01*
X139300276Y-51623450D02*
X139633609Y-51623450D01*
X139109800Y-51742498D02*
X139466942Y-51861545D01*
X139466942Y-51861545D02*
X139466942Y-51552022D01*
X126941609Y-99240306D02*
X127298752Y-99240306D01*
X127298752Y-99240306D02*
X127370180Y-99264115D01*
X127370180Y-99264115D02*
X127417800Y-99311734D01*
X127417800Y-99311734D02*
X127441609Y-99383163D01*
X127441609Y-99383163D02*
X127441609Y-99430782D01*
X126941609Y-98764116D02*
X126941609Y-99002211D01*
X126941609Y-99002211D02*
X127179704Y-99026020D01*
X127179704Y-99026020D02*
X127155895Y-99002211D01*
X127155895Y-99002211D02*
X127132085Y-98954592D01*
X127132085Y-98954592D02*
X127132085Y-98835544D01*
X127132085Y-98835544D02*
X127155895Y-98787925D01*
X127155895Y-98787925D02*
X127179704Y-98764116D01*
X127179704Y-98764116D02*
X127227323Y-98740306D01*
X127227323Y-98740306D02*
X127346371Y-98740306D01*
X127346371Y-98740306D02*
X127393990Y-98764116D01*
X127393990Y-98764116D02*
X127417800Y-98787925D01*
X127417800Y-98787925D02*
X127441609Y-98835544D01*
X127441609Y-98835544D02*
X127441609Y-98954592D01*
X127441609Y-98954592D02*
X127417800Y-99002211D01*
X127417800Y-99002211D02*
X127393990Y-99026020D01*
X127393990Y-98526021D02*
X127417800Y-98502211D01*
X127417800Y-98502211D02*
X127441609Y-98526021D01*
X127441609Y-98526021D02*
X127417800Y-98549830D01*
X127417800Y-98549830D02*
X127393990Y-98526021D01*
X127393990Y-98526021D02*
X127441609Y-98526021D01*
X126941609Y-98335545D02*
X126941609Y-98026021D01*
X126941609Y-98026021D02*
X127132085Y-98192688D01*
X127132085Y-98192688D02*
X127132085Y-98121259D01*
X127132085Y-98121259D02*
X127155895Y-98073640D01*
X127155895Y-98073640D02*
X127179704Y-98049831D01*
X127179704Y-98049831D02*
X127227323Y-98026021D01*
X127227323Y-98026021D02*
X127346371Y-98026021D01*
X127346371Y-98026021D02*
X127393990Y-98049831D01*
X127393990Y-98049831D02*
X127417800Y-98073640D01*
X127417800Y-98073640D02*
X127441609Y-98121259D01*
X127441609Y-98121259D02*
X127441609Y-98264116D01*
X127441609Y-98264116D02*
X127417800Y-98311735D01*
X127417800Y-98311735D02*
X127393990Y-98335545D01*
X167073609Y-53266306D02*
X167430752Y-53266306D01*
X167430752Y-53266306D02*
X167502180Y-53290115D01*
X167502180Y-53290115D02*
X167549800Y-53337734D01*
X167549800Y-53337734D02*
X167573609Y-53409163D01*
X167573609Y-53409163D02*
X167573609Y-53456782D01*
X167573609Y-52766306D02*
X167573609Y-53052020D01*
X167573609Y-52909163D02*
X167073609Y-52909163D01*
X167073609Y-52909163D02*
X167145038Y-52956782D01*
X167145038Y-52956782D02*
X167192657Y-53004401D01*
X167192657Y-53004401D02*
X167216466Y-53052020D01*
X167525990Y-52552021D02*
X167549800Y-52528211D01*
X167549800Y-52528211D02*
X167573609Y-52552021D01*
X167573609Y-52552021D02*
X167549800Y-52575830D01*
X167549800Y-52575830D02*
X167525990Y-52552021D01*
X167525990Y-52552021D02*
X167573609Y-52552021D01*
X167073609Y-52361545D02*
X167073609Y-52052021D01*
X167073609Y-52052021D02*
X167264085Y-52218688D01*
X167264085Y-52218688D02*
X167264085Y-52147259D01*
X167264085Y-52147259D02*
X167287895Y-52099640D01*
X167287895Y-52099640D02*
X167311704Y-52075831D01*
X167311704Y-52075831D02*
X167359323Y-52052021D01*
X167359323Y-52052021D02*
X167478371Y-52052021D01*
X167478371Y-52052021D02*
X167525990Y-52075831D01*
X167525990Y-52075831D02*
X167549800Y-52099640D01*
X167549800Y-52099640D02*
X167573609Y-52147259D01*
X167573609Y-52147259D02*
X167573609Y-52290116D01*
X167573609Y-52290116D02*
X167549800Y-52337735D01*
X167549800Y-52337735D02*
X167525990Y-52361545D01*
X144213609Y-53266306D02*
X144570752Y-53266306D01*
X144570752Y-53266306D02*
X144642180Y-53290115D01*
X144642180Y-53290115D02*
X144689800Y-53337734D01*
X144689800Y-53337734D02*
X144713609Y-53409163D01*
X144713609Y-53409163D02*
X144713609Y-53456782D01*
X144713609Y-52766306D02*
X144713609Y-53052020D01*
X144713609Y-52909163D02*
X144213609Y-52909163D01*
X144213609Y-52909163D02*
X144285038Y-52956782D01*
X144285038Y-52956782D02*
X144332657Y-53004401D01*
X144332657Y-53004401D02*
X144356466Y-53052020D01*
X144665990Y-52552021D02*
X144689800Y-52528211D01*
X144689800Y-52528211D02*
X144713609Y-52552021D01*
X144713609Y-52552021D02*
X144689800Y-52575830D01*
X144689800Y-52575830D02*
X144665990Y-52552021D01*
X144665990Y-52552021D02*
X144713609Y-52552021D01*
X144713609Y-52052021D02*
X144713609Y-52337735D01*
X144713609Y-52194878D02*
X144213609Y-52194878D01*
X144213609Y-52194878D02*
X144285038Y-52242497D01*
X144285038Y-52242497D02*
X144332657Y-52290116D01*
X144332657Y-52290116D02*
X144356466Y-52337735D01*
X144261228Y-51861545D02*
X144237419Y-51837736D01*
X144237419Y-51837736D02*
X144213609Y-51790117D01*
X144213609Y-51790117D02*
X144213609Y-51671069D01*
X144213609Y-51671069D02*
X144237419Y-51623450D01*
X144237419Y-51623450D02*
X144261228Y-51599641D01*
X144261228Y-51599641D02*
X144308847Y-51575831D01*
X144308847Y-51575831D02*
X144356466Y-51575831D01*
X144356466Y-51575831D02*
X144427895Y-51599641D01*
X144427895Y-51599641D02*
X144713609Y-51885355D01*
X144713609Y-51885355D02*
X144713609Y-51575831D01*
X159453609Y-53266306D02*
X159810752Y-53266306D01*
X159810752Y-53266306D02*
X159882180Y-53290115D01*
X159882180Y-53290115D02*
X159929800Y-53337734D01*
X159929800Y-53337734D02*
X159953609Y-53409163D01*
X159953609Y-53409163D02*
X159953609Y-53456782D01*
X159953609Y-52766306D02*
X159953609Y-53052020D01*
X159953609Y-52909163D02*
X159453609Y-52909163D01*
X159453609Y-52909163D02*
X159525038Y-52956782D01*
X159525038Y-52956782D02*
X159572657Y-53004401D01*
X159572657Y-53004401D02*
X159596466Y-53052020D01*
X159905990Y-52552021D02*
X159929800Y-52528211D01*
X159929800Y-52528211D02*
X159953609Y-52552021D01*
X159953609Y-52552021D02*
X159929800Y-52575830D01*
X159929800Y-52575830D02*
X159905990Y-52552021D01*
X159905990Y-52552021D02*
X159953609Y-52552021D01*
X159453609Y-52099640D02*
X159453609Y-52194878D01*
X159453609Y-52194878D02*
X159477419Y-52242497D01*
X159477419Y-52242497D02*
X159501228Y-52266307D01*
X159501228Y-52266307D02*
X159572657Y-52313926D01*
X159572657Y-52313926D02*
X159667895Y-52337735D01*
X159667895Y-52337735D02*
X159858371Y-52337735D01*
X159858371Y-52337735D02*
X159905990Y-52313926D01*
X159905990Y-52313926D02*
X159929800Y-52290116D01*
X159929800Y-52290116D02*
X159953609Y-52242497D01*
X159953609Y-52242497D02*
X159953609Y-52147259D01*
X159953609Y-52147259D02*
X159929800Y-52099640D01*
X159929800Y-52099640D02*
X159905990Y-52075831D01*
X159905990Y-52075831D02*
X159858371Y-52052021D01*
X159858371Y-52052021D02*
X159739323Y-52052021D01*
X159739323Y-52052021D02*
X159691704Y-52075831D01*
X159691704Y-52075831D02*
X159667895Y-52099640D01*
X159667895Y-52099640D02*
X159644085Y-52147259D01*
X159644085Y-52147259D02*
X159644085Y-52242497D01*
X159644085Y-52242497D02*
X159667895Y-52290116D01*
X159667895Y-52290116D02*
X159691704Y-52313926D01*
X159691704Y-52313926D02*
X159739323Y-52337735D01*
X131513609Y-53266306D02*
X131870752Y-53266306D01*
X131870752Y-53266306D02*
X131942180Y-53290115D01*
X131942180Y-53290115D02*
X131989800Y-53337734D01*
X131989800Y-53337734D02*
X132013609Y-53409163D01*
X132013609Y-53409163D02*
X132013609Y-53456782D01*
X132013609Y-52766306D02*
X132013609Y-53052020D01*
X132013609Y-52909163D02*
X131513609Y-52909163D01*
X131513609Y-52909163D02*
X131585038Y-52956782D01*
X131585038Y-52956782D02*
X131632657Y-53004401D01*
X131632657Y-53004401D02*
X131656466Y-53052020D01*
X131965990Y-52552021D02*
X131989800Y-52528211D01*
X131989800Y-52528211D02*
X132013609Y-52552021D01*
X132013609Y-52552021D02*
X131989800Y-52575830D01*
X131989800Y-52575830D02*
X131965990Y-52552021D01*
X131965990Y-52552021D02*
X132013609Y-52552021D01*
X132013609Y-52052021D02*
X132013609Y-52337735D01*
X132013609Y-52194878D02*
X131513609Y-52194878D01*
X131513609Y-52194878D02*
X131585038Y-52242497D01*
X131585038Y-52242497D02*
X131632657Y-52290116D01*
X131632657Y-52290116D02*
X131656466Y-52337735D01*
X131513609Y-51885355D02*
X131513609Y-51552022D01*
X131513609Y-51552022D02*
X132013609Y-51766307D01*
X156405609Y-100002306D02*
X156762752Y-100002306D01*
X156762752Y-100002306D02*
X156834180Y-100026115D01*
X156834180Y-100026115D02*
X156881800Y-100073734D01*
X156881800Y-100073734D02*
X156905609Y-100145163D01*
X156905609Y-100145163D02*
X156905609Y-100192782D01*
X156405609Y-99549925D02*
X156405609Y-99645163D01*
X156405609Y-99645163D02*
X156429419Y-99692782D01*
X156429419Y-99692782D02*
X156453228Y-99716592D01*
X156453228Y-99716592D02*
X156524657Y-99764211D01*
X156524657Y-99764211D02*
X156619895Y-99788020D01*
X156619895Y-99788020D02*
X156810371Y-99788020D01*
X156810371Y-99788020D02*
X156857990Y-99764211D01*
X156857990Y-99764211D02*
X156881800Y-99740401D01*
X156881800Y-99740401D02*
X156905609Y-99692782D01*
X156905609Y-99692782D02*
X156905609Y-99597544D01*
X156905609Y-99597544D02*
X156881800Y-99549925D01*
X156881800Y-99549925D02*
X156857990Y-99526116D01*
X156857990Y-99526116D02*
X156810371Y-99502306D01*
X156810371Y-99502306D02*
X156691323Y-99502306D01*
X156691323Y-99502306D02*
X156643704Y-99526116D01*
X156643704Y-99526116D02*
X156619895Y-99549925D01*
X156619895Y-99549925D02*
X156596085Y-99597544D01*
X156596085Y-99597544D02*
X156596085Y-99692782D01*
X156596085Y-99692782D02*
X156619895Y-99740401D01*
X156619895Y-99740401D02*
X156643704Y-99764211D01*
X156643704Y-99764211D02*
X156691323Y-99788020D01*
X156857990Y-99288021D02*
X156881800Y-99264211D01*
X156881800Y-99264211D02*
X156905609Y-99288021D01*
X156905609Y-99288021D02*
X156881800Y-99311830D01*
X156881800Y-99311830D02*
X156857990Y-99288021D01*
X156857990Y-99288021D02*
X156905609Y-99288021D01*
X156405609Y-98835640D02*
X156405609Y-98930878D01*
X156405609Y-98930878D02*
X156429419Y-98978497D01*
X156429419Y-98978497D02*
X156453228Y-99002307D01*
X156453228Y-99002307D02*
X156524657Y-99049926D01*
X156524657Y-99049926D02*
X156619895Y-99073735D01*
X156619895Y-99073735D02*
X156810371Y-99073735D01*
X156810371Y-99073735D02*
X156857990Y-99049926D01*
X156857990Y-99049926D02*
X156881800Y-99026116D01*
X156881800Y-99026116D02*
X156905609Y-98978497D01*
X156905609Y-98978497D02*
X156905609Y-98883259D01*
X156905609Y-98883259D02*
X156881800Y-98835640D01*
X156881800Y-98835640D02*
X156857990Y-98811831D01*
X156857990Y-98811831D02*
X156810371Y-98788021D01*
X156810371Y-98788021D02*
X156691323Y-98788021D01*
X156691323Y-98788021D02*
X156643704Y-98811831D01*
X156643704Y-98811831D02*
X156619895Y-98835640D01*
X156619895Y-98835640D02*
X156596085Y-98883259D01*
X156596085Y-98883259D02*
X156596085Y-98978497D01*
X156596085Y-98978497D02*
X156619895Y-99026116D01*
X156619895Y-99026116D02*
X156643704Y-99049926D01*
X156643704Y-99049926D02*
X156691323Y-99073735D01*
X149293609Y-53266306D02*
X149650752Y-53266306D01*
X149650752Y-53266306D02*
X149722180Y-53290115D01*
X149722180Y-53290115D02*
X149769800Y-53337734D01*
X149769800Y-53337734D02*
X149793609Y-53409163D01*
X149793609Y-53409163D02*
X149793609Y-53456782D01*
X149793609Y-52766306D02*
X149793609Y-53052020D01*
X149793609Y-52909163D02*
X149293609Y-52909163D01*
X149293609Y-52909163D02*
X149365038Y-52956782D01*
X149365038Y-52956782D02*
X149412657Y-53004401D01*
X149412657Y-53004401D02*
X149436466Y-53052020D01*
X149745990Y-52552021D02*
X149769800Y-52528211D01*
X149769800Y-52528211D02*
X149793609Y-52552021D01*
X149793609Y-52552021D02*
X149769800Y-52575830D01*
X149769800Y-52575830D02*
X149745990Y-52552021D01*
X149745990Y-52552021D02*
X149793609Y-52552021D01*
X149793609Y-52052021D02*
X149793609Y-52337735D01*
X149793609Y-52194878D02*
X149293609Y-52194878D01*
X149293609Y-52194878D02*
X149365038Y-52242497D01*
X149365038Y-52242497D02*
X149412657Y-52290116D01*
X149412657Y-52290116D02*
X149436466Y-52337735D01*
X149293609Y-51742498D02*
X149293609Y-51694879D01*
X149293609Y-51694879D02*
X149317419Y-51647260D01*
X149317419Y-51647260D02*
X149341228Y-51623450D01*
X149341228Y-51623450D02*
X149388847Y-51599641D01*
X149388847Y-51599641D02*
X149484085Y-51575831D01*
X149484085Y-51575831D02*
X149603133Y-51575831D01*
X149603133Y-51575831D02*
X149698371Y-51599641D01*
X149698371Y-51599641D02*
X149745990Y-51623450D01*
X149745990Y-51623450D02*
X149769800Y-51647260D01*
X149769800Y-51647260D02*
X149793609Y-51694879D01*
X149793609Y-51694879D02*
X149793609Y-51742498D01*
X149793609Y-51742498D02*
X149769800Y-51790117D01*
X149769800Y-51790117D02*
X149745990Y-51813926D01*
X149745990Y-51813926D02*
X149698371Y-51837736D01*
X149698371Y-51837736D02*
X149603133Y-51861545D01*
X149603133Y-51861545D02*
X149484085Y-51861545D01*
X149484085Y-51861545D02*
X149388847Y-51837736D01*
X149388847Y-51837736D02*
X149341228Y-51813926D01*
X149341228Y-51813926D02*
X149317419Y-51790117D01*
X149317419Y-51790117D02*
X149293609Y-51742498D01*
X158945609Y-100002306D02*
X159302752Y-100002306D01*
X159302752Y-100002306D02*
X159374180Y-100026115D01*
X159374180Y-100026115D02*
X159421800Y-100073734D01*
X159421800Y-100073734D02*
X159445609Y-100145163D01*
X159445609Y-100145163D02*
X159445609Y-100192782D01*
X158945609Y-99549925D02*
X158945609Y-99645163D01*
X158945609Y-99645163D02*
X158969419Y-99692782D01*
X158969419Y-99692782D02*
X158993228Y-99716592D01*
X158993228Y-99716592D02*
X159064657Y-99764211D01*
X159064657Y-99764211D02*
X159159895Y-99788020D01*
X159159895Y-99788020D02*
X159350371Y-99788020D01*
X159350371Y-99788020D02*
X159397990Y-99764211D01*
X159397990Y-99764211D02*
X159421800Y-99740401D01*
X159421800Y-99740401D02*
X159445609Y-99692782D01*
X159445609Y-99692782D02*
X159445609Y-99597544D01*
X159445609Y-99597544D02*
X159421800Y-99549925D01*
X159421800Y-99549925D02*
X159397990Y-99526116D01*
X159397990Y-99526116D02*
X159350371Y-99502306D01*
X159350371Y-99502306D02*
X159231323Y-99502306D01*
X159231323Y-99502306D02*
X159183704Y-99526116D01*
X159183704Y-99526116D02*
X159159895Y-99549925D01*
X159159895Y-99549925D02*
X159136085Y-99597544D01*
X159136085Y-99597544D02*
X159136085Y-99692782D01*
X159136085Y-99692782D02*
X159159895Y-99740401D01*
X159159895Y-99740401D02*
X159183704Y-99764211D01*
X159183704Y-99764211D02*
X159231323Y-99788020D01*
X159397990Y-99288021D02*
X159421800Y-99264211D01*
X159421800Y-99264211D02*
X159445609Y-99288021D01*
X159445609Y-99288021D02*
X159421800Y-99311830D01*
X159421800Y-99311830D02*
X159397990Y-99288021D01*
X159397990Y-99288021D02*
X159445609Y-99288021D01*
X158945609Y-99097545D02*
X158945609Y-98764212D01*
X158945609Y-98764212D02*
X159445609Y-98978497D01*
X123771693Y-68267609D02*
X123771693Y-68624752D01*
X123771693Y-68624752D02*
X123747884Y-68696180D01*
X123747884Y-68696180D02*
X123700265Y-68743800D01*
X123700265Y-68743800D02*
X123628836Y-68767609D01*
X123628836Y-68767609D02*
X123581217Y-68767609D01*
X123985979Y-68315228D02*
X124009788Y-68291419D01*
X124009788Y-68291419D02*
X124057407Y-68267609D01*
X124057407Y-68267609D02*
X124176455Y-68267609D01*
X124176455Y-68267609D02*
X124224074Y-68291419D01*
X124224074Y-68291419D02*
X124247883Y-68315228D01*
X124247883Y-68315228D02*
X124271693Y-68362847D01*
X124271693Y-68362847D02*
X124271693Y-68410466D01*
X124271693Y-68410466D02*
X124247883Y-68481895D01*
X124247883Y-68481895D02*
X123962169Y-68767609D01*
X123962169Y-68767609D02*
X124271693Y-68767609D01*
X124485978Y-68719990D02*
X124509788Y-68743800D01*
X124509788Y-68743800D02*
X124485978Y-68767609D01*
X124485978Y-68767609D02*
X124462169Y-68743800D01*
X124462169Y-68743800D02*
X124485978Y-68719990D01*
X124485978Y-68719990D02*
X124485978Y-68767609D01*
X124700264Y-68315228D02*
X124724073Y-68291419D01*
X124724073Y-68291419D02*
X124771692Y-68267609D01*
X124771692Y-68267609D02*
X124890740Y-68267609D01*
X124890740Y-68267609D02*
X124938359Y-68291419D01*
X124938359Y-68291419D02*
X124962168Y-68315228D01*
X124962168Y-68315228D02*
X124985978Y-68362847D01*
X124985978Y-68362847D02*
X124985978Y-68410466D01*
X124985978Y-68410466D02*
X124962168Y-68481895D01*
X124962168Y-68481895D02*
X124676454Y-68767609D01*
X124676454Y-68767609D02*
X124985978Y-68767609D01*
X151833609Y-53266306D02*
X152190752Y-53266306D01*
X152190752Y-53266306D02*
X152262180Y-53290115D01*
X152262180Y-53290115D02*
X152309800Y-53337734D01*
X152309800Y-53337734D02*
X152333609Y-53409163D01*
X152333609Y-53409163D02*
X152333609Y-53456782D01*
X152333609Y-52766306D02*
X152333609Y-53052020D01*
X152333609Y-52909163D02*
X151833609Y-52909163D01*
X151833609Y-52909163D02*
X151905038Y-52956782D01*
X151905038Y-52956782D02*
X151952657Y-53004401D01*
X151952657Y-53004401D02*
X151976466Y-53052020D01*
X152285990Y-52552021D02*
X152309800Y-52528211D01*
X152309800Y-52528211D02*
X152333609Y-52552021D01*
X152333609Y-52552021D02*
X152309800Y-52575830D01*
X152309800Y-52575830D02*
X152285990Y-52552021D01*
X152285990Y-52552021D02*
X152333609Y-52552021D01*
X152333609Y-52290116D02*
X152333609Y-52194878D01*
X152333609Y-52194878D02*
X152309800Y-52147259D01*
X152309800Y-52147259D02*
X152285990Y-52123450D01*
X152285990Y-52123450D02*
X152214561Y-52075831D01*
X152214561Y-52075831D02*
X152119323Y-52052021D01*
X152119323Y-52052021D02*
X151928847Y-52052021D01*
X151928847Y-52052021D02*
X151881228Y-52075831D01*
X151881228Y-52075831D02*
X151857419Y-52099640D01*
X151857419Y-52099640D02*
X151833609Y-52147259D01*
X151833609Y-52147259D02*
X151833609Y-52242497D01*
X151833609Y-52242497D02*
X151857419Y-52290116D01*
X151857419Y-52290116D02*
X151881228Y-52313926D01*
X151881228Y-52313926D02*
X151928847Y-52337735D01*
X151928847Y-52337735D02*
X152047895Y-52337735D01*
X152047895Y-52337735D02*
X152095514Y-52313926D01*
X152095514Y-52313926D02*
X152119323Y-52290116D01*
X152119323Y-52290116D02*
X152143133Y-52242497D01*
X152143133Y-52242497D02*
X152143133Y-52147259D01*
X152143133Y-52147259D02*
X152119323Y-52099640D01*
X152119323Y-52099640D02*
X152095514Y-52075831D01*
X152095514Y-52075831D02*
X152047895Y-52052021D01*
X136593609Y-53266306D02*
X136950752Y-53266306D01*
X136950752Y-53266306D02*
X137022180Y-53290115D01*
X137022180Y-53290115D02*
X137069800Y-53337734D01*
X137069800Y-53337734D02*
X137093609Y-53409163D01*
X137093609Y-53409163D02*
X137093609Y-53456782D01*
X137093609Y-52766306D02*
X137093609Y-53052020D01*
X137093609Y-52909163D02*
X136593609Y-52909163D01*
X136593609Y-52909163D02*
X136665038Y-52956782D01*
X136665038Y-52956782D02*
X136712657Y-53004401D01*
X136712657Y-53004401D02*
X136736466Y-53052020D01*
X137045990Y-52552021D02*
X137069800Y-52528211D01*
X137069800Y-52528211D02*
X137093609Y-52552021D01*
X137093609Y-52552021D02*
X137069800Y-52575830D01*
X137069800Y-52575830D02*
X137045990Y-52552021D01*
X137045990Y-52552021D02*
X137093609Y-52552021D01*
X137093609Y-52052021D02*
X137093609Y-52337735D01*
X137093609Y-52194878D02*
X136593609Y-52194878D01*
X136593609Y-52194878D02*
X136665038Y-52242497D01*
X136665038Y-52242497D02*
X136712657Y-52290116D01*
X136712657Y-52290116D02*
X136736466Y-52337735D01*
X136593609Y-51599641D02*
X136593609Y-51837736D01*
X136593609Y-51837736D02*
X136831704Y-51861545D01*
X136831704Y-51861545D02*
X136807895Y-51837736D01*
X136807895Y-51837736D02*
X136784085Y-51790117D01*
X136784085Y-51790117D02*
X136784085Y-51671069D01*
X136784085Y-51671069D02*
X136807895Y-51623450D01*
X136807895Y-51623450D02*
X136831704Y-51599641D01*
X136831704Y-51599641D02*
X136879323Y-51575831D01*
X136879323Y-51575831D02*
X136998371Y-51575831D01*
X136998371Y-51575831D02*
X137045990Y-51599641D01*
X137045990Y-51599641D02*
X137069800Y-51623450D01*
X137069800Y-51623450D02*
X137093609Y-51671069D01*
X137093609Y-51671069D02*
X137093609Y-51790117D01*
X137093609Y-51790117D02*
X137069800Y-51837736D01*
X137069800Y-51837736D02*
X137045990Y-51861545D01*
X164533609Y-53266306D02*
X164890752Y-53266306D01*
X164890752Y-53266306D02*
X164962180Y-53290115D01*
X164962180Y-53290115D02*
X165009800Y-53337734D01*
X165009800Y-53337734D02*
X165033609Y-53409163D01*
X165033609Y-53409163D02*
X165033609Y-53456782D01*
X165033609Y-52766306D02*
X165033609Y-53052020D01*
X165033609Y-52909163D02*
X164533609Y-52909163D01*
X164533609Y-52909163D02*
X164605038Y-52956782D01*
X164605038Y-52956782D02*
X164652657Y-53004401D01*
X164652657Y-53004401D02*
X164676466Y-53052020D01*
X164985990Y-52552021D02*
X165009800Y-52528211D01*
X165009800Y-52528211D02*
X165033609Y-52552021D01*
X165033609Y-52552021D02*
X165009800Y-52575830D01*
X165009800Y-52575830D02*
X164985990Y-52552021D01*
X164985990Y-52552021D02*
X165033609Y-52552021D01*
X164700276Y-52099640D02*
X165033609Y-52099640D01*
X164509800Y-52218688D02*
X164866942Y-52337735D01*
X164866942Y-52337735D02*
X164866942Y-52028212D01*
X124401609Y-99240306D02*
X124758752Y-99240306D01*
X124758752Y-99240306D02*
X124830180Y-99264115D01*
X124830180Y-99264115D02*
X124877800Y-99311734D01*
X124877800Y-99311734D02*
X124901609Y-99383163D01*
X124901609Y-99383163D02*
X124901609Y-99430782D01*
X124401609Y-98764116D02*
X124401609Y-99002211D01*
X124401609Y-99002211D02*
X124639704Y-99026020D01*
X124639704Y-99026020D02*
X124615895Y-99002211D01*
X124615895Y-99002211D02*
X124592085Y-98954592D01*
X124592085Y-98954592D02*
X124592085Y-98835544D01*
X124592085Y-98835544D02*
X124615895Y-98787925D01*
X124615895Y-98787925D02*
X124639704Y-98764116D01*
X124639704Y-98764116D02*
X124687323Y-98740306D01*
X124687323Y-98740306D02*
X124806371Y-98740306D01*
X124806371Y-98740306D02*
X124853990Y-98764116D01*
X124853990Y-98764116D02*
X124877800Y-98787925D01*
X124877800Y-98787925D02*
X124901609Y-98835544D01*
X124901609Y-98835544D02*
X124901609Y-98954592D01*
X124901609Y-98954592D02*
X124877800Y-99002211D01*
X124877800Y-99002211D02*
X124853990Y-99026020D01*
X124853990Y-98526021D02*
X124877800Y-98502211D01*
X124877800Y-98502211D02*
X124901609Y-98526021D01*
X124901609Y-98526021D02*
X124877800Y-98549830D01*
X124877800Y-98549830D02*
X124853990Y-98526021D01*
X124853990Y-98526021D02*
X124901609Y-98526021D01*
X124568276Y-98073640D02*
X124901609Y-98073640D01*
X124377800Y-98192688D02*
X124734942Y-98311735D01*
X124734942Y-98311735D02*
X124734942Y-98002212D01*
X153865609Y-100002306D02*
X154222752Y-100002306D01*
X154222752Y-100002306D02*
X154294180Y-100026115D01*
X154294180Y-100026115D02*
X154341800Y-100073734D01*
X154341800Y-100073734D02*
X154365609Y-100145163D01*
X154365609Y-100145163D02*
X154365609Y-100192782D01*
X153865609Y-99549925D02*
X153865609Y-99645163D01*
X153865609Y-99645163D02*
X153889419Y-99692782D01*
X153889419Y-99692782D02*
X153913228Y-99716592D01*
X153913228Y-99716592D02*
X153984657Y-99764211D01*
X153984657Y-99764211D02*
X154079895Y-99788020D01*
X154079895Y-99788020D02*
X154270371Y-99788020D01*
X154270371Y-99788020D02*
X154317990Y-99764211D01*
X154317990Y-99764211D02*
X154341800Y-99740401D01*
X154341800Y-99740401D02*
X154365609Y-99692782D01*
X154365609Y-99692782D02*
X154365609Y-99597544D01*
X154365609Y-99597544D02*
X154341800Y-99549925D01*
X154341800Y-99549925D02*
X154317990Y-99526116D01*
X154317990Y-99526116D02*
X154270371Y-99502306D01*
X154270371Y-99502306D02*
X154151323Y-99502306D01*
X154151323Y-99502306D02*
X154103704Y-99526116D01*
X154103704Y-99526116D02*
X154079895Y-99549925D01*
X154079895Y-99549925D02*
X154056085Y-99597544D01*
X154056085Y-99597544D02*
X154056085Y-99692782D01*
X154056085Y-99692782D02*
X154079895Y-99740401D01*
X154079895Y-99740401D02*
X154103704Y-99764211D01*
X154103704Y-99764211D02*
X154151323Y-99788020D01*
X154317990Y-99288021D02*
X154341800Y-99264211D01*
X154341800Y-99264211D02*
X154365609Y-99288021D01*
X154365609Y-99288021D02*
X154341800Y-99311830D01*
X154341800Y-99311830D02*
X154317990Y-99288021D01*
X154317990Y-99288021D02*
X154365609Y-99288021D01*
X153865609Y-98811831D02*
X153865609Y-99049926D01*
X153865609Y-99049926D02*
X154103704Y-99073735D01*
X154103704Y-99073735D02*
X154079895Y-99049926D01*
X154079895Y-99049926D02*
X154056085Y-99002307D01*
X154056085Y-99002307D02*
X154056085Y-98883259D01*
X154056085Y-98883259D02*
X154079895Y-98835640D01*
X154079895Y-98835640D02*
X154103704Y-98811831D01*
X154103704Y-98811831D02*
X154151323Y-98788021D01*
X154151323Y-98788021D02*
X154270371Y-98788021D01*
X154270371Y-98788021D02*
X154317990Y-98811831D01*
X154317990Y-98811831D02*
X154341800Y-98835640D01*
X154341800Y-98835640D02*
X154365609Y-98883259D01*
X154365609Y-98883259D02*
X154365609Y-99002307D01*
X154365609Y-99002307D02*
X154341800Y-99049926D01*
X154341800Y-99049926D02*
X154317990Y-99073735D01*
X143705609Y-100002306D02*
X144062752Y-100002306D01*
X144062752Y-100002306D02*
X144134180Y-100026115D01*
X144134180Y-100026115D02*
X144181800Y-100073734D01*
X144181800Y-100073734D02*
X144205609Y-100145163D01*
X144205609Y-100145163D02*
X144205609Y-100192782D01*
X143705609Y-99549925D02*
X143705609Y-99645163D01*
X143705609Y-99645163D02*
X143729419Y-99692782D01*
X143729419Y-99692782D02*
X143753228Y-99716592D01*
X143753228Y-99716592D02*
X143824657Y-99764211D01*
X143824657Y-99764211D02*
X143919895Y-99788020D01*
X143919895Y-99788020D02*
X144110371Y-99788020D01*
X144110371Y-99788020D02*
X144157990Y-99764211D01*
X144157990Y-99764211D02*
X144181800Y-99740401D01*
X144181800Y-99740401D02*
X144205609Y-99692782D01*
X144205609Y-99692782D02*
X144205609Y-99597544D01*
X144205609Y-99597544D02*
X144181800Y-99549925D01*
X144181800Y-99549925D02*
X144157990Y-99526116D01*
X144157990Y-99526116D02*
X144110371Y-99502306D01*
X144110371Y-99502306D02*
X143991323Y-99502306D01*
X143991323Y-99502306D02*
X143943704Y-99526116D01*
X143943704Y-99526116D02*
X143919895Y-99549925D01*
X143919895Y-99549925D02*
X143896085Y-99597544D01*
X143896085Y-99597544D02*
X143896085Y-99692782D01*
X143896085Y-99692782D02*
X143919895Y-99740401D01*
X143919895Y-99740401D02*
X143943704Y-99764211D01*
X143943704Y-99764211D02*
X143991323Y-99788020D01*
X144157990Y-99288021D02*
X144181800Y-99264211D01*
X144181800Y-99264211D02*
X144205609Y-99288021D01*
X144205609Y-99288021D02*
X144181800Y-99311830D01*
X144181800Y-99311830D02*
X144157990Y-99288021D01*
X144157990Y-99288021D02*
X144205609Y-99288021D01*
X144205609Y-98788021D02*
X144205609Y-99073735D01*
X144205609Y-98930878D02*
X143705609Y-98930878D01*
X143705609Y-98930878D02*
X143777038Y-98978497D01*
X143777038Y-98978497D02*
X143824657Y-99026116D01*
X143824657Y-99026116D02*
X143848466Y-99073735D01*
X134053609Y-53266306D02*
X134410752Y-53266306D01*
X134410752Y-53266306D02*
X134482180Y-53290115D01*
X134482180Y-53290115D02*
X134529800Y-53337734D01*
X134529800Y-53337734D02*
X134553609Y-53409163D01*
X134553609Y-53409163D02*
X134553609Y-53456782D01*
X134553609Y-52766306D02*
X134553609Y-53052020D01*
X134553609Y-52909163D02*
X134053609Y-52909163D01*
X134053609Y-52909163D02*
X134125038Y-52956782D01*
X134125038Y-52956782D02*
X134172657Y-53004401D01*
X134172657Y-53004401D02*
X134196466Y-53052020D01*
X134505990Y-52552021D02*
X134529800Y-52528211D01*
X134529800Y-52528211D02*
X134553609Y-52552021D01*
X134553609Y-52552021D02*
X134529800Y-52575830D01*
X134529800Y-52575830D02*
X134505990Y-52552021D01*
X134505990Y-52552021D02*
X134553609Y-52552021D01*
X134553609Y-52052021D02*
X134553609Y-52337735D01*
X134553609Y-52194878D02*
X134053609Y-52194878D01*
X134053609Y-52194878D02*
X134125038Y-52242497D01*
X134125038Y-52242497D02*
X134172657Y-52290116D01*
X134172657Y-52290116D02*
X134196466Y-52337735D01*
X134053609Y-51623450D02*
X134053609Y-51718688D01*
X134053609Y-51718688D02*
X134077419Y-51766307D01*
X134077419Y-51766307D02*
X134101228Y-51790117D01*
X134101228Y-51790117D02*
X134172657Y-51837736D01*
X134172657Y-51837736D02*
X134267895Y-51861545D01*
X134267895Y-51861545D02*
X134458371Y-51861545D01*
X134458371Y-51861545D02*
X134505990Y-51837736D01*
X134505990Y-51837736D02*
X134529800Y-51813926D01*
X134529800Y-51813926D02*
X134553609Y-51766307D01*
X134553609Y-51766307D02*
X134553609Y-51671069D01*
X134553609Y-51671069D02*
X134529800Y-51623450D01*
X134529800Y-51623450D02*
X134505990Y-51599641D01*
X134505990Y-51599641D02*
X134458371Y-51575831D01*
X134458371Y-51575831D02*
X134339323Y-51575831D01*
X134339323Y-51575831D02*
X134291704Y-51599641D01*
X134291704Y-51599641D02*
X134267895Y-51623450D01*
X134267895Y-51623450D02*
X134244085Y-51671069D01*
X134244085Y-51671069D02*
X134244085Y-51766307D01*
X134244085Y-51766307D02*
X134267895Y-51813926D01*
X134267895Y-51813926D02*
X134291704Y-51837736D01*
X134291704Y-51837736D02*
X134339323Y-51861545D01*
X132021609Y-99240306D02*
X132378752Y-99240306D01*
X132378752Y-99240306D02*
X132450180Y-99264115D01*
X132450180Y-99264115D02*
X132497800Y-99311734D01*
X132497800Y-99311734D02*
X132521609Y-99383163D01*
X132521609Y-99383163D02*
X132521609Y-99430782D01*
X132021609Y-98764116D02*
X132021609Y-99002211D01*
X132021609Y-99002211D02*
X132259704Y-99026020D01*
X132259704Y-99026020D02*
X132235895Y-99002211D01*
X132235895Y-99002211D02*
X132212085Y-98954592D01*
X132212085Y-98954592D02*
X132212085Y-98835544D01*
X132212085Y-98835544D02*
X132235895Y-98787925D01*
X132235895Y-98787925D02*
X132259704Y-98764116D01*
X132259704Y-98764116D02*
X132307323Y-98740306D01*
X132307323Y-98740306D02*
X132426371Y-98740306D01*
X132426371Y-98740306D02*
X132473990Y-98764116D01*
X132473990Y-98764116D02*
X132497800Y-98787925D01*
X132497800Y-98787925D02*
X132521609Y-98835544D01*
X132521609Y-98835544D02*
X132521609Y-98954592D01*
X132521609Y-98954592D02*
X132497800Y-99002211D01*
X132497800Y-99002211D02*
X132473990Y-99026020D01*
X132473990Y-98526021D02*
X132497800Y-98502211D01*
X132497800Y-98502211D02*
X132521609Y-98526021D01*
X132521609Y-98526021D02*
X132497800Y-98549830D01*
X132497800Y-98549830D02*
X132473990Y-98526021D01*
X132473990Y-98526021D02*
X132521609Y-98526021D01*
X132521609Y-98026021D02*
X132521609Y-98311735D01*
X132521609Y-98168878D02*
X132021609Y-98168878D01*
X132021609Y-98168878D02*
X132093038Y-98216497D01*
X132093038Y-98216497D02*
X132140657Y-98264116D01*
X132140657Y-98264116D02*
X132164466Y-98311735D01*
X123771693Y-75887609D02*
X123771693Y-76244752D01*
X123771693Y-76244752D02*
X123747884Y-76316180D01*
X123747884Y-76316180D02*
X123700265Y-76363800D01*
X123700265Y-76363800D02*
X123628836Y-76387609D01*
X123628836Y-76387609D02*
X123581217Y-76387609D01*
X123985979Y-75935228D02*
X124009788Y-75911419D01*
X124009788Y-75911419D02*
X124057407Y-75887609D01*
X124057407Y-75887609D02*
X124176455Y-75887609D01*
X124176455Y-75887609D02*
X124224074Y-75911419D01*
X124224074Y-75911419D02*
X124247883Y-75935228D01*
X124247883Y-75935228D02*
X124271693Y-75982847D01*
X124271693Y-75982847D02*
X124271693Y-76030466D01*
X124271693Y-76030466D02*
X124247883Y-76101895D01*
X124247883Y-76101895D02*
X123962169Y-76387609D01*
X123962169Y-76387609D02*
X124271693Y-76387609D01*
X124485978Y-76339990D02*
X124509788Y-76363800D01*
X124509788Y-76363800D02*
X124485978Y-76387609D01*
X124485978Y-76387609D02*
X124462169Y-76363800D01*
X124462169Y-76363800D02*
X124485978Y-76339990D01*
X124485978Y-76339990D02*
X124485978Y-76387609D01*
X124962168Y-75887609D02*
X124724073Y-75887609D01*
X124724073Y-75887609D02*
X124700264Y-76125704D01*
X124700264Y-76125704D02*
X124724073Y-76101895D01*
X124724073Y-76101895D02*
X124771692Y-76078085D01*
X124771692Y-76078085D02*
X124890740Y-76078085D01*
X124890740Y-76078085D02*
X124938359Y-76101895D01*
X124938359Y-76101895D02*
X124962168Y-76125704D01*
X124962168Y-76125704D02*
X124985978Y-76173323D01*
X124985978Y-76173323D02*
X124985978Y-76292371D01*
X124985978Y-76292371D02*
X124962168Y-76339990D01*
X124962168Y-76339990D02*
X124938359Y-76363800D01*
X124938359Y-76363800D02*
X124890740Y-76387609D01*
X124890740Y-76387609D02*
X124771692Y-76387609D01*
X124771692Y-76387609D02*
X124724073Y-76363800D01*
X124724073Y-76363800D02*
X124700264Y-76339990D01*
X161485609Y-100002306D02*
X161842752Y-100002306D01*
X161842752Y-100002306D02*
X161914180Y-100026115D01*
X161914180Y-100026115D02*
X161961800Y-100073734D01*
X161961800Y-100073734D02*
X161985609Y-100145163D01*
X161985609Y-100145163D02*
X161985609Y-100192782D01*
X161485609Y-99549925D02*
X161485609Y-99645163D01*
X161485609Y-99645163D02*
X161509419Y-99692782D01*
X161509419Y-99692782D02*
X161533228Y-99716592D01*
X161533228Y-99716592D02*
X161604657Y-99764211D01*
X161604657Y-99764211D02*
X161699895Y-99788020D01*
X161699895Y-99788020D02*
X161890371Y-99788020D01*
X161890371Y-99788020D02*
X161937990Y-99764211D01*
X161937990Y-99764211D02*
X161961800Y-99740401D01*
X161961800Y-99740401D02*
X161985609Y-99692782D01*
X161985609Y-99692782D02*
X161985609Y-99597544D01*
X161985609Y-99597544D02*
X161961800Y-99549925D01*
X161961800Y-99549925D02*
X161937990Y-99526116D01*
X161937990Y-99526116D02*
X161890371Y-99502306D01*
X161890371Y-99502306D02*
X161771323Y-99502306D01*
X161771323Y-99502306D02*
X161723704Y-99526116D01*
X161723704Y-99526116D02*
X161699895Y-99549925D01*
X161699895Y-99549925D02*
X161676085Y-99597544D01*
X161676085Y-99597544D02*
X161676085Y-99692782D01*
X161676085Y-99692782D02*
X161699895Y-99740401D01*
X161699895Y-99740401D02*
X161723704Y-99764211D01*
X161723704Y-99764211D02*
X161771323Y-99788020D01*
X161937990Y-99288021D02*
X161961800Y-99264211D01*
X161961800Y-99264211D02*
X161985609Y-99288021D01*
X161985609Y-99288021D02*
X161961800Y-99311830D01*
X161961800Y-99311830D02*
X161937990Y-99288021D01*
X161937990Y-99288021D02*
X161985609Y-99288021D01*
X161699895Y-98978497D02*
X161676085Y-99026116D01*
X161676085Y-99026116D02*
X161652276Y-99049926D01*
X161652276Y-99049926D02*
X161604657Y-99073735D01*
X161604657Y-99073735D02*
X161580847Y-99073735D01*
X161580847Y-99073735D02*
X161533228Y-99049926D01*
X161533228Y-99049926D02*
X161509419Y-99026116D01*
X161509419Y-99026116D02*
X161485609Y-98978497D01*
X161485609Y-98978497D02*
X161485609Y-98883259D01*
X161485609Y-98883259D02*
X161509419Y-98835640D01*
X161509419Y-98835640D02*
X161533228Y-98811831D01*
X161533228Y-98811831D02*
X161580847Y-98788021D01*
X161580847Y-98788021D02*
X161604657Y-98788021D01*
X161604657Y-98788021D02*
X161652276Y-98811831D01*
X161652276Y-98811831D02*
X161676085Y-98835640D01*
X161676085Y-98835640D02*
X161699895Y-98883259D01*
X161699895Y-98883259D02*
X161699895Y-98978497D01*
X161699895Y-98978497D02*
X161723704Y-99026116D01*
X161723704Y-99026116D02*
X161747514Y-99049926D01*
X161747514Y-99049926D02*
X161795133Y-99073735D01*
X161795133Y-99073735D02*
X161890371Y-99073735D01*
X161890371Y-99073735D02*
X161937990Y-99049926D01*
X161937990Y-99049926D02*
X161961800Y-99026116D01*
X161961800Y-99026116D02*
X161985609Y-98978497D01*
X161985609Y-98978497D02*
X161985609Y-98883259D01*
X161985609Y-98883259D02*
X161961800Y-98835640D01*
X161961800Y-98835640D02*
X161937990Y-98811831D01*
X161937990Y-98811831D02*
X161890371Y-98788021D01*
X161890371Y-98788021D02*
X161795133Y-98788021D01*
X161795133Y-98788021D02*
X161747514Y-98811831D01*
X161747514Y-98811831D02*
X161723704Y-98835640D01*
X161723704Y-98835640D02*
X161699895Y-98883259D01*
X169613609Y-53266306D02*
X169970752Y-53266306D01*
X169970752Y-53266306D02*
X170042180Y-53290115D01*
X170042180Y-53290115D02*
X170089800Y-53337734D01*
X170089800Y-53337734D02*
X170113609Y-53409163D01*
X170113609Y-53409163D02*
X170113609Y-53456782D01*
X170113609Y-52766306D02*
X170113609Y-53052020D01*
X170113609Y-52909163D02*
X169613609Y-52909163D01*
X169613609Y-52909163D02*
X169685038Y-52956782D01*
X169685038Y-52956782D02*
X169732657Y-53004401D01*
X169732657Y-53004401D02*
X169756466Y-53052020D01*
X170065990Y-52552021D02*
X170089800Y-52528211D01*
X170089800Y-52528211D02*
X170113609Y-52552021D01*
X170113609Y-52552021D02*
X170089800Y-52575830D01*
X170089800Y-52575830D02*
X170065990Y-52552021D01*
X170065990Y-52552021D02*
X170113609Y-52552021D01*
X169661228Y-52337735D02*
X169637419Y-52313926D01*
X169637419Y-52313926D02*
X169613609Y-52266307D01*
X169613609Y-52266307D02*
X169613609Y-52147259D01*
X169613609Y-52147259D02*
X169637419Y-52099640D01*
X169637419Y-52099640D02*
X169661228Y-52075831D01*
X169661228Y-52075831D02*
X169708847Y-52052021D01*
X169708847Y-52052021D02*
X169756466Y-52052021D01*
X169756466Y-52052021D02*
X169827895Y-52075831D01*
X169827895Y-52075831D02*
X170113609Y-52361545D01*
X170113609Y-52361545D02*
X170113609Y-52052021D01*
X148785609Y-100002306D02*
X149142752Y-100002306D01*
X149142752Y-100002306D02*
X149214180Y-100026115D01*
X149214180Y-100026115D02*
X149261800Y-100073734D01*
X149261800Y-100073734D02*
X149285609Y-100145163D01*
X149285609Y-100145163D02*
X149285609Y-100192782D01*
X148785609Y-99549925D02*
X148785609Y-99645163D01*
X148785609Y-99645163D02*
X148809419Y-99692782D01*
X148809419Y-99692782D02*
X148833228Y-99716592D01*
X148833228Y-99716592D02*
X148904657Y-99764211D01*
X148904657Y-99764211D02*
X148999895Y-99788020D01*
X148999895Y-99788020D02*
X149190371Y-99788020D01*
X149190371Y-99788020D02*
X149237990Y-99764211D01*
X149237990Y-99764211D02*
X149261800Y-99740401D01*
X149261800Y-99740401D02*
X149285609Y-99692782D01*
X149285609Y-99692782D02*
X149285609Y-99597544D01*
X149285609Y-99597544D02*
X149261800Y-99549925D01*
X149261800Y-99549925D02*
X149237990Y-99526116D01*
X149237990Y-99526116D02*
X149190371Y-99502306D01*
X149190371Y-99502306D02*
X149071323Y-99502306D01*
X149071323Y-99502306D02*
X149023704Y-99526116D01*
X149023704Y-99526116D02*
X148999895Y-99549925D01*
X148999895Y-99549925D02*
X148976085Y-99597544D01*
X148976085Y-99597544D02*
X148976085Y-99692782D01*
X148976085Y-99692782D02*
X148999895Y-99740401D01*
X148999895Y-99740401D02*
X149023704Y-99764211D01*
X149023704Y-99764211D02*
X149071323Y-99788020D01*
X149237990Y-99288021D02*
X149261800Y-99264211D01*
X149261800Y-99264211D02*
X149285609Y-99288021D01*
X149285609Y-99288021D02*
X149261800Y-99311830D01*
X149261800Y-99311830D02*
X149237990Y-99288021D01*
X149237990Y-99288021D02*
X149285609Y-99288021D01*
X148785609Y-99097545D02*
X148785609Y-98788021D01*
X148785609Y-98788021D02*
X148976085Y-98954688D01*
X148976085Y-98954688D02*
X148976085Y-98883259D01*
X148976085Y-98883259D02*
X148999895Y-98835640D01*
X148999895Y-98835640D02*
X149023704Y-98811831D01*
X149023704Y-98811831D02*
X149071323Y-98788021D01*
X149071323Y-98788021D02*
X149190371Y-98788021D01*
X149190371Y-98788021D02*
X149237990Y-98811831D01*
X149237990Y-98811831D02*
X149261800Y-98835640D01*
X149261800Y-98835640D02*
X149285609Y-98883259D01*
X149285609Y-98883259D02*
X149285609Y-99026116D01*
X149285609Y-99026116D02*
X149261800Y-99073735D01*
X149261800Y-99073735D02*
X149237990Y-99097545D01*
X172407609Y-53266306D02*
X172764752Y-53266306D01*
X172764752Y-53266306D02*
X172836180Y-53290115D01*
X172836180Y-53290115D02*
X172883800Y-53337734D01*
X172883800Y-53337734D02*
X172907609Y-53409163D01*
X172907609Y-53409163D02*
X172907609Y-53456782D01*
X172907609Y-52766306D02*
X172907609Y-53052020D01*
X172907609Y-52909163D02*
X172407609Y-52909163D01*
X172407609Y-52909163D02*
X172479038Y-52956782D01*
X172479038Y-52956782D02*
X172526657Y-53004401D01*
X172526657Y-53004401D02*
X172550466Y-53052020D01*
X172859990Y-52552021D02*
X172883800Y-52528211D01*
X172883800Y-52528211D02*
X172907609Y-52552021D01*
X172907609Y-52552021D02*
X172883800Y-52575830D01*
X172883800Y-52575830D02*
X172859990Y-52552021D01*
X172859990Y-52552021D02*
X172907609Y-52552021D01*
X172907609Y-52052021D02*
X172907609Y-52337735D01*
X172907609Y-52194878D02*
X172407609Y-52194878D01*
X172407609Y-52194878D02*
X172479038Y-52242497D01*
X172479038Y-52242497D02*
X172526657Y-52290116D01*
X172526657Y-52290116D02*
X172550466Y-52337735D01*
D11*
X171288199Y-66461385D02*
X171473913Y-66461385D01*
X171473913Y-66461385D02*
X171373913Y-66575671D01*
X171373913Y-66575671D02*
X171416770Y-66575671D01*
X171416770Y-66575671D02*
X171445342Y-66589957D01*
X171445342Y-66589957D02*
X171459627Y-66604242D01*
X171459627Y-66604242D02*
X171473913Y-66632814D01*
X171473913Y-66632814D02*
X171473913Y-66704242D01*
X171473913Y-66704242D02*
X171459627Y-66732814D01*
X171459627Y-66732814D02*
X171445342Y-66747100D01*
X171445342Y-66747100D02*
X171416770Y-66761385D01*
X171416770Y-66761385D02*
X171331056Y-66761385D01*
X171331056Y-66761385D02*
X171302484Y-66747100D01*
X171302484Y-66747100D02*
X171288199Y-66732814D01*
X171602484Y-66732814D02*
X171616770Y-66747100D01*
X171616770Y-66747100D02*
X171602484Y-66761385D01*
X171602484Y-66761385D02*
X171588198Y-66747100D01*
X171588198Y-66747100D02*
X171602484Y-66732814D01*
X171602484Y-66732814D02*
X171602484Y-66761385D01*
X171716770Y-66461385D02*
X171902484Y-66461385D01*
X171902484Y-66461385D02*
X171802484Y-66575671D01*
X171802484Y-66575671D02*
X171845341Y-66575671D01*
X171845341Y-66575671D02*
X171873913Y-66589957D01*
X171873913Y-66589957D02*
X171888198Y-66604242D01*
X171888198Y-66604242D02*
X171902484Y-66632814D01*
X171902484Y-66632814D02*
X171902484Y-66704242D01*
X171902484Y-66704242D02*
X171888198Y-66732814D01*
X171888198Y-66732814D02*
X171873913Y-66747100D01*
X171873913Y-66747100D02*
X171845341Y-66761385D01*
X171845341Y-66761385D02*
X171759627Y-66761385D01*
X171759627Y-66761385D02*
X171731055Y-66747100D01*
X171731055Y-66747100D02*
X171716770Y-66732814D01*
X171988198Y-66461385D02*
X172088198Y-66761385D01*
X172088198Y-66761385D02*
X172188198Y-66461385D01*
D10*
X154373609Y-53266306D02*
X154730752Y-53266306D01*
X154730752Y-53266306D02*
X154802180Y-53290115D01*
X154802180Y-53290115D02*
X154849800Y-53337734D01*
X154849800Y-53337734D02*
X154873609Y-53409163D01*
X154873609Y-53409163D02*
X154873609Y-53456782D01*
X154873609Y-52766306D02*
X154873609Y-53052020D01*
X154873609Y-52909163D02*
X154373609Y-52909163D01*
X154373609Y-52909163D02*
X154445038Y-52956782D01*
X154445038Y-52956782D02*
X154492657Y-53004401D01*
X154492657Y-53004401D02*
X154516466Y-53052020D01*
X154825990Y-52552021D02*
X154849800Y-52528211D01*
X154849800Y-52528211D02*
X154873609Y-52552021D01*
X154873609Y-52552021D02*
X154849800Y-52575830D01*
X154849800Y-52575830D02*
X154825990Y-52552021D01*
X154825990Y-52552021D02*
X154873609Y-52552021D01*
X154587895Y-52242497D02*
X154564085Y-52290116D01*
X154564085Y-52290116D02*
X154540276Y-52313926D01*
X154540276Y-52313926D02*
X154492657Y-52337735D01*
X154492657Y-52337735D02*
X154468847Y-52337735D01*
X154468847Y-52337735D02*
X154421228Y-52313926D01*
X154421228Y-52313926D02*
X154397419Y-52290116D01*
X154397419Y-52290116D02*
X154373609Y-52242497D01*
X154373609Y-52242497D02*
X154373609Y-52147259D01*
X154373609Y-52147259D02*
X154397419Y-52099640D01*
X154397419Y-52099640D02*
X154421228Y-52075831D01*
X154421228Y-52075831D02*
X154468847Y-52052021D01*
X154468847Y-52052021D02*
X154492657Y-52052021D01*
X154492657Y-52052021D02*
X154540276Y-52075831D01*
X154540276Y-52075831D02*
X154564085Y-52099640D01*
X154564085Y-52099640D02*
X154587895Y-52147259D01*
X154587895Y-52147259D02*
X154587895Y-52242497D01*
X154587895Y-52242497D02*
X154611704Y-52290116D01*
X154611704Y-52290116D02*
X154635514Y-52313926D01*
X154635514Y-52313926D02*
X154683133Y-52337735D01*
X154683133Y-52337735D02*
X154778371Y-52337735D01*
X154778371Y-52337735D02*
X154825990Y-52313926D01*
X154825990Y-52313926D02*
X154849800Y-52290116D01*
X154849800Y-52290116D02*
X154873609Y-52242497D01*
X154873609Y-52242497D02*
X154873609Y-52147259D01*
X154873609Y-52147259D02*
X154849800Y-52099640D01*
X154849800Y-52099640D02*
X154825990Y-52075831D01*
X154825990Y-52075831D02*
X154778371Y-52052021D01*
X154778371Y-52052021D02*
X154683133Y-52052021D01*
X154683133Y-52052021D02*
X154635514Y-52075831D01*
X154635514Y-52075831D02*
X154611704Y-52099640D01*
X154611704Y-52099640D02*
X154587895Y-52147259D01*
D11*
X178331913Y-81969671D02*
X178303342Y-81955385D01*
X178303342Y-81955385D02*
X178260484Y-81955385D01*
X178260484Y-81955385D02*
X178217627Y-81969671D01*
X178217627Y-81969671D02*
X178189056Y-81998242D01*
X178189056Y-81998242D02*
X178174770Y-82026814D01*
X178174770Y-82026814D02*
X178160484Y-82083957D01*
X178160484Y-82083957D02*
X178160484Y-82126814D01*
X178160484Y-82126814D02*
X178174770Y-82183957D01*
X178174770Y-82183957D02*
X178189056Y-82212528D01*
X178189056Y-82212528D02*
X178217627Y-82241100D01*
X178217627Y-82241100D02*
X178260484Y-82255385D01*
X178260484Y-82255385D02*
X178289056Y-82255385D01*
X178289056Y-82255385D02*
X178331913Y-82241100D01*
X178331913Y-82241100D02*
X178346199Y-82226814D01*
X178346199Y-82226814D02*
X178346199Y-82126814D01*
X178346199Y-82126814D02*
X178289056Y-82126814D01*
X178474770Y-82255385D02*
X178474770Y-81955385D01*
X178474770Y-81955385D02*
X178646199Y-82255385D01*
X178646199Y-82255385D02*
X178646199Y-81955385D01*
X178789056Y-82255385D02*
X178789056Y-81955385D01*
X178789056Y-81955385D02*
X178860485Y-81955385D01*
X178860485Y-81955385D02*
X178903342Y-81969671D01*
X178903342Y-81969671D02*
X178931913Y-81998242D01*
X178931913Y-81998242D02*
X178946199Y-82026814D01*
X178946199Y-82026814D02*
X178960485Y-82083957D01*
X178960485Y-82083957D02*
X178960485Y-82126814D01*
X178960485Y-82126814D02*
X178946199Y-82183957D01*
X178946199Y-82183957D02*
X178931913Y-82212528D01*
X178931913Y-82212528D02*
X178903342Y-82241100D01*
X178903342Y-82241100D02*
X178860485Y-82255385D01*
X178860485Y-82255385D02*
X178789056Y-82255385D01*
X177115913Y-71287385D02*
X177215913Y-71587385D01*
X177215913Y-71587385D02*
X177315913Y-71287385D01*
X177587342Y-71558814D02*
X177573056Y-71573100D01*
X177573056Y-71573100D02*
X177530199Y-71587385D01*
X177530199Y-71587385D02*
X177501627Y-71587385D01*
X177501627Y-71587385D02*
X177458770Y-71573100D01*
X177458770Y-71573100D02*
X177430199Y-71544528D01*
X177430199Y-71544528D02*
X177415913Y-71515957D01*
X177415913Y-71515957D02*
X177401627Y-71458814D01*
X177401627Y-71458814D02*
X177401627Y-71415957D01*
X177401627Y-71415957D02*
X177415913Y-71358814D01*
X177415913Y-71358814D02*
X177430199Y-71330242D01*
X177430199Y-71330242D02*
X177458770Y-71301671D01*
X177458770Y-71301671D02*
X177501627Y-71287385D01*
X177501627Y-71287385D02*
X177530199Y-71287385D01*
X177530199Y-71287385D02*
X177573056Y-71301671D01*
X177573056Y-71301671D02*
X177587342Y-71315957D01*
X177887342Y-71558814D02*
X177873056Y-71573100D01*
X177873056Y-71573100D02*
X177830199Y-71587385D01*
X177830199Y-71587385D02*
X177801627Y-71587385D01*
X177801627Y-71587385D02*
X177758770Y-71573100D01*
X177758770Y-71573100D02*
X177730199Y-71544528D01*
X177730199Y-71544528D02*
X177715913Y-71515957D01*
X177715913Y-71515957D02*
X177701627Y-71458814D01*
X177701627Y-71458814D02*
X177701627Y-71415957D01*
X177701627Y-71415957D02*
X177715913Y-71358814D01*
X177715913Y-71358814D02*
X177730199Y-71330242D01*
X177730199Y-71330242D02*
X177758770Y-71301671D01*
X177758770Y-71301671D02*
X177801627Y-71287385D01*
X177801627Y-71287385D02*
X177830199Y-71287385D01*
X177830199Y-71287385D02*
X177873056Y-71301671D01*
X177873056Y-71301671D02*
X177887342Y-71315957D01*
X178458770Y-71273100D02*
X178201627Y-71658814D01*
X178744484Y-71287385D02*
X178844484Y-71587385D01*
X178844484Y-71587385D02*
X178944484Y-71287385D01*
X179144484Y-71430242D02*
X179187341Y-71444528D01*
X179187341Y-71444528D02*
X179201627Y-71458814D01*
X179201627Y-71458814D02*
X179215913Y-71487385D01*
X179215913Y-71487385D02*
X179215913Y-71530242D01*
X179215913Y-71530242D02*
X179201627Y-71558814D01*
X179201627Y-71558814D02*
X179187341Y-71573100D01*
X179187341Y-71573100D02*
X179158770Y-71587385D01*
X179158770Y-71587385D02*
X179044484Y-71587385D01*
X179044484Y-71587385D02*
X179044484Y-71287385D01*
X179044484Y-71287385D02*
X179144484Y-71287385D01*
X179144484Y-71287385D02*
X179173056Y-71301671D01*
X179173056Y-71301671D02*
X179187341Y-71315957D01*
X179187341Y-71315957D02*
X179201627Y-71344528D01*
X179201627Y-71344528D02*
X179201627Y-71373100D01*
X179201627Y-71373100D02*
X179187341Y-71401671D01*
X179187341Y-71401671D02*
X179173056Y-71415957D01*
X179173056Y-71415957D02*
X179144484Y-71430242D01*
X179144484Y-71430242D02*
X179044484Y-71430242D01*
X179344484Y-71287385D02*
X179344484Y-71530242D01*
X179344484Y-71530242D02*
X179358770Y-71558814D01*
X179358770Y-71558814D02*
X179373056Y-71573100D01*
X179373056Y-71573100D02*
X179401627Y-71587385D01*
X179401627Y-71587385D02*
X179458770Y-71587385D01*
X179458770Y-71587385D02*
X179487341Y-71573100D01*
X179487341Y-71573100D02*
X179501627Y-71558814D01*
X179501627Y-71558814D02*
X179515913Y-71530242D01*
X179515913Y-71530242D02*
X179515913Y-71287385D01*
X179644484Y-71573100D02*
X179687342Y-71587385D01*
X179687342Y-71587385D02*
X179758770Y-71587385D01*
X179758770Y-71587385D02*
X179787342Y-71573100D01*
X179787342Y-71573100D02*
X179801627Y-71558814D01*
X179801627Y-71558814D02*
X179815913Y-71530242D01*
X179815913Y-71530242D02*
X179815913Y-71501671D01*
X179815913Y-71501671D02*
X179801627Y-71473100D01*
X179801627Y-71473100D02*
X179787342Y-71458814D01*
X179787342Y-71458814D02*
X179758770Y-71444528D01*
X179758770Y-71444528D02*
X179701627Y-71430242D01*
X179701627Y-71430242D02*
X179673056Y-71415957D01*
X179673056Y-71415957D02*
X179658770Y-71401671D01*
X179658770Y-71401671D02*
X179644484Y-71373100D01*
X179644484Y-71373100D02*
X179644484Y-71344528D01*
X179644484Y-71344528D02*
X179658770Y-71315957D01*
X179658770Y-71315957D02*
X179673056Y-71301671D01*
X179673056Y-71301671D02*
X179701627Y-71287385D01*
X179701627Y-71287385D02*
X179773056Y-71287385D01*
X179773056Y-71287385D02*
X179815913Y-71301671D01*
D10*
X123771693Y-70807609D02*
X123771693Y-71164752D01*
X123771693Y-71164752D02*
X123747884Y-71236180D01*
X123747884Y-71236180D02*
X123700265Y-71283800D01*
X123700265Y-71283800D02*
X123628836Y-71307609D01*
X123628836Y-71307609D02*
X123581217Y-71307609D01*
X123985979Y-70855228D02*
X124009788Y-70831419D01*
X124009788Y-70831419D02*
X124057407Y-70807609D01*
X124057407Y-70807609D02*
X124176455Y-70807609D01*
X124176455Y-70807609D02*
X124224074Y-70831419D01*
X124224074Y-70831419D02*
X124247883Y-70855228D01*
X124247883Y-70855228D02*
X124271693Y-70902847D01*
X124271693Y-70902847D02*
X124271693Y-70950466D01*
X124271693Y-70950466D02*
X124247883Y-71021895D01*
X124247883Y-71021895D02*
X123962169Y-71307609D01*
X123962169Y-71307609D02*
X124271693Y-71307609D01*
X124485978Y-71259990D02*
X124509788Y-71283800D01*
X124509788Y-71283800D02*
X124485978Y-71307609D01*
X124485978Y-71307609D02*
X124462169Y-71283800D01*
X124462169Y-71283800D02*
X124485978Y-71259990D01*
X124485978Y-71259990D02*
X124485978Y-71307609D01*
X124676454Y-70807609D02*
X124985978Y-70807609D01*
X124985978Y-70807609D02*
X124819311Y-70998085D01*
X124819311Y-70998085D02*
X124890740Y-70998085D01*
X124890740Y-70998085D02*
X124938359Y-71021895D01*
X124938359Y-71021895D02*
X124962168Y-71045704D01*
X124962168Y-71045704D02*
X124985978Y-71093323D01*
X124985978Y-71093323D02*
X124985978Y-71212371D01*
X124985978Y-71212371D02*
X124962168Y-71259990D01*
X124962168Y-71259990D02*
X124938359Y-71283800D01*
X124938359Y-71283800D02*
X124890740Y-71307609D01*
X124890740Y-71307609D02*
X124747883Y-71307609D01*
X124747883Y-71307609D02*
X124700264Y-71283800D01*
X124700264Y-71283800D02*
X124676454Y-71259990D01*
X151325609Y-100002306D02*
X151682752Y-100002306D01*
X151682752Y-100002306D02*
X151754180Y-100026115D01*
X151754180Y-100026115D02*
X151801800Y-100073734D01*
X151801800Y-100073734D02*
X151825609Y-100145163D01*
X151825609Y-100145163D02*
X151825609Y-100192782D01*
X151325609Y-99549925D02*
X151325609Y-99645163D01*
X151325609Y-99645163D02*
X151349419Y-99692782D01*
X151349419Y-99692782D02*
X151373228Y-99716592D01*
X151373228Y-99716592D02*
X151444657Y-99764211D01*
X151444657Y-99764211D02*
X151539895Y-99788020D01*
X151539895Y-99788020D02*
X151730371Y-99788020D01*
X151730371Y-99788020D02*
X151777990Y-99764211D01*
X151777990Y-99764211D02*
X151801800Y-99740401D01*
X151801800Y-99740401D02*
X151825609Y-99692782D01*
X151825609Y-99692782D02*
X151825609Y-99597544D01*
X151825609Y-99597544D02*
X151801800Y-99549925D01*
X151801800Y-99549925D02*
X151777990Y-99526116D01*
X151777990Y-99526116D02*
X151730371Y-99502306D01*
X151730371Y-99502306D02*
X151611323Y-99502306D01*
X151611323Y-99502306D02*
X151563704Y-99526116D01*
X151563704Y-99526116D02*
X151539895Y-99549925D01*
X151539895Y-99549925D02*
X151516085Y-99597544D01*
X151516085Y-99597544D02*
X151516085Y-99692782D01*
X151516085Y-99692782D02*
X151539895Y-99740401D01*
X151539895Y-99740401D02*
X151563704Y-99764211D01*
X151563704Y-99764211D02*
X151611323Y-99788020D01*
X151777990Y-99288021D02*
X151801800Y-99264211D01*
X151801800Y-99264211D02*
X151825609Y-99288021D01*
X151825609Y-99288021D02*
X151801800Y-99311830D01*
X151801800Y-99311830D02*
X151777990Y-99288021D01*
X151777990Y-99288021D02*
X151825609Y-99288021D01*
X151492276Y-98835640D02*
X151825609Y-98835640D01*
X151301800Y-98954688D02*
X151658942Y-99073735D01*
X151658942Y-99073735D02*
X151658942Y-98764212D01*
X146753609Y-53266306D02*
X147110752Y-53266306D01*
X147110752Y-53266306D02*
X147182180Y-53290115D01*
X147182180Y-53290115D02*
X147229800Y-53337734D01*
X147229800Y-53337734D02*
X147253609Y-53409163D01*
X147253609Y-53409163D02*
X147253609Y-53456782D01*
X147253609Y-52766306D02*
X147253609Y-53052020D01*
X147253609Y-52909163D02*
X146753609Y-52909163D01*
X146753609Y-52909163D02*
X146825038Y-52956782D01*
X146825038Y-52956782D02*
X146872657Y-53004401D01*
X146872657Y-53004401D02*
X146896466Y-53052020D01*
X147205990Y-52552021D02*
X147229800Y-52528211D01*
X147229800Y-52528211D02*
X147253609Y-52552021D01*
X147253609Y-52552021D02*
X147229800Y-52575830D01*
X147229800Y-52575830D02*
X147205990Y-52552021D01*
X147205990Y-52552021D02*
X147253609Y-52552021D01*
X147253609Y-52052021D02*
X147253609Y-52337735D01*
X147253609Y-52194878D02*
X146753609Y-52194878D01*
X146753609Y-52194878D02*
X146825038Y-52242497D01*
X146825038Y-52242497D02*
X146872657Y-52290116D01*
X146872657Y-52290116D02*
X146896466Y-52337735D01*
X147253609Y-51575831D02*
X147253609Y-51861545D01*
X147253609Y-51718688D02*
X146753609Y-51718688D01*
X146753609Y-51718688D02*
X146825038Y-51766307D01*
X146825038Y-51766307D02*
X146872657Y-51813926D01*
X146872657Y-51813926D02*
X146896466Y-51861545D01*
X161993609Y-53266306D02*
X162350752Y-53266306D01*
X162350752Y-53266306D02*
X162422180Y-53290115D01*
X162422180Y-53290115D02*
X162469800Y-53337734D01*
X162469800Y-53337734D02*
X162493609Y-53409163D01*
X162493609Y-53409163D02*
X162493609Y-53456782D01*
X162493609Y-52766306D02*
X162493609Y-53052020D01*
X162493609Y-52909163D02*
X161993609Y-52909163D01*
X161993609Y-52909163D02*
X162065038Y-52956782D01*
X162065038Y-52956782D02*
X162112657Y-53004401D01*
X162112657Y-53004401D02*
X162136466Y-53052020D01*
X162445990Y-52552021D02*
X162469800Y-52528211D01*
X162469800Y-52528211D02*
X162493609Y-52552021D01*
X162493609Y-52552021D02*
X162469800Y-52575830D01*
X162469800Y-52575830D02*
X162445990Y-52552021D01*
X162445990Y-52552021D02*
X162493609Y-52552021D01*
X161993609Y-52075831D02*
X161993609Y-52313926D01*
X161993609Y-52313926D02*
X162231704Y-52337735D01*
X162231704Y-52337735D02*
X162207895Y-52313926D01*
X162207895Y-52313926D02*
X162184085Y-52266307D01*
X162184085Y-52266307D02*
X162184085Y-52147259D01*
X162184085Y-52147259D02*
X162207895Y-52099640D01*
X162207895Y-52099640D02*
X162231704Y-52075831D01*
X162231704Y-52075831D02*
X162279323Y-52052021D01*
X162279323Y-52052021D02*
X162398371Y-52052021D01*
X162398371Y-52052021D02*
X162445990Y-52075831D01*
X162445990Y-52075831D02*
X162469800Y-52099640D01*
X162469800Y-52099640D02*
X162493609Y-52147259D01*
X162493609Y-52147259D02*
X162493609Y-52266307D01*
X162493609Y-52266307D02*
X162469800Y-52313926D01*
X162469800Y-52313926D02*
X162445990Y-52337735D01*
D12*
X164046819Y-96853333D02*
X164761104Y-96853333D01*
X164761104Y-96853333D02*
X164903961Y-96900952D01*
X164903961Y-96900952D02*
X164999200Y-96996190D01*
X164999200Y-96996190D02*
X165046819Y-97139047D01*
X165046819Y-97139047D02*
X165046819Y-97234285D01*
X164046819Y-96472380D02*
X164046819Y-95853333D01*
X164046819Y-95853333D02*
X164427771Y-96186666D01*
X164427771Y-96186666D02*
X164427771Y-96043809D01*
X164427771Y-96043809D02*
X164475390Y-95948571D01*
X164475390Y-95948571D02*
X164523009Y-95900952D01*
X164523009Y-95900952D02*
X164618247Y-95853333D01*
X164618247Y-95853333D02*
X164856342Y-95853333D01*
X164856342Y-95853333D02*
X164951580Y-95900952D01*
X164951580Y-95900952D02*
X164999200Y-95948571D01*
X164999200Y-95948571D02*
X165046819Y-96043809D01*
X165046819Y-96043809D02*
X165046819Y-96329523D01*
X165046819Y-96329523D02*
X164999200Y-96424761D01*
X164999200Y-96424761D02*
X164951580Y-96472380D01*
X126666666Y-63169819D02*
X126666666Y-63884104D01*
X126666666Y-63884104D02*
X126619047Y-64026961D01*
X126619047Y-64026961D02*
X126523809Y-64122200D01*
X126523809Y-64122200D02*
X126380952Y-64169819D01*
X126380952Y-64169819D02*
X126285714Y-64169819D01*
X127095238Y-63265057D02*
X127142857Y-63217438D01*
X127142857Y-63217438D02*
X127238095Y-63169819D01*
X127238095Y-63169819D02*
X127476190Y-63169819D01*
X127476190Y-63169819D02*
X127571428Y-63217438D01*
X127571428Y-63217438D02*
X127619047Y-63265057D01*
X127619047Y-63265057D02*
X127666666Y-63360295D01*
X127666666Y-63360295D02*
X127666666Y-63455533D01*
X127666666Y-63455533D02*
X127619047Y-63598390D01*
X127619047Y-63598390D02*
X127047619Y-64169819D01*
X127047619Y-64169819D02*
X127666666Y-64169819D01*
X190196666Y-68789819D02*
X190196666Y-69504104D01*
X190196666Y-69504104D02*
X190149047Y-69646961D01*
X190149047Y-69646961D02*
X190053809Y-69742200D01*
X190053809Y-69742200D02*
X189910952Y-69789819D01*
X189910952Y-69789819D02*
X189815714Y-69789819D01*
X191101428Y-69123152D02*
X191101428Y-69789819D01*
X190863333Y-68742200D02*
X190625238Y-69456485D01*
X190625238Y-69456485D02*
X191244285Y-69456485D01*
X166887628Y-74290190D02*
X167363819Y-74290190D01*
X166363819Y-74623523D02*
X166887628Y-74290190D01*
X166887628Y-74290190D02*
X166363819Y-73956857D01*
X167363819Y-73099714D02*
X167363819Y-73671142D01*
X167363819Y-73385428D02*
X166363819Y-73385428D01*
X166363819Y-73385428D02*
X166506676Y-73480666D01*
X166506676Y-73480666D02*
X166601914Y-73575904D01*
X166601914Y-73575904D02*
X166649533Y-73671142D01*
X125301667Y-91982200D02*
X125444524Y-92029819D01*
X125444524Y-92029819D02*
X125682619Y-92029819D01*
X125682619Y-92029819D02*
X125777857Y-91982200D01*
X125777857Y-91982200D02*
X125825476Y-91934580D01*
X125825476Y-91934580D02*
X125873095Y-91839342D01*
X125873095Y-91839342D02*
X125873095Y-91744104D01*
X125873095Y-91744104D02*
X125825476Y-91648866D01*
X125825476Y-91648866D02*
X125777857Y-91601247D01*
X125777857Y-91601247D02*
X125682619Y-91553628D01*
X125682619Y-91553628D02*
X125492143Y-91506009D01*
X125492143Y-91506009D02*
X125396905Y-91458390D01*
X125396905Y-91458390D02*
X125349286Y-91410771D01*
X125349286Y-91410771D02*
X125301667Y-91315533D01*
X125301667Y-91315533D02*
X125301667Y-91220295D01*
X125301667Y-91220295D02*
X125349286Y-91125057D01*
X125349286Y-91125057D02*
X125396905Y-91077438D01*
X125396905Y-91077438D02*
X125492143Y-91029819D01*
X125492143Y-91029819D02*
X125730238Y-91029819D01*
X125730238Y-91029819D02*
X125873095Y-91077438D01*
X126206429Y-91029819D02*
X126444524Y-92029819D01*
X126444524Y-92029819D02*
X126635000Y-91315533D01*
X126635000Y-91315533D02*
X126825476Y-92029819D01*
X126825476Y-92029819D02*
X127063572Y-91029819D01*
X127968333Y-92029819D02*
X127396905Y-92029819D01*
X127682619Y-92029819D02*
X127682619Y-91029819D01*
X127682619Y-91029819D02*
X127587381Y-91172676D01*
X127587381Y-91172676D02*
X127492143Y-91267914D01*
X127492143Y-91267914D02*
X127396905Y-91315533D01*
X166346628Y-87344190D02*
X166822819Y-87344190D01*
X165822819Y-87677523D02*
X166346628Y-87344190D01*
X166346628Y-87344190D02*
X165822819Y-87010857D01*
X165918057Y-86725142D02*
X165870438Y-86677523D01*
X165870438Y-86677523D02*
X165822819Y-86582285D01*
X165822819Y-86582285D02*
X165822819Y-86344190D01*
X165822819Y-86344190D02*
X165870438Y-86248952D01*
X165870438Y-86248952D02*
X165918057Y-86201333D01*
X165918057Y-86201333D02*
X166013295Y-86153714D01*
X166013295Y-86153714D02*
X166108533Y-86153714D01*
X166108533Y-86153714D02*
X166251390Y-86201333D01*
X166251390Y-86201333D02*
X166822819Y-86772761D01*
X166822819Y-86772761D02*
X166822819Y-86153714D01*
X161377333Y-68297580D02*
X161329714Y-68345200D01*
X161329714Y-68345200D02*
X161186857Y-68392819D01*
X161186857Y-68392819D02*
X161091619Y-68392819D01*
X161091619Y-68392819D02*
X160948762Y-68345200D01*
X160948762Y-68345200D02*
X160853524Y-68249961D01*
X160853524Y-68249961D02*
X160805905Y-68154723D01*
X160805905Y-68154723D02*
X160758286Y-67964247D01*
X160758286Y-67964247D02*
X160758286Y-67821390D01*
X160758286Y-67821390D02*
X160805905Y-67630914D01*
X160805905Y-67630914D02*
X160853524Y-67535676D01*
X160853524Y-67535676D02*
X160948762Y-67440438D01*
X160948762Y-67440438D02*
X161091619Y-67392819D01*
X161091619Y-67392819D02*
X161186857Y-67392819D01*
X161186857Y-67392819D02*
X161329714Y-67440438D01*
X161329714Y-67440438D02*
X161377333Y-67488057D01*
X162282095Y-67392819D02*
X161805905Y-67392819D01*
X161805905Y-67392819D02*
X161758286Y-67869009D01*
X161758286Y-67869009D02*
X161805905Y-67821390D01*
X161805905Y-67821390D02*
X161901143Y-67773771D01*
X161901143Y-67773771D02*
X162139238Y-67773771D01*
X162139238Y-67773771D02*
X162234476Y-67821390D01*
X162234476Y-67821390D02*
X162282095Y-67869009D01*
X162282095Y-67869009D02*
X162329714Y-67964247D01*
X162329714Y-67964247D02*
X162329714Y-68202342D01*
X162329714Y-68202342D02*
X162282095Y-68297580D01*
X162282095Y-68297580D02*
X162234476Y-68345200D01*
X162234476Y-68345200D02*
X162139238Y-68392819D01*
X162139238Y-68392819D02*
X161901143Y-68392819D01*
X161901143Y-68392819D02*
X161805905Y-68345200D01*
X161805905Y-68345200D02*
X161758286Y-68297580D01*
X144935595Y-79174819D02*
X144935595Y-79984342D01*
X144935595Y-79984342D02*
X144983214Y-80079580D01*
X144983214Y-80079580D02*
X145030833Y-80127200D01*
X145030833Y-80127200D02*
X145126071Y-80174819D01*
X145126071Y-80174819D02*
X145316547Y-80174819D01*
X145316547Y-80174819D02*
X145411785Y-80127200D01*
X145411785Y-80127200D02*
X145459404Y-80079580D01*
X145459404Y-80079580D02*
X145507023Y-79984342D01*
X145507023Y-79984342D02*
X145507023Y-79174819D01*
X146507023Y-80174819D02*
X145935595Y-80174819D01*
X146221309Y-80174819D02*
X146221309Y-79174819D01*
X146221309Y-79174819D02*
X146126071Y-79317676D01*
X146126071Y-79317676D02*
X146030833Y-79412914D01*
X146030833Y-79412914D02*
X145935595Y-79460533D01*
X141269819Y-96853333D02*
X141984104Y-96853333D01*
X141984104Y-96853333D02*
X142126961Y-96900952D01*
X142126961Y-96900952D02*
X142222200Y-96996190D01*
X142222200Y-96996190D02*
X142269819Y-97139047D01*
X142269819Y-97139047D02*
X142269819Y-97234285D01*
X141269819Y-95948571D02*
X141269819Y-96139047D01*
X141269819Y-96139047D02*
X141317438Y-96234285D01*
X141317438Y-96234285D02*
X141365057Y-96281904D01*
X141365057Y-96281904D02*
X141507914Y-96377142D01*
X141507914Y-96377142D02*
X141698390Y-96424761D01*
X141698390Y-96424761D02*
X142079342Y-96424761D01*
X142079342Y-96424761D02*
X142174580Y-96377142D01*
X142174580Y-96377142D02*
X142222200Y-96329523D01*
X142222200Y-96329523D02*
X142269819Y-96234285D01*
X142269819Y-96234285D02*
X142269819Y-96043809D01*
X142269819Y-96043809D02*
X142222200Y-95948571D01*
X142222200Y-95948571D02*
X142174580Y-95900952D01*
X142174580Y-95900952D02*
X142079342Y-95853333D01*
X142079342Y-95853333D02*
X141841247Y-95853333D01*
X141841247Y-95853333D02*
X141746009Y-95900952D01*
X141746009Y-95900952D02*
X141698390Y-95948571D01*
X141698390Y-95948571D02*
X141650771Y-96043809D01*
X141650771Y-96043809D02*
X141650771Y-96234285D01*
X141650771Y-96234285D02*
X141698390Y-96329523D01*
X141698390Y-96329523D02*
X141746009Y-96377142D01*
X141746009Y-96377142D02*
X141841247Y-96424761D01*
X134362819Y-96345333D02*
X135077104Y-96345333D01*
X135077104Y-96345333D02*
X135219961Y-96392952D01*
X135219961Y-96392952D02*
X135315200Y-96488190D01*
X135315200Y-96488190D02*
X135362819Y-96631047D01*
X135362819Y-96631047D02*
X135362819Y-96726285D01*
X134362819Y-95392952D02*
X134362819Y-95869142D01*
X134362819Y-95869142D02*
X134839009Y-95916761D01*
X134839009Y-95916761D02*
X134791390Y-95869142D01*
X134791390Y-95869142D02*
X134743771Y-95773904D01*
X134743771Y-95773904D02*
X134743771Y-95535809D01*
X134743771Y-95535809D02*
X134791390Y-95440571D01*
X134791390Y-95440571D02*
X134839009Y-95392952D01*
X134839009Y-95392952D02*
X134934247Y-95345333D01*
X134934247Y-95345333D02*
X135172342Y-95345333D01*
X135172342Y-95345333D02*
X135267580Y-95392952D01*
X135267580Y-95392952D02*
X135315200Y-95440571D01*
X135315200Y-95440571D02*
X135362819Y-95535809D01*
X135362819Y-95535809D02*
X135362819Y-95773904D01*
X135362819Y-95773904D02*
X135315200Y-95869142D01*
X135315200Y-95869142D02*
X135267580Y-95916761D01*
X174504819Y-56213333D02*
X175219104Y-56213333D01*
X175219104Y-56213333D02*
X175361961Y-56260952D01*
X175361961Y-56260952D02*
X175457200Y-56356190D01*
X175457200Y-56356190D02*
X175504819Y-56499047D01*
X175504819Y-56499047D02*
X175504819Y-56594285D01*
X175504819Y-55213333D02*
X175504819Y-55784761D01*
X175504819Y-55499047D02*
X174504819Y-55499047D01*
X174504819Y-55499047D02*
X174647676Y-55594285D01*
X174647676Y-55594285D02*
X174742914Y-55689523D01*
X174742914Y-55689523D02*
X174790533Y-55784761D01*
D13*
%TO.C,J3*%
X165675000Y-95190000D02*
X167005000Y-95190000D01*
X165675000Y-96520000D02*
X165675000Y-95190000D01*
X165675000Y-97790000D02*
X165675000Y-97850000D01*
X165675000Y-97790000D02*
X168335000Y-97790000D01*
X165675000Y-97850000D02*
X168335000Y-97850000D01*
X168335000Y-97790000D02*
X168335000Y-97850000D01*
%TO.C,J2*%
X125670000Y-64715000D02*
X127000000Y-64715000D01*
X125670000Y-66045000D02*
X125670000Y-64715000D01*
X125670000Y-67315000D02*
X125670000Y-77535000D01*
X125670000Y-67315000D02*
X128330000Y-67315000D01*
X125670000Y-77535000D02*
X128330000Y-77535000D01*
X128330000Y-67315000D02*
X128330000Y-77535000D01*
%TO.C,J4*%
X178130000Y-72475000D02*
X178130000Y-72935000D01*
X178130000Y-72475000D02*
X180230000Y-72475000D01*
X178610000Y-81195000D02*
X180230000Y-81195000D01*
X180230000Y-71435000D02*
X180230000Y-72475000D01*
X180230000Y-81195000D02*
X180230000Y-82235000D01*
X184015000Y-70725000D02*
X184285000Y-70725000D01*
X184015000Y-82945000D02*
X184285000Y-82945000D01*
%TO.C,Y1*%
X167909000Y-76939000D02*
X167909000Y-70689000D01*
X172959000Y-76939000D02*
X172959000Y-70689000D01*
X167909000Y-76939000D02*
G75*
G03*
X172959000Y-76939000I2525000J0D01*
G01*
X172959000Y-70689000D02*
G75*
G03*
X167909000Y-70689000I-2525000J0D01*
G01*
%TO.C,SW1*%
X132615000Y-90565000D02*
X120315000Y-90565000D01*
X132615000Y-87845000D02*
X132615000Y-90565000D01*
X132615000Y-82845000D02*
X132615000Y-85985000D01*
X132615000Y-78265000D02*
X132615000Y-80985000D01*
X120315000Y-90565000D02*
X120315000Y-87845000D01*
X120315000Y-85985000D02*
X120315000Y-82845000D01*
X120315000Y-80985000D02*
X120315000Y-78265000D01*
X120315000Y-78265000D02*
X132615000Y-78265000D01*
X130944050Y-84375000D02*
G75*
G03*
X121785950Y-84375000I-4579050J0D01*
G01*
X121785950Y-84375000D02*
G75*
G03*
X130944050Y-84375000I4579050J0D01*
G01*
%TO.C,Y2*%
X164868000Y-84168000D02*
X164868000Y-84558000D01*
X161268000Y-84168000D02*
X164868000Y-84168000D01*
X161268000Y-84558000D02*
X161268000Y-84168000D01*
X160568000Y-84558000D02*
X161268000Y-84558000D01*
X164868000Y-86498000D02*
X164868000Y-87238000D01*
X161268000Y-86498000D02*
X160568000Y-86498000D01*
X161268000Y-87238000D02*
X161268000Y-86498000D01*
X164868000Y-89178000D02*
X164868000Y-89568000D01*
X164868000Y-89568000D02*
X161268000Y-89568000D01*
X161268000Y-89568000D02*
X161268000Y-89178000D01*
%TO.C,C5*%
X158834000Y-70358000D02*
X159524000Y-70358000D01*
X159524000Y-68938000D02*
X159524000Y-71778000D01*
X159524000Y-71778000D02*
X163564000Y-71778000D01*
X163564000Y-68938000D02*
X159524000Y-68938000D01*
X163564000Y-71778000D02*
X163564000Y-68938000D01*
X164254000Y-70358000D02*
X163564000Y-70358000D01*
%TO.C,U1*%
X149307500Y-77480000D02*
X149307500Y-77030000D01*
X149307500Y-77030000D02*
X150597500Y-77030000D01*
X149307500Y-70260000D02*
X149307500Y-70710000D01*
X148857500Y-77480000D02*
X149307500Y-77480000D01*
X148857500Y-70260000D02*
X149307500Y-70260000D01*
X142537500Y-77480000D02*
X142087500Y-77480000D01*
X142537500Y-70260000D02*
X142087500Y-70260000D01*
X142087500Y-77480000D02*
X142087500Y-77030000D01*
X142087500Y-70260000D02*
X142087500Y-70710000D01*
%TO.C,J6*%
X142815000Y-97850000D02*
X142815000Y-96520000D01*
X144145000Y-97850000D02*
X142815000Y-97850000D01*
X145415000Y-97850000D02*
X163255000Y-97850000D01*
X145415000Y-97850000D02*
X145415000Y-95190000D01*
X163255000Y-97850000D02*
X163255000Y-95190000D01*
X145415000Y-95190000D02*
X163255000Y-95190000D01*
%TO.C,J5*%
X133908000Y-94682000D02*
X133908000Y-96012000D01*
X132578000Y-94682000D02*
X133908000Y-94682000D01*
X131308000Y-94682000D02*
X123628000Y-94682000D01*
X131308000Y-94682000D02*
X131308000Y-97342000D01*
X123628000Y-94682000D02*
X123628000Y-97342000D01*
X131308000Y-97342000D02*
X123628000Y-97342000D01*
%TO.C,J1*%
X174050000Y-54550000D02*
X174050000Y-55880000D01*
X172720000Y-54550000D02*
X174050000Y-54550000D01*
X171450000Y-54550000D02*
X130750000Y-54550000D01*
X171450000Y-54550000D02*
X171450000Y-57210000D01*
X130750000Y-54550000D02*
X130750000Y-57210000D01*
X171450000Y-57210000D02*
X130750000Y-57210000D01*
%TD*%
M02*
