%TF.GenerationSoftware,KiCad,Pcbnew,7.0.10*%
%TF.CreationDate,2024-03-02T18:49:49+09:00*%
%TF.ProjectId,STM32F103x8,53544d33-3246-4313-9033-78382e6b6963,rev?*%
%TF.SameCoordinates,Original*%
%TF.FileFunction,Soldermask,Bot*%
%TF.FilePolarity,Negative*%
%FSLAX46Y46*%
G04 Gerber Fmt 4.6, Leading zero omitted, Abs format (unit mm)*
G04 Created by KiCad (PCBNEW 7.0.10) date 2024-03-02 18:49:49*
%MOMM*%
%LPD*%
G01*
G04 APERTURE LIST*
G04 Aperture macros list*
%AMFreePoly0*
4,1,9,3.862500,-0.866500,0.737500,-0.866500,0.737500,-0.450000,-0.737500,-0.450000,-0.737500,0.450000,0.737500,0.450000,0.737500,0.866500,3.862500,0.866500,3.862500,-0.866500,3.862500,-0.866500,$1*%
G04 Aperture macros list end*
%ADD10R,1.700000X1.700000*%
%ADD11O,1.700000X1.700000*%
%ADD12C,1.100000*%
%ADD13O,3.200000X1.300000*%
%ADD14C,1.500000*%
%ADD15O,3.048000X1.850000*%
%ADD16C,1.600000*%
%ADD17O,1.600000X1.600000*%
%ADD18R,0.900000X1.300000*%
%ADD19FreePoly0,90.000000*%
G04 APERTURE END LIST*
D10*
%TO.C,J3*%
X167005000Y-96520000D03*
%TD*%
%TO.C,J2*%
X127000000Y-66045000D03*
D11*
X127000000Y-68585000D03*
X127000000Y-71125000D03*
X127000000Y-73665000D03*
X127000000Y-76205000D03*
%TD*%
D12*
%TO.C,J4*%
X182155000Y-74585000D03*
X182155000Y-79085000D03*
D13*
X182155000Y-70985000D03*
X182155000Y-82685000D03*
%TD*%
D14*
%TO.C,Y1*%
X170434000Y-76254000D03*
X170434000Y-71374000D03*
%TD*%
D15*
%TO.C,SW1*%
X132715000Y-86915000D03*
X120215000Y-86915000D03*
X132715000Y-81915000D03*
X120215000Y-81915000D03*
%TD*%
D16*
%TO.C,C5*%
X157794000Y-70358000D03*
D17*
X165294000Y-70358000D03*
%TD*%
D10*
%TO.C,J6*%
X144145000Y-96520000D03*
D11*
X146685000Y-96520000D03*
X149225000Y-96520000D03*
X151765000Y-96520000D03*
X154305000Y-96520000D03*
X156845000Y-96520000D03*
X159385000Y-96520000D03*
X161925000Y-96520000D03*
%TD*%
D10*
%TO.C,J5*%
X132578000Y-96012000D03*
D11*
X130038000Y-96012000D03*
X127498000Y-96012000D03*
X124958000Y-96012000D03*
%TD*%
D10*
%TO.C,J1*%
X172720000Y-55880000D03*
D11*
X170180000Y-55880000D03*
X167640000Y-55880000D03*
X165100000Y-55880000D03*
X162560000Y-55880000D03*
X160020000Y-55880000D03*
X157480000Y-55880000D03*
X154940000Y-55880000D03*
X152400000Y-55880000D03*
X149860000Y-55880000D03*
X147320000Y-55880000D03*
X144780000Y-55880000D03*
X142240000Y-55880000D03*
X139700000Y-55880000D03*
X137160000Y-55880000D03*
X134620000Y-55880000D03*
X132080000Y-55880000D03*
%TD*%
D16*
%TO.C,C3*%
X165294000Y-74930000D03*
D17*
X157794000Y-74930000D03*
%TD*%
D16*
%TO.C,C2*%
X170628000Y-82550000D03*
D17*
X163128000Y-82550000D03*
%TD*%
D16*
%TO.C,C4*%
X165294000Y-78232000D03*
D17*
X157794000Y-78232000D03*
%TD*%
D16*
%TO.C,C1*%
X172406000Y-91440000D03*
D17*
X164906000Y-91440000D03*
%TD*%
D18*
%TO.C,U2*%
X174728000Y-64815000D03*
D19*
X173228000Y-64727500D03*
D18*
X171728000Y-64815000D03*
%TD*%
M02*
