%TF.GenerationSoftware,KiCad,Pcbnew,7.0.10*%
%TF.CreationDate,2024-03-02T18:49:49+09:00*%
%TF.ProjectId,STM32F103x8,53544d33-3246-4313-9033-78382e6b6963,rev?*%
%TF.SameCoordinates,Original*%
%TF.FileFunction,Paste,Top*%
%TF.FilePolarity,Positive*%
%FSLAX46Y46*%
G04 Gerber Fmt 4.6, Leading zero omitted, Abs format (unit mm)*
G04 Created by KiCad (PCBNEW 7.0.10) date 2024-03-02 18:49:49*
%MOMM*%
%LPD*%
G01*
G04 APERTURE LIST*
G04 Aperture macros list*
%AMRoundRect*
0 Rectangle with rounded corners*
0 $1 Rounding radius*
0 $2 $3 $4 $5 $6 $7 $8 $9 X,Y pos of 4 corners*
0 Add a 4 corners polygon primitive as box body*
4,1,4,$2,$3,$4,$5,$6,$7,$8,$9,$2,$3,0*
0 Add four circle primitives for the rounded corners*
1,1,$1+$1,$2,$3*
1,1,$1+$1,$4,$5*
1,1,$1+$1,$6,$7*
1,1,$1+$1,$8,$9*
0 Add four rect primitives between the rounded corners*
20,1,$1+$1,$2,$3,$4,$5,0*
20,1,$1+$1,$4,$5,$6,$7,0*
20,1,$1+$1,$6,$7,$8,$9,0*
20,1,$1+$1,$8,$9,$2,$3,0*%
G04 Aperture macros list end*
%ADD10RoundRect,0.300000X-0.700000X-0.300000X0.700000X-0.300000X0.700000X0.300000X-0.700000X0.300000X0*%
%ADD11R,1.800000X1.540000*%
%ADD12RoundRect,0.075000X0.662500X0.075000X-0.662500X0.075000X-0.662500X-0.075000X0.662500X-0.075000X0*%
%ADD13RoundRect,0.075000X0.075000X0.662500X-0.075000X0.662500X-0.075000X-0.662500X0.075000X-0.662500X0*%
G04 APERTURE END LIST*
D10*
%TO.C,J4*%
X179555000Y-73335000D03*
X179555000Y-75835000D03*
X179555000Y-77835000D03*
X179555000Y-80335000D03*
%TD*%
D11*
%TO.C,Y2*%
X161668000Y-85528000D03*
X161668000Y-88208000D03*
X164468000Y-88208000D03*
X164468000Y-85528000D03*
%TD*%
D12*
%TO.C,U1*%
X149860000Y-76620000D03*
X149860000Y-76120000D03*
X149860000Y-75620000D03*
X149860000Y-75120000D03*
X149860000Y-74620000D03*
X149860000Y-74120000D03*
X149860000Y-73620000D03*
X149860000Y-73120000D03*
X149860000Y-72620000D03*
X149860000Y-72120000D03*
X149860000Y-71620000D03*
X149860000Y-71120000D03*
D13*
X148447500Y-69707500D03*
X147947500Y-69707500D03*
X147447500Y-69707500D03*
X146947500Y-69707500D03*
X146447500Y-69707500D03*
X145947500Y-69707500D03*
X145447500Y-69707500D03*
X144947500Y-69707500D03*
X144447500Y-69707500D03*
X143947500Y-69707500D03*
X143447500Y-69707500D03*
X142947500Y-69707500D03*
D12*
X141535000Y-71120000D03*
X141535000Y-71620000D03*
X141535000Y-72120000D03*
X141535000Y-72620000D03*
X141535000Y-73120000D03*
X141535000Y-73620000D03*
X141535000Y-74120000D03*
X141535000Y-74620000D03*
X141535000Y-75120000D03*
X141535000Y-75620000D03*
X141535000Y-76120000D03*
X141535000Y-76620000D03*
D13*
X142947500Y-78032500D03*
X143447500Y-78032500D03*
X143947500Y-78032500D03*
X144447500Y-78032500D03*
X144947500Y-78032500D03*
X145447500Y-78032500D03*
X145947500Y-78032500D03*
X146447500Y-78032500D03*
X146947500Y-78032500D03*
X147447500Y-78032500D03*
X147947500Y-78032500D03*
X148447500Y-78032500D03*
%TD*%
M02*
